<?xml version="1.0" encoding="UTF-8" standalone="no"?>
<!-- Created with Inkscape (http://www.inkscape.org/) -->

<svg
   version="1.1"
   id="svg1"
   width="1384.6154"
   height="1942.3077"
   viewBox="0 0 1384.6154 1942.3077"
   sodipodi:docname="2.svg"
   inkscape:version="1.4.2 (ebf0e940d0, 2025-05-08)"
   xmlns:inkscape="http://www.inkscape.org/namespaces/inkscape"
   xmlns:sodipodi="http://sodipodi.sourceforge.net/DTD/sodipodi-0.dtd"
   xmlns="http://www.w3.org/2000/svg"
   xmlns:svg="http://www.w3.org/2000/svg">
  <defs
     id="defs1">
    <inkscape:path-effect
       effect="bspline"
       id="path-effect37"
       is_visible="true"
       lpeversion="1.3"
       weight="33.333333"
       steps="2"
       helper_size="0"
       apply_no_weight="true"
       apply_with_weight="true"
       only_selected="false"
       uniform="false" />
    <inkscape:path-effect
       effect="bspline"
       id="path-effect36"
       is_visible="true"
       lpeversion="1.3"
       weight="33.333333"
       steps="2"
       helper_size="0"
       apply_no_weight="true"
       apply_with_weight="true"
       only_selected="false"
       uniform="false" />
    <inkscape:path-effect
       effect="bspline"
       id="path-effect35"
       is_visible="true"
       lpeversion="1.3"
       weight="33.333333"
       steps="2"
       helper_size="0"
       apply_no_weight="true"
       apply_with_weight="true"
       only_selected="false"
       uniform="false" />
    <inkscape:path-effect
       effect="bspline"
       id="path-effect34"
       is_visible="true"
       lpeversion="1.3"
       weight="33.333333"
       steps="2"
       helper_size="0"
       apply_no_weight="true"
       apply_with_weight="true"
       only_selected="false"
       uniform="false" />
    <inkscape:path-effect
       effect="bspline"
       id="path-effect33"
       is_visible="true"
       lpeversion="1.3"
       weight="33.333333"
       steps="2"
       helper_size="0"
       apply_no_weight="true"
       apply_with_weight="true"
       only_selected="false"
       uniform="false" />
    <inkscape:path-effect
       effect="bspline"
       id="path-effect32"
       is_visible="true"
       lpeversion="1.3"
       weight="33.333333"
       steps="2"
       helper_size="0"
       apply_no_weight="true"
       apply_with_weight="true"
       only_selected="false"
       uniform="false" />
    <inkscape:path-effect
       effect="bspline"
       id="path-effect31"
       is_visible="true"
       lpeversion="1.3"
       weight="33.333333"
       steps="2"
       helper_size="0"
       apply_no_weight="true"
       apply_with_weight="true"
       only_selected="false"
       uniform="false" />
    <inkscape:path-effect
       effect="bspline"
       id="path-effect30"
       is_visible="true"
       lpeversion="1.3"
       weight="33.333333"
       steps="2"
       helper_size="0"
       apply_no_weight="true"
       apply_with_weight="true"
       only_selected="false"
       uniform="false" />
    <inkscape:path-effect
       effect="bspline"
       id="path-effect29"
       is_visible="true"
       lpeversion="1.3"
       weight="33.333333"
       steps="2"
       helper_size="0"
       apply_no_weight="true"
       apply_with_weight="true"
       only_selected="false"
       uniform="false" />
    <inkscape:path-effect
       effect="bspline"
       id="path-effect28"
       is_visible="true"
       lpeversion="1.3"
       weight="33.333333"
       steps="2"
       helper_size="0"
       apply_no_weight="true"
       apply_with_weight="true"
       only_selected="false"
       uniform="false" />
    <inkscape:path-effect
       effect="bspline"
       id="path-effect27"
       is_visible="true"
       lpeversion="1.3"
       weight="33.333333"
       steps="2"
       helper_size="0"
       apply_no_weight="true"
       apply_with_weight="true"
       only_selected="false"
       uniform="false" />
    <inkscape:path-effect
       effect="bspline"
       id="path-effect26"
       is_visible="true"
       lpeversion="1.3"
       weight="33.333333"
       steps="2"
       helper_size="0"
       apply_no_weight="true"
       apply_with_weight="true"
       only_selected="false"
       uniform="false" />
    <inkscape:path-effect
       effect="bspline"
       id="path-effect25"
       is_visible="true"
       lpeversion="1.3"
       weight="33.333333"
       steps="2"
       helper_size="0"
       apply_no_weight="true"
       apply_with_weight="true"
       only_selected="false"
       uniform="false" />
    <inkscape:path-effect
       effect="bspline"
       id="path-effect24"
       is_visible="true"
       lpeversion="1.3"
       weight="33.333333"
       steps="2"
       helper_size="0"
       apply_no_weight="true"
       apply_with_weight="true"
       only_selected="false"
       uniform="false" />
    <inkscape:path-effect
       effect="bspline"
       id="path-effect23"
       is_visible="true"
       lpeversion="1.3"
       weight="33.333333"
       steps="2"
       helper_size="0"
       apply_no_weight="true"
       apply_with_weight="true"
       only_selected="false"
       uniform="false" />
    <inkscape:path-effect
       effect="bspline"
       id="path-effect22"
       is_visible="true"
       lpeversion="1.3"
       weight="33.333333"
       steps="2"
       helper_size="0"
       apply_no_weight="true"
       apply_with_weight="true"
       only_selected="false"
       uniform="false" />
    <inkscape:path-effect
       effect="bspline"
       id="path-effect21"
       is_visible="true"
       lpeversion="1.3"
       weight="33.333333"
       steps="2"
       helper_size="0"
       apply_no_weight="true"
       apply_with_weight="true"
       only_selected="false"
       uniform="false" />
    <inkscape:path-effect
       effect="bspline"
       id="path-effect20"
       is_visible="true"
       lpeversion="1.3"
       weight="33.333333"
       steps="2"
       helper_size="0"
       apply_no_weight="true"
       apply_with_weight="true"
       only_selected="false"
       uniform="false" />
    <inkscape:path-effect
       effect="bspline"
       id="path-effect19"
       is_visible="true"
       lpeversion="1.3"
       weight="33.333333"
       steps="2"
       helper_size="0"
       apply_no_weight="true"
       apply_with_weight="true"
       only_selected="false"
       uniform="false" />
    <inkscape:path-effect
       effect="bspline"
       id="path-effect18"
       is_visible="true"
       lpeversion="1.3"
       weight="33.333333"
       steps="2"
       helper_size="0"
       apply_no_weight="true"
       apply_with_weight="true"
       only_selected="false"
       uniform="false" />
    <inkscape:path-effect
       effect="bspline"
       id="path-effect17"
       is_visible="true"
       lpeversion="1.3"
       weight="33.333333"
       steps="2"
       helper_size="0"
       apply_no_weight="true"
       apply_with_weight="true"
       only_selected="false"
       uniform="false" />
    <inkscape:path-effect
       effect="bspline"
       id="path-effect16"
       is_visible="true"
       lpeversion="1.3"
       weight="33.333333"
       steps="2"
       helper_size="0"
       apply_no_weight="true"
       apply_with_weight="true"
       only_selected="false"
       uniform="false" />
    <inkscape:path-effect
       effect="bspline"
       id="path-effect15"
       is_visible="true"
       lpeversion="1.3"
       weight="33.333333"
       steps="2"
       helper_size="0"
       apply_no_weight="true"
       apply_with_weight="true"
       only_selected="false"
       uniform="false" />
    <inkscape:path-effect
       effect="bspline"
       id="path-effect14"
       is_visible="true"
       lpeversion="1.3"
       weight="33.333333"
       steps="2"
       helper_size="0"
       apply_no_weight="true"
       apply_with_weight="true"
       only_selected="false"
       uniform="false" />
    <inkscape:path-effect
       effect="bspline"
       id="path-effect13"
       is_visible="true"
       lpeversion="1.3"
       weight="33.333333"
       steps="2"
       helper_size="0"
       apply_no_weight="true"
       apply_with_weight="true"
       only_selected="false"
       uniform="false" />
    <inkscape:path-effect
       effect="bspline"
       id="path-effect12"
       is_visible="true"
       lpeversion="1.3"
       weight="33.333333"
       steps="2"
       helper_size="0"
       apply_no_weight="true"
       apply_with_weight="true"
       only_selected="false"
       uniform="false" />
    <inkscape:path-effect
       effect="bspline"
       id="path-effect11"
       is_visible="true"
       lpeversion="1.3"
       weight="33.333333"
       steps="2"
       helper_size="0"
       apply_no_weight="true"
       apply_with_weight="true"
       only_selected="false"
       uniform="false" />
    <inkscape:path-effect
       effect="bspline"
       id="path-effect10"
       is_visible="true"
       lpeversion="1.3"
       weight="33.333333"
       steps="2"
       helper_size="0"
       apply_no_weight="true"
       apply_with_weight="true"
       only_selected="false"
       uniform="false" />
    <inkscape:path-effect
       effect="bspline"
       id="path-effect9"
       is_visible="true"
       lpeversion="1.3"
       weight="33.333333"
       steps="2"
       helper_size="0"
       apply_no_weight="true"
       apply_with_weight="true"
       only_selected="false"
       uniform="false" />
    <inkscape:path-effect
       effect="bspline"
       id="path-effect8"
       is_visible="true"
       lpeversion="1.3"
       weight="33.333333"
       steps="2"
       helper_size="0"
       apply_no_weight="true"
       apply_with_weight="true"
       only_selected="false"
       uniform="false" />
    <inkscape:path-effect
       effect="bspline"
       id="path-effect7"
       is_visible="true"
       lpeversion="1.3"
       weight="33.333333"
       steps="2"
       helper_size="0"
       apply_no_weight="true"
       apply_with_weight="true"
       only_selected="false"
       uniform="false" />
    <inkscape:path-effect
       effect="bspline"
       id="path-effect6"
       is_visible="true"
       lpeversion="1.3"
       weight="33.333333"
       steps="2"
       helper_size="0"
       apply_no_weight="true"
       apply_with_weight="true"
       only_selected="false"
       uniform="false" />
    <inkscape:path-effect
       effect="bspline"
       id="path-effect5"
       is_visible="true"
       lpeversion="1.3"
       weight="33.333333"
       steps="2"
       helper_size="0"
       apply_no_weight="true"
       apply_with_weight="true"
       only_selected="false"
       uniform="false" />
    <inkscape:path-effect
       effect="bspline"
       id="path-effect4"
       is_visible="true"
       lpeversion="1.3"
       weight="33.333333"
       steps="2"
       helper_size="0"
       apply_no_weight="true"
       apply_with_weight="true"
       only_selected="false"
       uniform="false" />
    <inkscape:path-effect
       effect="bspline"
       id="path-effect3"
       is_visible="true"
       lpeversion="1.3"
       weight="33.333333"
       steps="2"
       helper_size="0"
       apply_no_weight="true"
       apply_with_weight="true"
       only_selected="false"
       uniform="false" />
    <inkscape:path-effect
       effect="bspline"
       id="path-effect2"
       is_visible="true"
       lpeversion="1.3"
       weight="33.333333"
       steps="2"
       helper_size="0"
       apply_no_weight="true"
       apply_with_weight="true"
       only_selected="false"
       uniform="false" />
    <inkscape:path-effect
       effect="bspline"
       id="path-effect1"
       is_visible="true"
       lpeversion="1.3"
       weight="33.333333"
       steps="2"
       helper_size="0"
       apply_no_weight="true"
       apply_with_weight="true"
       only_selected="false"
       uniform="false" />
    <inkscape:path-effect
       effect="bspline"
       id="path-effect12-7"
       is_visible="true"
       lpeversion="1.3"
       weight="33.333333"
       steps="2"
       helper_size="0"
       apply_no_weight="true"
       apply_with_weight="true"
       only_selected="false"
       uniform="false" />
    <inkscape:path-effect
       effect="bspline"
       id="path-effect11-5"
       is_visible="true"
       lpeversion="1.3"
       weight="33.333333"
       steps="2"
       helper_size="0"
       apply_no_weight="true"
       apply_with_weight="true"
       only_selected="false"
       uniform="false" />
  </defs>
  <sodipodi:namedview
     id="namedview1"
     pagecolor="#ffffff"
     bordercolor="#000000"
     borderopacity="0.25"
     inkscape:showpageshadow="2"
     inkscape:pageopacity="0.0"
     inkscape:pagecheckerboard="0"
     inkscape:deskcolor="#d1d1d1"
     showgrid="false"
     inkscape:zoom="0.26"
     inkscape:cx="640.38462"
     inkscape:cy="765.38462"
     inkscape:window-width="1920"
     inkscape:window-height="1011"
     inkscape:window-x="0"
     inkscape:window-y="0"
     inkscape:window-maximized="1"
     inkscape:current-layer="layer1" />
  <g
     inkscape:groupmode="layer"
     id="layer1"
     inkscape:label="Layer 1"
     transform="translate(-612.15454,-1432.301)">
    <path
       style="opacity:1;fill:#ff0000;stroke-width:7.825;stroke-linecap:round;stroke-linejoin:round;paint-order:markers fill stroke"
       d="m 1489.9461,1968.8705 -15.3226,31.8549 2.4193,8.0645 21.371,12.9032 50,25.8064 11.6936,4.0323 14.5161,-2.8226 11.2903,-9.6774 4.0323,-12.0968 -2.4194,-13.3064 -9.2742,-11.2903 -41.5322,-28.2258 -25,-10.8871 -13.3065,1.2096 z"
       id="path51" />
    <path
       style="opacity:1;fill:#ff0000;stroke-width:7.825;stroke-linecap:round;stroke-linejoin:round;paint-order:markers fill stroke"
       d="m 1413.7674,2120.8866 c 1.737,-0.9925 10.1737,-4.7146 10.1737,-4.7146 l 82.8784,35.2357 7.9405,8.1886 -8.1886,9.1812 -9.4293,2.2332 -85.3598,-35.9801 -0.7444,-6.9479 z"
       id="path50" />
    <path
       style="opacity:1;fill:#ff0000;stroke-width:7.825;stroke-linecap:round;stroke-linejoin:round;paint-order:markers fill stroke"
       d="m 1367.6136,2274.9809 6.4516,-3.2258 57.3201,14.3921 35.4838,17.6179 -2.7295,9.4292 -13.8958,6.6998 -28.5359,-4.9628 -48.6353,-12.9032 -4.9628,-8.1886 -1.7369,-10.1737 z"
       id="path49" />
    <path
       style="opacity:1;fill:#ffcc00;stroke-width:7.825;stroke-linecap:round;stroke-linejoin:round;paint-order:markers fill stroke"
       d="m 839.51968,1966.7617 c 0,0 1.14943,41.6667 0.28736,43.6782 -0.86207,2.0114 8.33333,50 8.33333,50 l 5.45977,-2.0115 30.17241,-28.4483 27.87357,-10.9196 10.6322,-0.2873 33.046,10.3448 31.0344,13.2184 21.26438,3.1609 18.9655,-4.885 17.8161,-17.5288 c 0,0 12.069,-16.954 13.2184,-17.8161 1.1494,-0.862 10.0575,-4.023 10.0575,-4.023 l 6.6092,0.2874 16.3793,-55.4598 -15.8046,-3.7356 -24.4253,-7.4713 -10.0575,3.161 -7.4712,4.885 -6.0345,28.7356 -4.3104,4.8851 -6.8965,2.5862 -29.88508,-7.7586 -54.885,-16.6667 -29.31037,-2.2988 -33.90805,1.7241 z"
       id="path48" />
    <path
       id="path47"
       style="display:inline;opacity:1;fill:#008000;stroke-width:7.825;stroke-linecap:round;stroke-linejoin:round;paint-order:markers fill stroke"
       d="m 1070.9895,2000.3365 c -2.6202,0.063 -12.2168,4.3555 -12.2168,4.3555 l -12.9316,15.2304 -14.3672,17.2422 -11.7812,6.8965 -12.9317,-0.2871 -18.10348,0.8613 -32.4707,-15.8047 -24.1387,-8.334 h -24.13669 l -15.51758,5.461 -14.08203,9.1953 -18.96484,16.9531 -4.59766,6.3223 -6.03516,7.1836 6.03516,24.1387 13.21875,38.5058 12.73437,22.8145 v 0 c -0.5097,2.0794 1.63282,7.9297 1.63282,7.9297 0,0 61.49386,87.0688 61.78126,88.793 0.2873,1.7241 9.7715,11.7832 9.7715,11.7832 l 8.0449,-54.0235 14.9434,-28.7363 31.03508,-17.8164 16.666,-7.4707 7.4707,-29.0234 12.9317,-26.1485 -0.098,-0.084 3.2578,-6.2382 10.6328,-15.5176 2.0118,-8.334 c 0,0 1.4362,-23.5622 2.873,-23.8496 1.4368,-0.2874 9.7695,-38.2188 9.7695,-38.2188 0,0 -0.2875,-3.1596 -2.0117,-3.7343 -0.1077,-0.036 -0.2511,-0.051 -0.4258,-0.047 z" />
    <path
       style="opacity:1;fill:#ff0000;stroke-width:7.825;stroke-linecap:round;stroke-linejoin:round;paint-order:markers fill stroke"
       d="m 1020.8415,2152.9686 -23.85058,11.7816 -17.2413,9.7701 -10.6322,14.9425 -10.3449,33.9081 -4.3103,37.6437 34.4828,43.1034 31.32178,40.5172 c 0,0 0.2873,0.5748 1.4368,0.2874 1.1494,-0.2874 1.4368,-10.3448 1.4368,-10.3448 l -2.2989,-57.1839 -0.8621,-53.7357 0.2874,-37.0689 0.8621,-28.161 z"
       id="path46" />
    <path
       style="opacity:1;fill:#ffcc00;stroke-width:7.825;stroke-linecap:round;stroke-linejoin:round;paint-order:markers fill stroke"
       d="m 1043.5289,2098.0651 -17.0667,38.9334 -5.8667,44.2666 1.0667,58.4 0.2667,111.2 14.9333,39.7334 19.4667,41.3333 23.2,33.0667 32.8,35.2 39.7333,26.4 33.8667,16.2666 29.3333,5.8667 30.6667,-1.0667 34.4,-11.7333 17.3333,-18.4 8.8,-24.5333 3.7333,-28.5334 -4.2666,-21.8666 -11.7334,4.8 -33.6,11.7333 c 0,0 -25.3333,1.6 -26.6666,1.6 -1.3334,0 -22.6667,-4 -22.6667,-4 l -22.6667,-13.6 -28,-27.2 -49.3333,-66.9333 -26.1333,-47.7334 c 0,0 -28.8,-96.2666 -27.7334,-96.2666 1.0667,0 -9.3333,-67.4667 -8.8,-68.5334 0.5334,-1.0666 -5.0666,-38.4 -5.0666,-38.4 z"
       id="path45" />
    <path
       style="opacity:1;fill:#008000;stroke-width:7.825;stroke-linecap:round;stroke-linejoin:round;paint-order:markers fill stroke"
       d="m 1047.5143,2118.4053 -1.9851,-21.8363 8.4367,-16.8734 34.9876,-37.469 c 0,0 42.1836,-28.536 43.6725,-28.536 1.4888,0 14.6402,-6.2035 14.6402,-6.2035 l 2.7295,9.1812 25.8064,51.6129 12.407,39.7022 6.2035,65.5087 5.459,60.794 12.1588,32.7544 20.3474,29.0322 25.0621,16.8735 23.5732,6.6997 20.5955,-3.2258 20.0993,-11.4144 2.2332,5.4591 -2.7295,15.6328 6.2034,31.7617 0.2482,32.01 -4.2184,20.3474 c 0,0 -12.1588,28.7841 -13.3995,29.7766 -1.2407,0.9926 -11.6625,6.2035 -12.6551,6.6998 -0.9925,0.4963 -36.4764,12.4069 -36.4764,12.4069 l -30.0248,2.2333 -29.0323,-7.6923 -29.0322,-24.0695 -47.6427,-57.072 -29.2804,-47.8907 -29.0322,-75.1862 -15.3847,-83.6228 z"
       id="path44"
       sodipodi:nodetypes="ccccscccccccccccccccccssccccccccc" />
    <path
       style="opacity:1;fill:#ff0000;stroke-width:7.825;stroke-linecap:round;stroke-linejoin:round;paint-order:markers fill stroke"
       d="m 1149.0031,2006.9909 55.5832,-15.8809 9.6774,6.4516 40.9429,28.536 56.8238,27.5434 23.5732,8.933 16.6253,4.7146 -10.6699,27.0472 -14.8884,63.5235 -2.4814,33.2507 -0.7444,45.1613 3.474,55.8312 -2.9777,9.4293 c 0,0 -6.9479,7.4442 -8.4367,8.1886 -1.4889,0.7444 -16.8735,7.9404 -16.8735,7.9404 l -18.6104,1.9851 -23.8213,-5.7072 -27.7916,-21.588 -17.3697,-25.3102 -12.1588,-38.2134 -2.7296,-49.6278 -7.4441,-65.0124 -6.4516,-30.5211 -18.3623,-36.7246 c 0,0 -13.8958,-31.2655 -13.8958,-32.258 0,-0.9926 -0.9926,-7.6923 -0.9926,-7.6923 z"
       id="path43" />
    <path
       style="opacity:1;fill:#ff0000;stroke-width:7.825;stroke-linecap:round;stroke-linejoin:round;paint-order:markers fill stroke"
       d="m 1124.4374,1872.7477 8.6848,-12.1588 4.2184,7.9404 43.1762,92.5559 20.3474,22.8287 0.2481,8.4368 c 0,0 -12.1588,3.9702 -13.1514,3.9702 -0.9925,0 -38.2133,10.9181 -38.2133,10.9181 l -29.2804,12.6551 -36.9728,26.0546 -22.3325,27.2953 c 0,0 -0.7444,-6.6998 -0.7444,-7.6923 0,-0.9926 6.2035,-38.9579 6.2035,-38.9579 l 10.4218,-39.7022 13.1514,-43.1762 16.8734,-35.9801 14.6403,-32.7544 z"
       id="path42" />
    <path
       style="opacity:1;fill:#2a7fff;stroke-width:7.825;stroke-linecap:round;stroke-linejoin:round;paint-order:markers fill stroke"
       d="m 1330.6409,2027.0901 33.7469,16.6253 3.722,4.9628 c 0,0 -1.9851,5.2109 -3.2258,5.7072 -1.2407,0.4963 -14.392,15.3846 -14.392,15.3846 l -19.3549,-9.6774 -61.0422,-25.3102 -55.0868,-34.9876 -21.34,-19.6029 c 0,0 -24.8138,-37.469 -24.8138,-38.7097 0,-1.2407 -21.5881,-48.3871 -21.5881,-48.3871 l -13.6477,-33.4988 c 0,0 8.933,-14.392 9.9256,-15.1365 0.9925,-0.7444 14.392,-14.6402 14.392,-14.6402 l 7.4442,3.7221 11.9107,36.2283 24.8139,56.3276 25.8064,35.4838 30.273,29.0323 29.2804,18.3623 z"
       id="path41" />
    <path
       style="opacity:1;fill:#ff0000;stroke-width:7.825;stroke-linecap:round;stroke-linejoin:round;paint-order:markers fill stroke"
       d="m 1328.2327,1681.8597 -20.3279,21.6393 -11.1475,36.7213 -2.9508,57.3771 3.2786,46.2295 10.4918,40.9836 21.9673,64.5901 11.8032,58.0328 3.6066,24.5902 7.541,5.5738 15.4098,6.8852 6.2295,-0.3278 19.3443,-22.623 37.7049,-44.5902 c 0,0 15.082,-18.0327 17.3771,-20.6557 2.295,-2.6229 25.2459,-50.1639 25.2459,-50.1639 l 33.7704,-67.8689 10.164,-32.459 5.2459,-48.8525 -0.3279,-44.918 -7.8688,-34.0984 -12.7869,-17.0491 -6.5574,-4.9181 -21.9672,-1.6393 -23.2787,3.6065 -18.0328,-1.9672 -26.8852,-1.9672 -27.8689,4.5902 -26.8852,9.8361 z"
       id="path40" />
    <path
       style="opacity:1;fill:#f4eed7;stroke-width:7.825;stroke-linecap:round;stroke-linejoin:round;paint-order:markers fill stroke"
       d="m 1857.8468,1707.9933 c 0.7692,0.3077 11.6923,6 12.3077,4.9231 0.6154,-1.0769 6.9231,-4.4615 6.9231,-4.4615 l 2.4615,-13.8462 c 0,0 -6.3077,-1.5384 -7.5384,-1.5384 -1.2308,0 -6.7693,3.5384 -6.7693,3.5384 l -5.6923,7.3846 z"
       id="path39" />
    <path
       id="path38"
       style="display:inline;opacity:1;fill:#ffccaa;stroke-width:7.825;stroke-linecap:round;stroke-linejoin:round;paint-order:markers fill stroke"
       d="m 949.02082,1489.2877 -38.32228,3.4004 -51.47461,4.9882 -63.03906,11.3379 -40.36133,5.6699 -0.68164,6.8028 2.94922,3.8535 c 0,0 10.43086,2.0408 11.33789,2.2676 0.90703,0.2268 -2.26758,8.164 -2.26758,8.164 0,0 2.26739,5.6692 2.49414,6.5762 0.22676,0.9071 7.25586,4.7617 7.25586,4.7617 l 13.60547,1.8145 75.05664,-11.5645 2.04101,3.4004 -3.6289,21.7695 -9.29688,20.4083 4.98828,1.8144 41.72461,-17.6875 49.20506,-13.832 20.8613,-6.5762 18.1407,-2.9473 26.75778,10.6563 45.5781,35.375 74.6035,54.6484 39.4551,26.5313 33.1074,12.4707 20.8614,4.5351 38.5488,4.0821 17.2344,4.3086 4.3086,2.041 2.5957,3.5683 c -1.9681,2.4924 -4.8633,6.5684 -4.8633,6.5684 l -29.959,27.4258 -37.3418,37.5527 -28.2695,29.3242 -20.6758,21.3086 -8.0156,7.3828 8.4375,18.9883 7.5957,26.793 11.3925,29.7461 22.9961,35.0215 20.8848,27.8476 27.2168,24.0508 45.7793,25.1055 32.2793,12.8691 5.4844,1.6895 0.8437,-4.2207 -2.1094,-16.877 -15.4004,-62.8691 -20.0429,-56.9629 -9.7031,-45.7793 -4.6426,-51.0547 0.6328,-43.0391 7.5957,-41.7715 5.4844,-7.8066 0.7285,-5.3047 13.7285,-9.5351 12.9258,-11.5645 25.1699,-11.5644 28.5703,-9.9766 35.6016,-0.2266 24.7168,2.2676 17.0058,-2.2676 -10.4297,-6.5761 -39.0019,-9.752 -40.8164,-7.0293 -34.4688,-6.1211 -27.209,-10.4316 -51.9277,-21.9961 -42.8574,-15.418 -63.9453,-17.0078 -45.125,-15.4199 -71.8828,-34.4668 -44.66998,-18.1406 z m 581.42378,168.5957 c -0.9238,0 -23.0957,1.6152 -23.0957,1.6152 0,0 -2.772,3.2344 -4.3887,4.1582 -1.6166,0.9238 12.0098,16.8594 12.0098,16.8594 0,0 6.9277,25.4043 6.9277,26.3281 0,0.9238 0.9239,48.9609 0.9239,48.9609 l -5.7735,55.8887 c 0,0 -20.0923,49.8844 -19.8613,51.9629 0.2309,2.0785 -31.1773,60.045 -32.332,61.8926 -1.1547,1.8476 -2.541,8.5469 -2.541,8.5469 0,0 29.5625,-14.0894 30.4863,-14.3204 0.9238,-0.2309 12.7012,-6.6972 12.7012,-6.6972 l 4.8496,-0.2305 -8.7754,32.1016 -5.7735,18.707 h 5.0801 l 11.7793,-0.2305 15.7031,7.6211 23.3262,12.0078 c 0,0 23.0942,15.7061 22.8633,17.0918 -0.231,1.3857 10.3926,9.9297 10.3926,9.9297 l 25.8672,-37.414 37.1816,-57.2735 15.7051,-34.873 3.0019,-26.0977 27.4824,-25.8652 4.1582,-18.4766 6.2344,-9.0058 23.0957,-8.5469 8.0821,-5.3106 0.2304,-13.3945 6.4668,-12.0098 12.7031,-9.2382 c 0,0 26.3282,-15.2423 27.252,-16.1661 0.9238,-0.9238 8.3125,-4.1562 8.3125,-4.1562 l 10.625,1.3848 10.3926,7.8515 17.5508,15.0117 24.4804,19.6309 17.0899,24.4805 c 0,0 5.775,2.7715 6.9297,2.7715 1.1548,0 9.6992,-2.5411 9.6992,-2.5411 0,0 8.3145,-0.4603 9.2383,0.2325 0.9238,0.6929 9.2382,8.7754 9.2382,8.7754 0,0 4.8492,11.3155 6.9278,13.625 2.0785,2.3094 8.084,4.8496 8.084,4.8496 0,0 1.6157,-3.6944 2.3086,-5.0801 0.6928,-1.3857 1.8476,-14.5488 1.8476,-14.5488 l -10.1621,-33.0254 -4.6191,-14.7813 1.3867,-16.6289 c 0,0 0.6914,-15.0107 1.6152,-15.4726 0.9237,-0.4619 -11.084,-5.0801 -11.084,-5.0801 l -15.0117,-3.4649 -3.9258,-5.5429 -7.1601,-3.002 -14.5489,-1.6172 c 0,0 -4.3896,-4.6187 -3.9277,-5.7734 0.4619,-1.1548 5.7749,-9.4699 6.9297,-9.9317 1.1547,-0.4619 10.3926,-3.2324 10.3926,-3.2324 l -14.7813,-13.625 -10.3926,-14.5508 c 0,0 -12.4717,-2.541 -13.8574,-2.541 -1.3856,0 -19.1679,5.3125 -19.1679,5.3125 l -13.1641,20.5547 -12.0098,0.461 -47.3437,-9.0059 c 0,0 -7.6212,-1.6168 -9.4688,-1.8477 -1.8476,-0.2309 -28.4062,-0.9238 -28.4062,-0.9238 l -40.6465,4.6191 -39.4922,1.1543 c 0,0 -28.4065,-6.6972 -33.9492,-7.621 -5.5427,-0.9237 -35.5664,-10.3926 -35.5664,-10.3926 0,0 -25.4024,-4.8496 -26.3262,-4.8496 z m -759.98239,48.3984 -24.25,1.375 -5.25,2.5 -32.125,22.75 -29.75,42.75 -4.25,17.5 0.375,46.375 5.125,50.875 9.625,50.125 11.75,47.375 17.875,59.25 22.875,75.25 24.93164,83.0039 18.24609,64.6563 4.88477,36.7812 6.4668,61.0625 10.05664,54.7422 15.23047,51.1484 9.19531,13.793 8.18945,7.9023 c 0,0 8.90733,7.4727 11.0625,7.4727 2.15517,0 9.33985,-1.957 9.33985,-1.957 l 2.44335,-9.9688 2.72852,-22.2695 -4.31055,-33.9082 -7.90234,-54.8848 -0.57422,-32.1855 14.94336,-29.7403 c 0,0 13.36218,-28.018 13.50586,-28.7363 0.14368,-0.7184 3.01562,-13.9356 3.01562,-14.9414 0,-1.0057 -2.58593,-10.6328 -2.58593,-10.6328 l -17.52735,-35.6328 -17.96093,-28.5918 -6.60938,-44.9707 -3.87891,-61.3516 -0.86132,-56.4648 2.87304,-67.959 10.20118,-5.8906 c 0,0 28.88011,-9.1962 29.74218,-9.3399 0.86207,-0.1437 38.64841,-2.2988 38.64841,-2.2988 l 26.7246,5.1719 c 0,0 27.7293,9.3393 29.1661,9.914 1.4367,0.5748 43.96678,11.7813 43.96678,11.7813 0,0 7.7576,-1.4359 8.0449,-2.1543 0.2874,-0.7184 2.5867,-6.8978 4.0234,-8.7656 1.4368,-1.8678 3.2051,-18.4102 3.2051,-18.4102 0,0 9.875,-10.875 9.875,-11.625 0,-0.75 -7.25,-11.125 -7.25,-11.125 l -40.99998,-47.5 -32.25,-34.125 -43.5,-43.375 -28.12501,-25.125 c 0,0 -50,-40 -50.375,-40.5 -0.375,-0.5 -42.125,-22.375 -42.125,-22.375 z m 702.56249,301.2383 -4.1914,7.584 -9.9805,19.9609 -33.9316,77.0449 -2.3946,4.5918 3.7911,1.9961 30.9394,11.377 28.9414,11.1777 19.7598,10.5781 4.9902,0.4004 45.1113,-84.0332 7.3848,-15.3691 -34.332,-12.9727 -26.3477,-16.5683 z m -61.4766,126.9453 -20.959,54.6914 -8.7812,35.1289 -4.5918,34.9316 -0.1992,12.375 26.1484,6.3868 49.1016,18.164 7.584,3.791 2.7949,-13.373 c 0,0 23.3531,-50.4985 23.5527,-51.2969 0.1996,-0.7984 8.582,-34.9297 8.582,-34.9297 l 4.7911,-29.9414 -10.1797,-1.5957 -39.3203,-16.3672 z m -43.5136,164.8711 -2.1954,2.7949 -11.1777,84.0313 -0.5976,4.5898 -2.9942,39.7207 -5.9883,32.3359 -1.3984,45.709 2.5957,24.75 29.7402,84.4317 40.918,84.0312 11.1777,22.7539 4.3907,1.5977 4.1933,-3.3926 2.3945,-13.373 h 3.793 l 7.9824,-2.3965 2.5957,-8.1836 -1.9961,-14.9688 -24.5507,-48.1054 -6.7871,-22.9532 17.5664,-3.5937 c 0,0 18.7621,4.7905 19.5605,4.9902 0.7984,0.1996 9.7793,-1.3965 9.7793,-1.3965 l 1.3984,-3.7929 c 0,0 -19.7605,-23.352 -20.3593,-24.1504 -0.5988,-0.7984 -25.7481,-37.127 -25.7481,-37.127 l -20.3594,-32.334 -10.7792,-22.7558 4.3906,-24.3516 7.5859,-23.9512 24.1504,-47.705 18.5645,-62.2754 6.3867,-12.9746 -26.5469,-4.3907 -48.3027,-14.3711 z m -303.8946,148.6465 -2.5801,1.291 5.375,22.3652 15.9141,50.752 29.4629,68.3886 46.0215,97.8497 20,33.9785 20,20.6445 23.6562,34.8379 68.1719,109.0332 17.6348,20.8594 72.0429,89.4629 49.461,57.6347 11.1836,21.2891 21.0761,56.7754 8.6016,35.2676 9.2461,48.3886 15.6992,58.709 0.8613,13.5488 -6.8828,11.1817 -21.9355,17.6348 -3.0098,8.8183 1.9356,3.6543 4.9453,3.2266 50.9687,-3.8711 6.4512,-7.7422 9.8926,-25.1602 6.4512,-50.3242 6.2363,-38.2793 6.4531,-18.709 18.0645,-32.2578 c 0,0 5.1601,-11.8286 5.1601,-13.334 0,-1.5054 -2.3652,-16.1289 -2.3652,-16.1289 l -3.8711,-14.1933 -28.8164,-28.8164 -37.2051,-36.7754 -21.0762,-27.0957 -26.8808,-44.086 -18.9239,-43.0117 -21.5058,-61.291 -23.2266,-69.6758 -26.4511,-54.8398 -20.4297,-32.2578 -14.8399,-18.2793 -6.8808,-6.0215 c -0.6451,-0.8602 -22.1504,-24.3008 -22.1504,-24.3008 l -2.7969,-16.3438 -7.957,-28.8183 -15.2676,-41.9356 -16.9902,-35.2675 -1.504,-1.2911 -8.1738,1.9356 -25.5898,4.5156 -24.3028,-2.3652 -37.4179,-13.334 -46.2364,-28.1719 -29.8925,-26.8808 z" />
    <path
       style="opacity:1;fill:#00ffff;stroke-width:7.825;stroke-linecap:round;stroke-linejoin:round;paint-order:markers fill stroke"
       d="m 1873.0189,1767.1675 17.1821,2.7492 -2.7491,-10.6529 c 0,0 -7.5601,-5.4983 -8.9347,-5.4983 -1.3746,0 -7.2165,5.1546 -7.2165,5.1546 l -0.6873,7.2165 z"
       id="path37" />
    <path
       style="opacity:1;fill:#6c5d53;stroke-width:7.825;stroke-linecap:round;stroke-linejoin:round;paint-order:markers fill stroke"
       d="m 1735.3853,1788.301 -0.1539,-14.7692 c 0,0 8.1539,-13.0769 8.6154,-13.6923 0.4616,-0.6154 15.2308,-10.9231 15.2308,-10.9231 0,0 13.0769,-6.4615 14,-6.7692 0.9231,-0.3077 13.5384,-7.6923 14.3077,-8.1539 0.7692,-0.4615 8.3077,-1.3846 8.3077,-1.3846 0,0 17.6923,6.4616 17.8461,7.2308 0.1539,0.7692 19.0769,19.6923 19.0769,19.6923 l 21.2308,16.3077 13.3846,20.6154 6.7693,7.5384 24.7692,-2.3076 c 0,0 6.7692,6.6153 7.3846,7.3846 0.6154,0.7692 7.5385,15.0769 7.5385,15.0769 0,0 4.6154,3.6923 5.6923,3.8461 1.0769,0.1539 3.6923,-2.3076 4.1538,-3.0769 0.4616,-0.7692 1.6923,-12.3077 1.6923,-12.3077 l 7.8462,1.3846 9.8461,6 10.4616,23.077 -3.0769,25.5384 -8.7693,16.9231 -11.8461,47.6923 -17.3846,16.1538 -17.3847,10.3077 -19.2307,20.7693 -18.6154,1.2307 -30,-4.4615 -14.6154,10.6154 -22.1538,-3.8462 -27.3847,-8.7692 -20.923,1.3846 -14.6154,-5.5384 -12.9231,-17.5385 -7.0769,-24.1539 -13.2308,-12.923 -7.3846,-6.6154 -2.7692,-22.7692 -2.3077,-15.6924 5.2307,-22 8.1539,-20.3076 c 0,0 0.3077,-14.7693 0.4615,-15.6924 0.1539,-0.923 8.6154,-10.923 9.0769,-11.5384 0.4616,-0.6154 9.5385,-5.6923 9.5385,-5.6923 z"
       id="path36" />
    <path
       style="fill:none;stroke:#0c0505;stroke-width:7.55906;stroke-linecap:round;stroke-linejoin:round;stroke-opacity:1;paint-order:markers fill stroke"
       d="m 1124.3397,2076.2199 c -19.0656,-23.5018 -38.1312,-47.0037 -65.9977,-76.3741 -27.8665,-29.3703 -64.53247,-64.6077 -95.4851,-90.7984 -30.95264,-26.1906 -56.19022,-43.3331 -78.80947,-52.3808 -22.61926,-9.0476 -42.61886,-9.9999 -59.52376,-2.6188 -16.90491,7.3811 -30.71418,23.0951 -41.66662,36.6666 -10.95244,13.5715 -19.04753,24.9999 -22.14274,43.3335 -3.09522,18.3336 -1.1905,43.5711 1.90478,72.8572 3.09528,29.286 7.38091,62.6187 15.23816,95 7.85725,32.3812 19.28561,63.8092 28.80949,94.5238 9.52389,30.7146 17.14278,60.714 25.71431,89.7619 8.57152,29.0479 18.09512,57.1425 24.52373,77.857 6.42862,20.7144 9.76187,34.0474 12.38095,50 2.61907,15.9526 4.52379,34.5236 7.61907,58.8097 3.09529,24.286 7.38092,54.2854 11.66668,77.1427 4.28575,22.8573 8.57137,38.5712 13.57143,52.1428 5.00006,13.5715 10.71426,24.9999 17.85719,32.6189 7.14293,7.6191 15.7142,11.4286 20.95231,9.2856 5.2381,-2.1429 7.14283,-10.238 7.61901,-22.6191 0.47618,-12.3811 -0.47618,-29.0474 -3.33337,-50.7143 -2.85719,-21.667 -7.619,-48.3331 -7.61896,-66.1904 5e-5,-17.8572 4.76188,-26.9047 10.95243,-37.6191 6.19055,-10.7144 13.80945,-23.0951 17.38086,-33.8094 3.57142,-10.7144 3.09524,-19.7619 -1.19056,-30.7144 -4.2858,-10.9525 -12.38089,-23.8094 -19.0476,-34.5237 -6.66671,-10.7144 -11.90471,-19.2857 -15.95235,-33.3335 -4.04764,-14.0478 -6.90473,-33.5712 -8.5714,-58.0953 -1.66667,-24.5241 -2.14285,-54.0473 -1.90474,-81.1905 0.2381,-27.1431 1.19046,-51.9045 1.19045,-68.5713 -10e-6,-16.6667 -0.95236,-25.2379 -5.71436,-37.1428 -4.762,-11.905 -13.33324,-27.1427 -21.90468,-42.3808"
       id="path1"
       inkscape:path-effect="#path-effect1"
       inkscape:original-d="m 1124.3397,2076.2199 c -19.0656,-23.5018 -38.1312,-47.0037 -57.1968,-70.5056 -36.6674,-35.2388 -73.33338,-70.4762 -110.00004,-105.7143 -25.2386,-17.1432 -50.47619,-34.2857 -75.71429,-51.4286 -20.0004,-0.9524 -40,-1.9047 -60,-2.8571 -13.8098,15.7146 -27.61905,31.4286 -41.42857,47.1428 -8.0954,11.4288 -16.19048,22.8572 -24.28571,34.2858 1.9048,25.2386 3.80952,50.4761 5.71428,75.7142 4.2858,33.334 8.57143,66.6667 12.85714,100 11.4288,31.4292 22.85715,62.8572 34.28572,94.2858 7.6192,30.0006 15.23809,60 22.85714,90 9.524,28.0958 19.04762,56.1904 28.57143,84.2857 3.3334,13.3336 6.66667,26.6666 10,40 1.9048,18.5718 3.80952,37.1428 5.71429,55.7143 4.2858,30.0006 8.57142,60 12.85714,90 4.2858,15.7146 8.57143,31.4285 12.85714,47.1428 5.7144,11.4288 11.42857,22.8572 17.14286,34.2857 8.5716,3.8096 17.14286,7.6191 25.71428,11.4286 1.9048,-8.0954 3.80953,-16.1905 5.71429,-24.2857 -0.9524,-16.667 -1.90476,-33.3333 -2.85714,-50 -4.762,-26.6672 -9.52381,-53.3333 -14.28572,-80 4.762,-9.0478 9.52381,-18.0953 14.28572,-27.1429 7.6192,-12.3812 15.23809,-24.7619 22.85714,-37.1428 -0.4762,-9.0478 -0.95238,-18.0953 -1.42857,-27.1429 -8.0954,-12.8574 -16.19048,-25.7143 -24.28572,-38.5714 -5.2382,-8.5716 -10.47619,-17.1429 -15.71428,-25.7143 -2.8572,-19.5242 -5.71429,-39.0476 -8.57143,-58.5714 -0.4762,-29.5244 -0.95238,-59.0476 -1.42857,-88.5715 0.9524,-24.7624 1.90476,-49.5238 2.85714,-74.2857 -0.9524,-8.5716 -1.90476,-17.1428 -2.85714,-25.7143 -8.5716,-15.2384 -17.14286,-30.4761 -25.71429,-45.7142"
       sodipodi:nodetypes="ccccccccccccccccccccccccccccccc"
       transform="translate(-84.615385,-142.30769)" />
    <path
       style="fill:none;stroke:#0c0505;stroke-width:7.55906;stroke-linecap:round;stroke-linejoin:round;stroke-opacity:1;paint-order:markers fill stroke"
       d="m 1143.2462,2578.7987 c 2.6388,15.5942 5.2777,31.1885 14.543,57.7844 9.2654,26.5959 25.1565,64.1921 40.2729,97.7195 15.1165,33.5274 29.4573,62.9842 39.5349,83.5269 10.0775,20.5428 15.8914,32.1705 21.5116,40.3101 5.6202,8.1396 11.0464,12.7906 17.8294,20.5427 6.7831,7.752 14.9225,18.6045 27.1319,37.5971 12.2095,18.9925 28.4882,46.1237 44.3799,71.1239 15.8916,25.0003 31.3952,47.868 45.7364,66.8604 14.3412,18.9924 27.5192,34.1084 40.6976,49.4187 13.1785,15.3102 26.3565,30.8137 37.0155,43.4107 10.659,12.597 18.7983,22.2867 26.7442,31.9768 7.9458,9.69 15.6976,19.3797 21.8992,31.3954 6.2016,12.0156 10.8526,26.3564 15.8914,40.1162 5.0389,13.7598 10.4651,26.9379 14.3411,42.2481 3.876,15.3103 6.2015,32.7518 9.6899,48.8372 3.4884,16.0854 8.1395,30.8138 12.0155,44.7675 3.876,13.9536 6.9767,27.1316 7.1705,36.6278 0.1938,9.4962 -2.5193,15.31 -6.3954,19.7674 -3.876,4.4574 -8.9146,7.5581 -13.372,11.0465 -4.4574,3.4884 -8.3333,7.3643 -10.2713,10.2713 -1.938,2.907 -1.938,4.8449 -1.1628,6.5891 0.7753,1.7443 2.3256,3.2946 5.6202,4.0698 3.2946,0.7752 8.3333,0.7752 12.7907,0.7752 4.4574,0 8.3333,0 12.7907,-0.5814 4.4574,-0.5814 9.4961,-1.7442 14.5349,-1.938 5.0388,-0.1938 10.0775,0.5814 14.3411,-2.5195 4.2636,-3.1008 7.7519,-10.0774 11.2403,-23.2559 3.4884,-13.1785 6.9767,-32.5579 9.1085,-47.8681 2.1318,-15.3102 2.9069,-26.5503 4.6511,-38.1783 1.7442,-11.628 4.4574,-23.6433 10.4653,-35.0775 6.0078,-11.4342 15.3099,-22.2867 18.7983,-34.4961 3.4883,-12.2095 1.1628,-25.7751 -5.4265,-36.6279 -6.5892,-10.8528 -17.4417,-18.9922 -31.2016,-31.3954 -13.7598,-12.4033 -30.4262,-29.0697 -46.124,-49.8064 -15.6978,-20.7366 -30.4262,-45.5423 -43.7984,-74.8062 -13.3722,-29.2639 -25.3875,-62.9842 -35.2713,-92.6356 -9.8838,-29.6514 -17.6356,-55.2323 -26.5504,-77.1317 -8.9148,-21.8994 -18.9921,-40.1161 -28.1008,-54.2635 -9.1086,-14.1474 -17.2479,-24.2247 -26.3566,-34.1085 -9.1086,-9.8838 -19.1859,-19.5736 -24.2247,-25.1937 -5.0387,-5.6202 -5.0387,-7.1706 -6.5891,-15.6979 -1.5504,-8.5272 -4.6512,-24.0308 -11.0466,-42.6357 -6.3955,-18.6048 -16.0852,-40.3098 -21.9651,-52.673 -5.8799,-12.3632 -7.9497,-15.384 -10.0195,-18.4048"
       id="path2"
       inkscape:path-effect="#path-effect2"
       inkscape:original-d="m 1143.2462,2578.7987 c 2.6388,15.5942 5.2777,31.1885 7.9166,46.7827 15.8918,37.5976 31.7829,75.1938 47.6744,112.7907 14.3414,29.4579 28.6822,58.9147 43.0233,88.3721 5.814,11.6281 11.6279,23.2558 17.4418,34.8837 5.4265,4.6513 10.8527,9.3023 16.2791,13.9535 8.1397,10.8529 16.2791,21.7054 24.4186,32.5581 16.2794,27.1324 32.5581,54.2636 48.8372,81.3954 15.5042,22.8687 31.0078,45.7364 46.5116,68.6046 13.1786,15.1166 26.3566,30.2326 39.5349,45.3489 13.1786,15.5042 26.3566,31.0077 39.5349,46.5116 8.1397,9.6901 16.2791,19.3798 24.4186,29.0698 7.7521,9.6901 15.5039,19.3798 23.2558,29.0697 4.6513,14.3414 9.3023,28.6822 13.9535,43.0233 5.4265,13.1785 10.8527,26.3566 16.2791,39.5349 2.3256,17.4422 4.6511,34.8837 6.9767,52.3256 4.6513,14.7289 9.3024,29.4573 13.9535,44.186 3.1009,13.1786 6.2016,26.3566 9.3023,39.5349 -2.7132,5.8141 -5.4263,11.6279 -8.1395,17.4418 -5.0389,3.1009 -10.0775,6.2016 -15.1163,9.3024 -3.876,3.876 -7.7519,7.7519 -11.6279,11.6279 0,1.938 0,3.8759 0,5.8139 1.5504,1.5505 3.1008,3.1008 4.6512,4.6512 5.0388,0 10.0775,0 15.1163,0 3.876,0 7.7519,0 11.6279,0 5.0388,-1.1628 10.0775,-2.3256 15.1162,-3.4884 5.0389,0.7752 10.0776,1.5504 15.1163,2.3256 3.4885,-6.9769 6.9768,-13.9535 10.4651,-20.9302 3.4885,-19.3803 6.9768,-38.7597 10.4652,-58.1396 0.7752,-11.2405 1.5503,-22.4806 2.3255,-33.7209 2.7133,-12.0157 5.4264,-24.031 8.1396,-36.0465 9.3025,-10.8529 18.6046,-21.7054 27.907,-32.5581 -2.3257,-13.5662 -4.6512,-27.1318 -6.9768,-40.6977 -10.8529,-8.1397 -21.7054,-16.2791 -32.5581,-24.4186 -16.667,-16.667 -33.3334,-33.3334 -50,-50 -14.729,-24.8067 -29.4574,-49.6124 -44.1861,-74.4186 -12.0157,-33.7216 -24.031,-67.4419 -36.0465,-101.1628 -7.7521,-25.5819 -15.5039,-51.1628 -23.2558,-76.7442 -10.0777,-18.2174 -20.155,-36.4341 -30.2326,-54.6512 -8.1397,-10.0777 -16.279,-20.155 -24.4186,-30.2325 -10.0777,-9.6901 -20.155,-19.3799 -30.2325,-29.0698 0,-1.5504 0,-3.1008 0,-4.6512 -3.1009,-15.5041 -6.2016,-31.0077 -9.3024,-46.5116 -9.6901,-21.7058 -19.3798,-43.4108 -29.0697,-65.1163 -2.0699,-3.0209 -4.1397,-6.0417 -6.2095,-9.0625"
       sodipodi:nodetypes="cccccccccccccccccccccccsccccccccccccccccccccc"
       transform="translate(-84.615385,-142.30769)" />
    <path
       style="fill:none;stroke:#0c0505;stroke-width:7.55906;stroke-linecap:round;stroke-linejoin:round;stroke-opacity:1;paint-order:markers fill stroke"
       d="m 1230.9108,1984.8837 c 4.5543,-5.4263 7.4613,-9.6899 10.2714,-11.3372 2.8101,-1.6473 5.5232,-0.6783 7.8488,1.7442 2.3257,2.4226 4.2636,6.2984 7.4613,17.5389 3.1977,11.2405 7.655,29.8448 16.9575,50.0969 9.3024,20.2522 23.4494,42.151 37.8876,59.3023 14.4381,17.1513 29.1665,29.5541 44.7674,39.4379 15.601,9.8838 32.0735,17.248 42.9262,21.8023 10.8528,4.5543 16.0853,6.2984 19.6706,7.5581 3.5853,1.2597 5.5232,2.0349 7.1705,2.907 1.6473,0.8721 3.0039,1.8411 7.3644,4.2636 4.3605,2.4225 11.7247,6.2984 15.8914,8.7209 4.1667,2.4225 5.1357,3.3915 3.6822,5.814 -1.4535,2.4226 -5.3294,6.2985 -9.5931,10.9496 -4.2636,4.6512 -8.9147,10.0775 -13.6628,22.8684 -4.7481,12.7909 -9.5929,32.9455 -13.372,51.4535 -3.7792,18.5079 -6.4923,35.368 -7.8489,50.7751 -1.3566,15.4071 -1.3566,29.3603 -0.5814,43.0233 0.7752,13.6629 2.3256,27.0347 3.1008,38.6627 0.7752,11.628 0.7752,21.5115 -0.4845,29.6511 -1.2597,8.1396 -3.7791,14.5349 -3.6821,22.19 0.097,7.6551 2.81,16.5697 4.3604,29.1667 1.5504,12.5971 1.938,28.8758 0.4845,42.5387 -1.4535,13.6629 -4.748,24.7092 -8.8179,32.5581 -4.0698,7.8489 -8.9147,12.5 -10.2712,18.4109 -1.3566,5.9109 0.7751,13.0813 1.7441,20.7365 0.969,7.6551 0.7752,15.7944 -2.3256,27.2286 -3.1008,11.4343 -9.1085,26.1627 -16.2791,35.1744 -7.1706,9.0116 -15.5038,12.3062 -23.2558,15.1163 -7.752,2.8101 -14.9224,5.1356 -24.4186,6.686 -9.4963,1.5504 -21.3178,2.3256 -34.9807,0.2907 -13.6629,-2.0349 -29.1665,-6.8798 -47.6745,-16.6668 -18.5079,-9.787 -40.0191,-24.5154 -56.1045,-38.7597 -16.0854,-14.2443 -26.7441,-28.0038 -34.0116,-38.469 -7.2675,-10.4651 -11.1433,-17.6355 -17.345,-29.7481 -6.2016,-12.1126 -14.7286,-29.1665 -20.2519,-43.0232 -5.5232,-13.8567 -8.0426,-24.5154 -11.7248,-33.0426 -3.6822,-8.5272 -8.5271,-14.9224 -24.3219,-34.5933 -15.7948,-19.6709 -42.5385,-52.6159 -65.6007,-84.0116 -23.06222,-31.3956 -42.4417,-61.24 -55.71697,-86.7247 -13.27526,-25.4847 -20.44566,-46.6083 -26.06585,-74.2249 -5.62019,-27.6166 -9.68988,-61.7245 -10.75573,-80.4261 -1.06586,-18.7016 0.87209,-21.9961 6.29852,-25 5.42644,-3.0039 14.34098,-5.717 26.06593,-7.655 11.72495,-1.938 26.25955,-3.1007 38.08132,-3.0038 11.82178,0.097 20.93018,1.4534 28.97288,3.4884 8.0427,2.0349 15.0193,4.748 24.031,7.5581 9.0118,2.8101 20.0581,5.717 29.845,8.7209 9.7869,3.0039 18.3138,6.1046 24.3216,5.8139 6.0078,-0.2907 9.4961,-3.9728 11.2403,-8.9147 1.7442,-4.942 1.7442,-11.1434 2.8101,-16.376 1.0659,-5.2326 3.1976,-9.4961 6.2016,-12.6938 3.0039,-3.1977 6.8798,-5.3295 11.9186,-5.4263 5.0388,-0.097 11.2402,1.8411 17.7325,4.1667 6.4924,2.3256 13.2752,5.0387 17.5388,6.3953 4.2636,1.3566 6.0077,1.3566 7.8488,-1.8411 1.8411,-3.1978 3.779,-9.593 7.4613,-18.3141 3.6822,-8.721 9.1084,-19.7673 14.438,-30.8139 5.3295,-11.0466 10.5619,-22.0929 16.2791,-30.9108 5.7171,-8.8179 11.9185,-15.4069 16.4727,-20.8333 z"
       id="path3"
       inkscape:path-effect="#path-effect3"
       inkscape:original-d="m 1232.5581,1983.7209 c 2.907,-4.2635 5.814,-8.5271 8.721,-12.7907 2.7132,0.969 5.4263,1.938 8.1395,2.907 1.938,3.8761 3.876,7.7519 5.814,11.6279 4.4574,18.605 8.9147,37.2093 13.3721,55.814 14.1475,21.8996 28.2945,43.7984 42.4418,65.6976 14.729,12.4034 29.4574,24.8062 44.1861,37.2093 16.4732,7.3645 32.9457,14.7287 49.4186,22.0931 5.2326,1.7442 10.4651,3.4883 15.6976,5.2325 1.9381,0.7752 3.876,1.5504 5.814,2.3256 1.3566,0.969 2.7132,1.938 4.0698,2.907 7.3644,3.876 14.7286,7.7519 22.093,11.6279 0.969,0.969 1.938,1.938 2.907,2.907 -3.8761,3.876 -7.752,7.7519 -11.6279,11.6279 -4.6513,5.4264 -9.3024,10.8527 -13.9535,16.279 -4.8451,20.1555 -9.69,40.3101 -14.5349,60.4652 -2.7133,16.8608 -5.4264,33.7209 -8.1396,50.5814 0,13.9537 0,27.9069 0,41.8604 1.5505,13.3724 3.1008,26.7442 4.6512,40.1163 0,9.8839 0,19.7674 0,29.6512 -2.5194,6.3954 -5.0388,12.7907 -7.5581,19.186 2.7132,8.9149 5.4263,17.8295 8.1395,26.7442 0.3876,16.2794 0.7752,32.5581 1.1628,48.8372 -3.2946,11.0467 -6.5892,22.093 -9.8837,33.1395 -4.8451,4.6513 -9.69,9.3024 -14.5349,13.9535 2.1318,7.1707 4.2636,14.3411 6.3953,21.5117 -0.1938,8.1397 -0.3876,16.279 -0.5814,24.4186 -6.0078,14.7289 -12.0155,29.4573 -18.0232,44.186 -8.3335,3.2946 -16.6667,6.5892 -25,9.8837 -7.1707,2.3257 -14.3411,4.6512 -21.5116,6.9768 -11.822,0.7752 -23.6435,1.5504 -35.4652,2.3256 -15.5041,-4.8451 -31.0077,-9.69 -46.5116,-14.5349 -21.512,-14.729 -43.0232,-29.4574 -64.5349,-44.1861 -10.6591,-13.7599 -21.3178,-27.5194 -31.9767,-41.279 -3.8761,-7.1707 -7.752,-14.3411 -11.6279,-21.5117 -8.5273,-17.0546 -17.0543,-34.1085 -25.5814,-51.1628 -2.5194,-10.6591 -5.0388,-21.3178 -7.5582,-31.9767 -4.845,-6.3955 -9.6899,-12.7907 -14.5348,-19.1861 -26.7448,-32.9463 -53.4884,-65.8914 -80.2326,-98.8372 -19.38023,-29.8455 -38.75969,-59.6899 -58.13953,-89.5348 -7.17069,-21.1245 -14.34109,-42.2481 -21.51163,-63.3721 -4.06985,-34.1092 -8.13954,-68.2171 -12.2093,-102.3256 1.93802,-3.2947 3.87597,-6.5892 5.81395,-9.8837 8.91491,-2.7133 17.82946,-5.4264 26.74419,-8.1396 14.53517,-1.1628 29.06976,-2.3256 43.60465,-3.4883 9.10867,1.3566 18.21707,2.7131 27.32557,4.0697 6.9769,2.7133 13.9535,5.4264 20.9302,8.1396 11.0468,2.907 22.0931,5.8139 33.1396,8.7209 8.5273,3.1008 17.0542,6.2015 25.5814,9.3023 3.4884,-3.6822 6.9767,-7.3643 10.4651,-11.0465 0,-6.2017 0,-12.4031 0,-18.6047 2.1318,-4.2636 4.2636,-8.5271 6.3953,-12.7907 3.8761,-2.1318 7.752,-4.2635 11.6279,-6.3953 6.2017,1.938 12.4031,3.876 18.6047,5.814 6.7831,2.7132 13.5659,5.4263 20.3488,8.1395 1.7443,0 3.4884,0 5.2326,0 1.938,-6.3955 3.876,-12.7907 5.8139,-19.1861 5.4265,-11.0467 10.8528,-22.093 16.2791,-33.1395 5.2327,-11.0467 10.4651,-22.093 15.6977,-33.1395 6.2017,-6.5893 12.4031,-13.1783 18.6046,-19.7675 z"
       transform="translate(-84.615385,-142.30769)" />
    <path
       style="fill:none;stroke:#0c0505;stroke-width:7.55906;stroke-linecap:round;stroke-linejoin:round;stroke-opacity:1;paint-order:markers fill stroke"
       d="m 1174.2867,2087.6588 c -9.8398,35.8967 -19.6795,71.7933 -24.7932,93.1332 -5.1137,21.3399 -5.5012,28.1227 -5.8888,34.9057"
       id="path4"
       inkscape:path-effect="#path-effect4"
       inkscape:original-d="m 1174.2867,2087.6588 c -9.8397,35.8967 -19.6795,71.7933 -29.5193,107.69 -0.3876,6.7831 -0.7752,13.5659 -1.1627,20.3489"
       sodipodi:nodetypes="ccc"
       transform="translate(-84.615385,-142.30769)" />
    <path
       style="fill:none;stroke:#0c0505;stroke-width:7.55906;stroke-linecap:round;stroke-linejoin:round;stroke-opacity:1;paint-order:markers fill stroke"
       d="m 1219.0542,2003.1987 c 11.6719,29.1663 23.3437,58.3326 35.2844,80.8617 11.9407,22.5291 24.1498,38.4202 41.0105,52.9552 16.8606,14.535 38.3718,27.7131 57.9457,38.1783 19.5738,10.4652 37.2091,18.217 49.0309,23.0619 11.8217,4.845 17.8293,6.7829 22.6743,8.4302 4.845,1.6473 8.5271,3.0039 12.2093,4.3605"
       id="path5"
       inkscape:path-effect="#path-effect5"
       inkscape:original-d="m 1219.0542,2003.1987 c 11.6719,29.1663 23.3437,58.3326 35.0156,87.499 12.2095,15.8918 24.4186,31.7829 36.6279,47.6744 21.512,13.1786 43.0232,26.3566 64.5349,39.5349 17.636,7.7521 35.2713,15.5039 52.9069,23.2558 6.0079,1.938 12.0155,3.876 18.0233,5.8139 3.6822,1.3567 7.3643,2.7132 11.0465,4.0698"
       sodipodi:nodetypes="ccccccc"
       transform="translate(-84.615385,-142.30769)" />
    <path
       style="fill:none;stroke:#0c0505;stroke-width:7.55906;stroke-linecap:round;stroke-linejoin:round;stroke-opacity:1;paint-order:markers fill stroke"
       d="m 1291.2791,2133.7209 c 0,0 0,0 0,0 -23.2558,5.0388 -46.5117,10.0775 -68.2173,19.9614 -21.7056,9.8839 -41.8602,24.6123 -54.9417,36.0465 -13.0815,11.4342 -19.089,19.5735 -28.1008,32.8489 -9.0118,13.2754 -21.0271,31.6859 -27.6162,52.8102 -6.5892,21.1242 -7.7519,44.9609 -8.0426,72.5775 -0.2907,27.6166 0.2907,59.0113 0.9557,83.8006 0.6649,24.7893 1.4134,42.9717 2.1619,61.1546"
       id="path6"
       inkscape:path-effect="#path-effect6"
       inkscape:original-d="m 1291.2791,2133.7209 v 0 c 0,0 -46.5117,10.0775 -69.7675,15.1163 -20.1554,14.729 -40.31,29.4574 -60.4651,44.1861 -6.0079,8.1397 -12.0155,16.279 -18.0232,24.4186 -12.0158,18.4112 -24.0311,36.8217 -36.0466,55.2325 -1.1628,23.8377 -2.3255,47.6744 -3.4883,71.5116 0.5814,31.396 1.1628,62.7907 1.7442,94.1861 0.7485,18.1832 1.497,36.3656 2.2455,54.5485"
       sodipodi:nodetypes="ccccccccc"
       transform="translate(-84.615385,-142.30769)" />
    <path
       style="fill:none;stroke:#0c0505;stroke-width:7.55906;stroke-linecap:round;stroke-linejoin:round;stroke-opacity:1;paint-order:markers fill stroke"
       d="m 1130.8139,2237.2093 c 1.7442,19.186 3.4884,38.3721 5.5233,61.0468 2.035,22.6747 4.3605,48.8369 13.1785,82.1706 8.818,33.3338 24.1278,73.8369 44.8644,109.7868 20.7367,35.9499 46.899,67.3446 65.8913,85.5617 18.9924,18.2171 30.8139,23.2558 44.7675,25.4845 13.9537,2.2287 30.0386,1.6473 42.3449,-0.4845 12.3063,-2.1318 20.8333,-5.814 27.6163,-8.8178 6.7829,-3.0039 11.8216,-5.3295 16.8604,-7.6551"
       id="path7"
       inkscape:path-effect="#path-effect7"
       inkscape:original-d="m 1130.8139,2237.2093 c 0,0 3.4884,38.3721 5.2326,57.5581 2.3256,26.1634 4.6512,52.3256 6.9768,78.4884 15.3103,40.5047 30.6201,81.0078 45.9302,121.5116 26.1633,31.396 52.3256,62.7907 78.4884,94.1861 11.8219,5.0388 23.6434,10.0775 35.4651,15.1163 16.0856,-0.5814 32.1705,-1.1628 48.2558,-1.7442 8.5273,-3.6823 17.0543,-7.3644 25.5814,-11.0465 5.0388,-2.3257 10.0775,-4.6512 15.1163,-6.9768"
       sodipodi:nodetypes="ccccccccc"
       transform="translate(-84.615385,-142.30769)" />
    <path
       style="fill:none;stroke:#0c0505;stroke-width:7.55906;stroke-linecap:round;stroke-linejoin:round;stroke-opacity:1;paint-order:markers fill stroke"
       d="m 1409.7,2442.8654 c -5.7527,5.6728 -11.5055,11.3456 -21.3587,15.151 -9.8532,3.8053 -23.8064,5.7433 -38.826,0.8013 -15.0195,-4.942 -31.1044,-16.7634 -42.3448,-31.5892 -11.2404,-14.8258 -17.6357,-32.6549 -21.2209,-50.969 -3.5853,-18.3141 -4.3604,-37.1122 -6.0077,-59.4962 -1.6474,-22.384 -4.1667,-48.3524 -8.4303,-68.3138 -4.2637,-19.9614 -10.2713,-33.9146 -15.7946,-45.3488 -5.5233,-11.4342 -10.562,-20.3488 -14.3234,-28.3472 -3.7615,-7.9984 -6.2455,-15.0802 -8.7296,-22.1622"
       id="path8"
       inkscape:path-effect="#path-effect8"
       inkscape:original-d="m 1409.7,2442.8654 c -5.7527,5.6728 -11.5055,11.3456 -17.2581,17.0183 -13.9538,1.938 -27.907,3.876 -41.8605,5.814 -16.0856,-11.822 -32.1705,-23.6434 -48.2558,-35.4651 -6.3955,-17.8299 -12.7907,-35.659 -19.1861,-53.4884 -0.7752,-18.7988 -1.5504,-37.5969 -2.3255,-56.3954 -2.5195,-25.9695 -5.0388,-51.9379 -7.5582,-77.9069 -6.0079,-13.9538 -12.0155,-27.907 -18.0232,-41.8605 -5.0389,-8.9149 -10.0776,-17.8295 -15.1163,-26.7442 -2.4842,-7.0821 -4.9682,-14.1639 -7.4523,-21.2459"
       sodipodi:nodetypes="cccccccccc"
       transform="translate(-84.615385,-142.30769)" />
    <path
       style="fill:none;stroke:#0c0505;stroke-width:7.55906;stroke-linecap:round;stroke-linejoin:round;stroke-opacity:1;paint-order:markers fill stroke"
       d="m 929.56456,2186.8973 c 9.52499,-10.7487 19.04998,-21.4974 29.04515,-29.2943 9.99516,-7.7969 20.46008,-12.6417 31.11909,-14.1921 10.659,-1.5504 21.5115,0.1937 33.7209,4.7481 12.2095,4.5543 25.7751,11.9185 37.4769,16.1025 11.7019,4.1839 21.5392,5.1874 30.4904,4.0762 8.9511,-1.1112 17.0154,-4.3369 23.3326,-10.251 6.3173,-5.914 10.8871,-14.516 15.0538,-20.43 4.1667,-5.914 7.9301,-9.1398 11.6936,-11.0215 3.7635,-1.8818 7.5268,-2.4194 11.2903,-2.957"
       id="path9"
       inkscape:path-effect="#path-effect9"
       inkscape:original-d="m 929.56456,2186.8973 c 0,0 19.04998,-21.4974 28.57497,-32.2461 10.46533,-4.8451 20.93024,-9.69 31.39535,-14.5349 10.85292,1.7442 21.70542,3.4884 32.55812,5.2325 13.5662,7.3645 27.1318,14.7287 40.6977,22.0931 9.8378,1.0035 19.6751,2.007 29.5127,3.0105 8.0647,-3.2259 16.129,-6.4516 24.1935,-9.6774 4.57,-8.6023 9.1398,-17.2043 13.7097,-25.8065 3.7635,-3.2258 7.5269,-6.4516 11.2903,-9.6774 3.7636,-0.5376 7.5269,-1.0753 11.2904,-1.6129"
       sodipodi:nodetypes="cccccccccc"
       transform="translate(-79.776675,-123.75931)" />
    <path
       style="fill:none;stroke:#0c0505;stroke-width:7.55906;stroke-linecap:round;stroke-linejoin:round;stroke-opacity:1;paint-order:markers fill stroke"
       d="m 1395.8821,1840.3991 c -8.8495,2.9781 -17.6992,5.9562 -29.4575,14.7787 -11.7582,8.8225 -26.4246,23.4889 -42.2026,40.1557 -15.7779,16.6669 -32.6665,35.3332 -45.3332,48.4443 -12.6667,13.1112 -21.111,20.6666 -29.5555,28.2222"
       id="path10"
       inkscape:path-effect="#path-effect10"
       inkscape:original-d="m 1395.8821,1840.3991 c -8.8495,2.9781 -17.6992,5.9562 -26.5488,8.9342 -14.6669,14.667 -29.3333,29.3334 -44,44 -16.8892,18.6671 -33.7777,37.3334 -50.6666,56 -8.4446,7.5557 -16.8889,15.1111 -25.3334,22.6667"
       sodipodi:nodetypes="ccccc"
       transform="translate(-84.615385,-142.30769)" />
    <path
       style="fill:none;stroke:#0c0505;stroke-width:7.55906;stroke-linecap:round;stroke-linejoin:round;stroke-opacity:1;paint-order:markers fill stroke"
       d="m 1378.481,1844.9367 c -2.1097,-2.3207 -4.2194,-4.6413 -6.2236,-6.0126 -2.0042,-1.3713 -3.9029,-1.7933 -7.2785,-2.6371 -3.3755,-0.8439 -8.2277,-2.1097 -17.827,-3.0591 -9.5992,-0.9494 -23.9449,-1.5823 -38.1856,-4.3249 -14.2406,-2.7427 -28.3753,-7.5949 -42.0885,-13.8185 -13.7132,-6.2237 -27.0041,-13.8185 -43.4599,-25.5275 -16.4559,-11.7089 -36.0757,-27.5314 -53.7365,-41.3408 -17.6609,-13.8095 -33.362,-25.6054 -46.7054,-35.1017 -13.3434,-9.4963 -24.2565,-16.6423 -33.9216,-21.367 -9.6651,-4.7246 -18.0619,-7.0147 -25.5684,-6.1241 -7.5064,0.8906 -14.1221,4.9618 -23.0281,7.7608 -8.906,2.799 -20.1017,4.3257 -32.8245,7.8881 -12.72275,3.5624 -26.97184,9.1602 -37.91339,14.1221 -10.94155,4.9619 -18.57497,9.2875 -23.91851,10.9414 -5.34354,1.654 -8.39692,0.6362 -7.37905,-3.944 1.01788,-4.5803 6.10681,-12.7226 9.66918,-20.4835 3.56236,-7.7609 5.59795,-15.1399 4.32563,-20.3562 -1.27231,-5.2163 -5.85239,-8.2697 -12.08656,-11.3231 -6.23417,-3.0535 -14.12206,-6.1069 -25.82705,-6.6157 -11.70498,-0.5089 -27.22629,1.5267 -38.93121,3.1806 -11.70491,1.654 -19.59279,2.9262 -24.80911,2.6718 -5.21631,-0.2545 -7.76082,-2.0357 -9.542,-3.8169 -1.78117,-1.7812 -2.79894,-3.5623 -2.54448,-5.2163 0.25446,-1.6539 1.78117,-3.1806 7.37923,-4.4529 5.59806,-1.2722 15.26708,-2.29 28.24434,-4.1984 12.97727,-1.9085 29.26192,-4.7074 44.27478,-7.3792 15.01286,-2.6718 28.75303,-5.2163 42.74809,-7.1247 13.99506,-1.9084 28.24414,-3.1806 42.49361,-4.1984 14.2495,-1.0178 28.4986,-1.7812 39.9491,-1.2722 11.4505,0.5089 20.1017,2.29 29.1348,3.944 9.0332,1.6539 18.4478,3.1806 29.5167,7.3791 11.0688,4.1986 23.7912,11.0687 36.9453,17.8674 13.1542,6.7987 26.7393,13.5257 42.3864,20.2747 15.647,6.7491 33.355,13.5198 57.4439,20.5511 24.0888,7.0313 54.5569,14.3228 76.5622,21.2239 22.0054,6.9011 35.5468,13.4114 49.2188,19.9219 13.672,6.5105 27.4738,13.0208 41.0156,18.0989 13.5418,5.0782 26.8228,8.724 45.0522,12.1094 18.2294,3.3855 41.406,6.5104 59.4337,10.4167 18.0276,3.9063 30.9053,8.5937 43.7832,13.2812"
       id="path11"
       inkscape:path-effect="#path-effect11"
       inkscape:original-d="m 1378.481,1844.9367 c -2.1097,-2.3207 -4.2194,-4.6413 -6.3291,-6.962 -1.8987,-0.422 -3.7974,-0.8439 -5.6962,-1.2658 -4.8523,-1.2659 -9.7045,-2.5317 -14.557,-3.7975 -14.346,-0.6329 -28.6917,-1.2658 -43.0379,-1.8987 -14.1351,-4.8524 -28.2698,-9.7046 -42.4051,-14.557 -13.2911,-7.5949 -26.582,-15.1897 -39.8734,-22.7848 -19.6203,-15.8228 -39.2401,-31.6453 -58.8608,-47.4684 -15.7205,-11.7698 -31.4412,-23.5397 -47.1363,-35.4125 -10.916,-7.2277 -21.8657,-14.3178 -32.7989,-21.477 -8.397,-2.2901 -16.7938,-4.5802 -25.1909,-6.8703 -6.6158,4.0713 -13.2315,8.1425 -19.8473,12.2138 -11.1962,1.5267 -22.3919,3.0534 -33.5878,4.5801 -14.24964,5.5981 -28.49872,11.196 -42.74809,16.7939 -7.63374,4.3258 -15.26717,8.6514 -22.90076,12.9771 -3.0535,-1.0178 -6.10687,-2.0356 -9.1603,-3.0534 5.08916,-8.1427 10.17811,-16.285 15.26717,-24.4275 2.03566,-7.3793 4.07125,-14.7583 6.10687,-22.1374 -4.58024,-3.0535 -9.1603,-6.1069 -13.74046,-9.1603 -7.8882,-3.0535 -15.77608,-6.1069 -23.66412,-9.1603 -15.52194,2.0357 -31.04326,4.0712 -46.56488,6.1069 -7.8882,1.2723 -15.77609,2.5445 -23.66413,3.8168 -2.54458,-1.7812 -5.08906,-3.5624 -7.63358,-5.3435 -1.01784,-1.7813 -2.03563,-3.5624 -3.05344,-5.3436 1.52675,-1.5267 3.05344,-3.0534 4.58015,-4.5801 9.66941,-1.0178 19.33843,-2.0356 29.00764,-3.0534 16.28531,-2.7991 32.56997,-5.598 48.85496,-8.397 13.74073,-2.5446 27.48091,-5.089 41.22137,-7.6336 14.24965,-1.2723 28.49873,-2.5445 42.7481,-3.8168 14.2496,-0.7633 28.4987,-1.5267 42.7481,-2.29 8.6516,1.7812 17.3028,3.5623 25.9542,5.3435 9.4149,1.5267 18.8295,3.0534 28.2443,4.5801 12.7229,6.8704 25.4453,13.7405 38.1679,20.6107 13.5857,6.7272 27.1708,13.4542 40.7562,20.1813 17.7087,6.771 35.4167,13.5417 53.125,20.3125 30.4694,7.2918 60.9375,14.5833 91.4063,21.875 13.5419,6.5105 27.0833,13.0208 40.625,19.5313 13.8023,6.5105 27.6041,13.0208 41.4062,19.5312 13.2815,3.6459 26.5625,7.2917 39.8438,10.9375 23.1775,3.1251 46.3541,6.25 69.5312,9.375 12.8782,4.6876 25.7559,9.375 38.6338,14.0625"
       sodipodi:nodetypes="ccccccccccccccccccccccccccccccccccccccccc"
       transform="translate(-84.615385,-142.30769)" />
    <path
       style="fill:none;stroke:#0c0505;stroke-width:7.55906;stroke-linecap:round;stroke-linejoin:round;stroke-opacity:1;paint-order:markers fill stroke"
       d="m 856.48855,1670.229 c -2.54456,4.0713 -5.08907,8.1425 -3.43505,11.5776 1.65402,3.4352 7.5063,6.2341 12.5954,7.5064 5.0891,1.2722 9.41471,1.0178 20.61082,-0.7634 11.1961,-1.7812 29.2619,-5.089 41.09402,-7.1247 11.83212,-2.0356 17.42998,-2.7989 23.02794,-3.5623"
       id="path12"
       inkscape:path-effect="#path-effect12"
       inkscape:original-d="m 856.48855,1670.229 c -2.54453,4.0713 -5.08906,8.1425 -7.63359,12.2137 5.85254,2.7991 11.70484,5.598 17.55725,8.397 4.32579,-0.2545 8.6514,-0.5089 12.9771,-0.7634 18.06652,-3.3079 36.13232,-6.6157 54.19848,-9.9236 5.59807,-0.7634 11.19593,-1.5267 16.79389,-2.2901"
       transform="translate(-84.615385,-142.30769)" />
    <path
       style="fill:none;stroke:#0c0505;stroke-width:7.55906;stroke-linecap:round;stroke-linejoin:round;stroke-opacity:1;paint-order:markers fill stroke"
       d="m 2007.0313,1971.0938 c 1.3021,-7.5521 2.6041,-15.1042 1.8429,-22.7674 -0.7612,-7.6632 -3.5856,-15.4372 -6.4603,-22.6121 -2.8748,-7.1748 -5.7371,-13.6095 -7.0824,-19.6619 -1.3453,-6.0525 -1.1734,-11.7225 -0.4861,-16.7913 0.6872,-5.0687 1.89,-9.536 2.2336,-12.7147 0.3437,-3.1787 -0.1718,-5.0687 -2.1477,-6.787 -1.976,-1.7182 -5.4124,-3.2646 -8.3334,-4.0377 -2.921,-0.7732 -5.3264,-0.7732 -7.646,-0.7732 -2.3196,0 -4.5533,0 -6.362,-1.5952 -1.8087,-1.5952 -3.1924,-4.7857 -4.5761,-7.9761"
       id="path13"
       inkscape:path-effect="#path-effect14"
       inkscape:original-d="m 2007.0313,1971.0938 c 1.302,-7.5521 2.6041,-15.1042 3.9062,-22.6563 -2.8245,-7.7743 -5.6489,-15.5483 -8.4733,-23.3224 -2.9636,-6.5585 -5.8067,-13.0017 -8.6498,-19.445 0.1719,-5.6702 0.3437,-11.3402 0.5155,-17.0103 1.2028,-4.4674 2.4055,-8.9347 3.6082,-13.4021 -0.5154,-1.89 -1.0309,-3.78 -1.5463,-5.6701 -3.4365,-1.5464 -6.8729,-3.0928 -10.3093,-4.6391 -2.4056,0 -4.811,0 -7.2165,0 -2.2337,0 -4.4674,0 -6.7011,0 -1.3837,-3.1904 -2.7674,-6.3809 -4.1511,-9.5713"
       sodipodi:nodetypes="ccccccccscc"
       transform="translate(-84.615385,-142.30769)" />
    <path
       style="fill:none;stroke:#0c0505;stroke-width:7.55906;stroke-linecap:round;stroke-linejoin:round;stroke-opacity:1;paint-order:markers fill stroke"
       d="m 1961.329,1834.4286 c -5.3227,-3.7442 -10.6454,-7.4884 -13.9941,-11.0788 -3.3487,-3.5904 -4.7232,-7.0268 -6.1837,-10.2914 -1.4605,-3.2646 -3.0069,-6.3574 -8.0757,-8.0756 -5.0688,-1.7182 -13.6597,-2.0619 -19.0721,-1.4605 -5.4124,0.6014 -7.646,2.1478 -10.9107,4.897 -3.2646,2.7492 -7.5601,6.701 -10.0515,9.9656 -2.4914,3.2646 -3.1786,5.8419 -3.5223,7.4742 -0.3436,1.6323 -0.3436,2.3196 -1.1168,3.0069 -0.7733,0.6873 -2.3196,1.3745 -6.8729,1.0309 -4.5534,-0.3437 -12.1134,-1.7182 -19.7595,-3.3506 -7.6461,-1.6323 -15.3779,-3.5223 -24.055,-4.8109 -8.6771,-1.2887 -18.2989,-1.9759 -26.0309,-2.4055 -7.732,-0.4295 -13.5738,-0.6014 -21.3918,-0.5155 -7.818,0.086 -17.6116,0.4296 -26.3746,1.1169 -8.7629,0.6873 -16.4947,1.7182 -24.5704,2.3195 -8.0757,0.6014 -16.4948,0.7733 -23.6254,0.5155 -7.1307,-0.2577 -12.9725,-0.945 -20.9622,-2.921 -7.9898,-1.9759 -18.1271,-5.2405 -31.0998,-8.9347 -12.9726,-3.6942 -28.7799,-7.8178 -40.0342,-9.6219 -11.2544,-1.8041 -17.9553,-1.2887 -23.1517,-0.5681 -5.1963,0.7206 -8.8878,1.6462 -12.5794,2.5718"
       id="path14"
       inkscape:path-effect="#path-effect15"
       inkscape:original-d="m 1961.329,1834.4286 c -5.3227,-3.7442 -10.6454,-7.4884 -15.9682,-11.2327 -1.3746,-3.4365 -2.7491,-6.8729 -4.1237,-10.3093 -1.5464,-3.0928 -3.0928,-6.1856 -4.6392,-9.2784 -8.5912,-0.3436 -17.1821,-0.6872 -25.7732,-1.0309 -2.2337,1.5464 -4.4673,3.0928 -6.701,4.6392 -4.2956,3.952 -8.5911,7.9038 -12.8866,11.8557 -0.6873,2.5773 -1.3746,5.1546 -2.0618,7.7319 0,0.6873 0,1.3746 0,2.0619 -1.5465,0.6873 -3.0928,1.3745 -4.6392,2.0618 -7.5603,-1.3746 -15.1203,-2.7491 -22.6804,-4.1237 -7.7321,-1.89 -15.4639,-3.78 -23.1959,-5.6701 -9.6222,-0.6873 -19.244,-1.3745 -28.866,-2.0618 -5.842,-0.1719 -11.6838,-0.3437 -17.5258,-0.5155 -9.794,0.3437 -19.5876,0.6873 -29.3814,1.0309 -7.7321,1.031 -15.4639,2.0619 -23.1959,3.0928 -8.4194,0.1718 -16.8385,0.3437 -25.2577,0.5155 -5.8421,-0.6873 -11.6839,-1.3746 -17.5258,-2.0619 -10.1376,-3.2646 -20.2749,-6.5292 -30.4124,-9.7938 -15.8078,-4.1238 -31.6151,-8.2474 -47.4226,-12.3711 -6.7012,0.5154 -13.4021,1.0309 -20.1031,1.5464 -3.6917,0.9257 -7.3832,1.8513 -11.0748,2.7769"
       sodipodi:nodetypes="cccccccccccccccccccccc"
       transform="translate(-84.615385,-142.30769)" />
    <path
       style="fill:none;stroke:#0c0505;stroke-width:7.55906;stroke-linecap:round;stroke-linejoin:round;stroke-opacity:1;paint-order:markers fill stroke"
       d="m 1453.0928,2187.6289 c 2.4055,-0.3437 4.811,-0.6873 10.5671,-6.7871 5.7561,-6.0998 14.8624,-17.9552 25.8591,-30.9278 10.9967,-12.9727 23.8831,-27.0618 32.3024,-37.457 8.4192,-10.3953 12.371,-17.0962 18.0412,-27.6633 5.6702,-10.5672 13.0584,-24.9999 22.5087,-43.2991 9.4503,-18.2992 20.9621,-40.4637 28.3504,-59.0205 7.3884,-18.5569 10.6529,-33.505 12.9725,-48.7973 2.3196,-15.2922 3.6941,-30.9277 4.1237,-47.5086 0.4295,-16.5809 -0.086,-34.1063 -3.4365,-48.1099 -3.3506,-14.0035 -9.536,-24.4844 -14.8625,-30.7559 -5.3265,-6.2715 -9.7938,-8.3333 -16.6667,-9.2783 -6.873,-0.9451 -16.1512,-0.7732 -22.5086,-0.1718 -6.3574,0.6013 -9.7938,1.6323 -14.3471,2.1477 -4.5533,0.5155 -10.2233,0.5155 -18.5568,-0.6014 -8.3334,-1.1168 -19.3297,-3.3505 -33.1615,-2.1477 -13.8318,1.2028 -30.4981,5.8419 -46.3058,13.2303 -15.8078,7.3884 -30.7559,17.5257 -40.6357,29.8969 -9.8798,12.3713 -14.6906,26.9759 -16.9243,48.0243 -2.2337,21.0483 -1.89,48.5392 -0.1718,71.7352 1.7182,23.1961 4.8109,42.0961 8.5911,57.9897 3.7801,15.8936 8.2473,28.7799 13.4879,42.8694 5.2407,14.0895 11.2543,29.3813 15.8076,46.6496 4.5533,17.2682 7.646,36.5118 9.3642,47.852 1.7182,11.3403 2.0619,14.7766 2.4055,18.213"
       id="path15"
       inkscape:path-effect="#path-effect16"
       inkscape:original-d="m 1453.0928,2187.6289 c 2.4055,-0.3437 4.811,-0.6873 7.2165,-1.031 9.1067,-11.8559 18.213,-23.7113 27.3196,-35.567 12.8868,-14.0896 25.7732,-28.1787 38.6598,-42.268 3.9519,-6.7012 7.9037,-13.4021 11.8556,-20.1031 7.3885,-14.4333 14.7767,-28.866 22.165,-43.299 11.5122,-22.1654 23.024,-44.3299 34.5361,-66.4948 3.2646,-14.9488 6.5292,-29.8969 9.7938,-44.8454 1.3746,-15.636 2.7491,-31.2715 4.1237,-46.9072 -0.5155,-17.5261 -1.0309,-35.0515 -1.5464,-52.5773 -6.1857,-10.4813 -12.3711,-20.9622 -18.5567,-31.4433 -4.4674,-2.0619 -8.9347,-4.1237 -13.4021,-6.1856 -9.2785,0.1718 -18.5567,0.3437 -27.835,0.5155 -3.4365,1.0309 -6.8729,2.0618 -10.3093,3.0928 -5.6702,0 -11.3402,0 -17.0103,0 -10.9968,-2.2338 -21.9931,-4.4674 -32.9897,-6.7011 -16.667,4.6393 -33.3333,9.2784 -50,13.9176 -14.9488,10.1376 -29.8969,20.2749 -44.8454,30.4123 -4.8111,14.6051 -9.622,29.2097 -14.4329,43.8145 0.3436,27.4919 0.6872,54.9828 1.0309,82.4742 3.0928,18.9007 6.1855,37.8007 9.2783,56.701 4.4675,12.8869 8.9347,25.7732 13.4021,38.6598 6.0139,15.2924 12.0275,30.5842 18.0412,45.8763 3.0929,19.2444 6.1856,38.488 9.2784,57.732 0.3436,3.4365 0.6873,6.8728 1.0309,10.3092"
       transform="translate(-84.615385,-142.30769)" />
    <path
       style="fill:none;stroke:#0c0505;stroke-width:7.55906;stroke-linecap:round;stroke-linejoin:round;stroke-opacity:1;paint-order:markers fill stroke"
       d="m 1543.4708,2078.6942 c 9.9083,-5.9565 19.8167,-11.913 28.7229,-16.2658 8.9061,-4.3529 16.8097,-7.1019 24.7135,-9.8511"
       id="path16"
       inkscape:path-effect="#path-effect17"
       inkscape:original-d="m 1543.4708,2078.6942 c 9.9083,-5.9565 19.8167,-11.913 29.7251,-17.8695 7.9039,-2.7492 15.8075,-5.4982 23.7113,-8.2474"
       sodipodi:nodetypes="ccc"
       transform="translate(-84.615385,-142.30769)" />
    <path
       style="fill:none;stroke:#0c0505;stroke-width:7.55906;stroke-linecap:round;stroke-linejoin:round;stroke-opacity:1;paint-order:markers fill stroke"
       d="m 1607.2165,2022.1649 c -6.0138,17.8695 -12.0275,35.7389 -15.8935,48.2819 -3.866,12.543 -5.5842,19.7594 -7.1268,24.8252 -1.5426,5.0659 -2.9096,7.9809 -4.2767,10.8961"
       id="path17"
       inkscape:path-effect="#path-effect18"
       inkscape:original-d="m 1607.2165,2022.1649 c -6.0138,17.8695 -12.0275,35.7389 -18.0412,53.6083 -1.7183,7.2166 -3.4365,14.433 -5.1547,21.6495 -1.367,2.9152 -2.734,5.8302 -4.1011,8.7454"
       sodipodi:nodetypes="cccc"
       transform="translate(-84.615385,-142.30769)" />
    <path
       style="fill:none;stroke:#0c0505;stroke-width:7.55906;stroke-linecap:round;stroke-linejoin:round;stroke-opacity:1;paint-order:markers fill stroke"
       d="m 1740.7216,1939.6907 c 4.2955,15.9794 8.5911,31.9588 9.9656,46.8215 1.3746,14.8626 -0.1717,28.6081 -6.8729,45.5327 -6.7011,16.9246 -18.5566,37.0273 -31.5292,57.1306 -12.9727,20.1033 -27.0617,40.2059 -41.1511,60.309"
       id="path18"
       inkscape:path-effect="#path-effect19"
       inkscape:original-d="m 1740.7216,1939.6907 c 4.2956,15.9794 8.5911,31.9588 12.8866,47.9382 -1.5464,13.7459 -3.0927,27.4914 -4.6391,41.2371 -11.8559,20.1035 -23.7114,40.2062 -35.567,60.3093 -14.0897,20.1035 -28.1787,40.2061 -42.2681,60.3092"
       transform="translate(-84.615385,-142.30769)" />
    <path
       style="fill:#ff0000;stroke:#0c0505;stroke-width:7.55906;stroke-linecap:round;stroke-linejoin:round;stroke-opacity:1;paint-order:markers fill stroke"
       d="m 1560.9966,2150.4296 c 2.5773,2.3195 7.3883,5.0687 14.2613,9.1924 6.8729,4.1238 15.8074,9.622 26.6323,15.5499 10.8248,5.9279 23.5394,12.2852 32.0445,15.6357 8.5052,3.3505 12.8007,3.6941 17.8695,2.4913 5.0688,-1.2027 10.9106,-3.9518 15.1202,-9.1925 4.2097,-5.2406 6.787,-12.9724 7.0447,-19.158 0.2577,-6.1856 -1.8041,-10.8247 -10.9108,-18.5568 -9.1067,-7.732 -25.2576,-18.5565 -38.3161,-26.3745 -13.0586,-7.8179 -23.024,-12.6288 -30.4124,-14.0893 -7.3883,-1.4604 -12.1992,0.4296 -15.6356,2.4914 -3.4365,2.0619 -5.4983,4.2956 -7.8179,8.3335 -2.3197,4.0378 -4.8969,9.8796 -7.1306,14.7766 -2.2337,4.8969 -4.1237,8.8487 -4.8969,11.7697 -0.7732,2.921 -0.4295,4.811 2.1478,7.1306 z"
       id="path19"
       inkscape:path-effect="#path-effect20"
       inkscape:original-d="m 1558.7629,2150 c 4.811,2.7491 9.622,5.4983 14.433,8.2474 8.9349,5.4984 17.8694,10.9966 26.8041,16.4949 12.715,6.3575 25.4296,12.7147 38.1443,19.0721 4.2956,0.3437 8.5911,0.6873 12.8866,1.031 5.8421,-2.7492 11.6839,-5.4983 17.5258,-8.2475 2.5774,-7.7321 5.1546,-15.4639 7.732,-23.1958 -2.0619,-4.6393 -4.1238,-9.2784 -6.1856,-13.9176 -16.1515,-10.8249 -32.3024,-21.6494 -48.4536,-32.4742 -9.9659,-4.8111 -19.9313,-9.622 -29.8969,-14.433 -4.8111,1.8901 -9.622,3.7801 -14.433,5.6701 -2.0619,2.2337 -4.1237,4.4674 -6.1856,6.7011 -2.5774,5.842 -5.1546,11.6838 -7.7319,17.5257 -1.8901,3.952 -3.7801,7.9038 -5.6701,11.8557 0.3436,1.8901 0.6872,3.7801 1.0309,5.6701 z"
       sodipodi:nodetypes="ccccccccccccccc"
       transform="translate(-84.615385,-142.30769)" />
    <path
       style="fill:#008000;stroke:#0c0505;stroke-width:7.55906;stroke-linecap:round;stroke-linejoin:round;stroke-opacity:1;paint-order:markers fill stroke"
       d="m 1510.6529,2260.4811 c -3.0928,-0.5154 -6.8728,-0.8591 -9.7079,1.2887 -2.8351,2.1478 -4.7251,6.7869 -4.2096,10.6529 0.5155,3.866 3.4364,6.9587 17.526,13.5739 14.0896,6.6153 39.3468,16.7525 53.8658,22.079 14.5189,5.3265 18.2989,5.8419 21.9072,4.1237 3.6083,-1.7183 7.0446,-5.6701 7.5601,-9.2784 0.5154,-3.6083 -1.89,-6.8728 -15.5501,-13.5739 -13.66,-6.7012 -38.5736,-16.8384 -52.2334,-22.2508 -13.6598,-5.4124 -16.0653,-6.0996 -19.1581,-6.6151 z"
       id="path20"
       inkscape:path-effect="#path-effect21"
       inkscape:original-d="m 1511.3402,2260.3093 c -3.7801,-0.3437 -7.5601,-0.6873 -11.3402,-1.0309 -1.8901,4.6392 -3.7801,9.2783 -5.6701,13.9175 2.921,3.0928 5.8419,6.1855 8.7629,9.2783 25.2582,10.1377 50.5154,20.2749 75.7732,30.4124 3.7801,0.5155 7.5601,1.0309 11.3402,1.5464 3.4365,-3.952 6.8728,-7.9038 10.3093,-11.8557 -2.4056,-3.2647 -4.811,-6.5292 -7.2165,-9.7938 -24.9146,-10.1377 -49.8282,-20.2749 -74.7423,-30.4124 -2.4055,-0.6873 -4.811,-1.3745 -7.2165,-2.0618 z"
       transform="translate(-84.615385,-142.30769)" />
    <path
       style="fill:#ffcc00;stroke:#0c0505;stroke-width:7.55906;stroke-linecap:round;stroke-linejoin:round;stroke-opacity:1;paint-order:markers fill stroke"
       d="m 1463.4021,2414.2611 c 8.4192,1.031 24.0549,5.4983 39.1754,10.5671 15.1204,5.0688 29.7249,10.7388 37.8864,14.6907 8.1616,3.9519 9.8798,6.1855 9.5361,8.9347 -0.3437,2.7492 -2.7491,6.0138 -5.2692,8.9634 -2.5201,2.9496 -5.1545,5.5841 -14.9486,4.8109 -9.794,-0.7733 -26.7467,-4.9541 -39.7766,-8.3333 -13.0298,-3.3792 -22.1362,-5.9565 -27.8063,-8.4479 -5.6701,-2.4914 -7.9038,-4.8969 -9.2783,-7.5602 -1.3746,-2.6632 -1.89,-5.5841 -1.8041,-8.9347 0.086,-3.3505 0.7731,-7.1305 1.7181,-10.2233 0.9451,-3.0928 2.1478,-5.4983 10.5671,-4.4674 z"
       id="path21"
       inkscape:path-effect="#path-effect22"
       inkscape:original-d="m 1456.1856,2410.8247 c 15.6357,4.4674 31.2714,8.9348 46.9072,13.4021 14.6051,5.6702 29.2096,11.3402 43.8144,17.0103 1.7183,2.2337 3.4364,4.4674 5.1547,6.701 -2.4056,3.2647 -4.811,6.5293 -7.2165,9.7939 -2.6347,2.6346 -5.2691,5.2691 -7.9038,7.9037 -16.9534,-4.1811 -33.9061,-8.362 -50.8591,-12.5429 -9.1067,-2.5774 -18.2131,-5.1547 -27.3196,-7.732 -2.2337,-2.4055 -4.4674,-4.811 -6.701,-7.2165 -0.5155,-2.921 -1.031,-5.8419 -1.5464,-8.7629 0.6873,-3.7801 1.3745,-7.5601 2.0618,-11.3402 1.2028,-2.4055 2.4055,-4.811 3.6083,-7.2165 z"
       sodipodi:nodetypes="cccccccccccc"
       transform="translate(-84.615385,-142.30769)" />
    <path
       style="fill:none;stroke:#0c0505;stroke-width:7.55906;stroke-linecap:round;stroke-linejoin:round;stroke-opacity:1;paint-order:markers fill stroke"
       d="m 1558.7629,2146.9072 c -8.4193,16.4949 -16.8385,32.9897 -24.055,48.282 -7.2166,15.2922 -13.2302,29.3812 -17.7835,39.6905 -4.5533,10.3094 -7.646,16.8385 -10.7388,23.3677"
       id="path22"
       inkscape:path-effect="#path-effect23"
       inkscape:original-d="m 1558.7629,2146.9072 c -8.4193,16.4949 -16.8385,32.9897 -25.2577,49.4846 -6.0139,14.0896 -12.0275,28.1786 -18.0413,42.268 -3.0928,6.5293 -6.1855,13.0584 -9.2783,19.5876"
       transform="translate(-84.615385,-142.30769)" />
    <path
       style="fill:none;stroke:#0c0505;stroke-width:7.55906;stroke-linecap:round;stroke-linejoin:round;stroke-opacity:1;paint-order:markers fill stroke"
       d="m 1648.7972,2195.189 c -6.6437,13.2875 -13.2875,26.5751 -18.929,38.0299 -5.6415,11.4548 -10.2805,21.0766 -14.5761,28.8087 -4.2956,7.732 -8.2474,13.5738 -11.5121,18.8144 -3.2646,5.2406 -5.8419,9.8796 -8.4192,14.5188"
       id="path23"
       inkscape:path-effect="#path-effect24"
       inkscape:original-d="m 1648.7972,2195.189 c -6.6437,13.2875 -13.2875,26.5751 -19.9312,39.8625 -4.6393,9.6222 -9.2784,19.244 -13.9175,28.866 -3.952,5.8421 -7.9038,11.6839 -11.8557,17.5258 -2.5774,4.6393 -5.1547,9.2783 -7.732,13.9175"
       sodipodi:nodetypes="ccccc"
       transform="translate(-84.615385,-142.30769)" />
    <path
       style="fill:none;stroke:#0c0505;stroke-width:7.55906;stroke-linecap:round;stroke-linejoin:round;stroke-opacity:1;paint-order:markers fill stroke"
       d="m 1495.8763,2275.945 c -6.5865,16.1566 -13.4376,32.9622 -18.4886,47.7527 -5.051,14.7905 -8.4874,28.0205 -10.3774,38.3299 -1.89,10.3093 -2.2337,17.6975 -3.0928,25.6873 -0.8591,7.9897 -2.2336,16.5806 -3.6082,25.1717"
       id="path24"
       inkscape:path-effect="#path-effect25"
       inkscape:original-d="m 1495.8763,2275.945 c -9.6148,14.9221 -14.0267,32.722 -20.1031,49.3127 -3.4365,13.2305 -6.8729,26.4605 -10.3093,39.6908 -0.3436,7.3884 -0.6873,14.7766 -1.0309,22.1649 -1.3746,8.5912 -2.7492,17.1821 -4.1237,25.7732"
       sodipodi:nodetypes="ccccc"
       transform="translate(-84.615385,-142.30769)" />
    <path
       style="fill:none;stroke:#0c0505;stroke-width:7.55906;stroke-linecap:round;stroke-linejoin:round;stroke-opacity:1;paint-order:markers fill stroke"
       d="m 1584.5361,2314.9485 c -5.1546,22.8522 -10.3093,45.7044 -17.0104,65.9795 -6.7011,20.2751 -14.9484,37.9723 -23.1958,55.6699"
       id="path25"
       inkscape:path-effect="#path-effect26"
       inkscape:original-d="m 1584.5361,2314.9485 c -5.1547,22.8522 -10.3093,45.7044 -15.4639,68.5567 -8.2476,17.6979 -24.7423,53.0927 -24.7423,53.0927"
       sodipodi:nodetypes="ccc"
       transform="translate(-84.615385,-142.30769)" />
    <path
       style="fill:none;stroke:#0c0505;stroke-width:7.55906;stroke-linecap:round;stroke-linejoin:round;stroke-opacity:1;paint-order:markers fill stroke"
       d="m 1753.0928,1995.8763 c 0,0 0,0 0,0 5.6701,-7.2165 11.3402,-14.433 15.5174,-18.5382 4.1772,-4.1052 6.8615,-5.0991 9.5458,-6.093"
       id="path26"
       inkscape:path-effect="#path-effect27"
       inkscape:original-d="m 1753.0928,1995.8763 v 0 c 0,0 11.3402,-14.433 17.0103,-21.6495 2.6843,-0.9939 5.3686,-1.9878 8.0529,-2.9817"
       sodipodi:nodetypes="cccc"
       transform="translate(-84.615385,-142.30769)" />
    <path
       style="fill:none;stroke:#0c0505;stroke-width:7.55906;stroke-linecap:round;stroke-linejoin:round;stroke-opacity:1;paint-order:markers fill stroke"
       d="m 2011.3402,1954.6392 c 6.3574,1.3746 12.7148,2.7491 17.6976,10.1376 4.9829,7.3884 8.5911,20.7902 8.0755,31.6151 -0.5155,10.8248 -5.1545,19.072 -8.3333,26.0308 -3.1787,6.9589 -4.8969,12.6288 -6.6151,19.5017 -1.7182,6.873 -3.4364,14.9485 -5.3264,21.9932 -1.8901,7.0447 -3.9519,13.0583 -8.763,18.5566 -4.811,5.4984 -12.371,10.4811 -17.268,13.0584 -4.8969,2.5773 -7.1305,2.7492 -10.1374,6.0997 -3.0069,3.3506 -6.7869,9.8797 -11.9416,14.5189 -5.1547,4.6392 -11.6838,7.3883 -18.8144,7.8179 -7.1307,0.4295 -14.8626,-1.4605 -21.6496,-2.5773 -6.787,-1.1169 -12.6288,-1.4605 -16.4089,0.1718 -3.78,1.6323 -5.4982,5.2405 -10.1374,6.7869 -4.6393,1.5464 -12.1993,1.031 -19.4159,-0.2577 -7.2165,-1.2887 -14.0892,-3.3505 -20.0171,-5.7561 -5.9279,-2.4055 -10.9106,-5.1546 -15.6357,-5.3264 -4.7252,-0.1717 -9.1925,2.2337 -15.2922,2.1478 -6.0997,-0.086 -13.8315,-2.6633 -19.4157,-6.6152 -5.5843,-3.9519 -9.0206,-9.2783 -11.5121,-15.4639 -2.4914,-6.1857 -4.0377,-13.2302 -6.1855,-18.9862 -2.1478,-5.7561 -4.8969,-10.2234 -9.5362,-14.433 -4.6392,-4.2097 -11.1683,-8.1615 -13.402,-13.7458 -2.2336,-5.5842 -0.1718,-12.8006 -0.6873,-18.2989 -0.5155,-5.4983 -3.6082,-9.2783 -3.6941,-16.2372 -0.086,-6.9589 2.835,-17.0961 5.5842,-24.3986 2.7492,-7.3024 5.3265,-11.7697 6.2715,-16.6667 0.945,-4.8969 0.2577,-10.2233 1.0309,-14.8625 0.7732,-4.6392 3.0068,-8.591 6.5292,-12.2852 3.5224,-3.6942 8.3333,-7.1305 14.8626,-9.3642 6.5293,-2.2337 14.7766,-3.2646 18.213,-5.4124 3.4364,-2.1478 2.0619,-5.4124 1.1168,-8.5052 -0.945,-3.0928 -1.4604,-6.0137 0.3437,-10.3952 1.8042,-4.3815 5.9278,-10.2233 10.9107,-14.2611 4.9829,-4.0379 10.8247,-6.2715 16.1512,-8.5052 5.3265,-2.2337 10.1374,-4.4673 14.0893,-7.4742 3.9519,-3.0069 7.0446,-6.7869 10.3952,-8.1615 3.3506,-1.3745 6.9587,-0.3436 11.5121,1.2028 4.5533,1.5464 10.0515,3.6083 13.9175,6.9588 3.8659,3.3505 6.0996,7.9896 10.6529,12.0275 4.5534,4.0378 11.4261,7.4742 17.4399,12.0275 6.0138,4.5533 11.1683,10.2233 15.4638,15.4639 4.2956,5.2406 7.732,10.0515 10.1375,14.3471 2.4055,4.2955 3.78,8.0755 7.2165,9.1064 3.4365,1.0309 8.9347,-0.6873 13.4021,-1.89 4.4674,-1.2028 7.9037,-1.89 10.9106,-0.6873 3.0069,1.2028 5.5842,4.2955 6.9588,6.8729 1.3745,2.5773 1.5464,4.6391 2.0618,6.9587 0.5155,2.3197 1.3746,4.8969 3.1787,6.8729 1.8042,1.976 4.5533,3.3505 6.5578,4.4674 2.0046,1.1168 3.2647,1.9759 4.5247,2.835"
       id="path27"
       inkscape:path-effect="#path-effect28"
       inkscape:original-d="m 2011.3402,1954.6392 c 6.3574,1.3745 12.7148,2.7491 19.0722,4.1237 3.6083,13.4023 7.2165,26.8041 10.8247,40.2062 -4.6393,8.2476 -9.2783,16.4948 -13.9175,24.7422 -1.7183,5.6703 -3.4364,11.3402 -5.1547,17.0103 -1.7182,8.0758 -3.4364,16.1513 -5.1546,24.2269 -2.0619,6.0138 -4.1237,12.0274 -6.1856,18.0412 -7.5602,4.9829 -15.1202,9.9656 -22.6804,14.9484 -2.2337,0.1719 -4.4673,0.3437 -6.701,0.5155 -3.7801,6.5293 -7.5601,13.0584 -11.3402,19.5876 -6.5293,2.7492 -13.0584,5.4983 -19.5876,8.2475 -7.7321,-1.8901 -15.464,-3.7801 -23.1959,-5.6701 -5.8421,-0.3437 -11.6839,-0.6873 -17.5258,-1.031 -1.7182,3.6083 -3.4364,7.2165 -5.1546,10.8248 -7.5603,-0.5155 -15.1203,-1.031 -22.6804,-1.5464 -6.873,-2.0619 -13.7457,-4.1237 -20.6186,-6.1856 -4.9829,-2.7492 -9.9656,-5.4983 -14.9484,-8.2474 -4.4675,2.4055 -8.9348,4.811 -13.4021,7.2165 -7.7321,-2.5774 -15.4639,-5.1547 -23.1959,-7.732 -3.4365,-5.3265 -6.8728,-10.6529 -10.3093,-15.9794 -1.5464,-7.0448 -3.0927,-14.0893 -4.6391,-21.134 -2.7492,-4.4674 -5.4983,-8.9347 -8.2475,-13.402 -6.5293,-3.952 -13.0584,-7.9038 -19.5876,-11.8557 2.0619,-7.2166 4.1237,-14.433 6.1856,-21.6495 -3.0929,-3.7801 -6.1856,-7.5601 -9.2784,-11.3402 2.921,-10.1377 5.842,-20.2749 8.7629,-30.4124 2.5774,-4.4674 5.1547,-8.9347 7.732,-13.402 -0.6873,-5.3266 -1.3746,-10.653 -2.0619,-15.9794 2.2337,-3.952 4.4674,-7.9038 6.701,-11.8557 4.8111,-3.4365 9.622,-6.8728 14.433,-10.3093 8.2476,-1.0309 16.4949,-2.0618 24.7423,-3.0927 -1.3746,-3.2647 -2.7491,-6.5293 -4.1237,-9.7939 -0.5155,-2.921 -1.0309,-5.8419 -1.5464,-8.7628 4.1238,-5.8421 8.2474,-11.6839 12.3711,-17.5258 5.8421,-2.2337 11.6839,-4.4674 17.5258,-6.7011 4.8111,-2.2337 9.622,-4.4673 14.433,-6.701 3.0928,-3.7801 6.1856,-7.5601 9.2783,-11.3402 3.6084,1.031 7.2165,2.0619 10.8248,3.0928 5.4984,2.0619 10.9966,4.1237 16.4948,6.1856 2.2338,4.6392 4.4674,9.2783 6.7011,13.9175 6.873,3.4365 13.7457,6.8728 20.6185,10.3093 5.1548,5.6702 10.3093,11.3402 15.4639,17.0103 3.4365,4.8111 6.8729,9.622 10.3093,14.433 1.3746,3.7801 2.7492,7.5601 4.1237,11.3402 5.4984,-1.7183 10.9966,-3.4365 16.4949,-5.1547 3.4365,-0.6873 6.8728,-1.3745 10.3093,-2.0618 2.5773,3.0928 5.1546,6.1855 7.7319,9.2783 0.1718,2.0619 0.3437,4.1237 0.5155,6.1856 0.8591,2.5774 1.7182,5.1546 2.5773,7.732 2.7492,1.3746 5.4983,2.7491 8.2474,4.1237 1.26,0.8591 2.5201,1.7182 3.7801,2.5773"
       sodipodi:nodetypes="ccccccccccccccccccccccccccccccccccccccccccccccccccc"
       transform="translate(-84.615385,-142.30769)" />
    <path
       style="fill:none;stroke:#0c0505;stroke-width:7.55906;stroke-linecap:round;stroke-linejoin:round;stroke-opacity:1;paint-order:markers fill stroke"
       d="m 1977.5419,1913.6499 c -3.4206,-1.368 -6.8411,-2.7361 -10.2811,-3.5498 -3.4399,-0.8138 -6.8991,-1.0734 -10.1626,-0.9792 -3.2636,0.094 -6.3313,0.5419 -9.399,0.9897"
       id="path28"
       inkscape:path-effect="#path-effect33"
       inkscape:original-d="m 1977.5419,1913.6499 c -3.4206,-1.368 -6.8411,-2.7361 -10.2617,-4.1041 -3.4593,-0.2595 -6.9185,-0.5191 -10.3777,-0.7786 -3.0679,0.4478 -6.1356,0.8956 -9.2033,1.3434"
       transform="translate(-84.615385,-142.30769)" />
    <path
       style="fill:none;stroke:#0c0505;stroke-width:7.55906;stroke-linecap:round;stroke-linejoin:round;stroke-opacity:1;paint-order:markers fill stroke"
       d="m 1974.132,1909.9932 c -0.2569,-2.5756 -0.5139,-5.1511 -1.5784,-7.4427 -1.0646,-2.2916 -2.9367,-4.2992 -5.0578,-5.1363 -2.1212,-0.8371 -4.4912,-0.5036 -6.8477,1.4257 -2.3565,1.9294 -4.6992,5.4545 -7.0421,8.9798"
       id="path29"
       inkscape:path-effect="#path-effect34"
       inkscape:original-d="m 1974.132,1909.9932 c -0.257,-2.5756 -0.5139,-5.1511 -0.7708,-7.7266 -1.8722,-2.0077 -3.7443,-4.0153 -5.6164,-6.0229 -2.3702,0.3334 -4.7402,0.6668 -7.1103,1.0003 -2.3429,3.5253 -4.6857,7.0504 -7.0285,10.5757"
       sodipodi:nodetypes="ccccc"
       transform="translate(-84.615385,-142.30769)" />
    <path
       style="display:inline;fill:none;stroke:#0c0505;stroke-width:7.55906;stroke-linecap:round;stroke-linejoin:round;stroke-opacity:1;paint-order:markers fill stroke"
       d="m 1967.3621,1853.5699 c -4.53,0.6049 -9.0599,1.2097 -12.2852,1.2012 -3.2252,-0.01 -5.1457,-0.6306 -7.1976,-1.4653 -2.0519,-0.8347 -4.235,-1.8821 -6.4181,-2.9295"
       id="path30"
       inkscape:path-effect="#path-effect31"
       inkscape:original-d="m 1967.3621,1853.5699 c -4.53,0.6049 -9.0599,1.2097 -13.5898,1.8146 -1.9206,-0.6221 -3.8411,-1.244 -5.7617,-1.866 -2.1832,-1.0474 -4.3663,-2.0948 -6.5494,-3.1422"
       sodipodi:nodetypes="cccc"
       transform="translate(-84.615385,-142.30769)" />
    <path
       style="display:inline;fill:none;stroke:#0c0505;stroke-width:7.55906;stroke-linecap:round;stroke-linejoin:round;stroke-opacity:1;paint-order:markers fill stroke"
       d="m 1961.5503,1835.2623 c -3.6027,-0.1258 -7.2053,-0.2516 -10.618,2.1265 -3.4127,2.3781 -6.6352,7.2598 -9.8578,12.1417"
       id="path31"
       inkscape:path-effect="#path-effect32"
       inkscape:original-d="m 1961.5503,1835.2623 c -3.6027,-0.1258 -7.2053,-0.2516 -10.808,-0.3774 -3.2226,4.882 -6.4452,9.7637 -9.6678,14.6456"
       transform="translate(-84.615385,-142.30769)" />
    <path
       style="fill:none;stroke:#0c0505;stroke-width:7.55906;stroke-linecap:round;stroke-linejoin:round;stroke-opacity:1;paint-order:markers fill stroke"
       d="m 1956.7073,1832.9268 c 2.439,0.813 4.8781,1.6261 6.3008,2.7439 1.4228,1.1179 1.8293,2.5407 1.0163,5.3863 -0.8131,2.8455 -2.8456,7.1137 -4.8781,11.382"
       id="path32"
       inkscape:path-effect="#path-effect35"
       inkscape:original-d="m 1956.7073,1832.9268 c 2.439,0.813 4.8781,1.626 7.3171,2.4391 0.4065,1.4227 0.813,2.8455 1.2195,4.2682 -2.0326,4.2684 -4.065,8.5366 -6.0976,12.8049"
       transform="translate(-84.615385,-142.30769)" />
    <path
       style="fill:none;stroke:#0c0505;stroke-width:7.55906;stroke-linecap:round;stroke-linejoin:round;stroke-opacity:1;paint-order:markers fill stroke"
       d="m 1270.8303,1715.972 c -7.2063,-4.1875 -14.4125,-8.375 -25.2309,-13.0514 -10.8183,-4.6764 -25.2483,-9.8415 -38.9595,-15.3385 -13.7111,-5.4971 -26.7026,-11.3257 -37.8676,-15.8 -11.165,-4.4742 -20.5028,-7.5937 -31.5332,-12.5887 -11.0304,-4.9949 -23.7528,-11.865 -34.8216,-16.0636 -11.0689,-4.1985 -20.4835,-5.7252 -29.5167,-7.3791 -9.0331,-1.654 -17.6843,-3.4351 -29.1348,-3.944 -11.4505,-0.509 -25.6996,0.2544 -39.9491,1.2722 -14.24947,1.0178 -28.49855,2.29 -42.49361,4.1984 -13.99506,1.9084 -27.73523,4.4529 -42.74809,7.1247 -15.01286,2.6718 -31.29751,5.4707 -44.27478,7.3792 -12.97726,1.9084 -22.64628,2.9262 -28.24434,4.1984 -5.59806,1.2723 -7.12477,2.799 -7.37923,4.4529 -0.25446,1.654 0.76331,3.4351 2.54448,5.2163 1.78118,1.7812 4.32569,3.5624 9.542,3.8169 5.21632,0.2544 13.1042,-1.0178 24.80911,-2.6718 11.70492,-1.6539 27.22623,-3.6895 38.93121,-3.1806 11.70499,0.5088 19.59288,3.5622 25.82705,6.6157 6.23417,3.0534 10.81425,6.1068 12.08656,11.3231 1.27232,5.2163 -0.76327,12.5953 -4.32563,20.3562 -3.56237,7.7609 -8.6513,15.9032 -9.66918,20.4835 -1.01787,4.5802 2.03551,5.598 7.37905,3.944 5.34354,-1.6539 12.97696,-5.9795 23.91851,-10.9414 10.94155,-4.9619 25.19064,-10.5597 37.91339,-14.1221 12.7228,-3.5624 23.9185,-5.0891 32.8245,-7.8881 8.906,-2.799 15.5217,-6.8702 23.0281,-7.7608 7.5065,-0.8906 15.9033,1.3995 25.5726,6.107 9.6694,4.7074 20.6106,11.8319 30.8877,20.5379 10.2772,8.7059 19.8897,18.9928 32.3749,28.5472 12.4852,9.5545 27.8425,18.376 40.2922,26.6407 12.4497,8.2648 21.9911,15.9723 31.5327,23.6799"
       id="path33"
       inkscape:path-effect="#path-effect11-5"
       inkscape:original-d="m 1270.8303,1715.972 c -7.2063,-4.1875 -14.4125,-8.375 -21.619,-12.5626 -14.4302,-5.1652 -28.8602,-10.3303 -43.2907,-15.4956 -12.9918,-5.8288 -25.9833,-11.6574 -38.9753,-17.4863 -9.338,-3.1196 -18.6758,-6.2391 -28.014,-9.3588 -12.7226,-6.8702 -25.445,-13.7403 -38.1679,-20.6107 -9.4148,-1.5267 -18.8294,-3.0534 -28.2443,-4.5801 -8.6514,-1.7812 -17.3026,-3.5623 -25.9542,-5.3435 -14.2494,0.7633 -28.4985,1.5267 -42.7481,2.29 -14.24937,1.2723 -28.49845,2.5445 -42.7481,3.8168 -13.74046,2.5446 -27.48064,5.089 -41.22137,7.6336 -16.28499,2.799 -32.56965,5.5979 -48.85496,8.397 -9.66921,1.0178 -19.33823,2.0356 -29.00764,3.0534 -1.52671,1.5267 -3.0534,3.0534 -4.58015,4.5801 1.01781,1.7812 2.0356,3.5623 3.05344,5.3436 2.54452,1.7811 5.089,3.5623 7.63358,5.3435 7.88804,-1.2723 15.77593,-2.5445 23.66413,-3.8168 15.52162,-2.0357 31.04294,-4.0712 46.56488,-6.1069 7.88804,3.0534 15.77592,6.1068 23.66412,9.1603 4.58016,3.0534 9.16022,6.1068 13.74046,9.1603 -2.03562,7.3791 -4.07121,14.7581 -6.10687,22.1374 -5.08906,8.1425 -10.17801,16.2848 -15.26717,24.4275 3.05343,1.0178 6.1068,2.0356 9.1603,3.0534 7.63359,-4.3257 15.26702,-8.6513 22.90076,-12.9771 14.24937,-5.5979 28.49845,-11.1958 42.74809,-16.7939 11.1959,-1.5267 22.3916,-3.0534 33.5878,-4.5801 6.6158,-4.0713 13.2315,-8.1425 19.8473,-12.2138 8.3971,2.2901 16.7939,4.5802 25.1909,6.8703 10.9417,7.1248 21.8829,14.2493 32.8244,21.374 9.6128,10.2872 19.2252,20.5741 28.8379,30.8611 15.3578,8.8219 30.7151,17.6434 46.0727,26.4651 9.5418,7.7078 19.0832,15.4153 28.6248,23.1229"
       transform="rotate(-105.83774,1538.2624,1969.3942)"
       sodipodi:nodetypes="cccccccccccccccccccccccccccccccc" />
    <path
       style="fill:none;stroke:#0c0505;stroke-width:7.55906;stroke-linecap:round;stroke-linejoin:round;stroke-opacity:1;paint-order:markers fill stroke"
       d="m 856.48855,1670.229 c -2.54456,4.0713 -5.08907,8.1425 -3.43505,11.5776 1.65402,3.4352 7.5063,6.2341 12.5954,7.5064 5.0891,1.2722 9.41471,1.0178 20.61082,-0.7634 11.1961,-1.7812 29.2619,-5.089 41.09402,-7.1247 11.83212,-2.0356 17.42998,-2.7989 23.02794,-3.5623"
       id="path34"
       inkscape:path-effect="#path-effect12-7"
       inkscape:original-d="m 856.48855,1670.229 c -2.54453,4.0713 -5.08906,8.1425 -7.63359,12.2137 5.85254,2.7991 11.70484,5.598 17.55725,8.397 4.32579,-0.2545 8.6514,-0.5089 12.9771,-0.7634 18.06652,-3.3079 36.13232,-6.6157 54.19848,-9.9236 5.59807,-0.7634 11.19593,-1.5267 16.79389,-2.2901"
       transform="rotate(-105.83774,1538.2624,1969.3942)" />
    <path
       style="fill:none;stroke:#0c0505;stroke-width:7.55906;stroke-linecap:round;stroke-linejoin:round;stroke-opacity:1;paint-order:markers fill stroke"
       d="m 1039.0776,2402.7105 c 1.6129,-16.1291 3.2258,-32.2581 6.5861,-46.6399 3.3602,-14.3819 8.4677,-27.0161 16.1291,-35.4838 7.6613,-8.4678 17.8762,-12.7688 25.7955,-16.676 7.9194,-3.9072 13.5428,-7.4202 19.1663,-10.9334"
       id="path35"
       inkscape:path-effect="#path-effect37"
       inkscape:original-d="m 1039.0776,2402.7105 c 1.6129,-16.1291 3.2258,-32.2581 4.8387,-48.3871 5.1076,-12.6347 10.2151,-25.2689 15.3226,-37.9032 10.2152,-4.3012 20.4301,-8.6022 30.6451,-12.9033 5.6237,-3.5132 11.2471,-7.0263 16.8706,-10.5395"
       sodipodi:nodetypes="ccccc"
       transform="translate(-84.615385,-142.30769)" />
  </g>
</svg>
