<?xml version="1.0" encoding="UTF-8" standalone="no"?>
<!-- Created with Inkscape (http://www.inkscape.org/) -->

<svg
   version="1.1"
   id="svg1"
   width="396.2113"
   height="392.04462"
   viewBox="0 0 396.21132 392.04462"
   sodipodi:docname="x3.svg"
   inkscape:version="1.4.2 (ebf0e940d0, 2025-05-08)"
   xmlns:inkscape="http://www.inkscape.org/namespaces/inkscape"
   xmlns:sodipodi="http://sodipodi.sourceforge.net/DTD/sodipodi-0.dtd"
   xmlns="http://www.w3.org/2000/svg"
   xmlns:svg="http://www.w3.org/2000/svg">
  <defs
     id="defs1">
    <inkscape:path-effect
       effect="bspline"
       id="path-effect17"
       is_visible="true"
       lpeversion="1.3"
       weight="33.333333"
       steps="2"
       helper_size="0"
       apply_no_weight="true"
       apply_with_weight="true"
       only_selected="false"
       uniform="false" />
    <inkscape:path-effect
       effect="bspline"
       id="path-effect16"
       is_visible="true"
       lpeversion="1.3"
       weight="33.333333"
       steps="2"
       helper_size="0"
       apply_no_weight="true"
       apply_with_weight="true"
       only_selected="false"
       uniform="false" />
    <inkscape:path-effect
       effect="bspline"
       id="path-effect15"
       is_visible="true"
       lpeversion="1.3"
       weight="33.333333"
       steps="2"
       helper_size="0"
       apply_no_weight="true"
       apply_with_weight="true"
       only_selected="false"
       uniform="false" />
    <inkscape:path-effect
       effect="bspline"
       id="path-effect14"
       is_visible="true"
       lpeversion="1.3"
       weight="33.333333"
       steps="2"
       helper_size="0"
       apply_no_weight="true"
       apply_with_weight="true"
       only_selected="false"
       uniform="false" />
    <inkscape:path-effect
       effect="bspline"
       id="path-effect13"
       is_visible="true"
       lpeversion="1.3"
       weight="33.333333"
       steps="2"
       helper_size="0"
       apply_no_weight="true"
       apply_with_weight="true"
       only_selected="false"
       uniform="false" />
    <inkscape:path-effect
       effect="bspline"
       id="path-effect11"
       is_visible="true"
       lpeversion="1.3"
       weight="33.333333"
       steps="2"
       helper_size="0"
       apply_no_weight="true"
       apply_with_weight="true"
       only_selected="false"
       uniform="false" />
    <inkscape:path-effect
       effect="bspline"
       id="path-effect10"
       is_visible="true"
       lpeversion="1.3"
       weight="33.333333"
       steps="2"
       helper_size="0"
       apply_no_weight="true"
       apply_with_weight="true"
       only_selected="false"
       uniform="false" />
    <inkscape:path-effect
       effect="bspline"
       id="path-effect9"
       is_visible="true"
       lpeversion="1.3"
       weight="33.333333"
       steps="2"
       helper_size="0"
       apply_no_weight="true"
       apply_with_weight="true"
       only_selected="false"
       uniform="false" />
    <inkscape:path-effect
       effect="bspline"
       id="path-effect8"
       is_visible="true"
       lpeversion="1.3"
       weight="33.333333"
       steps="2"
       helper_size="0"
       apply_no_weight="true"
       apply_with_weight="true"
       only_selected="false"
       uniform="false" />
    <inkscape:path-effect
       effect="bspline"
       id="path-effect7"
       is_visible="true"
       lpeversion="1.3"
       weight="33.333333"
       steps="2"
       helper_size="0"
       apply_no_weight="true"
       apply_with_weight="true"
       only_selected="false"
       uniform="false" />
    <inkscape:path-effect
       effect="bspline"
       id="path-effect6"
       is_visible="true"
       lpeversion="1.3"
       weight="33.333333"
       steps="2"
       helper_size="0"
       apply_no_weight="true"
       apply_with_weight="true"
       only_selected="false"
       uniform="false" />
    <inkscape:path-effect
       effect="bspline"
       id="path-effect5"
       is_visible="true"
       lpeversion="1.3"
       weight="33.333333"
       steps="2"
       helper_size="0"
       apply_no_weight="true"
       apply_with_weight="true"
       only_selected="false"
       uniform="false" />
    <inkscape:path-effect
       effect="bspline"
       id="path-effect4"
       is_visible="true"
       lpeversion="1.3"
       weight="33.333333"
       steps="2"
       helper_size="0"
       apply_no_weight="true"
       apply_with_weight="true"
       only_selected="false"
       uniform="false" />
    <inkscape:path-effect
       effect="bspline"
       id="path-effect3"
       is_visible="true"
       lpeversion="1.3"
       weight="33.333333"
       steps="2"
       helper_size="0"
       apply_no_weight="true"
       apply_with_weight="true"
       only_selected="false"
       uniform="false" />
    <inkscape:path-effect
       effect="bspline"
       id="path-effect2"
       is_visible="true"
       lpeversion="1.3"
       weight="33.333333"
       steps="2"
       helper_size="0"
       apply_no_weight="true"
       apply_with_weight="true"
       only_selected="false"
       uniform="false" />
    <inkscape:path-effect
       effect="bspline"
       id="path-effect1"
       is_visible="true"
       lpeversion="1.3"
       weight="33.333333"
       steps="2"
       helper_size="0"
       apply_no_weight="true"
       apply_with_weight="true"
       only_selected="false"
       uniform="false" />
    <inkscape:path-effect
       effect="bspline"
       id="path-effect10-7"
       is_visible="true"
       lpeversion="1.3"
       weight="33.333333"
       steps="2"
       helper_size="0"
       apply_no_weight="true"
       apply_with_weight="true"
       only_selected="false"
       uniform="false" />
    <inkscape:path-effect
       effect="bspline"
       id="path-effect11-5"
       is_visible="true"
       lpeversion="1.3"
       weight="33.333333"
       steps="2"
       helper_size="0"
       apply_no_weight="true"
       apply_with_weight="true"
       only_selected="false"
       uniform="false" />
    <inkscape:path-effect
       effect="bspline"
       id="path-effect10-2"
       is_visible="true"
       lpeversion="1.3"
       weight="33.333333"
       steps="2"
       helper_size="0"
       apply_no_weight="true"
       apply_with_weight="true"
       only_selected="false"
       uniform="false" />
    <inkscape:path-effect
       effect="bspline"
       id="path-effect11-7"
       is_visible="true"
       lpeversion="1.3"
       weight="33.333333"
       steps="2"
       helper_size="0"
       apply_no_weight="true"
       apply_with_weight="true"
       only_selected="false"
       uniform="false" />
    <inkscape:path-effect
       effect="bspline"
       id="path-effect10-26"
       is_visible="true"
       lpeversion="1.3"
       weight="33.333333"
       steps="2"
       helper_size="0"
       apply_no_weight="true"
       apply_with_weight="true"
       only_selected="false"
       uniform="false" />
    <inkscape:path-effect
       effect="bspline"
       id="path-effect11-1"
       is_visible="true"
       lpeversion="1.3"
       weight="33.333333"
       steps="2"
       helper_size="0"
       apply_no_weight="true"
       apply_with_weight="true"
       only_selected="false"
       uniform="false" />
    <inkscape:path-effect
       effect="bspline"
       id="path-effect8-7"
       is_visible="true"
       lpeversion="1.3"
       weight="33.333333"
       steps="2"
       helper_size="0"
       apply_no_weight="true"
       apply_with_weight="true"
       only_selected="false"
       uniform="false" />
    <inkscape:path-effect
       effect="bspline"
       id="path-effect15-9"
       is_visible="true"
       lpeversion="1.3"
       weight="33.333333"
       steps="2"
       helper_size="0"
       apply_no_weight="true"
       apply_with_weight="true"
       only_selected="false"
       uniform="false" />
    <inkscape:path-effect
       effect="bspline"
       id="path-effect15-93"
       is_visible="true"
       lpeversion="1.3"
       weight="33.333333"
       steps="2"
       helper_size="0"
       apply_no_weight="true"
       apply_with_weight="true"
       only_selected="false"
       uniform="false" />
    <inkscape:path-effect
       effect="bspline"
       id="path-effect15-4"
       is_visible="true"
       lpeversion="1.3"
       weight="33.333333"
       steps="2"
       helper_size="0"
       apply_no_weight="true"
       apply_with_weight="true"
       only_selected="false"
       uniform="false" />
    <inkscape:path-effect
       effect="bspline"
       id="path-effect15-0"
       is_visible="true"
       lpeversion="1.3"
       weight="33.333333"
       steps="2"
       helper_size="0"
       apply_no_weight="true"
       apply_with_weight="true"
       only_selected="false"
       uniform="false" />
    <inkscape:path-effect
       effect="bspline"
       id="path-effect15-0-1"
       is_visible="true"
       lpeversion="1.3"
       weight="33.333333"
       steps="2"
       helper_size="0"
       apply_no_weight="true"
       apply_with_weight="true"
       only_selected="false"
       uniform="false" />
    <inkscape:path-effect
       effect="bspline"
       id="path-effect15-0-1-5"
       is_visible="true"
       lpeversion="1.3"
       weight="33.333333"
       steps="2"
       helper_size="0"
       apply_no_weight="true"
       apply_with_weight="true"
       only_selected="false"
       uniform="false" />
  </defs>
  <sodipodi:namedview
     id="namedview1"
     pagecolor="#ffffff"
     bordercolor="#000000"
     borderopacity="0.25"
     inkscape:showpageshadow="2"
     inkscape:pageopacity="0.0"
     inkscape:pagecheckerboard="0"
     inkscape:deskcolor="#d1d1d1"
     showgrid="false"
     inkscape:zoom="2.74"
     inkscape:cx="195.9854"
     inkscape:cy="32.116788"
     inkscape:window-width="1920"
     inkscape:window-height="1011"
     inkscape:window-x="0"
     inkscape:window-y="0"
     inkscape:window-maximized="1"
     inkscape:current-layer="layer1" />
  <g
     inkscape:groupmode="layer"
     id="layer1"
     inkscape:label="Layer 1"
     transform="translate(9.9217827,7.6405685)">
    <path
       id="path20"
       style="opacity:1;fill:#c8ab37;fill-opacity:1;stroke:none;stroke-width:1.65165;stroke-linecap:round;stroke-linejoin:round;stroke-dasharray:none;stroke-opacity:1;paint-order:markers fill stroke"
       d="M 121.66806 303.02935 C 121.66806 303.02935 120.46516 304.80691 120.25595 305.06842 C 120.04675 305.32992 115.49727 313.69753 115.39267 313.95904 C 115.28807 314.22054 114.8165 316.00006 114.8165 316.00006 L 115.7579 316.20904 L 122.24423 317.25396 C 122.24423 317.25396 129.46059 316.47099 129.879 316.26178 C 130.29741 316.05258 131.23859 315.58058 131.50009 315.16217 C 131.7616 314.74376 132.02462 312.28544 131.92001 312.07623 C 131.81541 311.86703 130.66415 304.85943 130.66415 304.85943 C 130.66415 304.85943 129.87879 305.3833 129.61728 305.4356 C 129.35577 305.4879 127.36923 306.37701 127.36923 306.37701 L 124.17783 305.85357 L 123.08017 304.28326 L 121.66806 303.02935 z M 243.05869 304.8067 L 241.33408 307.94537 L 236.88876 316.47076 C 236.88876 316.47076 236.99206 317.30777 237.20126 317.67388 C 237.41047 318.03999 237.98642 318.40631 237.98642 318.40631 L 247.87119 319.97467 L 253.72861 318.92779 C 253.72861 318.92779 254.82756 318.56235 254.98447 318.30084 C 255.14137 318.03934 255.19345 315.26786 255.19345 315.05865 C 255.19345 314.84945 254.30478 307.3692 254.30478 307.3692 C 254.30478 307.3692 252.63117 308.25874 252.42197 308.36334 C 252.21276 308.46795 249.80673 308.99029 249.80673 308.99029 L 245.83212 307.26568 L 243.89658 305.95709 L 243.05869 304.8067 z M 351.48056 327.34967 C 351.48056 327.34967 347.03416 333.67757 347.13876 333.88678 L 347.14072 333.88873 C 347.2295 334.12063 345.36138 337.34045 345.51767 337.70513 C 345.67457 338.07124 345.98902 338.90804 346.30283 339.11724 C 346.61664 339.32645 349.70126 340.05865 349.70126 340.05865 C 349.70126 340.05865 355.61119 340.58144 355.8204 340.73834 C 356.0296 340.89524 360.99943 340.52935 361.62705 340.52935 C 362.25466 340.52935 364.24228 339.95318 364.24228 339.95318 L 364.45126 336.18756 L 363.87509 328.23834 C 363.87509 328.23834 362.20148 329.28369 361.99228 329.33599 C 361.78307 329.38829 356.55283 328.97076 356.55283 328.97076 L 353.99033 328.60357 L 352.68369 328.08209 L 351.48056 327.34967 z M 80.76767 331.21881 L 76.74228 336.34576 L 73.812592 342.7774 C 73.812592 342.7774 74.021356 343.56234 74.230561 343.77154 C 74.439766 343.98075 75.748139 344.29498 75.748139 344.29498 C 75.748139 344.29498 84.742704 344.66021 85.265717 344.66021 C 85.788729 344.66021 89.345575 344.03391 89.55478 343.87701 C 89.763985 343.7201 90.339936 342.98618 90.339936 342.72467 C 90.339936 342.46316 90.078217 335.29888 90.078217 335.29888 L 89.660249 332.57818 L 87.777436 334.41021 C 87.777436 334.41021 86.469063 334.82818 86.259858 334.82818 C 86.050653 334.82818 84.638764 334.56646 84.638764 334.56646 L 83.121186 333.15435 L 81.709077 331.95123 L 80.76767 331.21881 z " />
    <path
       id="path19"
       style="opacity:1;fill:#ffb380;stroke:none;stroke-width:1.65165;stroke-linecap:round;stroke-linejoin:round;stroke-dasharray:none;stroke-opacity:1;paint-order:markers fill stroke;fill-opacity:1"
       d="M 92.218842 6.7129471 C 91.743022 6.7129471 90.632905 7.0293534 90.632905 7.0293534 L 86.113374 9.6465409 L 81.910249 14.009822 L 76.597749 20.353572 L 73.662202 26.617244 L 71.918061 30.742244 L 70.64853 31.296931 L 65.970795 31.535213 L 61.291108 32.328181 L 55.978608 35.500056 L 50.824311 39.306697 L 46.224702 43.429744 L 42.418061 45.570369 L 35.994233 47.87115 L 19.974702 52.945369 L 9.7442329 57.30865 L 7.3653267 58.972713 L 6.4942329 60.55865 C 6.4942329 60.55865 6.6516343 63.88988 6.9688423 64.207088 C 7.2860513 64.524296 9.6661079 68.093806 9.6661079 68.093806 L 12.521577 70.392635 C 12.521577 70.392635 16.169211 71.264129 16.48642 71.105525 C 16.649981 71.023745 16.731249 70.987477 16.769624 71.011775 C 16.802295 71.037404 16.802827 71.11699 16.802827 71.265681 C 16.802827 71.582892 17.199311 74.437556 17.199311 74.437556 L 18.310639 76.181697 L 24.574311 77.291072 L 34.566499 77.212947 C 34.566499 77.212947 42.339133 78.164119 42.656342 78.164119 C 42.97355 78.164119 46.224702 81.257869 46.224702 81.257869 L 51.775483 91.011775 L 54.550874 105.44342 L 54.86728 110.83599 L 55.740327 138.98834 L 58.515717 156.1192 L 60.578217 163.73053 L 64.623139 173.56451 L 67.953217 179.67193 L 72.791108 184.98443 C 72.791108 184.98443 77.866477 189.42506 78.183686 189.34576 C 78.500894 189.26646 84.685639 194.65826 84.685639 194.65826 L 86.826264 197.11724 C 86.826264 197.11724 87.53993 199.6555 87.619233 199.97271 C 87.698533 200.28991 88.730561 204.8106 88.730561 204.8106 L 90.951264 207.42779 L 92.853608 209.09185 L 96.105561 211.94732 L 97.61142 213.92974 L 98.722749 217.57818 L 99.990327 233.67584 L 98.404389 262.38287 L 93.646577 287.12506 L 84.369233 318.13287 L 81.037202 328.44146 L 81.11728 330.58209 C 81.11728 330.58209 82.069603 332.80357 82.386811 332.88287 C 82.70402 332.96217 83.813744 334.46804 84.130952 334.38873 C 84.448161 334.30943 87.064545 334.62701 87.064545 334.62701 C 87.064545 334.62701 88.412175 333.67624 88.808686 333.51763 C 89.205196 333.35903 89.839936 330.50396 89.839936 330.50396 L 90.474702 326.9356 L 93.646577 317.73638 L 98.722749 304.88873 L 103.24228 292.91412 L 109.5079 274.99224 L 116.80283 254.76959 L 117.19931 256.03912 L 118.70712 271.50201 L 121.08603 287.44342 L 122.59189 297.83209 L 122.83017 304.65045 L 124.33603 305.91998 L 128.46103 306.15826 C 128.46103 306.15826 129.4114 305.12741 129.72861 304.96881 C 130.04582 304.81021 130.28525 302.98638 130.28525 302.98638 L 129.33212 291.64654 L 128.30087 271.90045 L 128.61923 262.06646 L 129.01572 257.62506 L 130.52158 254.61138 L 132.90048 241.60553 L 132.82236 223.52545 C 132.82236 223.52545 132.50516 222.97076 132.82236 222.97076 C 133.13957 222.97076 136.70712 222.25592 136.70712 222.25592 L 157.48447 218.68756 L 170.72861 217.57818 L 187.69931 217.10162 L 211.72861 216.22857 L 243.76572 214.64263 L 244.63876 215.03912 L 251.93369 222.6524 C 251.93369 222.6524 259.94262 231.45508 260.65634 232.2481 C 261.37005 233.04112 266.52548 242.32037 266.52548 242.32037 L 268.26962 250.56646 L 267.47665 254.45318 L 265.17783 260.95513 L 252.17197 284.98443 L 244.55869 300.5274 L 243.68564 303.77935 C 243.68564 303.77935 243.92429 305.20667 244.1622 305.76178 C 244.40011 306.3169 245.90634 307.34771 245.90634 307.34771 C 245.90634 307.34771 247.88911 308.14146 248.52353 308.22076 C 249.15795 308.30006 250.03134 308.61724 250.03134 308.61724 L 252.48837 308.29888 L 255.10556 306.00006 L 260.89462 292.9942 L 268.82431 274.1192 L 271.20517 268.41021 L 276.83408 258.73443 L 283.0997 249.93365 L 288.33408 240.49615 L 288.63876 239.96099 C 291.0664 240.935 293.25986 241.80084 293.25986 241.80084 L 304.14072 245.15045 L 316.52939 250.78521 C 316.52939 250.78521 323.56091 255.13901 323.44931 255.41803 C 323.3377 255.69704 329.97861 260.83013 329.97861 260.83013 L 336.56259 269.3692 L 340.9708 276.40045 L 343.76181 283.65435 L 346.10556 291.57818 L 348.67197 305.97467 L 351.12705 320.59576 L 351.51767 325.84185 L 352.13095 327.84967 L 354.08408 328.51959 L 358.04697 328.96685 L 363.12509 328.91021 L 363.90634 328.01763 L 364.129 326.79107 L 360.7247 318.47467 L 357.879 303.7442 L 355.70322 288.90045 L 356.0372 285.27154 L 358.10361 276.73443 L 356.87509 272.82818 L 351.01572 260.60748 L 351.3497 253.91021 L 350.51376 251.6231 L 346.55087 248.60943 L 339.24033 245.09381 L 331.70712 238.17388 L 323.83994 230.36138 L 311.06064 216.80084 C 311.06064 216.80084 308.21438 211.16579 307.65634 210.49615 C 307.09831 209.82651 306.98642 204.97076 306.98642 204.97076 L 307.06455 202.4981 L 307.76181 201.08209 L 313.47275 184.11138 L 317.51767 171.0274 L 320.92587 160.63873 L 322.67197 149.93365 L 321.71884 145.96685 L 318.62705 141.13092 L 312.4415 135.81646 L 303.71884 129.8692 L 297.05673 125.66607 L 289.20517 121.93951 L 280.79892 119.00592 L 271.75986 116.86334 L 264.38486 115.67388 L 255.50205 116.07037 L 242.17978 117.10162 L 225.36728 118.52935 C 225.36728 118.52935 198.72277 120.74929 198.32626 120.66998 C 197.92975 120.59068 184.28915 122.57428 184.28915 122.57428 L 171.83798 124.63482 L 158.67392 127.49029 L 152.48837 127.64849 L 143.76572 127.25201 L 131.55283 126.7774 L 122.98837 127.33209 L 115.13681 127.88678 L 113.55087 127.8067 L 109.66611 126.14263 L 102.8458 119.16412 L 96.343842 107.66412 L 92.457124 95.453181 L 90.55478 80.146541 L 89.839936 72.296931 L 91.505952 61.5899 L 92.933686 50.646541 L 92.777436 46.910213 C 92.82739 46.863855 92.853608 46.8399 92.853608 46.8399 L 99.912202 42.160213 L 106.65244 36.054744 L 110.93564 29.076228 L 110.93564 27.410213 L 109.98251 27.013728 L 103.95517 28.918025 L 93.011811 33.914119 L 88.525483 35.431697 C 88.149944 34.922782 87.541108 34.230525 87.541108 34.230525 L 83.496186 32.009822 L 85.795014 27.886775 L 90.078217 15.992244 L 92.537202 8.2988846 C 92.537202 8.2988846 92.694652 6.7129471 92.218842 6.7129471 z M 102.52939 33.755916 L 102.68759 35.500056 L 93.726655 42.716853 L 83.812592 48.187556 L 82.787202 48.7149 L 80.601655 44.957088 C 80.628071 44.944174 80.640717 44.937556 80.640717 44.937556 L 81.195405 42.794978 L 93.408295 36.134822 L 100.46689 33.834041 L 102.52939 33.755916 z " />
    <path
       style="opacity:1;fill:#a05a2c;fill-opacity:1;stroke:none;stroke-width:1.65165;stroke-linecap:round;stroke-linejoin:round;stroke-dasharray:none;stroke-opacity:1;paint-order:markers fill stroke"
       d="m 80.502382,43.837581 5.784061,-4.048843 7.712084,-4.113111 5.14139,-1.221079 3.341903,-0.771209 0.44987,1.028278 -2.18509,3.084833 -10.347043,6.812339 -7.197947,3.856041 -1.413881,-1.156812 -0.835476,-2.18509 z"
       id="path18"
       sodipodi:nodetypes="cccccccccccc" />
    <path
       style="opacity:1;fill:#00ffff;fill-opacity:1;stroke:none;stroke-width:1.65165;stroke-linecap:round;stroke-linejoin:round;stroke-dasharray:none;stroke-opacity:1;paint-order:markers fill stroke"
       d="m 58.715749,47.372284 2.44216,-0.70694 7.197943,0.835475 0.578406,0.835476 -0.642673,2.313624 c 0,0 -4.113111,3.084833 -4.498715,3.084833 -0.385604,0 -1.349614,-0.06427 -1.349614,-0.06427 l 0.257069,-1.928018 -0.771208,-2.377891 -2.634962,-1.285348 z"
       id="path17" />
    <path
       style="opacity:1;fill:#6c5d53;fill-opacity:1;stroke:none;stroke-width:1.65165;stroke-linecap:round;stroke-linejoin:round;stroke-dasharray:none;stroke-opacity:1;paint-order:markers fill stroke"
       d="m 55.695184,51.678197 0.257069,-1.606684 1.542416,-2.120822 1.606684,-0.642674 2.634962,1.928021 1.285347,1.413881 -0.514139,2.956299 c 0,0 -0.642674,1.028277 -0.96401,1.028277 -0.321337,0 -2.44216,-0.257069 -2.699229,-0.257069 -0.25707,0 -2.377892,-1.092545 -2.377892,-1.092545 l -0.96401,-0.578406 z"
       id="path16" />
    <path
       style="display:inline;opacity:1;fill:none;stroke:#0e040d;stroke-width:0.377953;stroke-linecap:round;stroke-linejoin:round;stroke-dasharray:none;stroke-opacity:1;paint-order:markers fill stroke"
       d="m 53.822197,20.611552 c -0.868252,0.05663 -1.736504,0.11325 -2.430167,0.174595 -0.693663,0.06134 -1.212717,0.127405 -1.604377,0.117967 -0.39166,-0.0094 -0.655905,-0.09437 -0.927492,-0.269963 -0.271588,-0.175589 -0.5505,-0.441818 -0.740793,-0.745521 -0.190292,-0.303704 -0.29196,-0.644878 -0.393627,-0.986052"
       id="path1"
       inkscape:path-effect="#path-effect2"
       inkscape:original-d="m 53.822197,20.611552 c -0.868252,0.05663 -1.736504,0.11325 -2.604756,0.169875 -0.519075,0.06606 -1.038128,0.132125 -1.557192,0.198188 -0.264256,-0.08494 -0.528501,-0.169875 -0.792752,-0.254813 -0.278924,-0.26624 -0.557836,-0.532469 -0.836754,-0.798703 -0.101667,-0.341173 -0.305002,-1.023521 -0.305002,-1.023521"
       transform="matrix(4.3676102,0,0,4.3676102,-201.82638,-20.508998)"
       sodipodi:nodetypes="cccccc" />
    <path
       style="display:inline;opacity:1;fill:none;stroke:#0e040d;stroke-width:0.377953;stroke-linecap:round;stroke-linejoin:round;stroke-dasharray:none;stroke-opacity:1;paint-order:markers fill stroke"
       d="m 48.96782,19.48226 c -0.326005,-0.01995 -0.652009,-0.03989 -0.878601,-0.133569 -0.226592,-0.09368 -0.353763,-0.26107 -0.367919,-0.492295 -0.01416,-0.231225 0.08471,-0.526255 0.445582,-0.815339 0.360877,-0.289085 0.983741,-0.572205 2.163449,-1.006337 1.179708,-0.434132 2.916177,-1.019247 4.010934,-1.373155 1.094758,-0.353908 1.54775,-0.476593 2.062101,-0.811631 0.514351,-0.335037 1.090028,-0.882403 1.788413,-1.410909 0.698385,-0.528507 1.519433,-1.038123 2.255566,-1.292936 0.736133,-0.254813 1.38731,-0.254813 1.882783,-0.287845 0.495472,-0.03303 0.835217,-0.09909 1.174971,-0.117968 0.339755,-0.01887 0.679499,0.0094 1.123068,0.108535 0.443569,0.0991 0.990935,0.268968 1.319203,0.448802 0.328269,0.179833 0.437424,0.369613 0.546585,0.559405 m 1.032179,2.550091 c -0.03797,0.658936 -0.07594,1.317872 -0.146827,1.944628 -0.07089,0.626756 -0.174701,1.221308 -0.311547,1.89138 -0.136846,0.670072 -0.306718,1.415621 -0.231215,2.859584 0.0755,1.443962 0.396373,3.586237 0.844661,5.270847 0.448289,1.684611 1.023966,2.911464 1.623255,3.859942 0.599289,0.948478 1.222153,1.618529 1.745939,2.062095 0.523787,0.443565 0.948467,0.660624 1.571352,0.698373 0.622885,0.03775 1.443933,-0.103812 2.529262,-0.169875 1.085329,-0.06606 2.434867,-0.05663 3.69007,0.01416 1.255202,0.07078 2.415994,0.202905 3.902422,-0.0047 1.486428,-0.207631 3.298397,-0.754997 6.091942,-1.160813 2.793544,-0.405816 6.568478,-0.670061 9.05056,-0.835219 2.482082,-0.165157 3.671182,-0.231218 4.888632,-0.368065 1.21746,-0.136846 2.46319,-0.344468 4.14309,-0.19818 1.6799,0.146287 3.79386,0.646466 5.77104,1.514731 1.97718,0.868265 3.81746,2.104554 4.98772,2.986966 1.17025,0.882412 1.67043,1.410904 1.97715,1.929974 0.30672,0.519069 0.41997,1.028686 0.2784,2.09986 -0.14156,1.071175 -0.53793,2.703834 -1.1325,4.525296 -0.59458,1.821462 -1.38731,3.831616 -1.85447,5.26141 -0.46716,1.429794 -0.60872,2.279154 -0.2548,3.246509 0.35391,0.967356 1.20327,2.052649 2.07153,2.991693 0.86827,0.939044 1.75538,1.73178 2.51982,2.500945 0.76445,0.769166 1.40619,1.514715 1.99132,2.019624 0.58513,0.504909 1.11362,0.769154 1.52416,0.948469 0.41053,0.179314 0.70309,0.273688 1.00509,0.462442 0.30201,0.188754 0.61344,0.471872 0.73141,0.740844 0.11797,0.268972 0.0425,0.52378 0.009,0.887125 -0.033,0.363344 -0.0236,0.835221 0.16043,1.368445 0.18403,0.533225 0.54265,1.127778 0.81634,1.618533 0.27369,0.490755 0.46244,0.877687 0.57097,1.170252 0.10852,0.292566 0.13682,0.49075 0.0472,0.76916 -0.0897,0.278411 -0.29728,0.637032 -0.39628,1.270058 -0.099,0.633027 -0.0894,1.540394 0.0969,2.966193 0.18624,1.425798 0.54907,3.369846 0.87848,4.597955 0.32942,1.22811 0.62538,1.740122 0.74295,2.095937 0.11757,0.355816 0.0567,0.555411 0.0263,0.65521 -0.0304,0.0998 -0.86985,0.192239 -1.27189,0.17122 -0.40203,-0.02102 -0.90221,-0.09652 -1.18534,-0.238089 -0.28312,-0.14157 -0.34918,-0.34918 -0.39636,-0.830502 -0.0472,-0.481321 -0.0755,-1.236308 -0.32085,-2.821836 -0.24538,-1.585528 -0.70781,-4.001486 -1.11835,-5.610591 -0.41053,-1.609106 -0.76915,-2.411281 -1.23159,-3.204041 -0.46245,-0.792761 -1.02869,-1.576058 -1.71763,-2.331066 -0.68895,-0.755007 -1.50056,-1.481682 -2.2367,-2.04322 -0.73613,-0.561537 -1.39674,-0.957904 -2.2131,-1.311814 -0.81635,-0.353911 -1.7884,-0.665345 -3.12854,-1.141946 -1.34015,-0.476601 -3.04831,-1.11834 -4.56304,-1.840319 -1.51474,-0.721978 -2.83597,-1.524153 -3.94017,-2.354664 -1.1042,-0.830511 -1.9913,-1.689305 -2.718,-2.562284 -0.72669,-0.872979 -1.29293,-1.760088 -1.81672,-2.482065 -0.52379,-0.721977 -1.00509,-1.278778 -1.3071,-1.618532 -0.302,-0.339753 -0.424683,-0.462438 -0.608717,-0.575689 -0.184034,-0.113252 -0.429405,-0.217063 -0.67478,-0.320876"
       id="path2"
       inkscape:path-effect="#path-effect3"
       inkscape:original-d="m 48.96782,19.48226 c -0.326005,-0.01994 -0.652009,-0.03989 -0.978013,-0.05984 -0.12718,-0.167405 -0.254351,-0.334799 -0.381531,-0.502204 0.09887,-0.295044 0.19773,-0.590075 0.296594,-0.885112 0.622889,-0.283132 1.245753,-0.566252 1.868629,-0.849378 1.73654,-0.585138 3.473009,-1.170252 5.209513,-1.755379 0.453011,-0.12269 0.906003,-0.245376 1.359004,-0.368063 0.5757,-0.547388 1.151378,-1.094753 1.727067,-1.642129 0.821081,-0.509637 1.642129,-1.019253 2.463193,-1.528879 0.651202,0 1.302379,0 1.953568,0 0.339757,-0.06606 0.679501,-0.132126 1.019252,-0.198188 0.339758,0.02831 0.679502,0.05663 1.019253,0.08494 0.547387,0.169879 1.094753,0.339751 1.642129,0.509627 0.109161,0.189791 0.218316,0.379571 0.327477,0.569363 m 1.032179,2.550091 c 0,0 -0.07594,1.317872 -0.113903,1.976808 -0.103815,0.594576 -0.207625,1.189128 -0.311438,1.783692 -0.169879,0.74558 -0.339751,1.491129 -0.509627,2.236694 0.320883,2.14236 0.641752,4.284635 0.962628,6.426953 0.5757,1.226903 1.151378,2.453756 1.727067,3.680634 0.622889,0.670078 1.245753,1.340129 1.868629,2.010193 0.424697,0.217067 0.849377,0.434126 1.274066,0.651189 0.821081,-0.141566 1.642129,-0.283126 2.463194,-0.424689 1.349593,0.0094 2.699131,0.01888 4.048697,0.02831 1.160839,0.132128 2.321631,0.264251 3.482447,0.396376 1.81204,-0.547387 3.624009,-1.094753 5.436013,-1.642129 3.775085,-0.264256 7.550019,-0.528501 11.325028,-0.792752 1.189155,-0.06606 2.378255,-0.132125 3.567385,-0.198188 1.24578,-0.20763 2.49151,-0.415251 3.73726,-0.622877 2.11405,0.500199 4.22801,1.000378 6.34201,1.500567 1.84036,1.23634 3.68064,2.472631 5.52096,3.708946 0.50019,0.528512 1.00037,1.057003 1.50056,1.585504 0.11325,0.509637 0.2265,1.019253 0.33975,1.528879 -0.39638,1.632724 -0.79275,3.265383 -1.18913,4.898075 -0.79276,2.010233 -1.5855,4.020385 -2.37825,6.030577 -0.14157,0.849395 -0.28313,1.698755 -0.42469,2.548132 0.84939,1.085337 1.69875,2.17063 2.54813,3.255945 0.88715,0.792768 1.77426,1.585504 2.66138,2.378256 0.64177,0.74558 1.28351,1.491129 1.92526,2.236693 0.52851,0.264256 1.057,0.528502 1.5855,0.792752 0.29257,0.09438 0.58513,0.188751 0.87769,0.283126 0.31145,0.283132 0.62288,0.566252 0.93432,0.849377 -0.0755,0.254819 -0.151,0.509627 -0.2265,0.76444 0.009,0.471885 0.0189,0.943752 0.0283,1.415628 0.35863,0.594576 0.71725,1.189128 1.07588,1.783692 0.18875,0.386946 0.3775,0.773877 0.56625,1.160816 0.0283,0.198192 0.0566,0.396376 0.0849,0.594564 -0.20763,0.358633 -0.41526,0.717251 -0.62288,1.075877 0.01,0.907426 0.0192,1.814798 0.0289,2.722225 0.36285,1.944169 0.72568,3.888217 1.08853,5.83239 0.29598,0.512044 0.59194,1.024055 0.88791,1.536099 -0.0608,0.199599 -0.12166,0.399185 -0.18249,0.598783 0.23571,0.431323 -0.83342,0.147033 -1.1433,0.125903 -0.5002,-0.0755 -1.00038,-0.151 -1.50057,-0.2265 -0.0661,-0.20763 -0.13212,-0.415251 -0.19818,-0.622877 -0.0283,-0.755017 -0.0566,-1.510004 -0.0849,-2.265005 -0.46245,-2.416055 -0.92488,-4.832013 -1.38732,-7.248019 -0.35863,-0.802205 -0.71725,-1.604379 -1.07587,-2.406568 -0.56627,-0.78333 -1.13251,-1.566629 -1.69876,-2.349943 -0.81164,-0.726704 -1.62325,-1.453379 -2.43488,-2.180068 -0.66064,-0.396384 -1.32125,-0.792752 -1.98188,-1.189128 -0.97208,-0.311445 -1.94413,-0.622877 -2.91619,-0.934315 -1.70823,-0.641765 -3.41639,-1.283503 -5.12458,-1.925255 -1.32128,-0.802206 -2.64251,-1.604379 -3.96376,-2.406569 -0.88715,-0.858831 -1.77425,-1.717629 -2.66138,-2.576444 -0.56626,-0.887144 -1.1325,-1.774254 -1.69876,-2.661381 -0.48132,-0.556825 -0.96262,-1.113628 -1.44394,-1.670442 -0.12269,-0.12269 -0.245373,-0.245375 -0.368061,-0.368063 -0.24538,-0.103815 -0.490751,-0.207626 -0.736126,-0.311439"
       sodipodi:nodetypes="ccccccccccccccccccccccccccccccccccccccccccccccccccccccccccccccccccccc"
       transform="matrix(4.3676102,0,0,4.3676102,-201.82638,-20.508998)" />
    <path
       style="fill:none;stroke:#0e040d;stroke-width:1.65165;stroke-linecap:round;stroke-linejoin:round;stroke-dasharray:none;stroke-opacity:1;paint-order:markers fill stroke"
       d="m 90.664506,331.09456 c -0.501802,2.34564 -1.003602,4.69128 -1.31578,6.32367 -0.312178,1.63239 -0.434725,2.55149 -0.710465,3.53189 -0.27574,0.98041 -0.704654,2.02206 -2.083352,2.29779 -1.378698,0.27572 -3.707083,-0.21446 -6.781115,-1.1719 -3.074032,-0.95744 -6.89341,-2.38202 -8.46622,-3.58458 -1.572811,-1.20255 -0.898826,-2.18289 0.05095,-3.37777 0.949775,-1.19488 2.175213,-2.60413 3.46607,-3.85832 1.290856,-1.25418 2.646993,-2.35316 4.003156,-3.45215"
       id="path3"
       inkscape:path-effect="#path-effect15-0-1-5"
       inkscape:original-d="m 90.664506,331.09456 c -0.501802,2.34564 -1.003602,4.69128 -1.505407,7.03693 -0.122551,0.91913 -0.245098,1.83823 -0.367647,2.75735 -0.42893,1.04169 -0.857843,2.08334 -1.286764,3.125 -2.328478,-0.4902 -4.656863,-0.98039 -6.985295,-1.47059 -3.81963,-1.42468 -7.63901,-2.84926 -11.458667,-4.27395 0.674037,-0.98042 1.348026,-1.96076 2.022058,-2.94118 1.225514,-1.40934 2.450956,-2.81859 3.676471,-4.22794 1.356194,-1.09902 2.712331,-2.198 4.068494,-3.29699"
       transform="rotate(-14.789058,212.94773,-723.65384)"
       sodipodi:nodetypes="ccccccccc" />
    <path
       style="display:inline;opacity:1;fill:none;stroke:#0e040d;stroke-width:0.377953;stroke-linecap:round;stroke-linejoin:round;stroke-dasharray:none;stroke-opacity:1;paint-order:markers fill stroke"
       d="m 115.7701,65.195407 c -0.11325,0.361441 -0.2265,0.722881 -0.83051,1.682211 -0.60401,0.95933 -1.69874,2.51649 -2.42072,3.686752 -0.72197,1.170262 -1.07115,1.95356 -1.30237,2.529253 -0.23122,0.575693 -0.34447,0.94375 -0.75029,1.948862 -0.40582,1.005113 -1.10418,2.647211 -1.57135,3.718375 -0.46716,1.071164 -0.70309,1.571341 -1.0023,1.84837 -0.2992,0.277029 -0.66165,0.330895 -1.09854,0.251846 -0.43689,-0.07905 -0.94817,-0.291011 -1.14916,-0.610516 -0.20099,-0.319505 -0.0917,-0.746526 0.30275,-1.630116 0.39442,-0.88359 1.07391,-2.223692 1.68263,-3.41283 0.60873,-1.189137 1.14666,-2.227244 1.56663,-3.015281 0.41997,-0.788038 0.72197,-1.325968 1.02869,-1.906381 0.30672,-0.580414 0.61815,-1.203278 0.76915,-1.77425 0.15101,-0.570972 0.14157,-1.090034 0.0236,-1.736511 -0.11796,-0.646478 -0.34446,-1.42034 -0.82106,-2.222539 -0.47661,-0.8022 -1.20328,-1.632682 -1.9945,-2.496662 -0.79122,-0.863981 -1.64694,-1.761403 -2.50267,-2.658843"
       id="path4"
       inkscape:path-effect="#path-effect4"
       inkscape:original-d="m 115.7701,65.195407 c 0,0 -0.2265,0.722881 -0.33975,1.084321 -1.09477,1.557223 -2.1895,3.114383 -3.28426,4.671574 -0.34919,0.783331 -0.69837,1.566629 -1.04756,2.349944 -0.11325,0.368071 -0.2265,0.736127 -0.33975,1.10419 -0.69839,1.642162 -1.39676,3.284258 -2.09513,4.926387 -0.23595,0.500199 -0.47188,1.000378 -0.70782,1.500567 -0.36247,0.05387 -0.72492,0.107736 -1.0874,0.161606 -0.5113,-0.211972 -1.02258,-0.423932 -1.53389,-0.635905 0.10932,-0.427037 0.21865,-0.854056 0.32797,-1.281081 0.67952,-1.340155 1.35901,-2.680257 2.03851,-4.020385 0.53795,-1.038148 1.07588,-2.076255 1.61382,-3.114383 0.302,-0.537949 0.604,-1.075877 0.906,-1.613816 0.31144,-0.622889 0.62287,-1.245753 0.93431,-1.86863 -0.009,-0.519074 -0.0189,-1.038127 -0.0283,-1.557191 -0.2265,-0.773893 -0.453,-1.547754 -0.6795,-2.321631 -0.72671,-0.830519 -1.45338,-1.661004 -2.18007,-2.491506 -0.85575,-0.89746 -2.5672,-2.692321 -2.5672,-2.692321"
       sodipodi:nodetypes="cccccccccccccccccc"
       transform="matrix(4.3676102,0,0,4.3676102,-217.38226,-44.671809)" />
    <path
       style="fill:none;stroke:#0e040d;stroke-width:1.65165;stroke-linecap:round;stroke-linejoin:round;stroke-dasharray:none;stroke-opacity:1;paint-order:markers fill stroke"
       d="m 89.71057,332.24914 c -0.183823,1.96078 -0.367647,3.92156 -0.520834,5.36152 -0.153188,1.43996 -0.275735,2.35906 -0.551475,3.33946 -0.27574,0.98041 -0.704654,2.02206 -2.083352,2.29779 -1.378698,0.27572 -3.707083,-0.21446 -6.781114,-1.1719 -3.074032,-0.95744 -6.893412,-2.38202 -8.466222,-3.58457 -1.57281,-1.20256 -0.898821,-2.1829 0.05095,-3.37778 0.949773,-1.19488 2.175215,-2.60413 3.628975,-4.07543 1.45376,-1.4713 3.135696,-3.00449 4.817666,-4.53771"
       id="path5"
       inkscape:path-effect="#path-effect15-0-1"
       inkscape:original-d="m 89.71057,332.24914 c -0.183824,1.96078 -0.367647,3.92156 -0.551471,5.88235 -0.122551,0.91913 -0.245098,1.83823 -0.367647,2.75735 -0.42893,1.04169 -0.857843,2.08334 -1.286764,3.125 -2.328478,-0.4902 -4.656863,-0.98039 -6.985295,-1.47059 -3.81963,-1.42468 -7.63901,-2.84926 -11.458667,-4.27395 0.674037,-0.98042 1.348026,-1.96076 2.022058,-2.94118 1.225514,-1.40934 2.450956,-2.81859 3.676471,-4.22794 1.682005,-1.53325 3.363941,-3.06644 5.045911,-4.59966"
       transform="rotate(-14.789058,77.276017,-314.28006)"
       sodipodi:nodetypes="ccccccccc" />
    <path
       style="display:inline;opacity:1;fill:none;stroke:#0e040d;stroke-width:0.377953;stroke-linecap:round;stroke-linejoin:round;stroke-dasharray:none;stroke-opacity:1;paint-order:markers fill stroke"
       inkscape:path-effect="#path-effect5"
       inkscape:original-d="m 103.08607,53.708947 c -1.04756,0.11325 -2.09513,0.2265 -3.142695,0.339751 -2.727499,0.0755 -5.454889,0.151 -8.182333,0.2265 -2.614246,0.08494 -5.228388,0.169876 -7.842582,0.254813 -1.302405,0.198192 -2.604757,0.396376 -3.907135,0.594564 -1.548662,0.273501 -3.097263,0.546991 -4.645894,0.820487"
       transform="matrix(4.3676102,0,0,4.3676102,-201.82638,-20.508998)"
       d="m 103.08607,53.708947 c -1.04756,0.11325 -2.09513,0.226501 -3.982662,0.320877 -1.887532,0.09438 -4.614922,0.169874 -7.285767,0.250094 -2.670845,0.08022 -5.284987,0.165155 -7.243287,0.30672 -1.958299,0.141565 -3.260651,0.339749 -4.686171,0.575594 -1.42552,0.235844 -2.974121,0.509334 -4.522752,0.78283"
       id="path6" />
    <path
       style="display:inline;opacity:1;fill:none;stroke:#0e040d;stroke-width:0.377953;stroke-linecap:round;stroke-linejoin:round;stroke-dasharray:none;stroke-opacity:1;paint-order:markers fill stroke"
       inkscape:path-effect="#path-effect13"
       inkscape:original-d="m 76.52469,61.808367 c 0,0 0.02167,3.509409 0.0325,5.264113 -0.217067,0.764455 -0.434126,1.528879 -0.651189,2.293318 -0.179316,0.405822 -0.358626,0.811627 -0.537939,1.217441 0.151004,2.897378 0.302001,5.794639 0.453002,8.691959 0.04719,0.471886 0.09437,0.943753 0.141562,1.415629 -0.203285,0.07859 -0.40656,0.157175 -0.609846,0.235766 -0.273694,-0.03107 -0.547375,-0.06214 -0.821064,-0.09321 -0.108157,-0.123021 -0.216313,-0.24604 -0.324469,-0.36906 -0.02831,-0.179316 -0.05663,-0.358626 -0.08494,-0.537939 0.03775,-0.5757 0.0755,-1.151378 0.113251,-1.727067 -0.339758,-1.642161 -0.679502,-3.284258 -1.019253,-4.926387 -0.09438,-1.406219 -0.283126,-4.218573 -0.283126,-4.218573"
       transform="matrix(4.3676102,0,0,4.3676102,-201.45738,-47.077264)"
       d="m 76.52469,61.808367 c 0.01083,1.754704 0.02167,3.509409 -0.08145,4.768988 -0.103117,1.25958 -0.320176,2.024004 -0.518366,2.609134 -0.19819,0.585131 -0.377499,0.990936 -0.391654,2.642532 -0.01415,1.651596 0.136843,4.548857 0.235938,6.23346 0.09909,1.684603 0.146281,2.15647 0.06823,2.431703 -0.07805,0.275233 -0.281324,0.353819 -0.519814,0.377579 -0.23849,0.02376 -0.512171,-0.0073 -0.703094,-0.08436 -0.190923,-0.07705 -0.299079,-0.200065 -0.367314,-0.351233 -0.06824,-0.151167 -0.09655,-0.330479 -0.09183,-0.707985 0.0047,-0.377506 0.04247,-0.953184 -0.108535,-2.062109 -0.151004,-1.108925 -0.490748,-2.751022 -0.707812,-4.275196 -0.217064,-1.524174 -0.311438,-2.930337 -0.405813,-4.336528"
       id="path7"
       sodipodi:nodetypes="ccccccccccccc" />
    <path
       style="fill:none;stroke:#0e040d;stroke-width:1.65165;stroke-linecap:round;stroke-linejoin:round;stroke-dasharray:none;stroke-opacity:1;paint-order:markers fill stroke"
       d="m 89.218234,332.06507 c -0.01971,2.02213 -0.03942,4.04427 -0.110554,5.51491 -0.07113,1.47064 -0.193679,2.38974 -0.469419,3.37014 -0.27574,0.98041 -0.704654,2.02206 -2.083352,2.29779 -1.378698,0.27572 -3.707083,-0.21446 -6.50002,-0.89036 -2.792936,-0.67589 -6.050168,-1.53743 -7.341879,-2.45844 -1.291711,-0.92101 -0.617721,-1.90136 0.332051,-3.09623 0.949773,-1.19488 2.175215,-2.60414 3.747443,-4.08022 1.572228,-1.47608 3.491091,-3.01885 5.409992,-4.56164"
       id="path8"
       inkscape:path-effect="#path-effect15-0"
       inkscape:original-d="m 89.218234,332.06507 c -0.01971,2.02213 -0.03942,4.04427 -0.05913,6.06642 -0.122551,0.91913 -0.245098,1.83823 -0.367647,2.75735 -0.42893,1.04169 -0.857843,2.08334 -1.286764,3.125 -2.328478,-0.4902 -4.656863,-0.98039 -6.985295,-1.47059 -3.257441,-0.86159 -6.514672,-1.72313 -9.772131,-2.58473 0.674036,-0.98042 1.348026,-1.96077 2.022058,-2.94118 1.225514,-1.40934 2.450955,-2.8186 3.676471,-4.22794 1.918941,-1.54282 3.837804,-3.08559 5.756705,-4.62838"
       transform="rotate(-14.789058,4.273975,161.40177)"
       sodipodi:nodetypes="ccccccccc" />
    <path
       style="display:inline;opacity:1;fill:none;stroke:#0e040d;stroke-width:0.377953;stroke-linecap:round;stroke-linejoin:round;stroke-dasharray:none;stroke-opacity:1;paint-order:markers fill stroke"
       d="m 75.360009,55.984081 c -0.78063,2.120067 -1.56126,4.240134 -2.366834,6.616728 -0.805574,2.376594 -1.636059,5.00961 -2.490164,7.420919 -0.854104,2.411309 -1.731776,4.600771 -2.38297,6.219317 -0.651193,1.618546 -1.075873,2.66609 -1.271138,3.417005 -0.195266,0.750914 -0.161109,1.205152 -0.351783,1.448151 -0.190674,0.242999 -0.606158,0.274731 -0.958276,0.137257 -0.352117,-0.137474 -0.640835,-0.444146 -0.709694,-0.833427 -0.06886,-0.389281 0.08214,-0.861148 0.620086,-2.625995 0.537948,-1.764848 1.462807,-4.822544 2.109281,-7.375414 0.646474,-2.552871 1.01453,-4.600773 1.222156,-6.950743 0.207626,-2.34997 0.254812,-5.001861 0.22178,-6.667589 -0.03303,-1.665728 -0.14628,-2.345216 -0.377503,-2.83597 -0.231223,-0.490755 -0.580405,-0.79275 -0.972067,-1.123066 -0.391661,-0.330317 -0.825778,-0.688936 -1.071155,-1.146662 -0.245376,-0.457725 -0.302,-1.014528 -0.391658,-1.420344 -0.08966,-0.405816 -0.212342,-0.660624 -0.651195,-1.066443 -0.438852,-0.405819 -1.193839,-0.962622 -1.98188,-1.613819 -0.788042,-0.651196 -1.60909,-1.396746 -2.312192,-2.66611 -0.703101,-1.269365 -1.288216,-3.062459 -1.679875,-4.874482 -0.391659,-1.812023 -0.589843,-3.642865 -0.665343,-5.195351 -0.0755,-1.552485 -0.02831,-2.826525 -0.09438,-4.223294 -0.06607,-1.396769 -0.245374,-2.91618 -0.537941,-4.105317 -0.292568,-1.189136 -0.698373,-2.047933 -1.085315,-2.651938 -0.386942,-0.604005 -0.754998,-0.953186 -1.10419,-1.160813 -0.349191,-0.207626 -0.679499,-0.273687 -1.462825,-0.302 -0.783327,-0.02831 -2.019618,-0.01888 -2.755746,-0.04719 -0.736129,-0.02831 -0.972064,-0.09437 -1.179691,-0.188752 -0.207627,-0.09438 -0.386937,-0.217061 -0.490751,-0.325594 -0.103813,-0.108534 -0.132126,-0.202906 -0.146282,-0.330314 -0.01416,-0.127408 -0.01416,-0.287842 -0.01416,-0.44828"
       id="path9"
       inkscape:path-effect="#path-effect6"
       inkscape:original-d="m 75.360009,55.984081 c 0,0 -1.56126,4.240134 -2.341889,6.3602 -0.830519,2.633122 -1.661004,5.266138 -2.491506,7.899207 -0.877707,2.189549 -1.75538,4.379011 -2.633069,6.568517 -0.424697,1.047586 -0.849377,2.09513 -1.274066,3.142695 0.03416,0.454264 0.06831,0.908502 0.102473,1.362766 -0.415506,0.03173 -0.83099,0.06347 -1.246497,0.0952 -0.288728,-0.306682 -0.577445,-0.613354 -0.866168,-0.92003 0.151003,-0.471886 0.302,-0.943753 0.453001,-1.415629 0.924895,-3.057819 1.849754,-6.115515 2.774632,-9.173273 0.36807,-2.047983 0.736126,-4.095885 1.10419,-6.143828 0.04719,-2.651997 0.09437,-5.303888 0.141563,-7.955832 -0.113253,-0.679512 -0.226501,-1.359 -0.339751,-2.038502 -0.349195,-0.302007 -0.698377,-0.604002 -1.047565,-0.906002 -0.434135,-0.358633 -0.868252,-0.717252 -1.302379,-1.075878 -0.05663,-0.556825 -0.11325,-1.113628 -0.169875,-1.670442 -0.12269,-0.254818 -0.245376,-0.509626 -0.368063,-0.764439 -0.755017,-0.556825 -1.510004,-1.113628 -2.265006,-1.670442 -0.821081,-0.745579 -1.642129,-1.491129 -2.463194,-2.236693 -0.585138,-1.793165 -1.170253,-3.586259 -1.755379,-5.379388 -0.198192,-1.830917 -0.396376,-3.661759 -0.594564,-5.492639 0.04719,-1.274091 0.09437,-2.548131 0.141563,-3.822197 -0.179317,-1.519472 -0.358626,-3.038883 -0.537939,-4.558324 -0.405822,-0.858832 -0.811627,-1.717629 -1.217441,-2.576444 -0.36807,-0.349195 -0.736126,-0.698377 -1.10419,-1.047565 -0.33032,-0.06606 -0.660627,-0.132125 -0.99094,-0.198188 -1.23634,0.0094 -2.472631,0.01887 -3.708947,0.02831 -0.235942,-0.06606 -0.471876,-0.132125 -0.707814,-0.198188 -0.179316,-0.12269 -0.358626,-0.245375 -0.537939,-0.368063 -0.02831,-0.09438 -0.05663,-0.18875 -0.08494,-0.283126 0,-0.160441 0,-0.320875 0,-0.481313"
       sodipodi:nodetypes="ccccccccccccccccccccccccccccccc"
       transform="matrix(4.3676102,0,0,4.3676102,-201.82638,-20.508998)" />
    <path
       style="opacity:1;fill:none;stroke:#0e040d;stroke-width:1.65165;stroke-linecap:round;stroke-linejoin:round;stroke-dasharray:none;stroke-opacity:1;paint-order:markers fill stroke"
       d="m 89.71057,332.24914 c -0.183823,1.96078 -0.367647,3.92156 -0.520834,5.36152 -0.153188,1.43996 -0.275735,2.35906 -0.551475,3.33946 -0.27574,0.98041 -0.704654,2.02206 -2.083352,2.29779 -1.378698,0.27572 -3.707083,-0.21446 -6.50002,-0.89036 -2.792936,-0.67589 -6.050168,-1.53743 -7.341879,-2.45844 -1.291711,-0.92101 -0.617721,-1.90136 0.332051,-3.09623 0.949773,-1.19488 2.175215,-2.60414 3.730587,-4.08467 1.555371,-1.48053 3.440522,-3.0322 5.325711,-4.58389"
       id="path10"
       inkscape:path-effect="#path-effect15"
       inkscape:original-d="m 89.71057,332.24914 c -0.183824,1.96078 -0.367647,3.92156 -0.551471,5.88235 -0.122551,0.91913 -0.245098,1.83823 -0.367647,2.75735 -0.42893,1.04169 -0.857843,2.08334 -1.286764,3.125 -2.328478,-0.4902 -4.656863,-0.98039 -6.985295,-1.47059 -3.257441,-0.86159 -6.514672,-1.72313 -9.772131,-2.58473 0.674036,-0.98042 1.348026,-1.96077 2.022058,-2.94118 1.225514,-1.40934 2.450955,-2.8186 3.676471,-4.22794 1.885228,-1.55172 3.770379,-3.10339 5.655568,-4.65508"
       transform="rotate(-14.789058,89.704571,333.18861)"
       sodipodi:nodetypes="ccccccccc" />
    <path
       style="opacity:1;fill:none;stroke:#0e040d;stroke-width:0.523603;stroke-linecap:round;stroke-linejoin:round;stroke-dasharray:none;stroke-opacity:1;paint-order:markers fill stroke"
       d="m 57.252737,16.492072 c 0.09909,-0.429407 0.627595,-0.957908 1.217447,-1.203283 0.589852,-0.245375 1.241028,-0.207626 1.826159,-0.03303 0.585132,0.174597 1.104186,0.48603 1.283497,0.6795 0.179312,0.193469 0.01888,0.268968 -0.32088,0.509629 -0.339756,0.240661 -0.858809,0.646466 -1.264625,0.891843 -0.405817,0.245376 -0.698374,0.330312 -1.042848,0.344468 -0.344473,0.01415 -0.740841,-0.04247 -1.104189,-0.235941 -0.363347,-0.193472 -0.693654,-0.523779 -0.594561,-0.953187 z"
       id="path11"
       inkscape:path-effect="#path-effect7"
       inkscape:original-d="m 56.82333,16.591166 c 0.528501,-0.528501 1.057002,-1.057002 1.585504,-1.585503 0.651202,0.03775 1.302378,0.0755 1.953567,0.11325 0.519074,0.311444 1.038128,0.622876 1.557191,0.934315 -0.160441,0.0755 -0.320876,0.151 -0.481313,0.2265 -0.519075,0.405822 -1.038128,0.811627 -1.557192,1.217441 -0.292569,0.08494 -0.585126,0.169875 -0.877689,0.254813 -0.396384,-0.05663 -0.792752,-0.11325 -1.189128,-0.169876 -0.33032,-0.330319 -0.660627,-0.660626 -0.99094,-0.99094 z"
       transform="matrix(2.8438272,-1.3608897,-1.3608897,-2.8438272,-84.416452,177.52154)" />
    <path
       style="opacity:1;fill:none;stroke:#0e040d;stroke-width:0.377953;stroke-linecap:round;stroke-linejoin:round;stroke-dasharray:none;stroke-opacity:1;paint-order:markers fill stroke"
       d="m 64.910968,10.675449 c 0.305253,-0.7838514 0.610506,-1.567702 1.131203,-2.3560116 0.520698,-0.7883095 1.25681,-1.5810456 1.865535,-2.1284249 0.608725,-0.5473793 1.090029,-0.849374 1.377875,-0.9437474 0.287846,-0.094373 0.382218,0.018873 0.278402,0.5001952 -0.103816,0.4813221 -0.40581,1.3306823 -0.693657,2.1328795 -0.287848,0.8021971 -0.56153,1.5571838 -0.772902,2.0512986 -0.211371,0.4941146 -0.360419,0.7273326 -0.509471,0.9605556"
       id="path12"
       inkscape:path-effect="#path-effect8"
       inkscape:original-d="m 64.910968,10.675449 c 0.305253,-0.7838514 0.610506,-1.567702 0.915759,-2.3515532 0.736142,-0.7927678 1.472254,-1.585504 2.208381,-2.3782559 0.481323,-0.3020068 0.962627,-0.6040015 1.443941,-0.9060023 0.09438,0.1132525 0.18875,0.2265006 0.283125,0.3397508 -0.302006,0.8493942 -0.604001,1.6987543 -0.906002,2.5481314 -0.273694,0.755017 -0.547376,1.5100038 -0.821064,2.2650052 -0.149055,0.233228 -0.298103,0.466446 -0.447155,0.699669"
       sodipodi:nodetypes="cccccccc"
       transform="matrix(4.3676102,0,0,4.3676102,-211.77084,-15.868246)" />
    <path
       style="fill:none;stroke:#0e040d;stroke-width:0.377953;stroke-linecap:round;stroke-linejoin:round;stroke-dasharray:none;stroke-opacity:1;paint-order:markers fill stroke"
       d="m 64.297848,11.664779 c 0.509627,-1.113628 1.019253,-2.2272555 1.642137,-3.1804533 0.622884,-0.9531978 1.358996,-1.7459339 1.967721,-2.2933132 0.608725,-0.5473793 1.090029,-0.849374 1.377875,-0.9437474 0.287846,-0.094373 0.382218,0.018873 0.278402,0.5001952 -0.103816,0.4813221 -0.40581,1.3306823 -0.693657,2.1328795 -0.287848,0.8021971 -0.56153,1.5571838 -0.980306,2.4378302 -0.418775,0.880646 -0.982613,1.886891 -1.546464,2.89316"
       id="path13"
       inkscape:path-effect="#path-effect8-7"
       inkscape:original-d="m 64.297848,11.664779 c 0.509627,-1.113628 1.019253,-2.2272554 1.528879,-3.3408832 0.736142,-0.7927678 1.472254,-1.585504 2.208381,-2.3782559 0.481323,-0.3020068 0.962627,-0.6040015 1.443941,-0.9060023 0.09438,0.1132525 0.18875,0.2265006 0.283125,0.3397508 -0.302006,0.8493942 -0.604001,1.6987543 -0.906002,2.5481314 -0.273694,0.755017 -0.547376,1.5100038 -0.821064,2.2650052 -0.563863,1.006291 -1.127701,2.012536 -1.691552,3.018805"
       sodipodi:nodetypes="cccccccc"
       transform="matrix(-0.19916459,-4.3630666,-4.3630666,0.19916459,147.72165,329.78807)" />
    <path
       style="opacity:1;fill:none;stroke:#0e040d;stroke-width:1.65165;stroke-linecap:round;stroke-linejoin:round;stroke-dasharray:none;stroke-opacity:1;paint-order:markers fill stroke"
       d="m 58.587832,47.768085 c 1.041667,0.320513 2.083334,0.641025 2.804491,1.282061 0.721158,0.641035 1.121791,1.602554 1.181884,2.483972 0.06009,0.881419 -0.220349,1.682685 -0.500798,2.483967"
       id="path14"
       inkscape:path-effect="#path-effect17"
       inkscape:original-d="m 58.587832,47.768085 c 1.041667,0.320513 2.083334,0.641025 3.125,0.961538 0.400649,0.961558 0.801282,1.923077 1.201923,2.884616 -0.280454,0.801298 -0.560897,1.602564 -0.841346,2.403846" />
    <path
       style="opacity:1;fill:none;stroke:#0e040d;stroke-width:1.65165;stroke-linecap:round;stroke-linejoin:round;stroke-dasharray:none;stroke-opacity:1;paint-order:markers fill stroke"
       d="m 80.382704,44.082188 c -0.04006,0.560897 0.320513,1.282051 0.781256,2.183505 0.460743,0.901453 1.021628,1.983161 2.023246,2.003183 1.001617,0.02002 2.443896,-1.021624 5.388653,-2.784469 2.944758,-1.762846 7.39178,-4.246767 10.35654,-6.530444 2.964761,-2.283676 4.447101,-4.366968 3.605731,-5.007986 -0.84138,-0.641018 -4.006383,0.160249 -7.131418,1.322124 -3.125034,1.161876 -6.209905,2.68428 -8.553671,3.986374 -2.343766,1.302094 -3.946297,2.383803 -4.967937,3.124993 -1.021639,0.74119 -1.462336,1.141823 -1.5024,1.70272 z"
       id="path15"
       inkscape:path-effect="#path-effect16"
       inkscape:original-d="m 79.982063,43.921931 c 0.360577,0.721154 0.721154,1.442308 1.081731,2.163463 0.560909,1.081752 1.121795,2.16346 1.682692,3.245192 1.442337,-1.041688 2.884616,-2.083333 4.326923,-3.125 4.447208,-2.484024 8.894228,-4.967949 13.341351,-7.451923 1.4824,-2.083376 2.96474,-4.166668 4.44711,-6.25 -3.16512,0.801298 -6.330123,1.602564 -9.495193,2.403846 -3.085,1.522466 -6.16987,3.044872 -9.254806,4.567308 -1.602596,1.081752 -3.205128,2.16346 -4.807692,3.245192 -0.440714,0.400649 -0.881411,0.801282 -1.322116,1.201922 z" />
  </g>
</svg>
