<?xml version="1.0" encoding="UTF-8" standalone="no"?>
<!-- Created with Inkscape (http://www.inkscape.org/) -->

<svg
   xmlns:dc="http://purl.org/dc/elements/1.1/"
   xmlns:cc="http://creativecommons.org/ns#"
   xmlns:rdf="http://www.w3.org/1999/02/22-rdf-syntax-ns#"
   xmlns:svg="http://www.w3.org/2000/svg"
   xmlns="http://www.w3.org/2000/svg"
   xmlns:sodipodi="http://sodipodi.sourceforge.net/DTD/sodipodi-0.dtd"
   xmlns:inkscape="http://www.inkscape.org/namespaces/inkscape"
   width="180.12921mm"
   height="290.83554mm"
   viewBox="0 0 180.12921 290.83554"
   version="1.1"
   id="svg8"
   inkscape:version="0.92.3 (2405546, 2018-03-11)"
   sodipodi:docname="Donno.svg">
  <title
     id="title895">Donno!</title>
  <defs
     id="defs2" />
  <sodipodi:namedview
     id="base"
     pagecolor="#ffffff"
     bordercolor="#666666"
     borderopacity="1.0"
     inkscape:pageopacity="0.0"
     inkscape:pageshadow="2"
     inkscape:zoom="0.61933594"
     inkscape:cx="262.56639"
     inkscape:cy="607.21542"
     inkscape:document-units="mm"
     inkscape:current-layer="layer1"
     showgrid="false"
     fit-margin-top="0"
     fit-margin-left="0"
     fit-margin-right="0"
     fit-margin-bottom="0"
     inkscape:window-width="1920"
     inkscape:window-height="1025"
     inkscape:window-x="0"
     inkscape:window-y="27"
     inkscape:window-maximized="1" />
  <metadata
     id="metadata5">
    <rdf:RDF>
      <cc:Work
         rdf:about="">
        <dc:format>image/svg+xml</dc:format>
        <dc:type
           rdf:resource="http://purl.org/dc/dcmitype/StillImage" />
        <dc:title>Donno!</dc:title>
        <dc:date>2026</dc:date>
        <dc:creator>
          <cc:Agent>
            <dc:title>Doodleguy</dc:title>
          </cc:Agent>
        </dc:creator>
        <dc:rights>
          <cc:Agent>
            <dc:title>public domain</dc:title>
          </cc:Agent>
        </dc:rights>
        <dc:source>www.fresvg.org</dc:source>
        <dc:subject>
          <rdf:Bag>
            <rdf:li>doodleguy-art</rdf:li>
            <rdf:li>redbubble</rdf:li>
            <rdf:li></rdf:li>
          </rdf:Bag>
        </dc:subject>
        <cc:license
           rdf:resource="http://creativecommons.org/publicdomain/zero/1.0/" />
      </cc:Work>
      <cc:License
         rdf:about="http://creativecommons.org/publicdomain/zero/1.0/">
        <cc:permits
           rdf:resource="http://creativecommons.org/ns#Reproduction" />
        <cc:permits
           rdf:resource="http://creativecommons.org/ns#Distribution" />
        <cc:permits
           rdf:resource="http://creativecommons.org/ns#DerivativeWorks" />
      </cc:License>
    </rdf:RDF>
  </metadata>
  <g
     inkscape:groupmode="layer"
     id="layer2"
     inkscape:label="b"
     transform="translate(-1.6652702,-4.0598537)" />
  <g
     inkscape:label="Layer 1"
     inkscape:groupmode="layer"
     id="layer1"
     transform="translate(-1.6652702,-4.0598537)">
    <g
       id="g893">
      <path
         transform="scale(0.26458333)"
         inkscape:connector-curvature="0"
         id="path842"
         d="m 320.57119,434.92361 c -13.54544,-0.0181 -26.50238,10.46001 -28.46821,24.02132 -1.15169,8.07705 -4.00392,16.06638 -3.38137,24.30491 1.70224,14.1522 9.95749,27.76674 22.39515,34.95586 5.30028,3.23157 11.85894,3.98719 17.75276,2.06195 5.9572,-1.79606 11.78546,-4.69792 15.70194,-9.69007 7.90374,-8.91605 8.99116,-21.58084 8.55728,-32.97107 -0.91627,-13.25688 -4.6388,-27.52981 -15.07726,-36.53973 -4.7616,-4.29847 -11.10455,-6.42037 -17.48029,-6.14317 z"
         style="opacity:1;vector-effect:none;fill:#ffcc00;fill-opacity:1;stroke:none;stroke-width:4.06582308;stroke-linecap:round;stroke-linejoin:round;stroke-miterlimit:4;stroke-dasharray:none;stroke-dashoffset:0;stroke-opacity:1;paint-order:fill markers stroke" />
      <path
         transform="scale(0.26458333)"
         inkscape:connector-curvature="0"
         id="path846"
         d="m 437.85501,426.78028 c -8.14265,-0.0423 -14.38318,6.88931 -16.62496,14.2024 -1.69252,5.24525 -1.14623,10.90265 -0.83325,16.31321 1.88096,8.92917 6.35544,17.83839 13.91832,23.24345 6.92302,4.8786 16.47718,1.99624 22.19095,-3.42952 5.04995,-3.85578 5.70059,-10.72337 5.72743,-16.60355 -0.36824,-11.00191 -4.21157,-22.65749 -12.85216,-29.91411 -3.2414,-2.56534 -7.39907,-3.91643 -11.52633,-3.81188 z"
         style="opacity:1;vector-effect:none;fill:#d40000;fill-opacity:1;stroke:none;stroke-width:4.06582308;stroke-linecap:round;stroke-linejoin:round;stroke-miterlimit:4;stroke-dasharray:none;stroke-dashoffset:0;stroke-opacity:1;paint-order:fill markers stroke" />
      <path
         transform="scale(0.26458333)"
         inkscape:connector-curvature="0"
         id="path848"
         d="m 220.09248,467.70427 c -6.77584,0.40645 -10.78697,6.77007 -13.79238,12.09597 -5.36968,9.45338 -6.039,21.51645 -0.97587,31.24243 2.69855,5.20819 6.17798,11.28186 12.3124,12.77482 5.90665,0.86255 11.37782,-2.98275 15.26647,-7.03721 4.37597,-5.45866 3.76518,-13.00043 3.60648,-19.57109 -0.79315,-9.1053 -2.01349,-19.21266 -8.612,-26.12822 -2.05226,-2.05116 -4.84386,-3.50928 -7.8051,-3.3767 z"
         style="opacity:1;vector-effect:none;fill:#d40000;fill-opacity:1;stroke:none;stroke-width:4.06582308;stroke-linecap:round;stroke-linejoin:round;stroke-miterlimit:4;stroke-dasharray:none;stroke-dashoffset:0;stroke-opacity:1;paint-order:fill markers stroke" />
      <path
         transform="scale(0.26458333)"
         inkscape:connector-curvature="0"
         id="path850"
         d="m 445.06139,149.91563 c -4.40763,1.30188 -4.91896,6.99155 -5.99068,10.74152 -2.96898,16.6089 -6.41515,33.63395 -15.91921,47.8957 -13.14406,20.2332 -32.2749,35.70536 -51.8502,49.3967 -20.15411,13.9594 -45.04338,17.52357 -68.61924,21.86976 -16.46979,3.07962 -33.48888,4.22823 -50.13173,1.94819 -16.85965,-3.32474 -31.08838,-14.02798 -43.39599,-25.56046 -6.63358,-5.63939 -12.44872,-12.42704 -19.87785,-17.04231 -3.23568,-1.31793 -5.15698,2.88302 -6.95957,4.77983 -6.31558,8.29457 -10.42213,17.9464 -13.35314,27.88831 -9.20716,26.02766 -14.14816,53.42512 -16.83669,80.84614 -1.4404,21.62434 -1.94777,43.31066 -4.4341,64.86015 -1.24986,9.58787 -1.6342,19.43846 -4.39182,28.73918 -1.38989,1.95568 -3.96507,-1.00731 -4.56799,-2.45961 -2.40662,-7.85315 0.72795,-16.09787 1.09775,-24.10641 4.02414,-35.02265 4.51943,-70.46843 10.61462,-105.22302 2.72813,-15.79803 7.57115,-31.11929 10.95475,-46.75821 1.89113,-10.0797 -4.07509,-19.21168 -8.01333,-28.0093 -3.44855,-6.10962 -6.09176,-13.09618 -11.41929,-17.85676 -6.7463,-4.30194 -15.44016,-3.51345 -22.94269,-2.04572 -5.4942,1.50024 -12.23497,4.01734 -14.16313,9.93294 -0.60206,7.49692 2.69012,14.67487 3.42631,22.07427 4.89126,31.67482 3.72445,63.90296 3.33053,95.85581 -0.31877,31.35826 -6.18492,62.24606 -9.6602,93.32448 -1.00118,14.81581 -1.76973,30.29308 3.28913,44.51027 2.59261,7.68657 8.57223,15.40509 17.28409,15.91157 7.79117,1.28634 13.97534,-4.76118 18.18313,-10.52938 15.66052,-21.43981 21.31543,-48.02343 26.87554,-73.46934 6.06188,-29.42597 9.44549,-59.32623 11.63282,-89.26594 0.76699,-3.90663 0.64726,-8.65842 3.29998,-11.71367 2.69316,1.55358 1.87159,5.63754 2.38936,8.25541 0.8703,25.73734 -2.9439,51.35889 -7.13363,76.67992 -3.17309,20.35851 -10.08053,40.17914 -10.25834,60.9582 -0.36446,25.06965 -5.86107,49.6911 -13.09589,73.5843 -6.05365,19.08293 -11.28052,39.7269 -6.51986,59.68775 2.04285,8.71066 7.39533,16.88918 15.77444,20.62005 15.27733,8.30975 32.51602,11.82962 49.61232,13.98938 18.87985,2.48408 37.85941,5.49977 56.96437,4.24253 21.11333,-0.67299 42.12269,-3.09013 62.9236,-6.67391 35.12602,-4.75864 70.07132,-11.07892 104.29259,-20.4011 26.66432,-7.36571 53.4395,-15.15725 78.43483,-27.18345 18.31805,-10.51748 36.18195,-21.89421 53.36526,-34.18017 5.41515,-3.86829 10.47926,-9.57047 10.05024,-16.67644 0.52585,-11.61483 -8.74674,-20.07692 -14.9594,-28.77708 -14.2036,-19.55636 -19.78362,-43.51923 -27.8179,-65.93369 -3.70985,-11.96245 -8.43811,-23.67062 -11.19116,-35.90106 -0.75076,-4.48718 0.23775,-9.83998 -3.73177,-13.1554 -11.5507,-10.95044 -24.79262,-19.94861 -36.93017,-30.22697 -21.44492,-17.75801 -43.22817,-35.38836 -61.94808,-56.07599 -1.87115,-2.52442 -4.63378,-5.13704 -4.8575,-8.32693 4.8113,1.85558 8.4299,6.13521 12.46912,9.28231 18.96381,17.43276 37.33601,35.58762 57.69096,51.44976 18.3474,14.36754 36.52006,29.02399 55.69313,42.28142 11.28686,6.89584 24.21044,13.55426 37.84279,11.96551 8.45447,-0.9601 16.4706,-8.69029 15.41098,-17.57617 -0.56204,-16.72037 -4.64937,-33.07873 -7.34426,-49.5343 -7.23649,-39.25485 -15.48653,-78.3478 -25.29729,-117.0361 -2.90104,-7.53365 -10.28056,-11.97408 -16.16579,-17.00535 -10.97885,-8.02477 -22.24193,-16.28739 -35.2182,-20.74269 -3.67977,-1.38529 -9.4499,-1.14104 -10.47727,3.54222 -1.34965,8.66494 -1.47995,17.64361 -0.13458,26.31611 2.36954,10.13392 9.99522,17.85777 15.2958,26.51844 8.16378,12.63161 16.85486,25.21102 22.123,39.38591 0.54077,1.22108 1.21301,5.10628 -1.26659,3.61693 -5.9445,-5.60109 -9.40962,-13.32454 -13.91134,-20.06145 -21.21058,-34.99551 -43.52014,-69.40923 -68.32579,-101.98087 -3.42213,-3.76916 -6.03823,-8.65812 -10.44381,-11.36471 -0.24657,-0.0776 -0.50755,-0.11523 -0.76597,-0.097 z m 3.50543,272.99874 c 7.67725,4.32529 13.38634,11.64879 17.30527,19.42259 5.89878,12.45736 4.57906,28.71229 -5.64281,38.55638 -5.2041,5.14716 -11.82383,9.07812 -18.74245,11.2176 -12.87861,-4.13654 -21.0161,-16.3584 -25.86433,-28.3344 -4.05011,-9.52039 -3.94713,-20.6105 0.31141,-30.01697 2.52101,-5.90547 7.20876,-12.91772 14.47246,-12.55108 5.13204,0.15648 10.55519,-0.72221 15.48997,0.39241 0.89016,0.43782 1.78032,0.87565 2.67048,1.31347 z m -127.49999,4.93258 c 13.68626,0.30372 24.99448,10.95012 31.26567,22.4575 4.57471,8.33288 8.0813,17.47966 7.83808,27.11214 0.65029,10.48885 -1.12173,21.18208 -6.44772,30.33053 -6.36836,11.65536 -18.84585,19.95962 -32.132,20.81182 -10.21204,-0.3731 -18.20754,-8.14858 -25.12309,-14.86924 -10.96464,-10.99795 -16.59746,-26.67576 -15.4593,-42.1256 0.37411,-15.09532 10.68868,-27.86019 21.87673,-37.02963 5.07708,-4.16936 11.60151,-6.64932 18.18163,-6.68752 z m -102.167,33.4142 c 8.45314,0.18169 14.55801,7.53611 18.87936,13.98783 6.15031,10.42718 7.10403,23.149 5.57279,34.90757 -1.85365,6.41459 -7.75855,10.51651 -12.36488,14.93598 -4.43098,3.84611 -11.18209,8.29945 -17.00424,4.636 -6.81983,-4.81563 -11.76307,-11.99026 -15.93945,-19.13381 -4.83736,-8.29999 -4.45741,-18.59614 -0.59752,-27.15036 3.66994,-8.16361 7.89,-17.68511 16.67857,-21.35257 1.53917,-0.56198 3.14412,-0.83205 4.77537,-0.83064 z"
         style="opacity:1;vector-effect:none;fill:#2d5016;fill-opacity:1;stroke:none;stroke-width:5.74994183;stroke-linecap:round;stroke-linejoin:round;stroke-miterlimit:4;stroke-dasharray:none;stroke-dashoffset:0;stroke-opacity:1;paint-order:fill markers stroke" />
      <path
         transform="scale(0.26458333)"
         inkscape:connector-curvature="0"
         id="path852"
         d="m 452.60063,936.81553 c -24.09723,1.35953 -48.01499,6.29739 -70.93434,13.78903 -5.50281,2.34524 -11.89949,3.74749 -16.6043,7.42667 3.4868,2.03828 8.61774,1.03539 12.60328,2.00253 9.66086,0.99 13.93049,11.24477 18.60927,18.38694 7.18533,13.17455 15.63377,27.8417 12.78461,43.4185 -4.47104,12.3284 -18.0463,16.7156 -27.66009,24.1168 -11.64414,8.5573 -24.91686,16.325 -32.60008,28.9721 -2.9952,6.4657 -6.75813,15.0576 -2.269,21.6698 6.85274,7.0017 17.79439,6.7583 26.90786,7.0513 15.62224,0.083 31.76741,-4.2911 43.25731,-15.3601 9.66363,-7.5346 17.4401,-17.0737 25.93701,-25.7277 15.55665,-13.303 35.72182,-20.8436 49.24472,-36.5611 2.7828,-4.6758 -0.3985,-10.0451 -4.48307,-12.6747 -12.72023,-10.1589 -25.07798,-21.57977 -31.66543,-36.80685 -3.21448,-7.89615 -8.63098,-15.99704 -7.71463,-24.78521 2.66497,-4.39634 7.18011,-8.44237 7.60958,-13.89152 -0.30796,-1.27677 -2.07675,-0.94743 -3.0227,-1.02649 z"
         style="opacity:1;vector-effect:none;fill:#d45500;fill-opacity:1;stroke:none;stroke-width:8.13164616;stroke-linecap:round;stroke-linejoin:round;stroke-miterlimit:4;stroke-dasharray:none;stroke-dashoffset:0;stroke-opacity:1;paint-order:fill markers stroke" />
      <path
         transform="scale(0.26458333)"
         inkscape:connector-curvature="0"
         id="path854"
         d="m 215.20075,904.45665 c 0.72405,9.84072 5.0391,19.59832 3.39483,29.48282 -3.08571,7.70281 -12.26784,10.17254 -19.09695,13.48153 -11.31702,5.11076 -24.3188,3.05191 -35.78479,7.49608 -8.59431,3.779 -7.57033,15.17494 -4.56594,22.40411 4.14703,8.79179 8.02704,17.97147 7.44831,27.91911 0.028,25.0415 -1.63481,50.0724 -2.2422,75.0867 5.95008,8.5998 11.36192,18.3613 20.29644,24.2195 10.36131,3.7917 21.7934,1.8714 32.56701,1.6793 20.34035,-1.5944 41.52325,-4.3032 59.51277,-14.5837 5.77278,-3.8104 4.0555,-12.1746 1.56576,-17.4819 -7.53764,-12.9928 -24.02507,-16.3794 -37.88714,-17.2699 -10.76639,-0.1634 -23.33425,-1.4747 -31.97732,6.3532 -4.00712,2.3589 -7.63491,7.773 -12.67102,7.3295 -1.09853,-2.5987 2.7837,-5.0592 4.15011,-7.0561 6.05545,-6.8485 14.20284,-11.0778 22.40618,-14.6799 2.33536,-3.3222 -2.43228,-6.5777 -3.48313,-9.609 -6.25918,-12.1984 -6.58933,-26.2739 -6.56102,-39.70985 5.41364,-5.78316 12.15527,-10.79507 19.51908,-13.64554 7.83436,4.2061 12.68041,12.70368 20.63072,16.63989 4.03974,0.6179 3.14423,-5.0368 2.25008,-7.34944 -6.46616,-18.99366 -8.04467,-39.67339 -17.39357,-57.75466 -5.44614,-12.07826 -12.32625,-23.60302 -21.55629,-33.18984 z"
         style="opacity:1;vector-effect:none;fill:#d45500;fill-opacity:1;stroke:none;stroke-width:8.13164616;stroke-linecap:round;stroke-linejoin:round;stroke-miterlimit:4;stroke-dasharray:none;stroke-dashoffset:0;stroke-opacity:1;paint-order:fill markers stroke" />
      <path
         transform="scale(0.26458333)"
         inkscape:connector-curvature="0"
         id="path856"
         d="m 182.93338,633.29068 c -2.57259,-0.0546 -2.08582,3.29814 -1.78414,4.95821 3.04884,15.13674 10.11427,29.10443 17.41012,42.58515 9.13756,16.43782 19.96855,31.96521 32.74204,45.79076 11.27394,13.20925 21.41215,27.82591 27.16166,44.32165 3.22672,10.13756 0.31428,20.74077 -1.03577,30.95019 -4.01246,22.81198 -8.63335,45.58667 -15.22177,67.81074 -3.67425,11.22776 -8.58282,22.12868 -15.22768,31.9119 -1.21797,1.895 -2.4164,4.70519 -0.26858,6.46311 8.59085,8.97302 13.42469,20.63922 18.82841,31.64528 4.60077,9.41387 7.59222,19.45794 9.53903,29.72182 0.91137,2.62541 0.96434,6.51435 3.89736,7.76582 3.38833,0.20755 6.13756,-2.50495 8.9241,-4.07484 12.31393,-8.74287 23.87543,-18.68104 33.92752,-29.96962 12.14309,-14.37093 16.97865,-33.1338 20.04241,-51.29086 4.21889,-25.81092 5.97819,-51.94093 9.27077,-77.8743 1.57131,-14.55819 4.0314,-29.00688 5.68446,-43.55481 0.94553,-10.31526 -0.59812,-20.65396 -3.3976,-30.57738 -6.96774,-26.90405 -16.22549,-53.26635 -21.23974,-80.62571 -0.77453,-6.0238 -0.54845,-12.11892 -0.79943,-18.17565 -2.95081,-0.67814 -6.43627,-0.0119 -9.58631,-0.18909 -38.73531,0.56476 -77.86005,0.64499 -115.94355,-7.27931 -0.96678,-0.15258 -1.94118,-0.32432 -2.92331,-0.31306 z"
         style="opacity:1;vector-effect:none;fill:#6c5353;fill-opacity:1;stroke:none;stroke-width:4.06582308;stroke-linecap:round;stroke-linejoin:round;stroke-miterlimit:4;stroke-dasharray:none;stroke-dashoffset:0;stroke-opacity:1;paint-order:fill markers stroke" />
      <path
         transform="scale(0.26458333)"
         inkscape:connector-curvature="0"
         id="path858"
         d="m 557.41225,561.45687 c -3.15107,0.93539 -5.30193,3.82369 -8.14322,5.40368 -14.54179,9.87394 -29.70454,18.97516 -45.80166,26.08731 -22.56123,8.93125 -45.5569,16.94124 -69.20388,22.52636 -29.10356,6.99868 -58.38751,13.46256 -87.99563,17.90152 -9.23687,1.22443 -18.58018,1.62452 -27.81335,2.8525 -0.57062,2.60933 0.22962,5.5751 0.22584,8.29481 0.94966,18.03339 4.96789,35.72279 9.67917,53.0992 8.84058,30.42869 18.01765,60.76426 25.32927,91.60541 4.59987,19.28523 11.5679,37.86382 18.25428,56.49157 9.94984,28.39279 17.51085,57.5244 26.11105,86.33259 0.52441,2.34449 2.13166,5.50954 5.04561,4.78664 7.77244,-1.88163 15.64088,-3.33883 23.50984,-4.77039 2.36853,-0.67554 6.39872,-1.01264 6.59581,-4.16922 -1.06955,-6.89656 -3.06414,-13.64587 -4.09853,-20.56479 -5.37891,-31.25641 -9.22574,-62.81351 -11.20343,-94.47148 -0.25532,-10.69816 -0.54931,-21.48793 0.78048,-32.1256 1.20404,-8.13634 5.49762,-15.69875 11.9994,-20.71814 11.3791,-8.49705 23.8896,-15.3754 35.68943,-23.28809 14.81132,-9.42946 29.07155,-19.86822 41.36175,-32.47303 10.68117,-10.26254 20.72285,-21.59173 26.88685,-35.21412 7.92938,-17.20398 13.53775,-35.35775 19.44704,-53.32256 3.55477,-12.09398 7.75929,-24.37151 7.58544,-37.12683 -0.31353,-5.39579 -0.31492,-11.09796 -2.56859,-16.10217 -0.35808,-0.5774 -0.94891,-1.09671 -1.67297,-1.03517 z"
         style="opacity:1;vector-effect:none;fill:#6c5353;fill-opacity:1;stroke:none;stroke-width:4.06582308;stroke-linecap:round;stroke-linejoin:round;stroke-miterlimit:4;stroke-dasharray:none;stroke-dashoffset:0;stroke-opacity:1;paint-order:fill markers stroke" />
      <path
         transform="scale(0.26458333)"
         inkscape:connector-curvature="0"
         id="path860"
         d="m 599.85723,118.07098 c -13.15726,0.14144 -26.23933,2.89265 -38.63168,7.23093 -6.29715,2.51911 -13.18547,5.15486 -17.44211,10.70978 -1.50927,2.72244 2.01666,4.78078 3.4169,6.61227 3.76939,3.24228 3.83175,9.02746 0.95081,12.82955 -2.27651,2.89339 -5.00618,6.17378 -8.76695,6.9426 -1.63246,-0.52612 -3.6121,-1.94488 -3.77957,-3.69047 2.28108,-2.17896 6.60958,-2.78753 7.01514,-6.52791 1.06675,-6.49135 -4.24713,-11.43274 -8.465,-15.50063 -9.19455,-8.97797 -21.62811,-14.95634 -34.63103,-14.82182 -7.41107,0.0169 -14.90862,0.15958 -22.24219,1.07852 -0.2668,1.2578 1.90902,1.6311 2.67506,2.34812 12.27116,6.68833 25.94227,12.75953 33.95257,24.81166 2.85885,4.15063 4.24656,10.44581 0.37942,14.44371 -1.91348,2.73291 -5.72299,4.98396 -5.41844,8.71029 1.00244,2.55642 4.4547,2.11823 6.39704,3.60691 14.90572,8.01056 28.83019,17.74902 43.28287,26.50268 1.46413,-0.27146 0.0961,-2.394 0.0308,-3.28761 -0.73601,-3.29512 -2.76828,-6.54759 -2.38016,-9.98502 1.71673,-3.99893 6.12952,-5.87233 9.41642,-8.36743 16.70143,-10.66832 36.32137,-17.82294 56.28683,-17.2625 6.79734,0.12447 13.33618,2.11658 19.50173,4.83365 10.7156,3.7199 22.12533,6.46379 33.53516,5.6047 2.73549,-0.0755 5.57643,-2.18772 5.05913,-5.18133 -0.94158,-6.33099 -4.28438,-12.03332 -7.3912,-17.53232 -10.62222,-17.34431 -29.49573,-28.27582 -49.13671,-32.20357 -7.73617,-1.78355 -15.71644,-1.85375 -23.61479,-1.90476 z"
         style="opacity:1;vector-effect:none;fill:#ff6600;fill-opacity:1;stroke:none;stroke-width:4.06582308;stroke-linecap:round;stroke-linejoin:round;stroke-miterlimit:4;stroke-dasharray:none;stroke-dashoffset:0;stroke-opacity:1;paint-order:fill markers stroke" />
      <path
         transform="scale(0.26458333)"
         inkscape:connector-curvature="0"
         id="path862"
         d="m 69.569355,140.95709 c -11.300914,0.34082 -22.270602,3.88149 -32.70371,8.00999 -7.517528,2.8012 -14.184348,8.06096 -17.810442,15.31755 -4.981162,9.38803 -5.177917,20.47952 -4.108261,30.81474 0.53654,5.42882 3.336459,11.58689 9.150955,12.91543 8.33285,1.79597 16.785882,-0.97002 24.838572,-2.928 13.134916,-3.58838 27.240189,-6.52885 40.666077,-2.84451 6.166052,1.67151 11.600324,6.04887 13.878824,12.10727 0.45266,1.54902 1.75685,2.94881 3.49338,2.3573 5.01332,-1.33947 9.47854,-4.42878 14.71234,-5.00346 6.56438,-0.95752 13.81278,-0.7775 19.7074,2.68085 1.27144,0.52 2.59429,2.31583 4.03895,1.81961 0.57144,-2.20242 -1.16988,-4.44533 -1.69091,-6.56047 -1.95524,-5.81891 -5.69207,-11.7169 -4.56343,-18.00355 1.93576,-6.30301 7.4521,-10.65806 11.58934,-15.55198 4.16116,-4.85999 9.20499,-9.3323 11.71404,-15.34206 1.01788,-2.1752 0.009,-5.08275 -2.5481,-5.44465 -11.53967,-2.33965 -23.89773,4.10858 -29.21197,14.5133 -4.34592,7.84859 -6.2384,17.00203 -11.69626,24.22842 -0.78193,1.3054 -3.40688,2.17449 -3.994,0.34847 0.26044,-8.00047 5.45198,-15.13943 5.21681,-23.31204 -0.38057,-5.22694 -4.58711,-9.18192 -8.19427,-12.5742 -10.34956,-8.83166 -23.105335,-15.19479 -36.62283,-17.1885 -1.944372,-0.2415 -3.903233,-0.36385 -5.862505,-0.35951 z"
         style="opacity:1;vector-effect:none;fill:#ff6600;fill-opacity:1;stroke:none;stroke-width:4.06582308;stroke-linecap:round;stroke-linejoin:round;stroke-miterlimit:4;stroke-dasharray:none;stroke-dashoffset:0;stroke-opacity:1;paint-order:fill markers stroke" />
      <path
         transform="scale(0.26458333)"
         inkscape:connector-curvature="0"
         id="path864"
         d="m 298.75205,23.5373 c -10.12218,-0.07243 -20.30301,0.495675 -30.12957,3.105147 -13.95177,3.402149 -27.67558,9.639658 -37.86002,19.971958 -7.99224,9.316095 -14.24178,19.984079 -20.44797,30.531929 -4.24228,7.876121 -8.96987,15.71373 -11.27625,24.423926 -0.90589,2.63499 1.47833,4.44885 3.41927,5.6788 7.60468,5.32842 16.3646,8.71081 23.9601,14.07364 17.72035,11.23659 33.00106,25.76199 49.94245,38.07159 11.19849,7.89654 23.43839,15.02189 36.99228,17.8256 3.95621,0.80605 8.06623,1.26368 11.95013,-0.14801 19.85773,-5.58194 37.459,-16.98495 57.10871,-23.12734 12.83867,-4.33503 26.34071,-6.88596 39.92649,-6.47551 3.04457,-0.1667 6.27466,0.25398 9.21949,-0.44151 -0.74968,-8.54541 -2.11789,-17.11539 -3.62854,-25.5844 C 423.98325,101.75202 413.36825,84.122596 400.52324,68.952974 386.1479,51.520212 367.99228,36.22926 346.04313,29.592961 330.77122,24.88038 314.69283,23.183085 298.75205,23.5373 Z m -8.08183,88.92069 c 4.24334,1.69263 7.77341,5.07006 10.51955,8.63529 1.38409,2.92179 -1.31864,5.97849 -3.34595,7.8595 -3.10238,2.61283 -8.06156,3.89952 -11.74787,1.80149 -3.37631,-1.96719 -6.25362,-6.07482 -4.49701,-9.99448 1.82782,-3.30119 4.74483,-6.13508 8.00602,-8.02087 0.33474,-0.14853 0.68945,-0.31656 1.06526,-0.28093 z m 48.29943,12.80747 c 3.72438,0.54323 5.33771,4.66927 6.62646,7.72154 0.73968,3.69412 1.13816,8.43521 -2.17992,11.0872 -3.63345,2.90569 -9.07858,1.48139 -12.19489,-1.55157 -2.17349,-1.96923 -4.67054,-4.14887 -5.68275,-6.93393 1.9454,-3.74575 5.92039,-5.92864 9.22895,-8.35856 1.323,-0.7372 2.64436,-1.85043 4.20215,-1.96468 z"
         style="opacity:1;vector-effect:none;fill:#d35f5f;fill-opacity:1;stroke:none;stroke-width:4.06582308;stroke-linecap:round;stroke-linejoin:round;stroke-miterlimit:4;stroke-dasharray:none;stroke-dashoffset:0;stroke-opacity:1;paint-order:fill markers stroke" />
      <path
         transform="scale(0.26458333)"
         inkscape:connector-curvature="0"
         id="path866"
         d="m 197.71374,113.45452 c -0.89613,2.49659 -0.5678,5.55595 -1.01051,8.24226 -1.91992,24.35335 -4.13514,48.69326 -5.40784,73.09066 -0.09,8.26126 -0.64144,16.59074 0.26374,24.81593 1.80046,7.14694 5.53972,13.69328 9.53209,19.83033 13.65553,18.6705 34.45763,32.64536 57.50394,36.17708 15.31301,0.45492 30.60928,-1.03558 45.70691,-3.52798 15.54536,-2.61465 31.23337,-5.15716 46.19154,-10.26341 19.6231,-8.23664 36.54934,-21.66988 52.15562,-35.90914 13.7502,-12.81661 21.81562,-30.67594 26.06787,-48.73702 1.3261,-7.29574 2.87769,-14.61344 3.30442,-22.02524 -2.8068,-0.68861 -6.17025,0.0135 -9.18443,-0.15698 -10.40443,-0.006 -20.91604,0.4463 -30.95196,3.45168 -20.72504,5.07372 -39.3663,15.83551 -58.93409,23.92857 -11.54315,4.73635 -24.57982,1.93166 -35.62636,-2.88519 -23.34916,-10.40023 -40.56551,-30.06589 -61.2561,-44.50748 -8.5946,-6.36261 -17.65914,-12.09196 -27.38263,-16.5768 -3.6341,-1.6437 -7.16836,-3.79092 -10.97221,-4.94727 z"
         style="opacity:1;vector-effect:none;fill:#d35f5f;fill-opacity:1;stroke:none;stroke-width:4.06582308;stroke-linecap:round;stroke-linejoin:round;stroke-miterlimit:4;stroke-dasharray:none;stroke-dashoffset:0;stroke-opacity:1;paint-order:fill markers stroke" />
      <path
         inkscape:connector-curvature="0"
         id="path839"
         d="m 49.225253,294.58979 c -0.894034,-0.24128 -2.888947,-1.92007 -4.433142,-3.73039 l -2.807655,-3.29153 -0.0056,-12.96342 c -0.0056,-11.12579 -0.188218,-13.22241 -1.293006,-14.79028 -1.727693,-2.45212 -1.620767,-4.47876 0.394057,-7.46854 1.505685,-2.23429 1.993236,-2.47218 4.670312,-2.27891 2.744517,0.19827 8.58756,-1.47369 10.213745,-2.92243 0.409303,-0.36465 0.280204,-1.81616 -0.324494,-3.64843 -1.069239,-3.23983 -0.423323,-5.49842 1.572455,-5.49842 2.354845,0 5.18498,-7.19059 7.673698,-19.49674 2.59302,-12.82195 2.506843,-14.0562 -1.419955,-20.33979 -1.799015,-2.87873 -4.483351,-6.39776 -5.965217,-7.82006 -3.60973,-3.46469 -10.452534,-15.68208 -11.483683,-20.50342 -0.456302,-2.13345 -1.122995,-3.87901 -1.48153,-3.87901 -1.323109,0 -6.126794,-4.85443 -7.093742,-7.16862 -1.562067,-3.73854 -1.21607,-9.68321 0.919112,-15.79199 1.688541,-4.83091 3.998537,-14.7797 3.990774,-17.18763 -0.0015,-0.47222 -0.69959,0.30514 -1.551289,1.72744 -2.576879,4.30332 -5.938827,7.38861 -8.051138,7.38861 -2.143253,0 -5.809813,-3.47371 -7.250572,-6.86922 -1.191916,-2.80905 -1.094903,-9.03365 0.278696,-17.88264 2.314687,-14.91126 2.475733,-38.180777 0.319636,-46.187821 -0.606151,-2.251186 -0.605844,-3.321848 0.0012,-4.053272 0.612546,-0.73807 0.576689,-1.391499 -0.139348,-2.537867 C 24.162387,54.519225 19.80241,54.229135 12.395065,56.492942 7.3428427,58.036997 5.644108,57.706304 3.2963851,54.721657 0.13354535,50.70075 1.7652589,42.819594 6.5098257,39.200732 9.1835507,37.161389 14.992664,35.199904 18.3941,35.187896 c 3.990076,-0.01396 9.167321,2.249705 12.081735,5.282747 2.489668,2.591009 2.885707,2.77071 3.766784,1.709067 2.412818,-2.907266 8.294314,-4.30474 10.180205,-2.418849 1.677484,1.677483 0.897693,3.942239 -2.438257,7.081482 -3.681304,3.464267 -3.85028,4.05115 -2.148363,7.462694 0.647061,1.29711 1.010512,2.7909 0.807661,3.319529 -0.203018,0.528657 0.535862,2.83304 1.641627,5.12089 l 2.010439,4.159696 2.645046,-3.164292 c 1.778127,-2.127195 2.451187,-3.512132 2.053583,-4.225572 -0.937765,-1.682622 -1.044245,-12.587772 -0.154707,-15.838465 0.444826,-1.625487 0.899704,-5.781608 1.010847,-9.235766 0.218097,-6.774135 1.147318,-9.889725 4.871377,-16.331294 C 60.271372,8.5111886 68.22681,3.9634129 79.297028,4.0614034 92.576124,4.1789701 99.717641,7.8932253 108.94374,19.480568 c 4.17484,5.243316 5.91512,9.223115 6.93111,15.850446 0.31245,2.038169 0.70268,2.628486 1.52825,2.311699 1.61454,-0.619583 3.52375,1.416603 8.2775,8.828053 3.96307,6.178709 4.24272,6.452071 4.45587,4.355565 0.12511,-1.230284 0.70694,-2.634824 1.29301,-3.12123 0.58607,-0.486378 1.06558,-1.23305 1.06558,-1.659276 0,-0.426198 0.53813,-1.369549 1.19585,-2.096338 2.14412,-2.369225 0.76396,-4.810639 -4.11054,-7.271264 -5.20512,-2.627536 -5.7684,-3.354018 -4.06235,-5.239183 2.47454,-2.734351 11.05575,-1.606581 15.17549,1.994382 1.02132,0.892721 1.63076,0.778395 4.55104,-0.853766 7.44644,-4.161901 17.08436,-4.644985 24.95583,-1.250894 4.02076,1.733726 10.72687,8.781949 11.43852,12.022087 1.10093,5.012595 -3.72213,6.469384 -11.90039,3.594427 -3.30735,-1.162648 -5.39353,-1.433694 -8.61533,-1.119337 -4.52332,0.441363 -11.64605,3.548323 -11.61668,5.067218 0.0195,0.954158 0.59772,3.370745 2.43223,10.146919 3.90438,14.421722 8.8003,41.579084 7.91542,43.906454 -0.79467,2.09016 -5.08995,4.86439 -7.49704,4.84218 -2.28966,-0.0223 -7.95438,-2.60348 -10.07213,-4.59158 -1.93602,-1.8175 -2.0447,-1.34059 -0.62341,2.73594 0.57147,1.63909 2.11488,6.30504 3.42978,10.36878 2.88294,8.90968 4.55615,12.37303 7.82799,16.20324 3.42918,4.01439 3.34055,6.66996 -0.34276,10.26663 -2.81079,2.74465 -2.81989,2.7728 -2.07495,6.40931 0.63883,3.11861 0.49853,4.43873 -0.95966,9.03027 -2.87063,9.03898 -5.12041,15.20623 -6.60903,18.11723 -3.15391,6.16736 -12.94428,15.09948 -22.78156,20.78455 -7.11393,4.11122 -7.60651,4.92991 -7.60145,12.63447 0.005,6.89706 2.36183,26.32752 3.76036,30.99541 0.74357,2.48182 1.22199,2.96912 3.10073,3.15828 3.002,0.30226 4.20343,2.26211 2.52419,4.11762 -1.7893,1.97717 -1.57726,4.02045 0.93343,8.99412 1.51705,3.00523 3.16904,5.00293 5.34647,6.4653 1.73309,1.16397 3.46757,3.01621 3.8544,4.11612 0.90357,2.56939 -0.87098,4.56159 -7.65142,8.58978 -2.69313,1.59997 -7.32363,5.29309 -10.28998,8.20697 -6.40097,6.2877 -9.10379,7.58442 -15.836261,7.59774 -4.533393,0.009 -5.235211,-0.19687 -7.264612,-2.13061 -1.895665,-1.8063 -2.183186,-2.53594 -1.841462,-4.67293 0.482832,-3.01934 4.984246,-7.95792 10.551944,-11.57671 2.098991,-1.36427 4.553251,-3.51539 5.453961,-4.78034 1.49549,-2.10018 1.55802,-2.56674 0.72011,-5.37414 -0.50464,-1.69086 -1.74369,-4.48737 -2.75345,-6.21445 -1.66715,-2.85156 -2.10321,-3.14017 -4.744317,-3.14017 -1.94607,0 -3.05393,-0.37914 -3.348152,-1.14589 -0.62165,-1.62004 2.209352,-4.36567 5.683779,-5.51232 1.61139,-0.53182 2.92981,-1.03406 2.92981,-1.11608 0,-1.21614 -6.57947,-22.84473 -8.389655,-27.57914 -1.344222,-3.51573 -2.910919,-8.05468 -3.48152,-10.08657 l -1.037487,-3.69429 -0.519861,3.69429 c -0.285929,2.03189 -1.026485,8.79932 -1.645677,15.03874 -0.662895,6.6801 -1.801639,13.48588 -2.769565,16.55276 -1.425736,4.51743 -2.306197,5.87078 -6.637411,10.202 -2.746527,2.7465 -6.009033,5.59344 -7.250069,6.32654 -1.856653,1.09675 -2.256379,1.80795 -2.256379,4.01451 0,3.50953 -2.119432,5.62668 -4.407087,4.40235 -0.865997,-0.46349 -1.882903,-1.65367 -2.259758,-2.64492 -0.763231,-2.00741 -1.928896,-2.2411 -3.861451,-0.77406 -1.091746,0.82877 -1.216936,1.70413 -0.806041,5.6355 0.598639,5.72746 1.719232,6.96145 7.389193,8.13709 3.477532,0.72104 4.923765,1.50337 7.454735,4.03261 3.929896,3.92727 4.124398,6.22426 0.738852,8.72607 -1.320707,0.97597 -4.451042,2.33211 -6.956321,3.01363 -4.758194,1.29443 -14.961522,2.02264 -17.758649,1.26743 z m 17.444712,-3.40476 c 5.822936,-1.62806 7.454985,-2.58763 7.454985,-4.38318 0,-4.29826 -4.748308,-7.05872 -12.141802,-7.05872 -4.29223,0 -5.070933,0.23736 -7.353394,2.24138 -1.777065,1.56028 -2.717205,1.97534 -3.093863,1.36595 -0.625727,-1.0125 3.62118,-4.84829 6.118082,-5.52581 1.614092,-0.43799 1.616744,-0.4631 0.254121,-2.40223 -0.777305,-1.10613 -1.581168,-3.9446 -1.845707,-6.51715 -0.465294,-4.52476 -0.450689,-4.5712 2.03225,-6.46502 1.375497,-1.04916 2.831699,-1.90754 3.236004,-1.90754 0.404333,0 1.849002,1.22409 3.210424,2.72017 2.383804,2.6196 3.72956,2.43652 2.522844,-0.34324 -0.621872,-1.43251 -0.561023,-1.18989 -1.800691,-7.17952 -0.994537,-4.80533 -4.05598,-11.4669 -6.622388,-14.41006 l -1.608759,-1.84492 0.481799,2.21659 c 1.252207,5.76119 0.987222,6.52018 -2.958677,8.47479 -2.402848,1.19025 -4.972689,1.8327 -7.388606,1.84713 -5.47264,0.0327 -6.93412,2.98929 -4.095607,8.28536 1.330063,2.48159 1.418224,3.69591 1.02009,14.05078 l -0.435777,11.33443 1.970087,2.97699 c 1.083563,1.63735 2.702544,3.25254 3.597779,3.5893 2.384249,0.89687 12.676379,0.26835 17.446861,-1.06548 z m 39.595445,-0.71933 c 2.29358,-0.94913 8.51786,-6.48181 9.6819,-8.60611 0.36418,-0.66462 3.65456,-3.01471 7.31192,-5.22242 6.68942,-4.03794 8.31253,-6.12238 6.138,-7.88255 -5.19099,-4.20181 -6.86802,-6.02716 -8.50465,-9.25688 -2.40851,-4.753 -3.26005,-7.69149 -2.38548,-8.23199 0.37424,-0.23122 1.04922,-1.10961 1.49997,-1.95182 0.79757,-1.4903 0.70371,-1.51828 -3.50563,-1.045 -5.66141,0.63653 -14.00541,2.60043 -17.25521,4.06132 l -2.586011,1.16248 2.743316,0.2382 c 2.456405,0.21307 3.012855,0.68169 5.319745,4.47928 3.52462,5.80213 4.74794,10.49741 3.39418,13.02701 -0.56186,1.04981 -1.75713,2.31257 -2.65616,2.80609 -3.36195,1.84557 -9.608797,6.411 -11.558694,8.44752 -2.183822,2.28089 -3.22441,5.88611 -2.160532,7.48553 1.516381,2.27978 9.543356,2.55029 14.523336,0.48945 z M 78.434773,250.91096 c 4.71424,-4.78919 6.393845,-10.08118 7.850662,-24.73532 0.605983,-6.0956 1.570473,-14.28506 2.14328,-18.19882 1.152792,-7.87615 1.324227,-6.73766 -3.527155,-23.42123 -1.457039,-5.01059 -2.649151,-10.40775 -2.649151,-11.99372 v -2.88355 l -9.789918,0.0918 c -8.373567,0.0788 -17.055012,-0.66332 -23.195014,-1.98243 -1.44682,-0.31084 -1.53378,-0.13349 -1.008725,2.05534 1.351566,5.63486 7.144399,15.90152 11.773941,20.86707 5.155881,5.53008 8.920207,12.15375 8.920207,15.69584 0,3.98841 -3.376163,20.30847 -5.222372,25.24446 -0.822293,2.1985 -2.140823,4.90411 -2.93008,6.01251 -1.296078,1.82017 -1.322552,2.10862 -0.273391,2.97945 1.58519,1.31557 5.906323,10.0618 6.541544,13.24042 1.104508,5.52697 0.913526,5.40252 4.501838,2.93368 1.790945,-1.23218 4.879838,-3.88977 6.864222,-5.90568 z m 33.171167,-4.18486 c 2.46822,-0.33828 3.11469,-0.70684 2.85502,-1.62755 -1.69623,-6.01367 -4.13181,-25.64801 -4.13181,-33.30833 0,-7.44921 0.95089,-9.42503 6.06439,-12.60091 10.70247,-6.64702 13.1451,-8.40504 17.6601,-12.71017 5.18715,-4.94604 7.02227,-7.9143 9.83557,-15.90863 4.01742,-11.41597 5.02782,-15.69976 4.51293,-19.13339 -0.45709,-3.04807 -0.6095,-3.24607 -1.73904,-2.25909 -0.6809,0.59497 -3.56543,2.4907 -6.41006,4.21275 -4.91835,2.97738 -7.52542,4.08024 -17.73268,7.50131 -6.67598,2.2375 -26.609325,6.52432 -32.78557,7.05079 l -5.44773,0.46435 0.381546,4.8712 c 0.209999,2.67915 1.529813,8.69483 2.933236,13.36814 3.097746,10.31527 4.587626,15.73385 6.196239,22.53527 0.672781,2.8446 2.312369,7.99816 3.643494,11.45235 1.331151,3.45418 3.634415,10.60266 5.118405,15.88552 1.48399,5.28285 2.84446,10.05531 3.0233,10.60543 0.1952,0.60067 0.82586,0.8081 1.57854,0.51927 0.68934,-0.26445 2.68919,-0.67775 4.44412,-0.91831 z M 83.360716,166.70433 c 2.031858,-0.37227 6.187951,-1.00531 9.235765,-1.40683 16.323799,-2.1504 38.673769,-8.50648 45.911719,-13.05675 7.90528,-4.96984 11.46595,-7.35548 13.01249,-8.71842 2.48651,-2.19131 2.18634,-5.50022 -0.818,-9.01724 -3.27182,-3.83021 -4.94504,-7.29356 -7.82798,-16.20324 -1.3149,-4.06374 -2.86689,-8.75215 -3.44886,-10.41868 -0.58194,-1.66654 -0.89458,-3.49521 -0.69476,-4.06375 0.21587,-0.61413 -0.99618,-2.08326 -2.98628,-3.6197 -15.54498,-12.001273 -26.79662,-22.420638 -25.24632,-23.378789 0.39781,-0.245744 3.26544,2.063972 6.37257,5.132954 5.21866,5.154539 10.08213,9.324795 17.40743,14.92628 1.59049,1.216213 4.57543,3.510285 6.63319,5.097935 7.52059,5.80247 13.79273,7.00818 16.32803,3.13885 0.97549,-1.48879 0.89697,-2.74616 -0.74776,-11.971984 -1.8603,-10.435021 -4.03609,-20.99647 -5.85298,-28.410601 -0.54773,-2.235044 -1.19808,-4.957917 -1.44529,-6.050809 -0.56311,-2.489919 -12.15526,-10.428435 -14.69957,-10.06652 -1.4619,0.208044 -1.63362,0.674706 -1.668,4.533617 -0.0346,3.889238 0.25189,4.704186 2.988,8.496914 4.68565,6.49527 7.98836,12.763004 7.16125,13.590129 -0.46383,0.463814 -1.85487,-1.241538 -3.93638,-4.825746 -6.73552,-11.598121 -20.10616,-30.856649 -21.26757,-30.632965 -0.76388,0.147166 -1.32568,1.482702 -1.69075,4.019509 -1.40697,9.776598 -5.44617,15.623942 -16.324259,23.631937 -4.909997,3.614533 -8.669934,4.897095 -20.029265,6.832275 -12.262719,2.089077 -17.4143,0.61411 -25.557342,-7.317481 -2.082822,-2.028703 -4.070138,-3.688565 -4.416275,-3.688565 -0.67764,0 -3.71582,4.60346 -4.030121,6.106465 -0.104997,0.501988 -0.396821,1.411437 -0.648569,2.020994 -2.566464,6.214537 -4.925273,19.041881 -4.933176,26.826921 -0.0056,4.20825 -1.326013,17.63566 -1.931298,19.61988 -0.229826,0.75351 -0.555996,0.80023 -1.296468,0.1857 -0.75424,-0.62595 -0.838323,-1.74321 -0.35376,-4.70108 0.349571,-2.13401 0.975911,-8.86731 1.391889,-14.962924 0.746309,-10.936535 1.665309,-16.691418 3.969998,-24.860598 1.172702,-4.156735 1.169184,-4.190162 -0.928941,-8.866339 -1.158348,-2.581626 -2.646972,-5.142728 -3.308108,-5.691352 -1.661091,-1.378402 -6.063264,-1.249442 -8.343184,0.244348 -1.539503,1.008723 -1.801611,1.612138 -1.396105,3.214055 1.351341,5.338291 1.862265,11.091051 1.914096,21.551995 0.05223,10.558847 -0.368673,15.874653 -2.282127,28.815595 -1.783796,12.06383 0.02514,19.32588 4.935242,19.8062 2.543788,0.24882 4.560678,-1.81289 7.449317,-7.61497 2.995901,-6.01763 6.352515,-22.94407 7.106197,-35.834806 0.232619,-3.978655 0.603302,-5.541447 1.31434,-5.541447 1.900022,0 0.170066,18.674523 -2.840496,30.662763 -0.663342,2.64141 -1.164381,6.29878 -1.113417,8.12745 0.14242,5.11405 -1.281081,13.00393 -3.634752,20.145 -3.353263,10.17381 -2.476906,17.90171 2.298685,20.27035 5.737347,2.84563 8.278984,3.39839 22.535276,4.90095 3.336397,0.35167 13.551062,-0.21139 17.732679,-0.97753 z M 55.158691,139.1747 c -4.358693,-4.85937 -4.904356,-7.69752 -2.453365,-12.76063 1.967965,-4.06528 4.557941,-5.50498 7.217619,-4.01214 2.896292,1.62565 4.759926,5.37007 4.825188,9.6948 0.05166,3.41926 -0.189055,3.98444 -2.661019,6.24978 -3.180712,2.91492 -4.875006,3.11744 -6.928423,0.82819 z m 5.713441,-1.92113 c 1.386696,-1.12286 1.672792,-2.04088 1.602169,-5.14103 -0.177048,-7.77339 -4.366288,-10.92981 -7.486765,-5.64097 -1.965674,3.33151 -1.969836,6.49381 -0.01396,9.66045 1.732414,2.80311 3.423525,3.12473 5.897359,1.12155 z m 20.057838,1.1121 c -4.491143,-3.31347 -6.80502,-7.59657 -6.80502,-12.59646 0,-3.90225 1.332716,-6.69024 4.808404,-10.05901 5.097546,-4.94074 11.664864,-2.86571 15.217789,4.80824 3.124051,6.74761 0.924221,15.32972 -4.659584,18.17837 -3.623861,1.84875 -5.716624,1.76779 -8.561589,-0.33114 z m 7.996377,-1.6048 c 2.898302,-1.49875 4.408986,-4.65455 4.408986,-9.21029 0,-6.52088 -2.838568,-11.46863 -7.030853,-12.25512 -4.072847,-0.76408 -8.234666,2.08165 -8.874075,6.06784 -0.186262,1.16081 -0.551444,3.05265 -0.811625,4.20409 -0.689062,3.04925 1.095069,7.6355 3.943133,10.13615 2.764706,2.42741 5.135468,2.72711 8.364434,1.05733 z m 26.052903,-7.15523 c -2.55476,-1.23391 -5.52757,-6.12046 -5.93782,-9.76029 -0.4188,-3.71554 1.7123,-8.18702 4.0426,-8.4822 3.88857,-0.49251 5.57058,-0.15302 7.31556,1.4772 5.79333,5.41185 5.21161,13.22675 -1.23264,16.55917 -1.16306,0.60147 -2.21429,1.07103 -2.33607,1.04352 -0.12175,-0.0279 -0.95499,-0.40433 -1.85163,-0.8374 z m 6.71272,-4.68715 c 1.56419,-4.07619 -0.78065,-10.52425 -4.23548,-11.64705 -4.93951,-1.60535 -8.04209,4.80368 -5.11282,10.56159 1.77327,3.48566 4.25523,4.67791 6.89575,3.31243 1.09647,-0.56699 2.20011,-1.56913 2.45255,-2.22697 z M 91.584908,69.534783 c 3.987223,-1.15296 10.385122,-5.486045 15.520252,-10.511402 3.24492,-3.175545 5.89744,-9.019203 6.67759,-14.711058 l 0.44156,-3.221512 -3.61001,0.0084 c -5.03086,0.01117 -10.39744,1.578486 -17.800083,5.195059 -5.465575,2.670208 -6.780168,3.035194 -9.560036,2.654178 C 78.560158,48.305024 74.639505,46.041747 67.517336,39.86399 64.03997,36.84773 59.199926,33.413288 56.761697,32.231872 L 52.328528,30.083873 51.851365,36.1413 c -1.660253,21.075917 -1.658997,21.43529 0.08602,24.855686 3.035388,5.949859 10.057836,10.968068 16.484047,11.779414 4.021213,0.507713 15.98823,-1.167201 23.163543,-3.242008 z M 29.931289,56.533015 c 2.06897,-1.107274 6.29658,-1.024447 7.713017,0.151076 1.046172,0.868232 1.04419,0.683365 -0.01955,-1.863495 -1.675138,-4.009149 -1.564609,-4.437525 2.143532,-8.30755 3.780774,-3.945815 4.173155,-5.422235 1.441039,-5.422235 -3.460554,0 -5.928022,1.91122 -7.33971,5.685125 -1.546932,4.135429 -2.509607,5.539801 -3.414226,4.980705 -0.356691,-0.220332 -0.147445,-1.600297 0.465183,-3.066329 0.612546,-1.466004 0.938241,-3.218355 0.723773,-3.894125 -1.042821,-3.285571 -8.281469,-7.399693 -13.019557,-7.399693 -3.453712,0 -9.8153869,2.063721 -11.6603953,3.78259 -2.1112779,1.966959 -3.0308919,4.435515 -3.0308919,8.135864 0,5.94137 1.9710921,6.904575 9.5335632,4.658753 6.883798,-2.044257 12.551693,-1.100879 13.859331,2.306812 0.490791,1.278986 0.657199,1.2951 2.605308,0.252447 z M 147.28339,51.833631 c -0.58661,-1.54291 -0.38834,-2.031104 1.31129,-3.22838 6.88699,-4.851438 15.52559,-6.594798 20.61881,-4.161065 1.54581,0.738658 4.55618,1.491194 6.68963,1.672319 4.48682,0.380903 4.82597,-0.288164 2.46897,-4.870428 -3.14912,-6.122186 -10.38833,-9.916449 -18.95601,-9.935326 -5.11117,-0.01117 -11.92945,1.7521 -14.34836,3.710821 -1.48614,1.203393 -1.52942,1.422244 -0.45736,2.311978 1.61021,1.336346 1.48806,3.253179 -0.31104,4.881346 -1.12192,1.015342 -1.7061,1.142208 -2.34012,0.50816 -0.63402,-0.63402 -0.53745,-0.962954 0.38688,-1.317636 1.82954,-0.702075 1.49527,-2.747141 -0.80001,-4.894638 -3.47491,-3.251141 -6.50443,-4.378799 -11.11565,-4.137495 l -4.21575,0.220612 3.80614,2.007366 c 5.92495,3.124861 8.45304,7.24239 5.79905,9.444984 -1.27836,1.060972 -1.45796,2.216584 -0.34448,2.216584 0.42008,0 3.32936,1.661567 6.46502,3.692335 3.1357,2.030797 5.77617,3.693229 5.86771,3.694318 0.0916,7.26e-4 -0.14466,-0.816039 -0.52472,-1.815855 z M 92.990566,43.991906 c 7.202704,-3.51889 12.622334,-5.096708 17.548754,-5.10891 l 3.53504,-0.0084 -0.4927,-3.879044 c -0.73633,-5.797448 -2.6711,-10.28295 -6.58332,-15.262566 C 99.188424,9.7921866 91.992509,6.3395637 78.983313,6.291281 71.754077,6.2633538 65.72505,8.2350621 61.58049,11.979422 c -2.51589,2.272966 -8.892952,13.278035 -8.874856,15.315589 0.0056,0.476353 1.916051,1.771816 4.24847,2.878781 2.33242,1.106967 7.377046,4.680645 11.210292,7.941504 6.958416,5.919392 12.29436,8.77022 16.561484,8.848299 1.157233,0.02234 4.87632,-1.315904 8.264686,-2.971298 z m -5.969908,-6.633362 c -1.419565,-1.56863 -1.417219,-1.591502 0.307347,-2.987971 0.955833,-0.773982 1.992818,-1.407248 2.304411,-1.407248 1.140644,0 2.332196,2.180811 2.097203,3.838356 -0.322428,2.274558 -2.880681,2.577076 -4.708961,0.556863 z M 75.039901,34.321592 c -1.276362,-1.276362 -1.142767,-2.400809 0.457335,-3.848857 1.288957,-1.166503 1.479631,-1.153825 3.140165,0.208603 1.438636,1.180382 1.616214,1.699936 0.953543,2.789811 -1.001352,1.646905 -3.321093,2.080364 -4.551043,0.850414 z"
         style="fill:#000000;stroke-width:0.73886168" />
    </g>
  </g>
</svg>
