<?xml version="1.0" encoding="UTF-8" standalone="no"?>
<!-- Created with Inkscape (http://www.inkscape.org/) -->

<svg
   version="1.1"
   id="svg1"
   width="1837.5"
   height="2906.25"
   viewBox="0 0 1837.5001 2906.25"
   sodipodi:docname="3.svg"
   inkscape:version="1.4.3 (0d15f75042, 2025-12-25)"
   xmlns:inkscape="http://www.inkscape.org/namespaces/inkscape"
   xmlns:sodipodi="http://sodipodi.sourceforge.net/DTD/sodipodi-0.dtd"
   xmlns="http://www.w3.org/2000/svg"
   xmlns:svg="http://www.w3.org/2000/svg">
  <defs
     id="defs1">
    <inkscape:path-effect
       effect="bspline"
       id="path-effect23"
       is_visible="true"
       lpeversion="1.3"
       weight="33.333333"
       steps="2"
       helper_size="0"
       apply_no_weight="true"
       apply_with_weight="true"
       only_selected="false"
       uniform="false" />
    <inkscape:path-effect
       effect="bspline"
       id="path-effect22"
       is_visible="true"
       lpeversion="1.3"
       weight="33.333333"
       steps="2"
       helper_size="0"
       apply_no_weight="true"
       apply_with_weight="true"
       only_selected="false"
       uniform="false" />
    <inkscape:path-effect
       effect="bspline"
       id="path-effect21"
       is_visible="true"
       lpeversion="1.3"
       weight="33.333333"
       steps="2"
       helper_size="0"
       apply_no_weight="true"
       apply_with_weight="true"
       only_selected="false"
       uniform="false" />
    <inkscape:path-effect
       effect="bspline"
       id="path-effect20"
       is_visible="true"
       lpeversion="1.3"
       weight="33.333333"
       steps="2"
       helper_size="0"
       apply_no_weight="true"
       apply_with_weight="true"
       only_selected="false"
       uniform="false" />
    <inkscape:path-effect
       effect="bspline"
       id="path-effect19"
       is_visible="true"
       lpeversion="1.3"
       weight="33.333333"
       steps="2"
       helper_size="0"
       apply_no_weight="true"
       apply_with_weight="true"
       only_selected="false"
       uniform="false" />
    <inkscape:path-effect
       effect="bspline"
       id="path-effect18"
       is_visible="true"
       lpeversion="1.3"
       weight="33.333333"
       steps="2"
       helper_size="0"
       apply_no_weight="true"
       apply_with_weight="true"
       only_selected="false"
       uniform="false" />
    <inkscape:path-effect
       effect="bspline"
       id="path-effect17"
       is_visible="true"
       lpeversion="1.3"
       weight="33.333333"
       steps="2"
       helper_size="0"
       apply_no_weight="true"
       apply_with_weight="true"
       only_selected="false"
       uniform="false" />
    <inkscape:path-effect
       effect="bspline"
       id="path-effect16"
       is_visible="true"
       lpeversion="1.3"
       weight="33.333333"
       steps="2"
       helper_size="0"
       apply_no_weight="true"
       apply_with_weight="true"
       only_selected="false"
       uniform="false" />
    <inkscape:path-effect
       effect="bspline"
       id="path-effect15"
       is_visible="true"
       lpeversion="1.3"
       weight="33.333333"
       steps="2"
       helper_size="0"
       apply_no_weight="true"
       apply_with_weight="true"
       only_selected="false"
       uniform="false" />
    <inkscape:path-effect
       effect="bspline"
       id="path-effect14"
       is_visible="true"
       lpeversion="1.3"
       weight="33.333333"
       steps="2"
       helper_size="0"
       apply_no_weight="true"
       apply_with_weight="true"
       only_selected="false"
       uniform="false" />
    <inkscape:path-effect
       effect="bspline"
       id="path-effect13"
       is_visible="true"
       lpeversion="1.3"
       weight="33.333333"
       steps="2"
       helper_size="0"
       apply_no_weight="true"
       apply_with_weight="true"
       only_selected="false"
       uniform="false" />
    <inkscape:path-effect
       effect="bspline"
       id="path-effect12"
       is_visible="true"
       lpeversion="1.3"
       weight="33.333333"
       steps="2"
       helper_size="0"
       apply_no_weight="true"
       apply_with_weight="true"
       only_selected="false"
       uniform="false" />
    <inkscape:path-effect
       effect="bspline"
       id="path-effect11"
       is_visible="true"
       lpeversion="1.3"
       weight="33.333333"
       steps="2"
       helper_size="0"
       apply_no_weight="true"
       apply_with_weight="true"
       only_selected="false"
       uniform="false" />
    <inkscape:path-effect
       effect="bspline"
       id="path-effect10"
       is_visible="true"
       lpeversion="1.3"
       weight="33.333333"
       steps="2"
       helper_size="0"
       apply_no_weight="true"
       apply_with_weight="true"
       only_selected="false"
       uniform="false" />
    <inkscape:path-effect
       effect="bspline"
       id="path-effect9"
       is_visible="true"
       lpeversion="1.3"
       weight="33.333333"
       steps="2"
       helper_size="0"
       apply_no_weight="true"
       apply_with_weight="true"
       only_selected="false"
       uniform="false" />
    <inkscape:path-effect
       effect="bspline"
       id="path-effect8"
       is_visible="true"
       lpeversion="1.3"
       weight="33.333333"
       steps="2"
       helper_size="0"
       apply_no_weight="true"
       apply_with_weight="true"
       only_selected="false"
       uniform="false" />
    <inkscape:path-effect
       effect="bspline"
       id="path-effect7"
       is_visible="true"
       lpeversion="1.3"
       weight="33.333333"
       steps="2"
       helper_size="0"
       apply_no_weight="true"
       apply_with_weight="true"
       only_selected="false"
       uniform="false" />
    <inkscape:path-effect
       effect="bspline"
       id="path-effect6"
       is_visible="true"
       lpeversion="1.3"
       weight="33.333333"
       steps="2"
       helper_size="0"
       apply_no_weight="true"
       apply_with_weight="true"
       only_selected="false"
       uniform="false" />
    <inkscape:path-effect
       effect="bspline"
       id="path-effect5"
       is_visible="true"
       lpeversion="1.3"
       weight="33.333333"
       steps="2"
       helper_size="0"
       apply_no_weight="true"
       apply_with_weight="true"
       only_selected="false"
       uniform="false" />
    <inkscape:path-effect
       effect="bspline"
       id="path-effect4"
       is_visible="true"
       lpeversion="1.3"
       weight="33.333333"
       steps="2"
       helper_size="0"
       apply_no_weight="true"
       apply_with_weight="true"
       only_selected="false"
       uniform="false" />
    <inkscape:path-effect
       effect="bspline"
       id="path-effect3"
       is_visible="true"
       lpeversion="1.3"
       weight="33.333333"
       steps="2"
       helper_size="0"
       apply_no_weight="true"
       apply_with_weight="true"
       only_selected="false"
       uniform="false" />
    <inkscape:path-effect
       effect="bspline"
       id="path-effect2"
       is_visible="true"
       lpeversion="1.3"
       weight="33.333333"
       steps="2"
       helper_size="0"
       apply_no_weight="true"
       apply_with_weight="true"
       only_selected="false"
       uniform="false" />
    <inkscape:path-effect
       effect="bspline"
       id="path-effect1"
       is_visible="true"
       lpeversion="1.3"
       weight="33.333333"
       steps="2"
       helper_size="0"
       apply_no_weight="true"
       apply_with_weight="true"
       only_selected="false"
       uniform="false" />
    <inkscape:path-effect
       effect="bspline"
       id="path-effect6-7"
       is_visible="true"
       lpeversion="1.3"
       weight="33.333333"
       steps="2"
       helper_size="0"
       apply_no_weight="true"
       apply_with_weight="true"
       only_selected="false"
       uniform="false" />
    <inkscape:path-effect
       effect="bspline"
       id="path-effect12-9"
       is_visible="true"
       lpeversion="1.3"
       weight="33.333333"
       steps="2"
       helper_size="0"
       apply_no_weight="true"
       apply_with_weight="true"
       only_selected="false"
       uniform="false" />
    <inkscape:path-effect
       effect="bspline"
       id="path-effect11-3"
       is_visible="true"
       lpeversion="1.3"
       weight="33.333333"
       steps="2"
       helper_size="0"
       apply_no_weight="true"
       apply_with_weight="true"
       only_selected="false"
       uniform="false" />
    <inkscape:path-effect
       effect="bspline"
       id="path-effect13-0"
       is_visible="true"
       lpeversion="1.3"
       weight="33.333333"
       steps="2"
       helper_size="0"
       apply_no_weight="true"
       apply_with_weight="true"
       only_selected="false"
       uniform="false" />
    <inkscape:path-effect
       effect="bspline"
       id="path-effect9-2"
       is_visible="true"
       lpeversion="1.3"
       weight="33.333333"
       steps="2"
       helper_size="0"
       apply_no_weight="true"
       apply_with_weight="true"
       only_selected="false"
       uniform="false" />
    <inkscape:path-effect
       effect="bspline"
       id="path-effect18-5"
       is_visible="true"
       lpeversion="1.3"
       weight="33.333333"
       steps="2"
       helper_size="0"
       apply_no_weight="true"
       apply_with_weight="true"
       only_selected="false"
       uniform="false" />
    <inkscape:path-effect
       effect="bspline"
       id="path-effect21-6"
       is_visible="true"
       lpeversion="1.3"
       weight="33.333333"
       steps="2"
       helper_size="0"
       apply_no_weight="true"
       apply_with_weight="true"
       only_selected="false"
       uniform="false" />
    <inkscape:path-effect
       effect="bspline"
       id="path-effect12-7"
       is_visible="true"
       lpeversion="1.3"
       weight="33.333333"
       steps="2"
       helper_size="0"
       apply_no_weight="true"
       apply_with_weight="true"
       only_selected="false"
       uniform="false" />
    <inkscape:path-effect
       effect="bspline"
       id="path-effect12-91"
       is_visible="true"
       lpeversion="1.3"
       weight="33.333333"
       steps="2"
       helper_size="0"
       apply_no_weight="true"
       apply_with_weight="true"
       only_selected="false"
       uniform="false" />
    <inkscape:path-effect
       effect="bspline"
       id="path-effect12-6"
       is_visible="true"
       lpeversion="1.3"
       weight="33.333333"
       steps="2"
       helper_size="0"
       apply_no_weight="true"
       apply_with_weight="true"
       only_selected="false"
       uniform="false" />
    <inkscape:path-effect
       effect="bspline"
       id="path-effect23-7"
       is_visible="true"
       lpeversion="1.3"
       weight="33.333333"
       steps="2"
       helper_size="0"
       apply_no_weight="true"
       apply_with_weight="true"
       only_selected="false"
       uniform="false" />
  </defs>
  <sodipodi:namedview
     id="namedview1"
     pagecolor="#ffffff"
     bordercolor="#000000"
     borderopacity="0.25"
     inkscape:showpageshadow="2"
     inkscape:pageopacity="0.0"
     inkscape:pagecheckerboard="0"
     inkscape:deskcolor="#d1d1d1"
     showgrid="false"
     inkscape:zoom="0.17"
     inkscape:cx="1438.2353"
     inkscape:cy="-188.23529"
     inkscape:window-width="1920"
     inkscape:window-height="1011"
     inkscape:window-x="0"
     inkscape:window-y="0"
     inkscape:window-maximized="1"
     inkscape:current-layer="g1" />
  <g
     inkscape:groupmode="layer"
     inkscape:label="Layer 1"
     id="g1"
     transform="translate(-1195.4181,-25.455009)">
    <path
       style="display:inline;fill:#008000;fill-opacity:1;stroke:none;stroke-width:7.55906;stroke-linecap:round;stroke-linejoin:round;stroke-dasharray:none;stroke-opacity:1;paint-order:markers fill stroke"
       d="m 1213.4493,1263.0575 c 9.4988,-4.9335 23.4013,-13.1411 36.6343,-22.2701 13.233,-9.1291 25.7955,-19.1792 35.3434,-29.5645 9.5479,-10.3854 16.0804,-21.1054 22.2702,-33.2056 6.1899,-12.1002 12.0367,-25.58 15.0946,-40.1323 3.0579,-14.5524 2.9919,-28.0187 -0.3761,-43.9043 -3.3681,-15.8855 -10.0346,-33.5042 -22.8918,-58.0282 -12.8572,-24.524 -31.9049,-55.95252 -46.905,-76.1907 -15.0001,-20.23818 -25.9522,-29.28559 -40.7143,-35.23801 -14.7621,-5.95242 -33.3332,-8.80951 -59.2859,-10.23808 -25.9527,-1.42857 -59.2854,-1.42857 -89.0476,-4.04767 -29.7621,-2.6191 -55.9521,-7.8571 -79.76181,-15.95244 -23.80972,-8.09534 -45.23786,-19.04751 -68.33334,-37.6192 -23.09549,-18.57169 -47.8569,-44.76164 -68.80946,-67.14277 -20.95255,-22.38114 -38.09506,-40.9522 -47.38079,-53.09511 -9.28573,-12.14292 -10.71427,-17.85709 -11.19045,-23.57144 -0.47619,-5.71434 -10e-6,-11.42851 3.33338,-18.57145 3.3334,-7.14294 9.52375,-15.7142 14.99999,-21.42851 5.47624,-5.71432 10.23805,-8.57141 20.4763,-9.99998 10.23825,-1.42857 25.95222,-1.42857 46.90486,-0.47617 20.95265,0.9524 47.1426,2.85713 69.99994,3.80951 22.85734,0.95238 42.38076,0.95238 60.71428,0.71428 18.3335,-0.2381 35.476,-0.71428 56.6667,2.14293 21.1908,2.8572 46.4283,9.04754 61.6665,14.76188 15.2381,5.71434 20.4761,10.95233 27.8572,19.28577 7.381,8.33345 16.9046,19.76177 28.5715,33.57147 11.6668,13.80971 25.476,29.99986 42.8572,46.42859 17.3811,16.42873 38.3331,33.09508 68.0954,45.95231 29.7623,12.85723 68.3329,21.90466 111.9049,31.90478 43.5719,10.00012 92.1423,20.95227 130.0014,29.51627 37.8591,8.564 65.0049,14.73939 83.5062,11.12242 18.5014,-3.61696 28.2072,-16.96198 38.1954,-29.42919 9.9882,-12.46721 20.2277,-24.01386 29.3781,-32.40171 9.1504,-8.38785 17.2112,-13.61649 22.2221,-20.58826 5.0109,-6.97177 6.9717,-15.68618 6.1002,-24.83661 -0.8715,-9.15043 -4.5751,-18.73628 -12.963,-33.66024 -8.388,-14.92396 -21.4596,-35.18497 -35.0763,-48.69266 -13.6167,-13.50769 -27.7777,-20.26139 -41.3943,-24.6187 -13.6167,-4.3573 -26.6884,-6.31806 -33.2244,-8.06099 -6.5359,-1.74294 -6.5359,-3.26796 -2.2875,-4.90197 4.2485,-1.634 12.7451,-3.37689 19.6079,-5.55557 6.8628,-2.17868 12.0915,-4.79302 7.2983,-9.80397 -4.7932,-5.01096 -19.6077,-12.41821 -29.0849,-18.19167 -9.4771,-5.77346 -13.6165,-9.91283 -14.379,-13.18082 -0.7625,-3.26799 1.8518,-5.66445 5.8824,-6.53591 4.0305,-0.87147 9.4771,-0.21787 18.0829,3.37696 8.6057,3.59482 20.3702,10.13065 25.8168,11.87354 5.4466,1.74289 4.5752,-1.30715 -0.7626,-7.18959 -5.3378,-5.88244 -15.1415,-14.59684 -21.1328,-21.45964 -5.9914,-6.86279 -8.17,-11.87362 -7.8431,-15.90415 0.3268,-4.03053 3.159,-7.08059 6.427,-8.16989 3.268,-1.08931 6.9716,-0.21787 12.5272,4.68418 5.5557,4.90206 12.963,13.83435 17.5382,19.49884 4.5751,5.66449 6.318,8.06098 7.2984,7.95202 0.9804,-0.10896 1.1982,-2.72329 0.7625,-8.82359 -0.4358,-6.10031 -1.5251,-15.68618 -1.1982,-21.45963 0.3268,-5.77345 2.0697,-7.7342 6.536,-5.22867 4.4663,2.50553 11.6557,9.47708 16.6666,16.88455 5.0109,7.40747 7.8431,15.25045 9.9129,19.7167 2.0697,4.46625 3.3768,5.55553 6.1002,2.50536 2.7233,-3.05016 6.8627,-10.23959 10.3485,-14.16115 3.4859,-3.92157 6.3181,-4.57515 8.17,-0.6535 1.8518,3.92164 2.7233,12.41821 2.6143,20.69716 -0.1089,8.27895 -1.1982,16.33979 1.5252,24.8366 2.7233,8.4968 9.2592,17.42913 25.3814,31.37268 16.1223,13.94354 41.8298,32.89738 59.0412,48.25698 17.2115,15.35961 25.9259,27.12408 29.5207,40.41398 3.5947,13.28991 2.0697,28.10443 -9.9131,57.4077 -11.9828,29.30326 -34.4224,73.09327 -45.7514,97.82098 -11.329,24.72772 -11.5468,30.39209 -10.0248,34.40179 1.5221,4.00969 4.784,6.36452 25.867,16.81614 21.0831,10.45161 60.1342,29.08114 99.8728,50.52694 39.7386,21.4457 80.214,45.7309 123.5478,75.9694 43.3338,30.2385 89.5234,66.4283 127.3808,100.4762 37.8574,34.0479 67.3806,65.952 85.2918,85.8671 17.9112,19.9152 23.7742,27.2927 31.1417,32.7534 7.3675,5.4608 14.593,7.672 25.5958,6.5763 11.0028,-1.0956 25.7823,-5.4981 38.707,-11.2422 12.9246,-5.7442 23.9935,-12.8298 35.6878,-18.6353 11.6944,-5.8056 24.0134,-10.3307 38.2558,-15.7179 14.2424,-5.3872 30.407,-11.636 52.244,-18.4139 21.8369,-6.7779 49.3449,-14.0845 73.9425,-17.3986 24.5977,-3.314 46.2834,-2.6353 62.3997,1.1341 16.1163,3.7694 26.6618,10.6292 43.0363,24.8484 16.3745,14.2192 38.5769,35.7969 59.5929,56.3025 21.016,20.5056 40.8443,39.9378 53.8661,51.5053 13.0219,11.5675 19.2365,15.2695 25.5936,18.3499 6.3572,3.0803 12.8565,5.5387 26.5052,7.7165 13.6488,2.1777 34.4465,4.0746 46.8336,5.8506 12.3871,1.7761 16.3629,3.4311 17.474,6.3142 1.1111,2.8831 -0.6426,6.9942 -9.6726,9.4279 -9.0299,2.4337 -25.3358,3.1899 -34.5252,4.9892 -9.1895,1.7992 -11.2618,4.6416 -2.591,14.0731 8.6708,9.4315 28.0845,25.4519 37.6,34.152 9.5155,8.7 9.1321,10.0788 0.3007,6.1273 -8.8314,-3.9515 -26.1104,-13.2332 -36.8565,-17.5442 -10.7461,-4.311 -14.9586,-3.651 -10.6921,7.1299 4.2665,10.7809 17.0119,31.6823 21.4266,42.2604 4.4147,10.5781 0.4982,10.832 -4.676,7.2667 -5.1743,-3.5653 -11.6061,-10.9497 -20.1657,-20.8183 -8.5595,-9.8687 -19.2463,-22.2211 -26.0998,-27.3218 -6.8535,-5.1007 -9.8732,-2.9492 -9.5094,1.6695 0.3639,4.6186 4.1114,11.7042 6.8666,19.7247 2.7551,8.0206 4.5177,16.9756 4.3078,22.5234 -0.2099,5.5479 -2.3922,7.688 -5.3769,6.2374 -2.9847,-1.4506 -6.7716,-6.4919 -10.2373,-12.5429 -3.4656,-6.0509 -6.6098,-13.1112 -9.658,-18.0287 -3.0483,-4.9175 -6.0005,-7.6919 -10.0905,-6.6316 -4.0899,1.0603 -9.3173,5.9554 -13.2111,12.8595 -3.8938,6.9042 -6.4537,15.8171 -9.6609,20.216 -3.2073,4.3989 -7.0617,4.2834 -8.3858,-0.7243 -1.3241,-5.0077 -0.1176,-14.9074 1.2596,-23.3356 1.3771,-8.4281 2.9248,-15.3842 3.4575,-23.0806 0.5327,-7.6964 0.05,-16.1327 -0.9623,-24.1265 -1.0125,-7.9939 -2.5551,-15.5448 -15.6925,-28.233 -13.1373,-12.6882 -37.8688,-30.513 -58.229,-43.3886 -20.3602,-12.8755 -36.3477,-20.8009 -51.257,-24.5197 -14.9094,-3.7187 -28.7397,-3.2304 -51.6578,6.5941 -22.9182,9.8245 -54.9231,28.985 -82.9871,47.2886 -28.0639,18.3037 -52.1853,35.7496 -65.0086,46.0329 -12.8232,10.2833 -14.3234,13.3539 0.6344,49.2728 14.9578,35.9188 46.3793,104.4936 76.6142,158.7813 30.2348,54.2877 59.2819,94.2869 90.2346,137.6207 30.9527,43.3338 63.8092,89.9995 85.4759,120.9521 21.6668,30.9525 32.1428,46.1903 56.1908,69.524 24.048,23.3336 61.6663,54.7615 98.8095,82.3808 37.1432,27.6193 73.8091,51.4284 108.5714,70.9523 34.7622,19.524 67.6187,34.7618 107.8573,49.7619 40.2386,15.0002 87.8567,29.7618 135.9524,43.0953 48.0957,13.3334 96.6662,25.2379 139.7618,35.9523 43.0956,10.7144 80.7139,20.238 103.0949,27.1428 22.381,6.9048 29.5238,11.1904 32.1428,14.7619 2.619,3.5714 0.7143,6.4285 -8.5716,9.7619 -9.2859,3.3334 -25.9522,7.1428 -51.905,7.3808 -25.9527,0.2381 -61.1901,-3.0952 -108.8097,-7.1428 -47.6197,-4.0477 -107.6185,-8.8095 -176.1907,-20.4764 -68.5722,-11.6668 -145.7135,-30.2379 -210.2378,-50.2381 -64.5243,-20.0002 -116.4281,-41.4284 -164.2856,-70.4763 -47.8576,-29.048 -91.6663,-65.7139 -134.0476,-100.7143 -42.3814,-35.0003 -83.3329,-68.333 -120.9523,-101.9047 -37.6194,-33.5718 -71.9045,-67.3807 -108.8096,-99.7619 -36.9052,-32.3813 -76.4282,-63.333 -109.4105,-85.7322 -32.9823,-22.3993 -59.0002,-36.0239 -73.8242,-42.3313 -14.8239,-6.3075 -17.0652,-5.1396 -21.3662,9.9858 -4.3009,15.1253 -10.6613,44.207 -16.2334,77.2457 -5.5721,33.0388 -10.3557,70.0328 -10.2095,94.9675 0.1462,24.9348 5.2222,37.8091 14.586,49.9925 9.3639,12.1835 23.015,23.6753 42.9506,37.1989 19.9357,13.5235 46.1547,29.078 63.0338,36.0546 16.8792,6.9765 24.4178,5.375 32.1508,3.1107 7.7331,-2.2644 15.66,-5.1914 22.5032,-8.7536 6.8432,-3.5622 12.6022,-7.7592 19.779,-12.3879 7.1768,-4.6286 15.7708,-9.6885 20.8906,-10.4746 5.1198,-0.7862 6.7651,2.7014 4.0132,7.3986 -2.752,4.6973 -9.9007,10.6038 -14.6752,16.9309 -4.7745,6.3272 -7.1745,13.0747 -6.5131,17.2477 0.6614,4.1731 4.384,5.7716 10.1097,6.6022 5.7257,0.8306 13.4542,0.8934 20.3857,1.6539 6.9316,0.7606 13.0658,2.2189 15.5877,4.3759 2.522,2.157 1.4315,5.0124 -3.5708,7.4206 -5.0023,2.4081 -13.9161,4.3687 -22.3695,5.0462 -8.4535,0.6774 -16.4462,0.072 -20.8258,1.5827 -4.3796,1.511 -5.146,5.1387 2.2674,9.3848 7.4134,4.246 23.0061,9.1101 35.472,13.0159 12.466,3.9059 21.8046,6.8532 27.1398,10.173 5.3351,3.3197 6.6665,7.0116 -4.7944,7.189 -11.461,0.1774 -35.7134,-3.1596 -47.3011,-2.7653 -11.5878,0.3943 -10.5104,4.5199 -2.2663,12.6499 8.2441,8.1301 23.6543,20.2642 30.8041,26.7825 7.1498,6.5183 6.0389,7.4205 -5.7375,2.1715 -11.7763,-5.2489 -34.2172,-16.6487 -46.3268,-20.8312 -12.1097,-4.1824 -13.8878,-1.1473 -11.8672,7.996 2.0206,9.1433 7.8396,24.3943 9.2149,33.6448 1.3752,9.2505 -1.6933,12.5001 -4.7802,12.6329 -3.087,0.1329 -6.1922,-2.851 -12.7676,-13.498 -6.5755,-10.647 -16.6208,-28.9563 -24.0685,-40.5995 -7.4476,-11.6432 -12.2972,-16.6198 -17.6602,-21.2176 -5.3629,-4.5979 -11.2389,-8.8169 -27.0445,-16.1352 -15.8056,-7.3183 -41.5398,-17.7356 -68.7325,-28.813 -27.1927,-11.0775 -55.8422,-22.8144 -75.4178,-32.1473 -19.5757,-9.3329 -30.0764,-16.2612 -39.9687,-29.5309 -9.8923,-13.2697 -19.1756,-32.8797 -25.9613,-56.754 -6.7857,-23.8743 -11.0734,-52.0113 -13.5809,-74.738 -2.5076,-22.7268 -3.2347,-40.0419 -3.7847,-60.8675 -0.5499,-20.8255 -0.9228,-45.1597 0.1871,-67.0519 1.1099,-21.8923 3.7024,-41.3412 3.3785,-58.3355 -0.324,-16.9944 -3.5642,-31.533 -7.9315,-40.3237 -4.3673,-8.7907 -9.9884,-11.903 -14.3256,-14.0747 -4.3372,-2.1717 -7.8567,-3.6316 -30.0927,-16.5044 -22.236,-12.8728 -63.1876,-37.158 -104.6165,-61.6821 -41.429,-24.524 -83.3329,-49.2854 -121.4286,-77.1428 -38.0957,-27.8574 -72.3807,-58.8092 -115.9494,-98.3366 -43.5688,-39.5274 -96.4201,-87.6292 -126.4605,-112.7595 -30.0404,-25.1304 -36.4262,-26.8462 -50.9686,-19.1955 -14.5425,7.6507 -36.9876,24.7358 -66.5523,39.5601 -29.5647,14.8243 -66.2474,27.3869 -91.103,33.3612 -24.8556,5.9743 -37.9604,5.3562 -55.7698,1.9667 -17.8094,-3.3894 -40.7436,-9.6295 -57.6806,-12.9299 -16.9369,-3.3004 -27.998,-3.6942 -36.5583,-1.1775 -8.5603,2.5167 -14.6193,7.9437 -21.4092,12.6819 -6.7899,4.7382 -14.3103,8.7873 -18.5952,9.4565 -4.285,0.6693 -5.3342,-2.0414 -4.0461,-7.1277 1.2881,-5.0863 4.9136,-12.5481 5.9087,-16.5142 0.9952,-3.966 -0.6401,-4.4362 -5.498,-3.6414 -4.858,0.7947 -12.9383,2.8542 -21.8814,2.8663 -8.9432,0.012 -18.74863,-2.0233 -23.32952,-4.3126 -4.5809,-2.2893 -3.93685,-4.8324 0.65734,-8.3442 4.59419,-3.5118 13.13828,-7.9921 18.43108,-11.0565 5.2928,-3.0643 7.3339,-4.7123 6.8737,-5.5848 -0.4603,-0.8724 -3.4219,-0.9693 -10.6781,-1.5751 -7.25612,-0.6059 -18.80648,-1.7208 -25.98217,-3.5661 -7.17568,-1.8453 -9.9761,-4.4208 -10.90941,-7.7368 -0.93332,-3.3159 6.1e-4,-7.372 3.15247,-9.9053 3.15186,-2.5333 8.52158,-3.5437 17.56443,-2.4387 9.04284,1.105 21.75828,4.3253 29.62298,5.4399 7.8646,1.1146 10.8779,0.1234 6.3777,-3.4053 -4.5002,-3.5287 -16.5136,-9.5947 -24.32,-14.698 -7.80628,-5.1032 -11.40504,-9.2435 -12.94674,-13.0681 -1.54169,-3.8247 -1.02632,-7.3335 2.10612,-8.5373 3.13243,-1.2037 8.88183,-0.1022 18.98032,4.499 10.0984,4.6012 24.5453,12.7019 31.383,13.8551 6.8378,1.1532 6.0657,-4.6414 4.0157,-11.5438 -2.0501,-6.9023 -5.378,-14.9119 -6.4111,-19.345 -1.033,-4.4331 0.229,-5.2893 5.3408,-0.8591 5.1118,4.4301 14.0731,14.1465 25.3237,22.9683 11.2505,8.8218 24.7898,16.7486 43.6125,20.4332 18.8228,3.6846 42.9281,3.1265 57.2453,2.0522 14.3173,-1.0744 18.912,-2.6885 23.6344,-4.2837 4.7224,-1.5952 9.8169,-3.2545 19.3157,-8.1881 z"
       id="path8"
       inkscape:path-effect="#path-effect12-6"
       inkscape:original-d="m 1209.0452,1266.3317 c 13.9029,-8.2077 27.8054,-16.4153 41.7086,-24.6232 12.5628,-10.0502 25.1253,-20.1003 37.6884,-30.1507 6.5327,-10.7203 13.0652,-21.4403 19.598,-32.1608 6.0302,-13.4004 12.0603,-26.8007 17.8823,-41.2276 -0.2082,-14.8361 -0.1392,-28.3031 -0.2082,-42.4551 -6.6667,-17.6191 -13.3332,-35.2378 -20,-52.8572 -19.0476,-31.4286 -38.0953,-62.8571 -57.1429,-94.28567 -10.9526,-9.0478 -21.9047,-18.09524 -32.8571,-27.14286 -18.5718,-2.8572 -37.1429,-5.71428 -55.7143,-8.57143 -33.334,0 -66.6667,0 -100,0 -26.191,-5.2382 -52.381,-10.47619 -78.57143,-15.71428 -21.429,-10.9526 -42.85714,-21.90476 -64.28571,-32.85715 -24.7624,-26.191 -49.52381,-52.38095 -74.28572,-78.57142 -17.1432,-18.5718 -34.28571,-37.14286 -51.42857,-55.71429 -1.4286,-5.7144 -2.85714,-11.42857 -4.28571,-17.14286 0.4762,-5.7144 0.95238,-11.42857 1.42857,-17.14285 6.1906,-8.5716 12.38095,-17.14286 18.57143,-25.71429 4.762,-2.8572 9.52381,-5.71429 14.28571,-8.57143 15.7146,0 31.42857,0 47.14286,0 26.191,1.9048 52.38095,3.80953 78.57143,5.71429 19.5242,0 39.04762,0 58.57144,0 17.1432,-0.4762 34.2857,-0.95238 51.4286,-1.42857 25.2386,6.1906 50.4761,12.38095 75.7142,18.57142 5.2382,5.2382 10.4762,10.47619 15.7143,15.71429 9.524,11.4288 19.0476,22.85714 28.5715,34.28571 13.8098,16.1908 27.619,32.38096 41.4285,48.57143 20.9528,16.667 41.9048,33.33334 62.8572,50 38.5722,9.0478 77.1428,18.09524 115.7143,27.14286 48.5724,10.9526 97.1428,21.90476 145.7142,32.85714 27.1434,6.1906 54.2858,12.38096 81.5279,18.54675 9.8029,-13.40383 19.4732,-26.77468 29.2098,-40.16206 10.2398,-11.54707 20.4793,-23.09368 30.7189,-34.64052 8.0612,-5.22887 16.122,-10.45752 24.183,-15.68628 1.9609,-8.71477 3.9216,-17.42919 5.8824,-26.14379 -3.7038,-9.58625 -7.4074,-19.17211 -11.1111,-28.75817 -13.0722,-20.26184 -26.1438,-40.52287 -39.2157,-60.78431 -14.1615,-6.75395 -28.3225,-13.50763 -42.4837,-20.26144 -13.0721,-1.96082 -26.1438,-3.92157 -39.2157,-5.88235 0,-1.52509 0,-3.05011 0,-4.57517 8.4969,-1.74295 16.9935,-3.48583 25.4902,-5.22875 5.2289,-2.61444 10.4576,-5.22876 15.6863,-7.84314 -14.8151,-7.40756 -29.6296,-14.81482 -44.4444,-22.22222 -4.1395,-4.13952 -8.2789,-8.27887 -12.4183,-12.4183 2.6144,-2.39657 5.2287,-4.79303 7.8431,-7.18955 5.4467,0.65361 10.8933,1.30719 16.3399,1.96079 11.7649,6.53608 23.5294,13.07189 35.2941,19.60784 -0.8715,-3.05017 -1.7429,-6.10022 -2.6144,-9.15033 -9.8041,-8.71477 -19.6078,-17.42919 -29.4118,-26.14379 -2.1786,-5.01099 -4.3573,-10.02178 -6.5359,-15.03268 2.8323,-3.05017 5.6645,-6.10021 8.4967,-9.15032 3.7038,0.87147 7.4074,1.74292 11.1111,2.61438 7.4076,8.93264 14.8149,17.86492 22.2223,26.79738 1.7429,2.39656 3.4858,4.79303 5.2287,7.18954 0.2179,-2.61443 0.4358,-5.22875 0.6536,-7.84313 -1.0893,-9.58625 -2.1786,-19.17212 -3.268,-28.75817 1.743,-1.96083 3.4859,-3.92157 5.2288,-5.88236 7.1897,6.97182 14.3791,13.94336 21.5686,20.91504 2.8323,7.84329 5.6645,15.68627 8.4968,23.52941 1.3072,1.08934 2.6143,2.17865 3.9215,3.26797 4.1395,-7.18968 8.2789,-14.37908 12.4183,-21.56863 2.8323,-0.6536 5.6645,-1.30719 8.4968,-1.96078 0.8714,8.4969 1.7429,16.99346 2.6143,25.4902 -1.0893,8.06116 -2.1786,16.122 -3.2679,24.183 6.536,8.93264 13.0719,17.86493 19.6078,26.79739 25.7086,18.95463 51.4161,37.90849 77.1242,56.86274 8.7148,11.76494 17.4292,23.52942 26.1438,35.29412 -1.5251,14.81511 -3.0501,29.62963 -4.5752,44.44445 -22.4405,43.79172 -44.8802,87.58169 -67.3202,131.37254 -0.2179,5.66461 -0.4358,11.32898 -0.6536,16.99347 3.2943,2.31016 6.5885,4.62022 9.7406,7.03194 38.9055,18.67301 78.0005,37.21055 117.0007,55.81585 40.477,24.2862 80.9524,48.5714 121.4286,72.8572 46.1914,36.1912 92.381,72.3809 138.5714,108.5714 29.5244,31.9054 59.0476,63.8095 88.5715,95.7143 6.2985,7.9255 12.1615,15.303 18.8951,23.7759 8.0014,2.4486 15.2269,4.6598 22.4526,6.871 14.7799,-4.4025 29.5594,-8.805 44.3396,-13.2076 11.0691,-7.0857 22.138,-14.1712 33.2073,-21.2571 12.3194,-4.5253 24.6384,-9.0504 36.9582,-13.5759 16.165,-6.249 32.3296,-12.4978 48.495,-18.7468 27.5085,-7.3068 55.0165,-14.6133 82.5256,-21.9202 21.6862,0.6788 43.3719,1.3576 65.0586,2.0363 10.5459,6.86 21.0914,13.7198 31.6375,20.5799 22.2029,21.5783 44.4053,43.156 66.6087,64.7347 19.8286,19.4326 39.6569,38.8647 59.486,58.2977 6.2146,3.702 12.4292,7.404 18.644,11.1062 6.4995,2.4585 12.9988,4.9169 19.4984,7.3755 20.7979,1.897 41.5956,3.7939 62.394,5.6908 3.9758,1.6551 7.9516,3.3101 11.9275,4.9652 -1.7538,4.1111 -3.5074,8.2222 -5.2612,12.3334 -16.3061,0.7562 -32.612,1.5124 -48.9185,2.2686 -2.0723,2.8424 -4.1447,5.6847 -6.2171,8.527 19.414,16.0207 38.8276,32.0412 58.2422,48.0623 -0.3835,1.3789 -0.7669,2.7577 -1.1504,4.1365 -17.2793,-9.2818 -34.5583,-18.5634 -51.8379,-27.8455 -4.2126,0.6601 -8.4251,1.3199 -12.6378,1.98 12.7457,20.9018 25.4911,41.8032 38.237,62.7055 -3.9165,0.2539 -7.833,0.5078 -11.7495,0.7617 -6.432,-7.3845 -12.8638,-14.7689 -19.2959,-22.1535 -10.687,-12.3527 -21.3738,-24.7051 -32.061,-37.058 -3.0198,2.1515 -6.0396,4.3029 -9.0594,6.4546 3.7476,7.0857 7.4951,14.1713 11.2428,21.2571 1.7626,8.9553 3.5251,17.9103 5.2878,26.8657 -2.1824,2.1403 -4.3647,4.2804 -6.5471,6.4207 -3.787,-5.0415 -7.574,-10.0828 -11.361,-15.1244 -3.1442,-7.0603 -6.2884,-14.1206 -9.4326,-21.1811 -2.9523,-2.7745 -5.9045,-5.5489 -8.8569,-8.3234 -5.2275,4.8951 -10.4549,9.7902 -15.6825,14.6854 -2.56,8.9131 -5.1199,17.826 -7.6799,26.7393 -3.8545,-0.1155 -7.7089,-0.2309 -11.5636,-0.3465 1.2065,-9.8999 2.4131,-19.7996 3.6196,-29.6998 1.5477,-6.9561 3.0954,-13.9122 4.6432,-20.8685 -0.4824,-8.4365 -0.9649,-16.8728 -1.4473,-25.3094 -1.5426,-7.5511 -3.0852,-15.102 -4.6279,-22.6532 -24.732,-17.8252 -49.4635,-35.65 -74.1961,-53.4756 -15.9878,-7.9255 -31.9753,-15.8509 -47.9635,-23.7767 -13.8305,0.4882 -27.6608,0.9766 -41.4916,1.4649 -32.0055,19.1607 -64.0104,38.3212 -96.0166,57.4823 -24.1217,17.4462 -48.2431,34.8921 -72.3653,52.3386 -1.5243,3.1201 -3.0631,6.1718 -4.5731,9.3605 31.4501,68.6744 62.8787,137.2459 94.3072,205.8173 29.0482,40.0008 58.0953,80 87.1429,120 32.8578,46.6676 65.7143,93.3333 98.5714,140 10.4764,15.2384 20.9524,30.4762 31.4286,45.7143 37.6198,31.4292 75.2381,62.8571 112.8571,94.2857 36.6674,23.81 73.3334,47.619 110,71.4286 32.8578,15.2384 65.7143,30.4762 98.5715,45.7143 47.62,14.7622 95.2381,29.5238 142.8571,44.2857 48.5724,11.905 97.1429,23.8095 145.7143,35.7143 37.6198,9.524 75.2381,19.0476 112.8571,28.5714 7.143,4.2858 14.2858,8.5714 21.4286,12.8571 -1.9048,2.8572 -3.8095,5.7143 -5.7143,8.5715 -16.667,3.8096 -33.3333,7.619 -50,11.4285 -35.2388,-3.3334 -70.4762,-6.6666 -105.7143,-10 -60.0012,-4.762 -120,-9.5238 -180,-14.2857 -77.1444,-18.5718 -154.2857,-37.1428 -231.4285,-55.7143 -51.9058,-21.429 -103.8096,-42.8571 -155.7143,-64.2857 -43.8104,-36.6674 -87.6191,-73.3333 -131.4286,-110 -40.9532,-33.334 -81.9047,-66.6667 -122.8571,-100 -34.2864,-33.8102 -68.5715,-67.619 -102.8572,-101.4286 -39.5246,-30.953 -79.0476,-61.9047 -118.5714,-92.8571 -26.4408,-13.8461 -52.381,-27.619 -79.3207,-41.5373 -2.9223,1.19 -5.0954,2.4888 -7.2685,3.7875 -6.3606,29.0828 -12.7209,58.1645 -19.0814,87.2466 -4.7837,36.9954 -9.5675,73.9894 -14.3511,110.984 5.0761,12.8749 10.152,25.7492 15.2281,38.6238 13.6517,11.4923 27.3028,22.9841 40.9541,34.4761 26.22,15.5551 52.439,31.1095 78.6583,46.6643 7.539,-1.6015 15.0776,-3.203 22.6164,-4.8046 7.9273,-2.9272 15.8542,-5.8542 23.7813,-8.7813 5.7593,-4.1973 11.5183,-8.3944 17.2775,-12.5915 8.5944,-5.0601 17.1884,-10.12 25.7827,-15.18 1.6453,3.4877 3.2906,6.9753 4.9359,10.4629 -7.1492,5.9068 -14.2979,11.8134 -21.4469,17.7201 -2.4,6.7476 -4.8,13.4951 -7.1999,20.2426 3.7227,1.5986 7.4453,3.1971 11.168,4.7956 7.7287,0.063 15.4572,0.1252 23.1857,0.1882 6.1346,1.4584 12.2688,2.9167 18.4032,4.3751 -1.0905,2.8556 -2.181,5.711 -3.2715,8.5666 -8.9141,1.9607 -17.8279,3.9213 -26.7419,5.882 -7.9929,-0.6058 -15.9856,-1.2116 -23.9784,-1.8174 -0.7665,3.6279 -1.5329,7.2556 -2.2992,10.8834 15.5932,4.8643 31.1859,9.7284 46.7788,14.5926 9.339,2.9474 18.6776,5.8948 28.0165,8.8423 1.3314,3.692 2.6628,7.3839 3.9943,11.0759 -24.2534,-3.3371 -48.5058,-6.6742 -72.7587,-10.0113 1.0774,4.1257 2.1548,8.2513 3.2322,12.3768 15.4108,12.1346 30.821,24.2687 46.2315,36.4031 -1.1109,0.9022 -2.2218,1.8044 -3.3328,2.7067 -22.4417,-11.4003 -44.8826,-22.8 -67.3238,-34.2 -1.7781,3.0351 -3.5562,6.0702 -5.3343,9.1053 5.8192,15.2515 11.6383,30.5025 17.4575,45.7537 -3.0687,3.2498 -6.1372,6.4994 -9.2058,9.7491 -3.1053,-2.984 -6.2105,-5.9679 -9.3157,-8.9519 -10.0457,-18.31 -20.091,-36.6193 -30.1365,-54.9289 -4.8498,-4.9768 -9.6994,-9.9534 -14.5492,-14.9301 -5.8761,-4.219 -11.7521,-8.438 -17.628,-12.6569 -25.7353,-10.4177 -51.4695,-20.835 -77.2042,-31.2524 -28.6507,-11.7375 -57.3002,-23.4744 -85.9503,-35.2116 -10.5012,-6.9286 -21.0019,-13.8569 -31.5029,-20.7854 -9.2836,-19.6109 -18.5668,-39.2209 -27.8503,-58.8313 -4.2879,-28.1382 -8.5757,-56.2752 -12.8636,-84.4127 -0.7272,-17.316 -1.4543,-34.6311 -2.1814,-51.9466 -0.3729,-24.3356 -0.7457,-48.6698 -1.1185,-73.0047 2.5926,-19.4496 5.1851,-38.8985 7.7777,-58.3477 -3.2404,-14.5395 -6.4806,-29.0781 -9.7212,-43.6176 -5.494,-3.042 -11.1152,-6.1542 -16.4818,-9.1255 -3.3076,-1.3725 -6.8272,-2.8322 -10.3469,-4.2919 -40.9524,-24.2857 -81.904,-48.5709 -122.8572,-72.8571 -41.9047,-24.7619 -83.8086,-49.5233 -125.7142,-74.2857 -34.2858,-30.9524 -68.5708,-61.9042 -102.8571,-92.8572 -52.8572,-48.0952 -105.7144,-96.1905 -158.8909,-144.6123 -6.8522,-2.0017 -13.2782,-3.5678 -19.9175,-5.3518 -22.4456,17.0854 -44.8907,34.1705 -67.3367,51.2563 -36.6834,12.5628 -73.3661,25.1254 -110.0502,37.6884 -13.0271,-0.6144 -26.1319,-1.2325 -39.0813,-1.8433 -22.6694,-6.1681 -45.6036,-12.4083 -68.4162,-18.6153 -11.0613,-0.3937 -22.1224,-0.7875 -33.1839,-1.1812 -6.0591,5.4271 -12.1181,10.8541 -18.1774,16.2813 -7.5205,4.0492 -15.0409,8.0982 -22.5615,12.1475 -1.0493,-2.7107 -2.0985,-5.4214 -3.1478,-8.1321 3.6256,-7.4619 7.251,-14.9237 10.8766,-22.3857 -1.6353,-0.4702 -3.2706,-0.9403 -4.9059,-1.4104 -8.0806,2.0595 -16.1609,4.1191 -24.2415,6.1787 -9.8057,-2.0354 -19.61114,-4.0707 -29.417,-6.1062 0.64409,-2.5432 1.28814,-5.0863 1.93221,-7.6295 8.54432,-4.4804 17.08839,-8.9607 25.63289,-13.4413 2.0412,-1.648 4.0822,-3.2961 6.1234,-4.9442 -2.9617,-0.097 -5.9233,-0.1937 -8.8851,-0.2905 -11.55052,-1.1149 -23.10088,-2.2298 -34.6517,-3.3447 -2.80052,-2.5757 -5.60097,-5.1512 -8.40155,-7.7269 0.93396,-4.0562 1.86787,-8.1123 2.80183,-12.1685 5.36977,-1.0104 10.73951,-2.0207 16.10936,-3.0312 12.7158,3.2205 25.43126,6.4407 38.14726,9.6612 3.0133,-0.9913 6.0266,-1.9825 9.0399,-2.9738 -12.0137,-6.0661 -24.0271,-12.1322 -36.04106,-18.1984 -3.59874,-4.1402 -7.19747,-8.2805 -10.79628,-12.4208 0.51538,-3.509 1.03077,-7.0178 1.54619,-10.5268 5.74946,1.1015 11.49886,2.203 17.24845,3.3045 14.4473,8.1009 28.8942,16.2016 43.3418,24.3027 -0.7721,-5.7947 -1.5442,-11.5893 -2.3163,-17.3842 -3.328,-8.0098 -6.656,-16.0194 -9.984,-24.0294 1.262,-0.8562 2.524,-1.7124 3.786,-2.5686 8.9616,9.7165 17.923,19.4328 26.8846,29.1495 13.5395,7.9269 27.0787,15.8538 40.6184,23.781 24.1058,-0.5581 48.2111,-1.1161 72.3174,-1.6741 4.5282,-1.5907 9.1229,-3.2048 13.5846,-4.7722 4.9831,-1.623 10.0776,-3.2823 15.1723,-4.9417 z"
       sodipodi:nodetypes="ccccccccccccccccccccccccccccccccccccccccccccccccccccccccccccccccccccccccccccccccccccccccccccccccccccccccccccccccccccccccccccccccccccccccccccccccccccccccccccccccccccccccccccccccccccccccccccccccccccacccccccccccccccccccccccccccccccc"
       transform="rotate(86.227626,2094.3926,1457.1168)" />
    <path
       style="display:inline;fill:#005500;fill-opacity:1;stroke:none;stroke-width:7.55906;stroke-linecap:round;stroke-linejoin:round;stroke-dasharray:none;stroke-opacity:1;paint-order:markers fill stroke"
       d="m 1340.8171,904.63821 c 34.3536,18.59755 94.3292,50.27233 168.0171,97.20789 73.6879,46.9356 161.0845,109.1295 242.3861,169.0894 81.3015,59.96 156.5033,117.6824 235.3659,183.3336 78.8626,65.6511 161.3813,139.2269 230.6908,205.6909 69.3095,66.464 125.4059,125.8124 185.1626,193.2928 59.7568,67.4804 123.1702,143.0887 177.8454,202.8452 54.6753,59.7565 100.6093,103.6581 157.5206,145.9349 56.9112,42.2768 124.796,82.9264 161.975,106.6176 37.1789,23.6912 43.0497,29.7979 50.1219,37.1544 -28.8293,-7.9512 -57.2042,-15.7771 -86.4802,-26.726 -29.276,-10.9488 -58.5437,-24.7697 -104.6822,-54.6479 -46.1385,-29.8782 -109.1453,-75.8122 -160.9752,-120.1216 -51.8299,-44.3094 -92.4795,-86.9915 -140.6507,-140.0407 -48.1711,-53.0492 -103.8611,-116.4626 -161.7884,-175.2031 -57.9274,-58.7404 -118.0888,-112.8044 -178.252,-166.2602 -60.1632,-53.4558 -120.3246,-106.3003 -193.6992,-161.5854 -73.3746,-55.2851 -159.9582,-113.0075 -219.3087,-154.4715 -59.3504,-41.464 -91.4636,-66.6667 -135.9761,-100.2036 -44.5126,-33.5368 -101.422,-75.4059 -149.9998,-113.2112 -48.5778,-37.80524 -88.8217,-71.54508 -118.4479,-92.75655 -29.6262,-21.21147 -48.634,-29.89424 -70.9716,-37.5691 -22.3377,-7.67485 -48.0038,-14.34138 -75.1708,-21.17478 -27.1669,-6.8334 -55.833,-13.83326 -72.9997,-23.16672 -17.1668,-9.33346 -22.8333,-20.99987 -24.3333,-33.83335 -1.5,-12.83348 1.1666,-26.83319 10.5001,-39.83331 9.3335,-13.00012 25.3332,-24.99989 39,-29.8332 13.6668,-4.8333 24.9997,-2.50006 38.3333,5.33341 13.3335,7.83347 28.6663,21.16632 43.8332,37.66664 15.167,16.50032 30.1664,36.16621 47.0001,49.4998 16.8336,13.33359 35.4999,20.33345 49.1992,26.59368 13.6993,6.26023 22.4308,11.78043 56.7845,30.37799 z"
       id="path7"
       inkscape:path-effect="#path-effect11-3"
       inkscape:original-d="m 1315.1951,891.56098 c 59.9756,31.6748 119.9512,63.34956 179.9269,95.02439 87.4001,62.19633 174.7967,124.39023 262.1951,186.58533 75.2047,57.7248 150.4065,115.4472 225.6097,173.1708 82.522,73.5787 165.0407,147.1544 247.561,220.7317 56.0987,59.3508 112.1951,118.6992 168.2927,178.0488 63.4159,75.6112 126.8293,151.2195 190.2439,226.8292 45.9359,43.9033 91.8699,87.8049 137.8049,131.7073 67.8875,40.6513 135.7723,81.3008 203.6585,121.9513 6.4717,6.7319 12.0649,13.1055 19.4147,20.1951 0,0 -57.219,-15.7234 -86.4879,-23.8537 -29.2683,-13.8211 -58.536,-27.642 -87.8048,-41.4634 -63.0082,-45.935 -126.015,-91.869 -189.0244,-137.8049 -40.6504,-42.6829 -81.3,-85.365 -121.9513,-128.0488 -55.691,-63.4146 -111.381,-126.828 -167.0731,-190.2439 -60.1626,-54.065 -120.324,-108.129 -180.4878,-162.1951 -60.1626,-52.8455 -120.324,-105.69 -180.4878,-158.5366 -86.5854,-57.7235 -173.169,-115.446 -259.7561,-173.1707 -32.1139,-25.2032 -64.227,-50.406 -96.3415,-75.6098 -56.9106,-41.8699 -113.82,-83.739 -170.7317,-125.6097 -40.2439,-33.73984 -80.4878,-67.47968 -120.7317,-101.21952 C 1270.0159,919.36568 1251.0081,910.68293 1232,902 c -25.6672,-6.6668 -51.3333,-13.33333 -77,-20 -28.6672,-7.00014 -57.3333,-14 -86,-21 -5.6668,-11.6669 -11.3333,-23.33333 -17,-35 2.6667,-14.00028 5.3333,-28 8,-42 16.0003,-12.00024 32,-24 48,-36 11.3336,2.33338 22.6665,4.66662 34,7 15.3336,13.33358 30.6664,26.66641 46,40 15.0003,19.66706 29.9997,39.33296 45,59 18.667,7.00013 37.3333,13.99999 56,21 8.7319,5.52045 17.4634,11.04065 26.1951,16.56098 z"
       sodipodi:nodetypes="cccccccccccccccccccccccccccccccc"
       transform="rotate(86.227626,2094.3925,1457.1168)" />
    <path
       id="path6"
       style="display:inline;fill:#00ffff;fill-opacity:1;stroke:none;stroke-width:7.55906;stroke-linecap:round;stroke-linejoin:round;stroke-dasharray:none;stroke-opacity:1;paint-order:markers fill stroke"
       d="M 913.83943 854.74894 C 913.77886 856.08401 916.2843 857.96568 919.79224 860.47135 C 924.78131 864.03497 931.79741 868.85874 938.81503 873.18992 C 945.83264 877.52111 952.85003 881.35896 960.96414 884.9226 C 969.07824 888.48623 978.28957 891.77598 987.50019 894.95584 C 996.71081 898.1357 1005.9199 901.20689 1012.2248 902.68718 C 1018.5297 904.16748 1021.93 904.05635 1023.9037 903.61775 C 1025.8774 903.17914 1026.4259 902.41242 1023.6847 899.01328 C 1020.9435 895.61414 1014.9117 889.58313 1007.5103 883.49754 C 1000.1089 877.41194 991.3373 871.27136 983.55212 866.66604 C 975.76694 862.06072 968.96877 858.99192 961.73185 856.74408 C 954.49494 854.49625 946.81997 853.06933 937.93831 852.46625 C 929.05666 851.86316 918.96949 852.08409 915.40589 853.34506 C 914.34795 853.7194 913.865 854.18525 913.83943 854.74894 z M 1054.2807 670.48425 C 1054.2703 670.75388 1054.3037 671.05284 1054.3859 671.38179 C 1055.0438 674.01338 1058.7727 678.6193 1063.5424 683.55356 C 1068.3122 688.48783 1074.1223 693.75007 1080.6465 698.68433 C 1087.1707 703.61859 1094.4087 708.22305 1102.1938 711.67701 C 1109.979 715.13098 1118.311 717.43374 1128.8923 719.18813 C 1139.4735 720.94253 1152.3031 722.14886 1158.3886 722.20368 C 1164.4742 722.25849 1163.8164 721.16178 1160.9106 716.99504 C 1158.0049 712.8283 1152.851 705.59269 1147.4233 700.00054 C 1141.9957 694.40839 1136.2935 690.46048 1129.0017 686.95166 C 1121.7099 683.44284 1112.8292 680.37302 1103.3993 677.63178 C 1093.9694 674.89053 1083.9907 672.4773 1076.4249 670.83256 C 1068.859 669.18781 1063.7064 668.31177 1059.9235 668.20213 C 1056.6135 668.10619 1054.3534 668.59687 1054.2807 670.48425 z "
       transform="rotate(86.227626,2094.3925,1457.1168)" />
    <path
       id="path5"
       style="fill:#000000;stroke-width:4;stroke-linecap:round;stroke-linejoin:round;paint-order:markers fill stroke"
       d="M 2601.3361 267.80852 C 2598.9711 267.80071 2596.3755 271.64656 2593.9005 275.97649 C 2591.2606 280.59509 2588.7579 285.76323 2586.7208 291.65423 C 2584.6838 297.54522 2583.1118 304.15921 2582.3068 308.24993 C 2581.5018 312.34065 2581.4629 313.90813 2581.5997 316.08392 C 2581.7366 318.2597 2582.0501 321.04441 2583.4904 320.81048 C 2584.9307 320.57654 2587.4984 317.32482 2590.8849 313.33587 C 2594.2714 309.34692 2598.4756 304.62012 2601.5802 298.75188 C 2604.6848 292.88364 2606.6879 285.87401 2606.59 279.76165 C 2606.492 273.64929 2604.2931 268.4338 2601.8048 267.86126 C 2601.6493 267.82548 2601.4937 267.80905 2601.3361 267.80852 z M 2805.6095 410.55267 C 2803.0252 410.62579 2799.023 412.91685 2795.6622 416.57415 C 2791.5259 421.07544 2788.3629 427.64398 2786.7814 434.09173 C 2785.1999 440.53947 2785.1999 446.8664 2785.0783 452.09759 C 2784.9566 457.32877 2784.7125 461.4654 2785.6329 462.59759 C 2786.5534 463.72977 2788.6371 461.85668 2790.1857 460.3222 C 2791.7343 458.78771 2792.7475 457.59112 2794.8654 453.99993 C 2796.9832 450.40874 2800.2056 444.42303 2802.5997 438.6679 C 2804.9939 432.91277 2806.5604 427.38884 2807.6583 422.18352 C 2808.7563 416.97821 2809.3861 412.09346 2807.1466 410.86712 C 2806.7267 410.63718 2806.2059 410.53579 2805.6095 410.55267 z " />
    <path
       style="display:inline;fill:none;fill-opacity:1;stroke:#000000;stroke-width:7.55906;stroke-linecap:round;stroke-linejoin:round;stroke-dasharray:none;stroke-opacity:1;paint-order:markers fill stroke"
       d="m 1049.1026,668.09969 c 12.6753,12.94362 25.3507,25.88733 37.7942,34.17438 12.4434,8.28706 24.6544,11.91736 37.9591,14.35908 13.3047,2.44172 27.7023,3.69475 42.1003,4.94782"
       id="path4"
       inkscape:path-effect="#path-effect18"
       inkscape:original-d="m 1049.1026,668.09969 c 12.6753,12.94365 25.3507,25.88735 38.0261,38.831 12.2115,3.63044 24.4225,7.26073 36.6337,10.89109 14.3982,1.25309 28.7958,2.50613 43.1938,3.75919"
       sodipodi:nodetypes="cccc"
       transform="rotate(86.227626,2093.2957,1456.5539)" />
    <path
       style="display:inline;fill:none;fill-opacity:1;stroke:#000000;stroke-width:7.55906;stroke-linecap:round;stroke-linejoin:round;stroke-dasharray:none;stroke-opacity:1;paint-order:markers fill stroke"
       d="m 1049.1026,668.09969 c 12.6753,12.94362 25.3507,25.88733 37.7942,34.17438 12.4434,8.28706 24.6544,11.91736 37.9591,14.35908 13.3047,2.44172 27.7023,3.69475 42.1003,4.94782"
       id="path3"
       inkscape:path-effect="#path-effect18-5"
       inkscape:original-d="m 1049.1026,668.09969 c 12.6753,12.94365 25.3507,25.88735 38.0261,38.831 12.2115,3.63044 24.4225,7.26073 36.6337,10.89109 14.3982,1.25309 28.7958,2.50613 43.1938,3.75919"
       sodipodi:nodetypes="cccc"
       transform="matrix(-0.70334168,0.71085194,0.71085194,0.70334168,2884.7227,-980.29899)" />
    <path
       style="display:inline;fill:none;stroke:#100707;stroke-width:7.55906;stroke-linecap:round;stroke-linejoin:round;stroke-dasharray:none;stroke-opacity:1;paint-order:markers fill stroke"
       d="m 1340.8171,904.63821 c 34.3536,18.59755 94.3292,50.27233 168.0171,97.20789 73.6879,46.9356 161.0845,109.1295 242.3861,169.0894 81.3015,59.96 156.5033,117.6824 235.3659,183.3336 78.8626,65.6511 161.3813,139.2269 230.6908,205.6909 69.3095,66.464 125.4059,125.8124 185.1626,193.2928 59.7568,67.4804 123.1702,143.0887 177.8454,202.8452 54.6753,59.7565 100.6093,103.6581 157.5206,145.9349 56.9112,42.2768 124.796,82.9264 161.975,106.6176 37.1789,23.6912 43.0497,29.7979 50.1219,37.1544 -28.8293,-7.9512 -57.2042,-15.7771 -86.4802,-26.726 -29.276,-10.9488 -58.5437,-24.7697 -104.6822,-54.6479 -46.1385,-29.8782 -109.1453,-75.8122 -160.9752,-120.1216 -51.8299,-44.3094 -92.4795,-86.9915 -140.6507,-140.0407 -48.1711,-53.0492 -103.8611,-116.4626 -161.7884,-175.2031 -57.9274,-58.7404 -118.0888,-112.8044 -178.252,-166.2602 -60.1632,-53.4558 -120.3246,-106.3003 -193.6992,-161.5854 -73.3746,-55.2851 -159.9582,-113.0075 -219.3087,-154.4715 -59.3504,-41.464 -91.4636,-66.6667 -135.9761,-100.2036 -44.5126,-33.5368 -101.422,-75.4059 -149.9998,-113.2112 -48.5778,-37.80524 -88.8217,-71.54508 -118.4479,-92.75655 -29.6262,-21.21147 -48.634,-29.89424 -70.9716,-37.5691 -22.3377,-7.67485 -48.0038,-14.34138 -75.1708,-21.17478 -27.1669,-6.8334 -55.833,-13.83326 -72.9997,-23.16672 -17.1668,-9.33346 -22.8333,-20.99987 -24.3333,-33.83335 -1.5,-12.83348 1.1666,-26.83319 10.5001,-39.83331 9.3335,-13.00012 25.3332,-24.99989 39,-29.8332 13.6668,-4.8333 24.9997,-2.50006 38.3333,5.33341 13.3335,7.83347 28.6663,21.16632 43.8332,37.66664 15.167,16.50032 30.1664,36.16621 47.0001,49.4998 16.8336,13.33359 35.4999,20.33345 49.1992,26.59368 13.6993,6.26023 22.4308,11.78043 56.7845,30.37799 z"
       id="path2"
       inkscape:path-effect="#path-effect11"
       inkscape:original-d="m 1315.1951,891.56098 c 59.9756,31.6748 119.9512,63.34956 179.9269,95.02439 87.4001,62.19633 174.7967,124.39023 262.1951,186.58533 75.2047,57.7248 150.4065,115.4472 225.6097,173.1708 82.522,73.5787 165.0407,147.1544 247.561,220.7317 56.0987,59.3508 112.1951,118.6992 168.2927,178.0488 63.4159,75.6112 126.8293,151.2195 190.2439,226.8292 45.9359,43.9033 91.8699,87.8049 137.8049,131.7073 67.8875,40.6513 135.7723,81.3008 203.6585,121.9513 6.4717,6.7319 12.0649,13.1055 19.4147,20.1951 0,0 -57.219,-15.7234 -86.4879,-23.8537 -29.2683,-13.8211 -58.536,-27.642 -87.8048,-41.4634 -63.0082,-45.935 -126.015,-91.869 -189.0244,-137.8049 -40.6504,-42.6829 -81.3,-85.365 -121.9513,-128.0488 -55.691,-63.4146 -111.381,-126.828 -167.0731,-190.2439 -60.1626,-54.065 -120.324,-108.129 -180.4878,-162.1951 -60.1626,-52.8455 -120.324,-105.69 -180.4878,-158.5366 -86.5854,-57.7235 -173.169,-115.446 -259.7561,-173.1707 -32.1139,-25.2032 -64.227,-50.406 -96.3415,-75.6098 -56.9106,-41.8699 -113.82,-83.739 -170.7317,-125.6097 -40.2439,-33.73984 -80.4878,-67.47968 -120.7317,-101.21952 C 1270.0159,919.36568 1251.0081,910.68293 1232,902 c -25.6672,-6.6668 -51.3333,-13.33333 -77,-20 -28.6672,-7.00014 -57.3333,-14 -86,-21 -5.6668,-11.6669 -11.3333,-23.33333 -17,-35 2.6667,-14.00028 5.3333,-28 8,-42 16.0003,-12.00024 32,-24 48,-36 11.3336,2.33338 22.6665,4.66662 34,7 15.3336,13.33358 30.6664,26.66641 46,40 15.0003,19.66706 29.9997,39.33296 45,59 18.667,7.00013 37.3333,13.99999 56,21 8.7319,5.52045 17.4634,11.04065 26.1951,16.56098 z"
       sodipodi:nodetypes="cccccccccccccccccccccccccccccccc"
       transform="rotate(86.227626,2094.3925,1457.1168)" />
    <path
       style="display:inline;fill:none;stroke:#100707;stroke-width:7.55906;stroke-linecap:round;stroke-linejoin:round;stroke-dasharray:none;stroke-opacity:1;paint-order:markers fill stroke"
       d="m 1213.4493,1263.0575 c 9.4988,-4.9335 23.4013,-13.1411 36.6343,-22.2701 13.233,-9.1291 25.7955,-19.1792 35.3434,-29.5645 9.5479,-10.3854 16.0804,-21.1054 22.2702,-33.2056 6.1899,-12.1002 12.0367,-25.58 15.0946,-40.1323 3.0579,-14.5524 2.9919,-28.0187 -0.3761,-43.9043 -3.3681,-15.8855 -10.0346,-33.5042 -22.8918,-58.0282 -12.8572,-24.524 -31.9049,-55.95252 -46.905,-76.1907 -15.0001,-20.23818 -25.9522,-29.28559 -40.7143,-35.23801 -14.7621,-5.95242 -33.3332,-8.80951 -59.2859,-10.23808 -25.9527,-1.42857 -59.2854,-1.42857 -89.0476,-4.04767 -29.7621,-2.6191 -55.9521,-7.8571 -79.76181,-15.95244 -23.80972,-8.09534 -45.23786,-19.04751 -68.33334,-37.6192 -23.09549,-18.57169 -47.8569,-44.76164 -68.80946,-67.14277 -20.95255,-22.38114 -38.09506,-40.9522 -47.38079,-53.09511 -9.28573,-12.14292 -10.71427,-17.85709 -11.19045,-23.57144 -0.47619,-5.71434 -10e-6,-11.42851 3.33338,-18.57145 3.3334,-7.14294 9.52375,-15.7142 14.99999,-21.42851 5.47624,-5.71432 10.23805,-8.57141 20.4763,-9.99998 10.23825,-1.42857 25.95222,-1.42857 46.90486,-0.47617 20.95265,0.9524 47.1426,2.85713 69.99994,3.80951 22.85734,0.95238 42.38076,0.95238 60.71428,0.71428 18.3335,-0.2381 35.476,-0.71428 56.6667,2.14293 21.1908,2.8572 46.4283,9.04754 61.6665,14.76188 15.2381,5.71434 20.4761,10.95233 27.8572,19.28577 7.381,8.33345 16.9046,19.76177 28.5715,33.57147 11.6668,13.80971 25.476,29.99986 42.8572,46.42859 17.3811,16.42873 38.3331,33.09508 68.0954,45.95231 29.7623,12.85723 68.3329,21.90466 111.9049,31.90478 43.5719,10.00012 92.1423,20.95227 130.0014,29.51627 37.8591,8.564 65.0049,14.73939 83.5062,11.12242 18.5014,-3.61696 28.2072,-16.96198 38.1954,-29.42919 9.9882,-12.46721 20.2277,-24.01386 29.3781,-32.40171 9.1504,-8.38785 17.2112,-13.61649 22.2221,-20.58826 5.0109,-6.97177 6.9717,-15.68618 6.1002,-24.83661 -0.8715,-9.15043 -4.5751,-18.73628 -12.963,-33.66024 -8.388,-14.92396 -21.4596,-35.18497 -35.0763,-48.69266 -13.6167,-13.50769 -27.7777,-20.26139 -41.3943,-24.6187 -13.6167,-4.3573 -26.6884,-6.31806 -33.2244,-8.06099 -6.5359,-1.74294 -6.5359,-3.26796 -2.2875,-4.90197 4.2485,-1.634 12.7451,-3.37689 19.6079,-5.55557 6.8628,-2.17868 12.0915,-4.79302 7.2983,-9.80397 -4.7932,-5.01096 -19.6077,-12.41821 -29.0849,-18.19167 -9.4771,-5.77346 -13.6165,-9.91283 -14.379,-13.18082 -0.7625,-3.26799 1.8518,-5.66445 5.8824,-6.53591 4.0305,-0.87147 9.4771,-0.21787 18.0829,3.37696 8.6057,3.59482 20.3702,10.13065 25.8168,11.87354 5.4466,1.74289 4.5752,-1.30715 -0.7626,-7.18959 -5.3378,-5.88244 -15.1415,-14.59684 -21.1328,-21.45964 -5.9914,-6.86279 -8.17,-11.87362 -7.8431,-15.90415 0.3268,-4.03053 3.159,-7.08059 6.427,-8.16989 3.268,-1.08931 6.9716,-0.21787 12.5272,4.68418 5.5557,4.90206 12.963,13.83435 17.5382,19.49884 4.5751,5.66449 6.318,8.06098 7.2984,7.95202 0.9804,-0.10896 1.1982,-2.72329 0.7625,-8.82359 -0.4358,-6.10031 -1.5251,-15.68618 -1.1982,-21.45963 0.3268,-5.77345 2.0697,-7.7342 6.536,-5.22867 4.4663,2.50553 11.6557,9.47708 16.6666,16.88455 5.0109,7.40747 7.8431,15.25045 9.9129,19.7167 2.0697,4.46625 3.3768,5.55553 6.1002,2.50536 2.7233,-3.05016 6.8627,-10.23959 10.3485,-14.16115 3.4859,-3.92157 6.3181,-4.57515 8.17,-0.6535 1.8518,3.92164 2.7233,12.41821 2.6143,20.69716 -0.1089,8.27895 -1.1982,16.33979 1.5252,24.8366 2.7233,8.4968 9.2592,17.42913 25.3814,31.37268 16.1223,13.94354 41.8298,32.89738 59.0412,48.25698 17.2115,15.35961 25.9259,27.12408 29.5207,40.41398 3.5947,13.28991 2.0697,28.10443 -9.9131,57.4077 -11.9828,29.30326 -34.4224,73.09327 -45.7514,97.82098 -11.329,24.72772 -11.5468,30.39209 -10.0248,34.40179 1.5221,4.00969 4.784,6.36452 25.867,16.81614 21.0831,10.45161 60.1342,29.08114 99.8728,50.52694 39.7386,21.4457 80.214,45.7309 123.5478,75.9694 43.3338,30.2385 89.5234,66.4283 127.3808,100.4762 37.8574,34.0479 67.3806,65.952 85.2918,85.8671 17.9112,19.9152 23.7742,27.2927 31.1417,32.7534 7.3675,5.4608 14.593,7.672 25.5958,6.5763 11.0028,-1.0956 25.7823,-5.4981 38.707,-11.2422 12.9246,-5.7442 23.9935,-12.8298 35.6878,-18.6353 11.6944,-5.8056 24.0134,-10.3307 38.2558,-15.7179 14.2424,-5.3872 30.407,-11.636 52.244,-18.4139 21.8369,-6.7779 49.3449,-14.0845 73.9425,-17.3986 24.5977,-3.314 46.2834,-2.6353 62.3997,1.1341 16.1163,3.7694 26.6618,10.6292 43.0363,24.8484 16.3745,14.2192 38.5769,35.7969 59.5929,56.3025 21.016,20.5056 40.8443,39.9378 53.8661,51.5053 13.0219,11.5675 19.2365,15.2695 25.5936,18.3499 6.3572,3.0803 12.8565,5.5387 26.5052,7.7165 13.6488,2.1777 34.4465,4.0746 46.8336,5.8506 12.3871,1.7761 16.3629,3.4311 17.474,6.3142 1.1111,2.8831 -0.6426,6.9942 -9.6726,9.4279 -9.0299,2.4337 -25.3358,3.1899 -34.5252,4.9892 -9.1895,1.7992 -11.2618,4.6416 -2.591,14.0731 8.6708,9.4315 28.0845,25.4519 37.6,34.152 9.5155,8.7 9.1321,10.0788 0.3007,6.1273 -8.8314,-3.9515 -26.1104,-13.2332 -36.8565,-17.5442 -10.7461,-4.311 -14.9586,-3.651 -10.6921,7.1299 4.2665,10.7809 17.0119,31.6823 21.4266,42.2604 4.4147,10.5781 0.4982,10.832 -4.676,7.2667 -5.1743,-3.5653 -11.6061,-10.9497 -20.1657,-20.8183 -8.5595,-9.8687 -19.2463,-22.2211 -26.0998,-27.3218 -6.8535,-5.1007 -9.8732,-2.9492 -9.5094,1.6695 0.3639,4.6186 4.1114,11.7042 6.8666,19.7247 2.7551,8.0206 4.5177,16.9756 4.3078,22.5234 -0.2099,5.5479 -2.3922,7.688 -5.3769,6.2374 -2.9847,-1.4506 -6.7716,-6.4919 -10.2373,-12.5429 -3.4656,-6.0509 -6.6098,-13.1112 -9.658,-18.0287 -3.0483,-4.9175 -6.0005,-7.6919 -10.0905,-6.6316 -4.0899,1.0603 -9.3173,5.9554 -13.2111,12.8595 -3.8938,6.9042 -6.4537,15.8171 -9.6609,20.216 -3.2073,4.3989 -7.0617,4.2834 -8.3858,-0.7243 -1.3241,-5.0077 -0.1176,-14.9074 1.2596,-23.3356 1.3771,-8.4281 2.9248,-15.3842 3.4575,-23.0806 0.5327,-7.6964 0.05,-16.1327 -0.9623,-24.1265 -1.0125,-7.9939 -2.5551,-15.5448 -15.6925,-28.233 -13.1373,-12.6882 -37.8688,-30.513 -58.229,-43.3886 -20.3602,-12.8755 -36.3477,-20.8009 -51.257,-24.5197 -14.9094,-3.7187 -28.7397,-3.2304 -51.6578,6.5941 -22.9182,9.8245 -54.9231,28.985 -82.9871,47.2886 -28.0639,18.3037 -52.1853,35.7496 -65.0086,46.0329 -12.8232,10.2833 -14.3234,13.3539 0.6344,49.2728 14.9578,35.9188 46.3793,104.4936 76.6142,158.7813 30.2348,54.2877 59.2819,94.2869 90.2346,137.6207 30.9527,43.3338 63.8092,89.9995 85.4759,120.9521 21.6668,30.9525 32.1428,46.1903 56.1908,69.524 24.048,23.3336 61.6663,54.7615 98.8095,82.3808 37.1432,27.6193 73.8091,51.4284 108.5714,70.9523 34.7622,19.524 67.6187,34.7618 107.8573,49.7619 40.2386,15.0002 87.8567,29.7618 135.9524,43.0953 48.0957,13.3334 96.6662,25.2379 139.7618,35.9523 43.0956,10.7144 80.7139,20.238 103.0949,27.1428 22.381,6.9048 29.5238,11.1904 32.1428,14.7619 2.619,3.5714 0.7143,6.4285 -8.5716,9.7619 -9.2859,3.3334 -25.9522,7.1428 -51.905,7.3808 -25.9527,0.2381 -61.1901,-3.0952 -108.8097,-7.1428 -47.6197,-4.0477 -107.6185,-8.8095 -176.1907,-20.4764 -68.5722,-11.6668 -145.7135,-30.2379 -210.2378,-50.2381 -64.5243,-20.0002 -116.4281,-41.4284 -164.2856,-70.4763 -47.8576,-29.048 -91.6663,-65.7139 -134.0476,-100.7143 -42.3814,-35.0003 -83.3329,-68.333 -120.9523,-101.9047 -37.6194,-33.5718 -71.9045,-67.3807 -108.8096,-99.7619 -36.9052,-32.3813 -76.4282,-63.333 -109.4105,-85.7322 -32.9823,-22.3993 -59.0002,-36.0239 -73.8242,-42.3313 -14.8239,-6.3075 -17.0652,-5.1396 -21.3662,9.9858 -4.3009,15.1253 -10.6613,44.207 -16.2334,77.2457 -5.5721,33.0388 -10.3557,70.0328 -10.2095,94.9675 0.1462,24.9348 5.2222,37.8091 14.586,49.9925 9.3639,12.1835 23.015,23.6753 42.9506,37.1989 19.9357,13.5235 46.1547,29.078 63.0338,36.0546 16.8792,6.9765 24.4178,5.375 32.1508,3.1107 7.7331,-2.2644 15.66,-5.1914 22.5032,-8.7536 6.8432,-3.5622 12.6022,-7.7592 19.779,-12.3879 7.1768,-4.6286 15.7708,-9.6885 20.8906,-10.4746 5.1198,-0.7862 6.7651,2.7014 4.0132,7.3986 -2.752,4.6973 -9.9007,10.6038 -14.6752,16.9309 -4.7745,6.3272 -7.1745,13.0747 -6.5131,17.2477 0.6614,4.1731 4.384,5.7716 10.1097,6.6022 5.7257,0.8306 13.4542,0.8934 20.3857,1.6539 6.9316,0.7606 13.0658,2.2189 15.5877,4.3759 2.522,2.157 1.4315,5.0124 -3.5708,7.4206 -5.0023,2.4081 -13.9161,4.3687 -22.3695,5.0462 -8.4535,0.6774 -16.4462,0.072 -20.8258,1.5827 -4.3796,1.511 -5.146,5.1387 2.2674,9.3848 7.4134,4.246 23.0061,9.1101 35.472,13.0159 12.466,3.9059 21.8046,6.8532 27.1398,10.173 5.3351,3.3197 6.6665,7.0116 -4.7944,7.189 -11.461,0.1774 -35.7134,-3.1596 -47.3011,-2.7653 -11.5878,0.3943 -10.5104,4.5199 -2.2663,12.6499 8.2441,8.1301 23.6543,20.2642 30.8041,26.7825 7.1498,6.5183 6.0389,7.4205 -5.7375,2.1715 -11.7763,-5.2489 -34.2172,-16.6487 -46.3268,-20.8312 -12.1097,-4.1824 -13.8878,-1.1473 -11.8672,7.996 2.0206,9.1433 7.8396,24.3943 9.2149,33.6448 1.3752,9.2505 -1.6933,12.5001 -4.7802,12.6329 -3.087,0.1329 -6.1922,-2.851 -12.7676,-13.498 -6.5755,-10.647 -16.6208,-28.9563 -24.0685,-40.5995 -7.4476,-11.6432 -12.2972,-16.6198 -17.6602,-21.2176 -5.3629,-4.5979 -11.2389,-8.8169 -27.0445,-16.1352 -15.8056,-7.3183 -41.5398,-17.7356 -68.7325,-28.813 -27.1927,-11.0775 -55.8422,-22.8144 -75.4178,-32.1473 -19.5757,-9.3329 -30.0764,-16.2612 -39.9687,-29.5309 -9.8923,-13.2697 -19.1756,-32.8797 -25.9613,-56.754 -6.7857,-23.8743 -11.0734,-52.0113 -13.5809,-74.738 -2.5076,-22.7268 -3.2347,-40.0419 -3.7847,-60.8675 -0.5499,-20.8255 -0.9228,-45.1597 0.1871,-67.0519 1.1099,-21.8923 3.7024,-41.3412 3.3785,-58.3355 -0.324,-16.9944 -3.5642,-31.533 -7.9315,-40.3237 -4.3673,-8.7907 -9.9884,-11.903 -14.3256,-14.0747 -4.3372,-2.1717 -7.8567,-3.6316 -30.0927,-16.5044 -22.236,-12.8728 -63.1876,-37.158 -104.6165,-61.6821 -41.429,-24.524 -83.3329,-49.2854 -121.4286,-77.1428 -38.0957,-27.8574 -72.3807,-58.8092 -115.9494,-98.3366 -43.5688,-39.5274 -96.4201,-87.6292 -126.4605,-112.7595 -30.0404,-25.1304 -36.4262,-26.8462 -50.9686,-19.1955 -14.5425,7.6507 -36.9876,24.7358 -66.5523,39.5601 -29.5647,14.8243 -66.2474,27.3869 -91.103,33.3612 -24.8556,5.9743 -37.9604,5.3562 -55.7698,1.9667 -17.8094,-3.3894 -40.7436,-9.6295 -57.6806,-12.9299 -16.9369,-3.3004 -27.998,-3.6942 -36.5583,-1.1775 -8.5603,2.5167 -14.6193,7.9437 -21.4092,12.6819 -6.7899,4.7382 -14.3103,8.7873 -18.5952,9.4565 -4.285,0.6693 -5.3342,-2.0414 -4.0461,-7.1277 1.2881,-5.0863 4.9136,-12.5481 5.9087,-16.5142 0.9952,-3.966 -0.6401,-4.4362 -5.498,-3.6414 -4.858,0.7947 -12.9383,2.8542 -21.8814,2.8663 -8.9432,0.012 -18.74863,-2.0233 -23.32952,-4.3126 -4.5809,-2.2893 -3.93685,-4.8324 0.65734,-8.3442 4.59419,-3.5118 13.13828,-7.9921 18.43108,-11.0565 5.2928,-3.0643 7.3339,-4.7123 6.8737,-5.5848 -0.4603,-0.8724 -3.4219,-0.9693 -10.6781,-1.5751 -7.25612,-0.6059 -18.80648,-1.7208 -25.98217,-3.5661 -7.17568,-1.8453 -9.9761,-4.4208 -10.90941,-7.7368 -0.93332,-3.3159 6.1e-4,-7.372 3.15247,-9.9053 3.15186,-2.5333 8.52158,-3.5437 17.56443,-2.4387 9.04284,1.105 21.75828,4.3253 29.62298,5.4399 7.8646,1.1146 10.8779,0.1234 6.3777,-3.4053 -4.5002,-3.5287 -16.5136,-9.5947 -24.32,-14.698 -7.80628,-5.1032 -11.40504,-9.2435 -12.94674,-13.0681 -1.54169,-3.8247 -1.02632,-7.3335 2.10612,-8.5373 3.13243,-1.2037 8.88183,-0.1022 18.98032,4.499 10.0984,4.6012 24.5453,12.7019 31.383,13.8551 6.8378,1.1532 6.0657,-4.6414 4.0157,-11.5438 -2.0501,-6.9023 -5.378,-14.9119 -6.4111,-19.345 -1.033,-4.4331 0.229,-5.2893 5.3408,-0.8591 5.1118,4.4301 14.0731,14.1465 25.3237,22.9683 11.2505,8.8218 24.7898,16.7486 43.6125,20.4332 18.8228,3.6846 42.9281,3.1265 57.2453,2.0522 14.3173,-1.0744 18.912,-2.6885 23.6344,-4.2837 4.7224,-1.5952 9.8169,-3.2545 19.3157,-8.1881 z"
       id="path1"
       inkscape:path-effect="#path-effect12"
       inkscape:original-d="m 1209.0452,1266.3317 c 13.9029,-8.2077 27.8054,-16.4153 41.7086,-24.6232 12.5628,-10.0502 25.1253,-20.1003 37.6884,-30.1507 6.5327,-10.7203 13.0652,-21.4403 19.598,-32.1608 6.0302,-13.4004 12.0603,-26.8007 17.8823,-41.2276 -0.2082,-14.8361 -0.1392,-28.3031 -0.2082,-42.4551 -6.6667,-17.6191 -13.3332,-35.2378 -20,-52.8572 -19.0476,-31.4286 -38.0953,-62.8571 -57.1429,-94.28567 -10.9526,-9.0478 -21.9047,-18.09524 -32.8571,-27.14286 -18.5718,-2.8572 -37.1429,-5.71428 -55.7143,-8.57143 -33.334,0 -66.6667,0 -100,0 -26.191,-5.2382 -52.381,-10.47619 -78.57143,-15.71428 -21.429,-10.9526 -42.85714,-21.90476 -64.28571,-32.85715 -24.7624,-26.191 -49.52381,-52.38095 -74.28572,-78.57142 -17.1432,-18.5718 -34.28571,-37.14286 -51.42857,-55.71429 -1.4286,-5.7144 -2.85714,-11.42857 -4.28571,-17.14286 0.4762,-5.7144 0.95238,-11.42857 1.42857,-17.14285 6.1906,-8.5716 12.38095,-17.14286 18.57143,-25.71429 4.762,-2.8572 9.52381,-5.71429 14.28571,-8.57143 15.7146,0 31.42857,0 47.14286,0 26.191,1.9048 52.38095,3.80953 78.57143,5.71429 19.5242,0 39.04762,0 58.57144,0 17.1432,-0.4762 34.2857,-0.95238 51.4286,-1.42857 25.2386,6.1906 50.4761,12.38095 75.7142,18.57142 5.2382,5.2382 10.4762,10.47619 15.7143,15.71429 9.524,11.4288 19.0476,22.85714 28.5715,34.28571 13.8098,16.1908 27.619,32.38096 41.4285,48.57143 20.9528,16.667 41.9048,33.33334 62.8572,50 38.5722,9.0478 77.1428,18.09524 115.7143,27.14286 48.5724,10.9526 97.1428,21.90476 145.7142,32.85714 27.1434,6.1906 54.2858,12.38096 81.5279,18.54675 9.8029,-13.40383 19.4732,-26.77468 29.2098,-40.16206 10.2398,-11.54707 20.4793,-23.09368 30.7189,-34.64052 8.0612,-5.22887 16.122,-10.45752 24.183,-15.68628 1.9609,-8.71477 3.9216,-17.42919 5.8824,-26.14379 -3.7038,-9.58625 -7.4074,-19.17211 -11.1111,-28.75817 -13.0722,-20.26184 -26.1438,-40.52287 -39.2157,-60.78431 -14.1615,-6.75395 -28.3225,-13.50763 -42.4837,-20.26144 -13.0721,-1.96082 -26.1438,-3.92157 -39.2157,-5.88235 0,-1.52509 0,-3.05011 0,-4.57517 8.4969,-1.74295 16.9935,-3.48583 25.4902,-5.22875 5.2289,-2.61444 10.4576,-5.22876 15.6863,-7.84314 -14.8151,-7.40756 -29.6296,-14.81482 -44.4444,-22.22222 -4.1395,-4.13952 -8.2789,-8.27887 -12.4183,-12.4183 2.6144,-2.39657 5.2287,-4.79303 7.8431,-7.18955 5.4467,0.65361 10.8933,1.30719 16.3399,1.96079 11.7649,6.53608 23.5294,13.07189 35.2941,19.60784 -0.8715,-3.05017 -1.7429,-6.10022 -2.6144,-9.15033 -9.8041,-8.71477 -19.6078,-17.42919 -29.4118,-26.14379 -2.1786,-5.01099 -4.3573,-10.02178 -6.5359,-15.03268 2.8323,-3.05017 5.6645,-6.10021 8.4967,-9.15032 3.7038,0.87147 7.4074,1.74292 11.1111,2.61438 7.4076,8.93264 14.8149,17.86492 22.2223,26.79738 1.7429,2.39656 3.4858,4.79303 5.2287,7.18954 0.2179,-2.61443 0.4358,-5.22875 0.6536,-7.84313 -1.0893,-9.58625 -2.1786,-19.17212 -3.268,-28.75817 1.743,-1.96083 3.4859,-3.92157 5.2288,-5.88236 7.1897,6.97182 14.3791,13.94336 21.5686,20.91504 2.8323,7.84329 5.6645,15.68627 8.4968,23.52941 1.3072,1.08934 2.6143,2.17865 3.9215,3.26797 4.1395,-7.18968 8.2789,-14.37908 12.4183,-21.56863 2.8323,-0.6536 5.6645,-1.30719 8.4968,-1.96078 0.8714,8.4969 1.7429,16.99346 2.6143,25.4902 -1.0893,8.06116 -2.1786,16.122 -3.2679,24.183 6.536,8.93264 13.0719,17.86493 19.6078,26.79739 25.7086,18.95463 51.4161,37.90849 77.1242,56.86274 8.7148,11.76494 17.4292,23.52942 26.1438,35.29412 -1.5251,14.81511 -3.0501,29.62963 -4.5752,44.44445 -22.4405,43.79172 -44.8802,87.58169 -67.3202,131.37254 -0.2179,5.66461 -0.4358,11.32898 -0.6536,16.99347 3.2943,2.31016 6.5885,4.62022 9.7406,7.03194 38.9055,18.67301 78.0005,37.21055 117.0007,55.81585 40.477,24.2862 80.9524,48.5714 121.4286,72.8572 46.1914,36.1912 92.381,72.3809 138.5714,108.5714 29.5244,31.9054 59.0476,63.8095 88.5715,95.7143 6.2985,7.9255 12.1615,15.303 18.8951,23.7759 8.0014,2.4486 15.2269,4.6598 22.4526,6.871 14.7799,-4.4025 29.5594,-8.805 44.3396,-13.2076 11.0691,-7.0857 22.138,-14.1712 33.2073,-21.2571 12.3194,-4.5253 24.6384,-9.0504 36.9582,-13.5759 16.165,-6.249 32.3296,-12.4978 48.495,-18.7468 27.5085,-7.3068 55.0165,-14.6133 82.5256,-21.9202 21.6862,0.6788 43.3719,1.3576 65.0586,2.0363 10.5459,6.86 21.0914,13.7198 31.6375,20.5799 22.2029,21.5783 44.4053,43.156 66.6087,64.7347 19.8286,19.4326 39.6569,38.8647 59.486,58.2977 6.2146,3.702 12.4292,7.404 18.644,11.1062 6.4995,2.4585 12.9988,4.9169 19.4984,7.3755 20.7979,1.897 41.5956,3.7939 62.394,5.6908 3.9758,1.6551 7.9516,3.3101 11.9275,4.9652 -1.7538,4.1111 -3.5074,8.2222 -5.2612,12.3334 -16.3061,0.7562 -32.612,1.5124 -48.9185,2.2686 -2.0723,2.8424 -4.1447,5.6847 -6.2171,8.527 19.414,16.0207 38.8276,32.0412 58.2422,48.0623 -0.3835,1.3789 -0.7669,2.7577 -1.1504,4.1365 -17.2793,-9.2818 -34.5583,-18.5634 -51.8379,-27.8455 -4.2126,0.6601 -8.4251,1.3199 -12.6378,1.98 12.7457,20.9018 25.4911,41.8032 38.237,62.7055 -3.9165,0.2539 -7.833,0.5078 -11.7495,0.7617 -6.432,-7.3845 -12.8638,-14.7689 -19.2959,-22.1535 -10.687,-12.3527 -21.3738,-24.7051 -32.061,-37.058 -3.0198,2.1515 -6.0396,4.3029 -9.0594,6.4546 3.7476,7.0857 7.4951,14.1713 11.2428,21.2571 1.7626,8.9553 3.5251,17.9103 5.2878,26.8657 -2.1824,2.1403 -4.3647,4.2804 -6.5471,6.4207 -3.787,-5.0415 -7.574,-10.0828 -11.361,-15.1244 -3.1442,-7.0603 -6.2884,-14.1206 -9.4326,-21.1811 -2.9523,-2.7745 -5.9045,-5.5489 -8.8569,-8.3234 -5.2275,4.8951 -10.4549,9.7902 -15.6825,14.6854 -2.56,8.9131 -5.1199,17.826 -7.6799,26.7393 -3.8545,-0.1155 -7.7089,-0.2309 -11.5636,-0.3465 1.2065,-9.8999 2.4131,-19.7996 3.6196,-29.6998 1.5477,-6.9561 3.0954,-13.9122 4.6432,-20.8685 -0.4824,-8.4365 -0.9649,-16.8728 -1.4473,-25.3094 -1.5426,-7.5511 -3.0852,-15.102 -4.6279,-22.6532 -24.732,-17.8252 -49.4635,-35.65 -74.1961,-53.4756 -15.9878,-7.9255 -31.9753,-15.8509 -47.9635,-23.7767 -13.8305,0.4882 -27.6608,0.9766 -41.4916,1.4649 -32.0055,19.1607 -64.0104,38.3212 -96.0166,57.4823 -24.1217,17.4462 -48.2431,34.8921 -72.3653,52.3386 -1.5243,3.1201 -3.0631,6.1718 -4.5731,9.3605 31.4501,68.6744 62.8787,137.2459 94.3072,205.8173 29.0482,40.0008 58.0953,80 87.1429,120 32.8578,46.6676 65.7143,93.3333 98.5714,140 10.4764,15.2384 20.9524,30.4762 31.4286,45.7143 37.6198,31.4292 75.2381,62.8571 112.8571,94.2857 36.6674,23.81 73.3334,47.619 110,71.4286 32.8578,15.2384 65.7143,30.4762 98.5715,45.7143 47.62,14.7622 95.2381,29.5238 142.8571,44.2857 48.5724,11.905 97.1429,23.8095 145.7143,35.7143 37.6198,9.524 75.2381,19.0476 112.8571,28.5714 7.143,4.2858 14.2858,8.5714 21.4286,12.8571 -1.9048,2.8572 -3.8095,5.7143 -5.7143,8.5715 -16.667,3.8096 -33.3333,7.619 -50,11.4285 -35.2388,-3.3334 -70.4762,-6.6666 -105.7143,-10 -60.0012,-4.762 -120,-9.5238 -180,-14.2857 -77.1444,-18.5718 -154.2857,-37.1428 -231.4285,-55.7143 -51.9058,-21.429 -103.8096,-42.8571 -155.7143,-64.2857 -43.8104,-36.6674 -87.6191,-73.3333 -131.4286,-110 -40.9532,-33.334 -81.9047,-66.6667 -122.8571,-100 -34.2864,-33.8102 -68.5715,-67.619 -102.8572,-101.4286 -39.5246,-30.953 -79.0476,-61.9047 -118.5714,-92.8571 -26.4408,-13.8461 -52.381,-27.619 -79.3207,-41.5373 -2.9223,1.19 -5.0954,2.4888 -7.2685,3.7875 -6.3606,29.0828 -12.7209,58.1645 -19.0814,87.2466 -4.7837,36.9954 -9.5675,73.9894 -14.3511,110.984 5.0761,12.8749 10.152,25.7492 15.2281,38.6238 13.6517,11.4923 27.3028,22.9841 40.9541,34.4761 26.22,15.5551 52.439,31.1095 78.6583,46.6643 7.539,-1.6015 15.0776,-3.203 22.6164,-4.8046 7.9273,-2.9272 15.8542,-5.8542 23.7813,-8.7813 5.7593,-4.1973 11.5183,-8.3944 17.2775,-12.5915 8.5944,-5.0601 17.1884,-10.12 25.7827,-15.18 1.6453,3.4877 3.2906,6.9753 4.9359,10.4629 -7.1492,5.9068 -14.2979,11.8134 -21.4469,17.7201 -2.4,6.7476 -4.8,13.4951 -7.1999,20.2426 3.7227,1.5986 7.4453,3.1971 11.168,4.7956 7.7287,0.063 15.4572,0.1252 23.1857,0.1882 6.1346,1.4584 12.2688,2.9167 18.4032,4.3751 -1.0905,2.8556 -2.181,5.711 -3.2715,8.5666 -8.9141,1.9607 -17.8279,3.9213 -26.7419,5.882 -7.9929,-0.6058 -15.9856,-1.2116 -23.9784,-1.8174 -0.7665,3.6279 -1.5329,7.2556 -2.2992,10.8834 15.5932,4.8643 31.1859,9.7284 46.7788,14.5926 9.339,2.9474 18.6776,5.8948 28.0165,8.8423 1.3314,3.692 2.6628,7.3839 3.9943,11.0759 -24.2534,-3.3371 -48.5058,-6.6742 -72.7587,-10.0113 1.0774,4.1257 2.1548,8.2513 3.2322,12.3768 15.4108,12.1346 30.821,24.2687 46.2315,36.4031 -1.1109,0.9022 -2.2218,1.8044 -3.3328,2.7067 -22.4417,-11.4003 -44.8826,-22.8 -67.3238,-34.2 -1.7781,3.0351 -3.5562,6.0702 -5.3343,9.1053 5.8192,15.2515 11.6383,30.5025 17.4575,45.7537 -3.0687,3.2498 -6.1372,6.4994 -9.2058,9.7491 -3.1053,-2.984 -6.2105,-5.9679 -9.3157,-8.9519 -10.0457,-18.31 -20.091,-36.6193 -30.1365,-54.9289 -4.8498,-4.9768 -9.6994,-9.9534 -14.5492,-14.9301 -5.8761,-4.219 -11.7521,-8.438 -17.628,-12.6569 -25.7353,-10.4177 -51.4695,-20.835 -77.2042,-31.2524 -28.6507,-11.7375 -57.3002,-23.4744 -85.9503,-35.2116 -10.5012,-6.9286 -21.0019,-13.8569 -31.5029,-20.7854 -9.2836,-19.6109 -18.5668,-39.2209 -27.8503,-58.8313 -4.2879,-28.1382 -8.5757,-56.2752 -12.8636,-84.4127 -0.7272,-17.316 -1.4543,-34.6311 -2.1814,-51.9466 -0.3729,-24.3356 -0.7457,-48.6698 -1.1185,-73.0047 2.5926,-19.4496 5.1851,-38.8985 7.7777,-58.3477 -3.2404,-14.5395 -6.4806,-29.0781 -9.7212,-43.6176 -5.494,-3.042 -11.1152,-6.1542 -16.4818,-9.1255 -3.3076,-1.3725 -6.8272,-2.8322 -10.3469,-4.2919 -40.9524,-24.2857 -81.904,-48.5709 -122.8572,-72.8571 -41.9047,-24.7619 -83.8086,-49.5233 -125.7142,-74.2857 -34.2858,-30.9524 -68.5708,-61.9042 -102.8571,-92.8572 -52.8572,-48.0952 -105.7144,-96.1905 -158.8909,-144.6123 -6.8522,-2.0017 -13.2782,-3.5678 -19.9175,-5.3518 -22.4456,17.0854 -44.8907,34.1705 -67.3367,51.2563 -36.6834,12.5628 -73.3661,25.1254 -110.0502,37.6884 -13.0271,-0.6144 -26.1319,-1.2325 -39.0813,-1.8433 -22.6694,-6.1681 -45.6036,-12.4083 -68.4162,-18.6153 -11.0613,-0.3937 -22.1224,-0.7875 -33.1839,-1.1812 -6.0591,5.4271 -12.1181,10.8541 -18.1774,16.2813 -7.5205,4.0492 -15.0409,8.0982 -22.5615,12.1475 -1.0493,-2.7107 -2.0985,-5.4214 -3.1478,-8.1321 3.6256,-7.4619 7.251,-14.9237 10.8766,-22.3857 -1.6353,-0.4702 -3.2706,-0.9403 -4.9059,-1.4104 -8.0806,2.0595 -16.1609,4.1191 -24.2415,6.1787 -9.8057,-2.0354 -19.61114,-4.0707 -29.417,-6.1062 0.64409,-2.5432 1.28814,-5.0863 1.93221,-7.6295 8.54432,-4.4804 17.08839,-8.9607 25.63289,-13.4413 2.0412,-1.648 4.0822,-3.2961 6.1234,-4.9442 -2.9617,-0.097 -5.9233,-0.1937 -8.8851,-0.2905 -11.55052,-1.1149 -23.10088,-2.2298 -34.6517,-3.3447 -2.80052,-2.5757 -5.60097,-5.1512 -8.40155,-7.7269 0.93396,-4.0562 1.86787,-8.1123 2.80183,-12.1685 5.36977,-1.0104 10.73951,-2.0207 16.10936,-3.0312 12.7158,3.2205 25.43126,6.4407 38.14726,9.6612 3.0133,-0.9913 6.0266,-1.9825 9.0399,-2.9738 -12.0137,-6.0661 -24.0271,-12.1322 -36.04106,-18.1984 -3.59874,-4.1402 -7.19747,-8.2805 -10.79628,-12.4208 0.51538,-3.509 1.03077,-7.0178 1.54619,-10.5268 5.74946,1.1015 11.49886,2.203 17.24845,3.3045 14.4473,8.1009 28.8942,16.2016 43.3418,24.3027 -0.7721,-5.7947 -1.5442,-11.5893 -2.3163,-17.3842 -3.328,-8.0098 -6.656,-16.0194 -9.984,-24.0294 1.262,-0.8562 2.524,-1.7124 3.786,-2.5686 8.9616,9.7165 17.923,19.4328 26.8846,29.1495 13.5395,7.9269 27.0787,15.8538 40.6184,23.781 24.1058,-0.5581 48.2111,-1.1161 72.3174,-1.6741 4.5282,-1.5907 9.1229,-3.2048 13.5846,-4.7722 4.9831,-1.623 10.0776,-3.2823 15.1723,-4.9417 z"
       sodipodi:nodetypes="ccccccccccccccccccccccccccccccccccccccccccccccccccccccccccccccccccccccccccccccccccccccccccccccccccccccccccccccccccccccccccccccccccccccccccccccccccccccccccccccccccccccccccccccccccccccccccccccccccccacccccccccccccccccccccccccccccccc"
       transform="rotate(86.227626,2094.3925,1457.1168)" />
  </g>
</svg>
