<?xml version="1.0" encoding="UTF-8" standalone="no"?>
<!-- Created with Inkscape (http://www.inkscape.org/) -->

<svg
   version="1.1"
   id="svg1"
   width="468.17847"
   height="466.15826"
   viewBox="0 0 468.17847 466.15826"
   sodipodi:docname="x3.svg"
   inkscape:version="1.4.3 (0d15f75042, 2025-12-25)"
   xmlns:inkscape="http://www.inkscape.org/namespaces/inkscape"
   xmlns:sodipodi="http://sodipodi.sourceforge.net/DTD/sodipodi-0.dtd"
   xmlns="http://www.w3.org/2000/svg"
   xmlns:svg="http://www.w3.org/2000/svg">
  <defs
     id="defs1">
    <inkscape:path-effect
       effect="bspline"
       id="path-effect38"
       is_visible="true"
       lpeversion="1.3"
       weight="33.333333"
       steps="2"
       helper_size="0"
       apply_no_weight="true"
       apply_with_weight="true"
       only_selected="false"
       uniform="false" />
    <inkscape:path-effect
       effect="bspline"
       id="path-effect37"
       is_visible="true"
       lpeversion="1.3"
       weight="33.333333"
       steps="2"
       helper_size="0"
       apply_no_weight="true"
       apply_with_weight="true"
       only_selected="false"
       uniform="false" />
    <inkscape:path-effect
       effect="bspline"
       id="path-effect36"
       is_visible="true"
       lpeversion="1.3"
       weight="33.333333"
       steps="2"
       helper_size="0"
       apply_no_weight="true"
       apply_with_weight="true"
       only_selected="false"
       uniform="false" />
    <inkscape:path-effect
       effect="bspline"
       id="path-effect35"
       is_visible="true"
       lpeversion="1.3"
       weight="33.333333"
       steps="2"
       helper_size="0"
       apply_no_weight="true"
       apply_with_weight="true"
       only_selected="false"
       uniform="false" />
    <inkscape:path-effect
       effect="bspline"
       id="path-effect34"
       is_visible="true"
       lpeversion="1.3"
       weight="33.333333"
       steps="2"
       helper_size="0"
       apply_no_weight="true"
       apply_with_weight="true"
       only_selected="false"
       uniform="false" />
    <inkscape:path-effect
       effect="bspline"
       id="path-effect33"
       is_visible="true"
       lpeversion="1.3"
       weight="33.333333"
       steps="2"
       helper_size="0"
       apply_no_weight="true"
       apply_with_weight="true"
       only_selected="false"
       uniform="false" />
    <inkscape:path-effect
       effect="bspline"
       id="path-effect32"
       is_visible="true"
       lpeversion="1.3"
       weight="33.333333"
       steps="2"
       helper_size="0"
       apply_no_weight="true"
       apply_with_weight="true"
       only_selected="false"
       uniform="false" />
    <inkscape:path-effect
       effect="bspline"
       id="path-effect31"
       is_visible="true"
       lpeversion="1.3"
       weight="33.333333"
       steps="2"
       helper_size="0"
       apply_no_weight="true"
       apply_with_weight="true"
       only_selected="false"
       uniform="false" />
    <inkscape:path-effect
       effect="bspline"
       id="path-effect30"
       is_visible="true"
       lpeversion="1.3"
       weight="33.333333"
       steps="2"
       helper_size="0"
       apply_no_weight="true"
       apply_with_weight="true"
       only_selected="false"
       uniform="false" />
    <inkscape:path-effect
       effect="bspline"
       id="path-effect29"
       is_visible="true"
       lpeversion="1.3"
       weight="33.333333"
       steps="2"
       helper_size="0"
       apply_no_weight="true"
       apply_with_weight="true"
       only_selected="false"
       uniform="false" />
    <inkscape:path-effect
       effect="bspline"
       id="path-effect28"
       is_visible="true"
       lpeversion="1.3"
       weight="33.333333"
       steps="2"
       helper_size="0"
       apply_no_weight="true"
       apply_with_weight="true"
       only_selected="false"
       uniform="false" />
    <inkscape:path-effect
       effect="bspline"
       id="path-effect27"
       is_visible="true"
       lpeversion="1.3"
       weight="33.333333"
       steps="2"
       helper_size="0"
       apply_no_weight="true"
       apply_with_weight="true"
       only_selected="false"
       uniform="false" />
    <inkscape:path-effect
       effect="bspline"
       id="path-effect26"
       is_visible="true"
       lpeversion="1.3"
       weight="33.333333"
       steps="2"
       helper_size="0"
       apply_no_weight="true"
       apply_with_weight="true"
       only_selected="false"
       uniform="false" />
    <inkscape:path-effect
       effect="bspline"
       id="path-effect25"
       is_visible="true"
       lpeversion="1.3"
       weight="33.333333"
       steps="2"
       helper_size="0"
       apply_no_weight="true"
       apply_with_weight="true"
       only_selected="false"
       uniform="false" />
    <inkscape:path-effect
       effect="bspline"
       id="path-effect24"
       is_visible="true"
       lpeversion="1.3"
       weight="33.333333"
       steps="2"
       helper_size="0"
       apply_no_weight="true"
       apply_with_weight="true"
       only_selected="false"
       uniform="false" />
    <inkscape:path-effect
       effect="bspline"
       id="path-effect23"
       is_visible="true"
       lpeversion="1.3"
       weight="33.333333"
       steps="2"
       helper_size="0"
       apply_no_weight="true"
       apply_with_weight="true"
       only_selected="false"
       uniform="false" />
    <inkscape:path-effect
       effect="bspline"
       id="path-effect22"
       is_visible="true"
       lpeversion="1.3"
       weight="33.333333"
       steps="2"
       helper_size="0"
       apply_no_weight="true"
       apply_with_weight="true"
       only_selected="false"
       uniform="false" />
    <inkscape:path-effect
       effect="bspline"
       id="path-effect21"
       is_visible="true"
       lpeversion="1.3"
       weight="33.333333"
       steps="2"
       helper_size="0"
       apply_no_weight="true"
       apply_with_weight="true"
       only_selected="false"
       uniform="false" />
    <inkscape:path-effect
       effect="bspline"
       id="path-effect20"
       is_visible="true"
       lpeversion="1.3"
       weight="33.333333"
       steps="2"
       helper_size="0"
       apply_no_weight="true"
       apply_with_weight="true"
       only_selected="false"
       uniform="false" />
    <inkscape:path-effect
       effect="bspline"
       id="path-effect19"
       is_visible="true"
       lpeversion="1.3"
       weight="33.333333"
       steps="2"
       helper_size="0"
       apply_no_weight="true"
       apply_with_weight="true"
       only_selected="false"
       uniform="false" />
    <inkscape:path-effect
       effect="bspline"
       id="path-effect15"
       is_visible="true"
       lpeversion="1.3"
       weight="33.333333"
       steps="2"
       helper_size="0"
       apply_no_weight="true"
       apply_with_weight="true"
       only_selected="false"
       uniform="false" />
    <inkscape:path-effect
       effect="bspline"
       id="path-effect14"
       is_visible="true"
       lpeversion="1.3"
       weight="33.333333"
       steps="2"
       helper_size="0"
       apply_no_weight="true"
       apply_with_weight="true"
       only_selected="false"
       uniform="false" />
    <inkscape:path-effect
       effect="bspline"
       id="path-effect13"
       is_visible="true"
       lpeversion="1.3"
       weight="33.333333"
       steps="2"
       helper_size="0"
       apply_no_weight="true"
       apply_with_weight="true"
       only_selected="false"
       uniform="false" />
    <inkscape:path-effect
       effect="bspline"
       id="path-effect12"
       is_visible="true"
       lpeversion="1.3"
       weight="33.333333"
       steps="2"
       helper_size="0"
       apply_no_weight="true"
       apply_with_weight="true"
       only_selected="false"
       uniform="false" />
    <inkscape:path-effect
       effect="bspline"
       id="path-effect11"
       is_visible="true"
       lpeversion="1.3"
       weight="33.333333"
       steps="2"
       helper_size="0"
       apply_no_weight="true"
       apply_with_weight="true"
       only_selected="false"
       uniform="false" />
    <inkscape:path-effect
       effect="bspline"
       id="path-effect10"
       is_visible="true"
       lpeversion="1.3"
       weight="33.333333"
       steps="2"
       helper_size="0"
       apply_no_weight="true"
       apply_with_weight="true"
       only_selected="false"
       uniform="false" />
    <inkscape:path-effect
       effect="bspline"
       id="path-effect9"
       is_visible="true"
       lpeversion="1.3"
       weight="33.333333"
       steps="2"
       helper_size="0"
       apply_no_weight="true"
       apply_with_weight="true"
       only_selected="false"
       uniform="false" />
    <inkscape:path-effect
       effect="bspline"
       id="path-effect8"
       is_visible="true"
       lpeversion="1.3"
       weight="33.333333"
       steps="2"
       helper_size="0"
       apply_no_weight="true"
       apply_with_weight="true"
       only_selected="false"
       uniform="false" />
    <inkscape:path-effect
       effect="bspline"
       id="path-effect7"
       is_visible="true"
       lpeversion="1.3"
       weight="33.333333"
       steps="2"
       helper_size="0"
       apply_no_weight="true"
       apply_with_weight="true"
       only_selected="false"
       uniform="false" />
    <inkscape:path-effect
       effect="bspline"
       id="path-effect6"
       is_visible="true"
       lpeversion="1.3"
       weight="33.333333"
       steps="2"
       helper_size="0"
       apply_no_weight="true"
       apply_with_weight="true"
       only_selected="false"
       uniform="false" />
    <inkscape:path-effect
       effect="bspline"
       id="path-effect4"
       is_visible="true"
       lpeversion="1.3"
       weight="33.333333"
       steps="2"
       helper_size="0"
       apply_no_weight="true"
       apply_with_weight="true"
       only_selected="false"
       uniform="false" />
    <inkscape:path-effect
       effect="bspline"
       id="path-effect2"
       is_visible="true"
       lpeversion="1.3"
       weight="33.333333"
       steps="2"
       helper_size="0"
       apply_no_weight="true"
       apply_with_weight="true"
       only_selected="false"
       uniform="false" />
    <inkscape:path-effect
       effect="bspline"
       id="path-effect1"
       is_visible="true"
       lpeversion="1.3"
       weight="33.333333"
       steps="2"
       helper_size="0"
       apply_no_weight="true"
       apply_with_weight="true"
       only_selected="false"
       uniform="false" />
    <inkscape:path-effect
       effect="bspline"
       id="path-effect2-7"
       is_visible="true"
       lpeversion="1.3"
       weight="33.333333"
       steps="2"
       helper_size="0"
       apply_no_weight="true"
       apply_with_weight="true"
       only_selected="false"
       uniform="false" />
    <inkscape:path-effect
       effect="bspline"
       id="path-effect4-9"
       is_visible="true"
       lpeversion="1.3"
       weight="33.333333"
       steps="2"
       helper_size="0"
       apply_no_weight="true"
       apply_with_weight="true"
       only_selected="false"
       uniform="false" />
    <inkscape:path-effect
       effect="bspline"
       id="path-effect11-3"
       is_visible="true"
       lpeversion="1.3"
       weight="33.333333"
       steps="2"
       helper_size="0"
       apply_no_weight="true"
       apply_with_weight="true"
       only_selected="false"
       uniform="false" />
    <inkscape:path-effect
       effect="bspline"
       id="path-effect13-1"
       is_visible="true"
       lpeversion="1.3"
       weight="33.333333"
       steps="2"
       helper_size="0"
       apply_no_weight="true"
       apply_with_weight="true"
       only_selected="false"
       uniform="false" />
    <inkscape:path-effect
       effect="bspline"
       id="path-effect12-2"
       is_visible="true"
       lpeversion="1.3"
       weight="33.333333"
       steps="2"
       helper_size="0"
       apply_no_weight="true"
       apply_with_weight="true"
       only_selected="false"
       uniform="false" />
    <inkscape:path-effect
       effect="bspline"
       id="path-effect30-7"
       is_visible="true"
       lpeversion="1.3"
       weight="33.333333"
       steps="2"
       helper_size="0"
       apply_no_weight="true"
       apply_with_weight="true"
       only_selected="false"
       uniform="false" />
  </defs>
  <sodipodi:namedview
     id="namedview1"
     pagecolor="#ffffff"
     bordercolor="#000000"
     borderopacity="0.25"
     inkscape:showpageshadow="2"
     inkscape:pageopacity="0.0"
     inkscape:pagecheckerboard="0"
     inkscape:deskcolor="#d1d1d1"
     showgrid="false"
     inkscape:zoom="2.11"
     inkscape:cx="137.20379"
     inkscape:cy="344.54976"
     inkscape:window-width="1920"
     inkscape:window-height="1011"
     inkscape:window-x="0"
     inkscape:window-y="0"
     inkscape:window-maximized="1"
     inkscape:current-layer="g1" />
  <g
     inkscape:groupmode="layer"
     inkscape:label="Layer 1"
     id="g1"
     transform="translate(193.13185,106.12569)">
    <path
       style="fill:#7c916f;fill-opacity:1;stroke:none;stroke-width:1.51181;stroke-linecap:round;stroke-linejoin:round;paint-order:markers fill stroke"
       d="m 46.204035,25.260005 c 4.980846,-1.436782 13.856964,-4.054918 22.350019,-6.353787 8.493056,-2.298869 16.602727,-4.278393 24.584928,-6.321837 7.982198,-2.043443 15.836448,-4.1506802 22.764988,-6.0025479 6.92854,-1.8518678 12.93097,-3.4482583 19.06131,-5.4597789 6.13033,-2.01152053 12.38818,-4.4380349 19.50831,-7.7586389 7.12013,-3.3206041 15.1021,-7.5350823 19.66788,-9.3550013 4.56578,-1.819918 5.71519,-1.245213 6.16218,-0.223488 0.447,1.021725 0.19158,2.490405 -1.02173,6.7050347 -1.2133,4.2146293 -3.38439,11.1749013 -5.84292,18.3269559 -2.45852,7.1520544 -5.20431,14.4954534 -7.69475,21.9348634 -2.49045,7.439411 -4.7254,14.974381 -6.2899,22.190286 -1.5645,7.215905 -2.45848,14.112325 -4.24651,26.085675 -1.78802,11.973349 -4.46996,29.022819 -8.39721,44.125119 -3.92726,15.1023 -9.09957,28.25657 -13.66538,38.37797 -4.56581,10.1214 -8.52487,17.20938 -12.22861,23.18005 -3.70373,5.97068 -7.15194,10.82371 -12.963,18.51858 -5.81107,7.69487 -13.984598,18.23106 -20.785418,26.18131 -6.800821,7.95024 -12.228549,13.31411 -17.87995,18.55044 -5.651401,5.23632 -11.52612,10.34477 -17.848031,14.17622 -6.32191,3.83144 -13.090611,6.38567 -19.891446,8.36525 -6.800835,1.97958 -13.633395,3.3844 -19.827575,4.59769 -6.194181,1.21329 -11.7496207,2.23499 -18.6462555,2.71391 -6.8966345,0.47893 -15.1340145,0.41508 -22.0306245,0.31929 -6.89661,-0.0958 -12.45205,-0.2235 -15.549122,-0.57472 -3.097072,-0.35122 -3.73563,-0.92592 -4.50192,-2.45851 -0.766291,-1.53259 -1.660269,-4.02296 -4.91703,-9.22738 -3.256761,-5.20443 -8.876059,-13.12253 -13.952734,-18.99741 -5.076674,-5.87488 -9.610425,-9.70622 -14.33589,-12.86716 -4.725465,-3.16095 -9.642354,-5.65132 -14.112384,-7.4074 -4.47003,-1.75607 -8.49293,-2.77777 -10.53635,-3.57599 -2.04343,-0.79821 -2.10728,-1.37291 -2.235,-2.61814 -0.12772,-1.24523 -0.31929,-3.1609 -0.0319,-9.89793 0.28736,-6.73702 1.05363,-18.2949 2.01149,-28.38439 0.95787,-10.08948 2.10727,-18.71 4.40616,-27.3627 2.29888,-8.65271 5.747091,-17.33708 10.440636,-25.98978 4.693546,-8.65271 10.632126,-17.27323 18.869779,-26.40487 C -65.162291,93.235549 -54.6261,83.59334 -44.568534,74.940646 -34.510968,66.287952 -24.932619,58.625271 -16.66307,52.846174 -8.3935215,47.067077 -1.4332502,43.17188 4.9205747,40.106724 11.2744,37.041569 17.02141,34.806621 22.608945,32.79511 c 5.587534,-2.011512 11.015274,-3.799474 14.271989,-4.821188 3.256716,-1.021714 4.342255,-1.277134 9.323101,-2.713917 z"
       id="path23"
       inkscape:path-effect="#path-effect20"
       inkscape:original-d="m 42.30876,26.44136 c 8.87612,-2.61814 17.75224,-5.23627 26.62836,-7.85441 8.10999,-1.9796 16.21966,-3.95913 24.3295,-5.93869 7.85456,-2.10733 15.70881,-4.21456 23.56322,-6.32184 6.00267,-1.59646 12.0051,-3.19285 18.00766,-4.78927 6.25811,-2.42662 12.51596,-4.85313 18.77395,-7.2797 7.98227,-4.214642 15.96424,-8.429117 23.94636,-12.643676 1.14944,0.574724 2.29885,1.149425 3.44827,1.724138 -0.25543,1.468739 -0.51085,2.93742 -0.76628,4.40613 -2.17118,6.960548 -4.34228,13.920818 -6.51341,20.881228 -2.74591,7.3437 -5.4917,14.6871 -8.23755,22.03065 -2.23504,7.53527 -4.46999,15.07024 -6.70498,22.60536 -0.89402,6.89669 -1.788,13.79311 -2.68199,20.68966 -2.68205,17.05015 -5.36399,34.09962 -8.04598,51.14942 -5.17252,13.1548 -10.34483,26.30907 -15.51724,39.46361 -3.95921,7.08826 -7.91827,14.17624 -11.8774,21.26436 -3.44834,4.85323 -6.89655,9.70626 -10.34482,14.55939 -8.17386,10.53661 -16.34739,21.0728 -24.52108,31.6092 -5.42795,5.36409 -10.85568,10.72796 -16.28352,16.09195 -5.87496,5.10866 -11.74968,10.21711 -17.62452,15.32567 -6.76898,2.55433 -13.53768,5.10856 -20.30652,7.66284 -6.83283,1.40488 -13.66539,2.8097 -20.49808,4.21455 -5.55567,1.02174 -11.11111,2.04343 -16.66667,3.06514 -8.23771,-0.0639 -16.47509,-0.12772 -24.71264,-0.19157 -5.55567,-0.12772 -11.11111,-0.25543 -16.66667,-0.38314 -0.63858,-0.57473 -1.27714,-1.14943 -1.91571,-1.72414 -0.89401,-2.49047 -1.78799,-4.98084 -2.68199,-7.47127 -5.61952,-7.91842 -11.23882,-15.83652 -16.85824,-23.75479 -4.53393,-3.83149 -9.06768,-7.66283 -13.60153,-11.49425 -4.91708,-2.49047 -9.83397,-4.98084 -14.750957,-7.47126 -4.023073,-1.02173 -8.045973,-2.04343 -12.068963,-3.06514 -0.0639,-0.57472 -0.12772,-1.14942 -0.19157,-1.72413 -0.19158,-1.91575 -0.38315,-3.83142 -0.57472,-5.74713 0.7663,-11.55834 1.53257,-23.11622 2.29885,-34.67433 1.14945,-8.62086 2.29885,-17.24138 3.44828,-25.86207 3.44834,-8.68472 6.896552,-17.36909 10.344828,-26.05364 5.938812,-8.62086 11.877392,-17.24138 17.816092,-25.86207 10.53661,-9.64259 21.0728,-19.2848 31.6092,-28.9272 9.57873,-7.66299 19.15708,-15.32567 28.73563,-22.98851 6.96055,-3.89535 13.92082,-7.79055 20.88122,-11.68582 5.74725,-2.23504 11.49426,-4.46999 17.24138,-6.70498 5.42795,-1.78803 10.85569,-3.57599 16.28353,-5.36399 1.08559,-0.25543 2.17113,-0.51085 3.2567,-0.76628 z" />
    <path
       id="path22"
       style="display:inline;fill:#bec8b7;stroke:none;stroke-width:4;stroke-linecap:round;stroke-linejoin:round;paint-order:markers fill stroke"
       d="M 155.52245 -4.4323306 C 154.57124 -4.4157338 152.57597 -3.48082 150.69042 -2.7565494 C 147.33832 -1.4689572 144.32965 -0.84879412 134.90917 6.7082944 C 125.48868 14.265383 109.65715 28.759618 90.922838 46.772747 C 72.188523 64.785876 50.552743 86.31765 29.952134 106.8665 C 9.3515254 127.41535 -10.212174 146.97898 -25.895522 163.85283 C -41.57887 180.72668 -53.380512 194.90904 -61.50685 204.53642 C -69.633188 214.16379 -74.083875 219.23644 -76.930678 223.11845 C -79.777481 227.00047 -81.019537 229.6926 -81.38185 231.45243 C -81.744164 233.21227 -81.227582 234.03933 -80.606459 234.60868 C -79.985335 235.17804 -79.260792 235.48856 -78.536147 235.64384 C -77.811501 235.79912 -77.087175 235.80044 -76.184584 236.43486 C -75.281992 237.06929 -74.200631 238.33755 -67.057631 232.33329 C -59.914631 226.32903 -46.709066 213.05206 -23.180678 187.93486 C 0.34771069 162.81766 34.197875 125.86204 62.407213 95.944622 C 90.61655 66.02721 113.18254 43.150368 128.74706 27.007122 C 144.31157 10.863875 152.87289 1.4546076 155.30565 -2.2721744 C 156.36998 -3.9026415 156.26227 -4.4452393 155.52245 -4.4323306 z M 173.1787 3.5325131 C 171.75637 3.5671412 168.35093 5.5069554 159.29393 13.944622 C 148.55972 23.94482 129.88849 43.070026 107.92284 66.194622 C 85.957188 89.319217 60.698382 116.44247 37.250963 140.92509 C 13.803542 165.40771 -7.8323397 187.24959 -23.049819 202.72587 C -38.267299 218.20215 -47.065212 227.3106 -52.448256 232.84892 C -57.831299 238.38724 -59.7978 240.35468 -61.247084 242.32158 C -62.696368 244.28847 -63.628931 246.25606 -63.577162 247.96415 C -63.525392 249.67224 -62.490841 251.11993 -61.293959 252.81962 C -60.097077 254.51931 -58.737849 256.47042 -49.731459 249.63798 C -40.725069 242.80555 -24.071197 227.19164 2.7861188 199.24931 C 29.643435 171.30698 66.70189 131.03874 93.668931 101.38017 C 120.63597 71.721591 137.51047 52.673811 148.66503 40.083294 C 159.81957 27.492778 165.25469 21.359902 168.36034 17.167279 C 171.46598 12.974655 172.2417 10.721566 173.06346 8.5500912 C 173.88522 6.3786164 174.7523 4.2878019 173.78807 3.6789975 C 173.63741 3.5838718 173.44209 3.5261005 173.1787 3.5325131 z M 122.00878 4.9622006 C 121.73661 4.9668683 121.44907 4.9840886 121.14159 5.0188412 C 119.91168 5.1578518 118.35943 5.5715478 116.85838 6.1926694 C 115.35733 6.8137909 113.90734 7.6428125 111.21581 8.7297787 C 108.52428 9.8167448 104.59003 11.161963 97.362291 15.579388 C 90.134548 19.996812 79.613357 27.486322 65.74315 38.649701 C 51.872944 49.81308 34.655502 64.648892 17.125963 81.43681 C -0.40357689 98.224727 -18.242317 116.96143 -36.981459 140.27079 C -55.720602 163.58016 -75.356932 191.45924 -85.586928 206.30204 C -95.816924 221.14485 -96.640641 222.95139 -96.588881 224.14189 C -96.53712 225.33239 -95.609637 225.90784 -94.192397 226.74931 C -92.775157 227.59078 -90.867332 228.69763 -88.641616 227.40361 C -86.415901 226.10959 -83.873084 222.41356 -78.409194 214.87236 C -72.945303 207.33117 -64.561128 195.94435 -52.190444 180.98564 C -39.81976 166.02694 -23.463808 147.49833 -4.5713031 127.31181 C 14.321201 107.12529 35.749437 85.282466 57.434556 65.567669 C 79.119675 45.852871 101.06146 28.26682 112.22948 18.552044 C 123.39751 8.8372686 123.7902 6.9943026 124.18456 5.1516537 C 123.50428 5.0496099 122.82526 4.9481975 122.00878 4.9622006 z M 57.163072 21.794232 C 56.125144 21.763482 53.941932 22.292817 51.297838 23.040326 C 48.276015 23.894621 44.652437 25.033444 42.219713 26.016888 C 39.786988 27.000333 38.545354 27.828091 30.832994 33.366497 C 23.120635 38.904903 8.9382941 49.153846 -7.1591937 63.387982 C -23.256682 77.622119 -41.268787 95.840248 -57.159194 113.43876 C -73.049602 131.03727 -86.817094 148.01554 -94.270522 157.28056 C -101.72395 166.54559 -102.86227 168.09786 -103.79396 169.90947 C -104.72564 171.72109 -105.45116 173.79214 -106.02052 176.38017 C -106.58988 178.96819 -107.00293 182.07248 -107.20997 184.09111 C -107.41701 186.10974 -107.41805 187.0423 -106.33107 186.83525 C -105.2441 186.6282 -103.06892 185.28129 -92.473647 172.65165 C -81.878376 160.02201 -62.86335 136.11016 -46.368178 117.304 C -29.873006 98.497832 -15.900312 84.799815 -2.0127094 72.946576 C 11.874893 61.093337 25.675205 51.086648 35.442369 43.255169 C 45.209534 35.423691 50.94297 29.767816 54.223619 26.428997 C 57.504269 23.090178 58.332252 22.069206 57.536119 21.84306 C 57.436602 21.814792 57.311347 21.798625 57.163072 21.794232 z M 161.93651 35.335247 C 161.90703 35.334116 161.87686 35.334982 161.84471 35.337201 C 160.81592 35.408181 158.39582 37.215347 148.79393 49.434857 C 139.19204 61.654368 122.40943 84.28623 107.65135 102.64189 C 92.893265 120.99754 80.15981 135.07577 67.116197 149.30986 C 54.072585 163.54396 40.719223 177.9324 30.2119 189.00908 C 19.704578 200.08576 12.043552 207.85034 0.60447813 218.30595 C -10.834595 228.76157 -26.051392 241.90816 -35.057631 249.82743 C -44.06387 257.74672 -46.858774 260.43661 -48.932631 262.26103 C -51.006488 264.08545 -52.359379 265.04318 -52.514662 266.23368 C -52.669945 267.42418 -51.627884 268.84861 -50.706069 270.47978 C -49.784253 272.11095 -48.982199 273.95002 -36.456069 265.20243 C -23.929938 256.45484 0.3197908 237.12054 19.225572 221.29423 C 38.131354 205.46793 51.691337 193.14899 71.463853 170.06376 C 91.236369 146.97854 117.22089 113.12987 133.27635 90.698529 C 149.33182 68.267189 155.45879 57.254593 158.6162 50.473919 C 161.77361 43.693245 161.96027 41.145258 162.23534 39.038372 C 162.50181 36.997328 162.85029 35.370317 161.93651 35.335247 z M 148.81737 109.35087 C 147.8181 109.4206 145.67929 111.35963 140.75878 117.67118 C 134.70276 125.43925 124.43447 139.83016 112.3037 155.64384 C 100.17292 171.45752 86.179361 188.69246 72.786119 203.27275 C 59.392878 217.85305 46.601422 229.77646 34.938463 240.03447 C 23.275505 250.29249 12.743625 258.8839 6.8173688 264.31572 C 0.891113 269.74755 -0.4282848 272.02042 -1.6064594 273.70634 C -2.784634 275.39227 -3.8216978 276.49241 -3.3173969 277.01298 C -2.813096 277.53354 -0.76805562 277.47323 1.4970563 277.28837 C 3.7621682 277.10351 6.2478661 276.79433 9.508775 275.13798 C 12.769684 273.48164 16.805797 270.47955 31.557603 257.38408 C 46.309409 244.28861 71.775531 221.10084 89.995103 201.17314 C 108.21468 181.24544 119.18712 164.57797 127.41698 152.67314 C 135.64685 140.76831 141.13266 133.62552 144.29003 128.29423 C 147.44737 122.96293 148.27559 119.4432 148.92284 116.29814 C 149.57009 113.15309 150.03778 110.38398 149.34862 109.57158 C 149.2194 109.41925 149.04797 109.33478 148.81737 109.35087 z " />
    <path
       id="path21"
       style="fill:#917c6f;fill-opacity:1;stroke:none;stroke-width:1.51181;stroke-linecap:round;stroke-linejoin:round;paint-order:markers fill stroke"
       d="M 94.18065 -87.381549 C 93.475647 -87.389469 92.819869 -87.030387 92.165025 -86.481159 C 90.855337 -85.382702 89.546148 -83.524203 87.729478 -80.207721 C 85.912808 -76.891239 83.589729 -72.115431 82.153306 -67.278034 C 80.716884 -62.440637 80.167775 -57.541085 79.069322 -51.436237 C 77.970869 -45.331389 76.323239 -38.022762 74.950181 -31.87569 C 73.577123 -25.728618 72.478412 -20.743918 71.041978 -15.653034 C 69.605544 -10.56215 67.831035 -5.3643981 65.655259 -0.6960025 C 63.479484 3.9723931 60.903697 8.1124117 58.981431 11.534466 C 57.059166 14.956521 55.790263 17.660032 55.346666 19.180951 C 54.903068 20.701869 55.284076 21.040012 58.600572 20.448529 C 61.917068 19.857045 68.169225 18.334994 75.05565 16.602826 C 81.942075 14.870657 89.462712 12.927812 93.286119 11.026654 C 97.109526 9.1254954 97.235978 7.2658263 98.418931 3.6536069 C 99.601885 0.041387493 101.84049 -5.3222957 105.60057 -11.237018 C 109.36066 -17.151741 114.64246 -23.616213 117.32518 -27.524128 C 120.0079 -31.432042 120.09207 -32.784005 118.67674 -35.424518 C 117.26142 -38.065031 114.34629 -41.993806 112.1494 -45.711628 C 109.95251 -49.429449 108.47342 -52.936414 106.97362 -57.985065 C 105.47381 -63.033716 103.95239 -69.62436 102.13573 -74.926471 C 100.31906 -80.228583 98.208096 -84.241049 96.497056 -86.078815 C 95.641536 -86.997698 94.885653 -87.373629 94.18065 -87.381549 z M -133.56154 -3.1491275 C -133.71763 -3.1477455 -133.90088 -3.0857965 -134.11818 -2.9616275 C -135.66343 -2.0786477 -138.90146 1.9684702 -141.40333 7.4504819 C -143.90521 12.932494 -145.67115 19.848588 -147.51076 28.641888 C -149.35036 37.435188 -151.26258 48.105592 -153.28615 62.012982 C -155.30971 75.920372 -157.44478 93.063591 -158.40138 108.22197 C -159.35799 123.38034 -159.13685 136.55264 -158.58497 146.81767 C -158.0331 157.0827 -157.14891 164.44059 -155.05177 170.76884 C -152.95463 177.0971 -149.64374 182.39592 -144.45607 187.6204 C -139.2684 192.84489 -132.20415 197.99391 -126.3174 201.67314 C -120.43064 205.35237 -115.72226 207.56098 -113.07326 208.3704 C -110.42425 209.17983 -109.83471 208.59094 -109.57716 207.89189 C -109.31961 207.19284 -109.3942 206.3841 -109.46779 204.80204 C -109.54137 203.21999 -109.61537 200.86412 -109.06349 195.38212 C -108.51161 189.90013 -107.33418 181.29228 -106.56154 175.62626 C -105.7889 169.96025 -105.42096 167.23795 -105.20021 165.69267 C -104.97946 164.14739 -104.90488 163.77798 -105.30958 163.70439 C -105.71429 163.6308 -106.59794 163.853 -108.32716 164.55204 C -110.05638 165.25109 -112.63135 166.42811 -114.83888 167.45829 C -117.04641 168.48848 -118.88545 169.37103 -120.20997 169.44462 C -121.5345 169.51822 -122.34459 168.78212 -123.00685 167.60478 C -123.66911 166.42743 -124.18495 164.80944 -124.00099 162.27079 C -123.81704 159.73215 -122.93265 156.27327 -121.3506 152.48368 C -119.76855 148.6941 -117.48804 144.57306 -115.7588 140.89384 C -114.02957 137.21462 -112.85302 133.9782 -112.22755 130.85087 C -111.60208 127.72354 -111.52834 124.70641 -111.52833 119.96025 C -111.52833 115.21408 -111.60209 108.73866 -112.22755 102.52079 C -112.85301 96.302925 -114.02985 90.341621 -116.01662 85.190716 C -118.00338 80.039812 -120.79914 75.699747 -122.30763 71.762982 C -123.81612 67.826217 -124.0361 64.293215 -124.25685 60.098919 C -124.4776 55.904624 -124.69834 51.048291 -125.83888 44.49931 C -126.97943 37.950329 -129.03975 29.709355 -130.36427 22.130169 C -131.6888 14.550984 -132.27828 7.6354594 -132.49904 3.0364194 C -132.68875 -0.91588065 -132.60763 -3.1575728 -133.56154 -3.1491275 z M 193.37792 28.815716 C 191.84422 28.848823 190.6155 29.853112 187.92088 32.53056 C 184.60444 35.82588 179.06953 41.655503 174.84471 45.774701 C 170.6199 49.893898 167.70438 52.302443 165.31737 53.928997 C 162.93035 55.555552 161.07258 56.399933 159.88963 57.329388 C 158.70668 58.258843 158.19853 59.27299 157.98729 60.202435 C 157.77605 61.13188 157.86013 61.977728 157.73338 63.688763 C 157.60664 65.399798 157.26887 67.976001 156.48729 73.362591 C 155.70571 78.749181 154.48192 86.94505 153.59471 92.352826 C 152.7075 97.760601 152.15791 100.3811 155.51659 98.606732 C 158.87526 96.832363 166.14212 90.663551 173.95799 85.636029 C 181.77387 80.608506 190.13751 76.722545 198.71385 73.321576 C 207.2902 69.920606 216.07726 67.005408 223.06932 64.386029 C 230.06139 61.766649 235.25755 59.443563 239.65135 56.634076 C 244.04515 53.824588 247.63638 50.528909 249.62206 48.141888 C 251.60773 45.754868 251.98912 44.275854 251.5244 43.198529 C 251.05968 42.121204 249.74929 41.4446 245.98924 40.641888 C 242.2292 39.839176 236.01956 38.910016 230.12596 38.255169 C 224.23236 37.600323 218.65576 37.220857 214.21971 36.354779 C 209.78366 35.4887 206.48807 34.135471 203.21385 32.614544 C 199.93963 31.093618 196.68651 29.405458 194.51073 28.940716 C 194.10277 28.853577 193.73185 28.808076 193.37792 28.815716 z M -106.65919 222.929 C -107.44699 222.96427 -107.79229 223.65376 -108.29396 226.53837 C -108.96285 230.38453 -109.91012 238.13318 -110.99708 243.65165 C -112.08405 249.17013 -113.31116 252.45889 -114.98341 255.5247 C -116.65567 258.59051 -118.77364 261.4331 -121.08693 265.13993 C -123.40022 268.84677 -125.90766 273.41772 -128.05372 278.35087 C -130.19979 283.28403 -131.98259 288.57917 -133.26466 294.6829 C -134.54673 300.78664 -135.32768 307.69736 -135.29982 312.71415 C -135.27196 317.73094 -134.4353 320.85302 -133.5713 322.804 C -132.7073 324.75497 -131.81681 325.53542 -129.78224 325.89775 C -127.74767 326.26007 -124.57021 326.20457 -120.80763 325.36845 C -117.04506 324.53233 -112.69698 322.91574 -108.01466 320.51884 C -103.33235 318.12195 -98.315046 314.94424 -94.4131 312.07353 C -90.511154 309.20282 -87.724532 306.63986 -84.993178 303.54618 C -82.261824 300.45251 -79.587565 296.82842 -77.385756 293.679 C -75.183948 290.52958 -73.454529 287.85452 -71.057631 285.59697 C -68.660734 283.33941 -65.596492 281.49901 -61.889662 279.96611 C -58.182833 278.4332 -53.834158 277.20826 -51.604506 276.17704 C -49.374854 275.14583 -49.264048 274.30893 -49.709975 273.22197 C -50.155902 272.135 -51.157767 270.79804 -52.885756 267.70439 C -54.613746 264.61073 -57.066796 259.75976 -60.299819 255.07743 C -63.532842 250.39511 -67.54555 245.8815 -72.004897 241.78447 C -76.464244 237.68743 -81.37013 234.00764 -85.9131 231.19267 C -90.45607 228.37769 -94.637311 226.42734 -98.065444 225.17314 C -101.49358 223.91894 -104.16925 223.36058 -105.70216 223.054 C -106.08539 222.97735 -106.3966 222.91724 -106.65919 222.929 z M 6.93065 277.80009 C 5.3041195 277.56773 1.8414115 277.73498 -3.5029437 277.92509 C -8.847299 278.11521 -16.073099 278.32677 -21.903334 278.51689 C -27.733569 278.707 -32.167986 278.87719 -34.745131 279.04618 C -37.322276 279.21518 -38.040496 279.38398 -37.723647 281.09501 C -37.406798 282.80605 -36.056099 286.05872 -34.936537 288.50908 C -33.816976 290.95943 -32.929034 292.60765 -31.344741 295.52275 C -29.760448 298.43785 -27.479769 302.6197 -24.290053 306.929 C -21.100338 311.23829 -17.002201 315.67343 -12.608412 319.01103 C -8.214624 322.34863 -3.5243841 324.58895 3.0029156 326.63798 C 9.5302153 328.68701 17.893671 330.54494 27.631822 331.96025 C 37.369972 333.37556 48.480841 334.34744 57.606431 334.83329 C 66.732021 335.31915 73.873489 335.31935 83.801744 334.96025 C 93.729999 334.60114 106.44558 333.88369 117.28221 333.05986 C 128.11884 332.23602 137.07416 331.30626 145.14354 329.72197 C 153.21292 328.13767 160.39569 325.89807 164.87401 324.31376 C 169.35232 322.72946 171.12655 321.80007 172.07713 320.99736 C 173.02772 320.19464 173.15372 319.51825 170.66112 318.56767 C 168.16852 317.61709 163.05663 316.39175 157.73338 315.12431 C 152.41014 313.85687 146.87613 312.54773 140.47557 310.92118 C 134.07501 309.29464 126.80986 307.35074 120.87401 306.08329 C 114.93815 304.81585 110.33205 304.22468 107.18456 303.69658 C 104.03707 303.16847 102.34845 302.70349 100.27831 301.96415 C 98.208162 301.22482 95.757657 300.21215 92.715806 298.60673 C 89.673956 297.00131 86.040839 294.80471 80.823228 292.67118 C 75.605617 290.53766 68.803309 288.46727 62.254869 287.38993 C 55.706429 286.3126 49.410877 286.22828 42.756822 287.28447 C 36.102767 288.34066 29.090693 290.5358 22.901353 292.33134 C 16.712013 294.12689 11.345579 295.5225 8.3036969 295.96611 C 5.261815 296.40972 4.5444787 295.90184 3.8896344 295.22587 C 3.23479 294.54991 2.6440572 293.70482 2.5595563 292.58525 C 2.4750553 291.46568 2.8971726 290.07207 3.9111188 287.81181 C 4.9250649 285.55155 6.5301232 282.42623 7.4384625 280.54618 C 8.3468018 278.66614 8.5571805 278.03246 6.93065 277.80009 z " />
    <path
       id="path20"
       style="fill:#d5f6ff;fill-opacity:1;stroke:none;stroke-width:1.51181;stroke-linecap:round;stroke-linejoin:round;paint-order:markers fill stroke"
       d="M -127.2881 277.44072 C -127.60302 277.42901 -127.76777 277.94193 -128.52833 280.28447 C -129.50185 283.28291 -131.45046 289.2789 -132.15138 292.29033 C -132.85231 295.30175 -132.30655 295.32719 -131.33302 295.24931 C -130.35949 295.17143 -128.95683 294.99127 -127.3213 294.29033 C -125.68577 293.58938 -123.81802 292.36927 -122.76662 290.33134 C -121.71521 288.29341 -121.48059 285.43692 -121.83107 283.38603 C -122.18155 281.33513 -123.11559 280.089 -124.16701 279.20634 C -125.21842 278.32368 -126.38758 277.80384 -126.97169 277.54423 C -127.09947 277.48744 -127.19992 277.44399 -127.2881 277.44072 z M -94.8506 305.24345 C -95.054077 305.23463 -95.260101 305.23567 -95.467787 305.2454 C -97.129279 305.32329 -98.869816 306.02476 -100.44044 307.08915 C -102.01107 308.15355 -103.41297 309.58012 -103.99708 311.28056 C -104.58119 312.981 -104.34635 314.95418 -103.60646 315.72001 C -102.86657 316.48584 -101.62026 316.04459 -99.56935 314.69462 C -97.518437 313.34465 -94.662589 311.08624 -93.040053 309.52861 C -91.417517 307.97097 -91.028885 307.11431 -91.625991 306.41337 C -92.148458 305.80005 -93.426263 305.3052 -94.8506 305.24345 z " />
    <path
       id="path19"
       style="fill:#000000;fill-opacity:1;stroke:none;stroke-width:1.51181;stroke-linecap:round;stroke-linejoin:round;paint-order:markers fill stroke"
       d="M -127.77803 282.51899 C -128.42389 282.53771 -129.0684 282.92719 -129.79757 284.09907 C -130.695 285.54138 -131.7221 288.16893 -131.8503 289.51509 C -131.9785 290.86124 -131.20868 290.92489 -130.31124 290.86079 C -129.41379 290.79668 -128.38872 290.60419 -127.55538 289.9311 C -126.72204 289.25801 -126.08142 288.10484 -125.66475 287.01509 C -125.24808 285.92533 -125.05517 284.90036 -125.37569 284.09907 C -125.69621 283.29778 -126.52948 282.72026 -127.33077 282.56001 C -127.48101 282.52996 -127.62899 282.51467 -127.77803 282.51899 z M -96.965534 307.60688 C -97.73252 307.63703 -98.555182 308.0595 -99.379596 308.66157 C -100.32178 309.34965 -101.26719 310.27063 -101.69796 311.25141 C -102.12872 312.2322 -102.04547 313.2729 -101.87178 314.15571 C -101.69809 315.03852 -101.43397 315.7636 -100.16866 315.28657 C -98.903346 314.80954 -96.635404 313.13071 -95.479206 311.88618 C -94.323008 310.64165 -94.278323 309.83216 -94.643268 309.10102 C -95.008213 308.36989 -95.783995 307.71757 -96.641315 307.6186 C -96.74848 307.60623 -96.855964 307.60258 -96.965534 307.60688 z "
       transform="translate(0.76923077,0.38461538)" />
    <path
       style="fill:none;stroke:#000000;stroke-width:1.51181;stroke-linecap:round;stroke-linejoin:round;stroke-dasharray:none;paint-order:markers fill stroke"
       d="M 65.936508,53.587302 C 63.809524,55.238095 60,58.47619 56.793625,61.904798 c -3.206375,3.428608 -5.809498,7.047583 -7.523792,10.952387 -1.714294,3.904804 -2.539674,8.095196 -2.857133,12.920647 -0.317458,4.825452 -0.126986,10.28566 0.222225,15.142848 0.349212,4.85718 0.857139,9.11107 2.317481,14.15874 1.460342,5.04768 3.872991,10.88883 6.857153,16.28571 2.984162,5.39687 6.539649,10.34916 8.793626,14.25395 2.253977,3.90479 3.206337,6.76187 4.158728,9.49206 0.95239,2.73018 1.904752,5.3333 2.666664,7.17458 0.761913,1.84129 1.333329,2.92063 1.873017,3.42856 0.539687,0.50794 1.047612,0.44445 1.555554,-0.44446 0.507941,-0.8889 1.015867,-2.60315 1.746036,-4.66667 0.73017,-2.06352 1.682532,-4.47617 4.031777,-8.09526 2.349244,-3.6191 6.095201,-8.4444 9.968256,-13.84128 3.873055,-5.39689 7.872971,-11.36502 10.571403,-16.2222 2.69842,-4.85718 4.09522,-8.60314 5.36508,-14.28575 1.26985,-5.68262 2.41268,-13.301517 2.76188,-19.015841 0.3492,-5.714325 -0.0952,-9.523771 -1.07938,-13.111107 -0.98414,-3.587336 -2.50791,-6.952346 -4.69842,-10.634926 -2.1905,-3.682579 -5.047589,-7.682501 -6.76188,-9.936474 -1.714292,-2.253973 -2.28571,-2.7619 -2.857144,-2.761894 -0.571434,5e-6 -1.142851,0.507931 -2.158738,0.984126 -1.015888,0.476195 -2.476177,0.920631 -4.317469,1.26984 -1.841292,0.349208 -4.06347,0.603172 -6.317461,0.476182 -2.253991,-0.126989 -4.539659,-0.634915 -6.380943,-1.20635 -1.841284,-0.571435 -3.238082,-1.206343 -4.126974,-1.619044 -0.888893,-0.4127 -1.269838,-0.603172 -1.68254,-0.666663 -0.412703,-0.06349 -0.857139,-10e-7 -2.984123,1.650793 z"
       id="path1"
       inkscape:path-effect="#path-effect1"
       inkscape:original-d="M 67.619048,52 C 63.809524,55.238095 60,58.47619 56.190476,61.714286 c -2.603226,3.61912 -5.206349,7.238095 -7.809524,10.857143 -0.825413,4.19056 -1.650793,8.380952 -2.47619,12.571428 0.19048,5.460427 0.380952,10.920635 0.571428,16.380953 0.507947,4.25405 1.015873,8.50794 1.52381,12.7619 2.412747,5.84139 4.825397,11.68254 7.238095,17.52381 3.555627,4.95248 7.111111,9.90477 10.666667,14.85715 0.9524,2.8572 1.904762,5.71428 2.857143,8.57143 0.9524,2.60322 1.904762,5.20634 2.857143,7.80952 0.57144,1.07939 1.142857,2.15873 1.714285,3.23809 0.507947,-0.0635 1.015873,-0.12698 1.52381,-0.19047 0.507947,-1.71432 1.015873,-3.42857 1.523809,-5.14286 0.9524,-2.41275 1.904762,-4.8254 2.857143,-7.23809 3.746107,-4.8255 7.492064,-9.6508 11.238095,-14.47619 4.00008,-5.96838 8,-11.93651 12,-17.90477 1.39685,-3.7461 2.79365,-7.49206 4.19048,-11.23809 1.14288,-7.6192 2.28571,-15.238097 3.42857,-22.857145 -0.44446,-3.8096 -0.88889,-7.619047 -1.33334,-11.428571 -1.52384,-3.365147 -3.04761,-6.730159 -4.57142,-10.095238 -2.8572,-4.00008 -5.71429,-8 -8.571432,-12 -0.57144,-0.507947 -1.142858,-1.015873 -1.714286,-1.52381 -0.57144,0.507947 -1.142857,1.015873 -1.714286,1.52381 -1.460346,0.444453 -2.920635,0.888889 -4.380952,1.333333 -2.222267,0.253973 -4.444445,0.507937 -6.666667,0.761905 -2.28576,-0.507947 -4.571428,-1.015873 -6.857143,-1.52381 C 72.888861,53.650781 71.492063,53.015873 70.095238,52.380952 69.714278,52.190472 69.333333,52 68.952381,51.809524 68.507928,51.873017 68.063492,51.936508 67.619048,52 Z"
       transform="matrix(-2.4845525,-2.1000534,2.1000534,-2.4845525,13.889807,550.18983)" />
    <path
       style="fill:none;stroke:#000000;stroke-width:1.51181;stroke-linecap:round;stroke-linejoin:round;stroke-dasharray:none;paint-order:markers fill stroke"
       d="m 66.045711,53.118094 c -2.840634,-1.325079 -5.681268,-2.650158 -8.085731,-3.439684 -2.404464,-0.789526 -4.372678,-1.04349 -6.182219,-0.948247 -1.80954,0.09524 -3.460301,0.539678 -5.523817,1.428581 -2.063517,0.888902 -4.539658,2.222208 -7.841286,4.539702 -3.301629,2.317493 -7.428531,5.619014 -10.920623,8.666661 -3.492092,3.047647 -6.349178,5.841242 -8.888882,8.317454 -2.539705,2.476212 -4.761883,4.634899 -6.349194,6.666664 -1.587311,2.031765 -2.5396732,3.936489 -3.2380904,5.333324 -0.6984173,1.396834 -1.1428527,2.285705 -1.2380883,2.634909 -0.095236,0.349205 0.1587278,0.158732 1.3968452,-0.603186 1.2381175,-0.761918 3.4602955,-2.095225 5.3968195,-3.015865 1.936525,-0.92064 3.587285,-1.428566 5.301589,-2.158734 1.714303,-0.730168 3.492045,-1.68253 4.920628,-2.698414 1.428582,-1.015884 2.507925,-2.095227 3.809527,-2.571416 1.301603,-0.476189 2.825382,-0.349208 4.666674,-0.666676 1.841291,-0.317468 3.999978,-1.079357 6.317463,-2.349216 2.317485,-1.26986 4.793626,-3.047602 6.380935,-4.825397 1.587309,-1.777796 2.285707,-3.555538 3.14286,-5.1746 0.857153,-1.619063 1.873006,-3.079351 2.730156,-3.841256 0.85715,-0.761905 1.555548,-0.825396 2.031741,-0.444436 0.476193,0.380961 0.730157,1.206341 0.888887,2.126986 0.158731,0.920645 0.222222,1.936498 0.285714,2.952371"
       id="path2"
       inkscape:path-effect="#path-effect2"
       inkscape:original-d="m 66.045711,53.118094 c -2.840634,-1.325079 -5.681268,-2.650158 -8.521901,-3.975237 -1.968294,-0.253973 -3.936508,-0.507936 -5.904762,-0.761905 -1.650827,0.444454 -3.301588,0.888889 -4.952381,1.333334 -2.47624,1.33336 -4.952381,2.666666 -7.428572,4 -4.127066,3.301653 -8.253968,6.603174 -12.380952,9.904762 -2.8572,2.793706 -5.714286,5.587301 -8.571429,8.380952 -2.222266,2.158773 -4.444444,4.31746 -6.666666,6.47619 -0.9524,1.9048 -1.9047623,3.809524 -2.8571432,5.714286 -0.4444534,0.888907 -0.8888889,1.777778 -1.3333334,2.666667 0.2539734,-0.19048 0.5079365,-0.380953 0.7619048,-0.571429 2.2222668,-1.33336 4.4444448,-2.666666 6.6666668,-4 1.650827,-0.507946 3.301587,-1.015873 4.952381,-1.523809 1.777813,-0.9524 3.555555,-1.904762 5.333333,-2.857143 1.079387,-1.079387 2.15873,-2.15873 3.238095,-3.238095 1.52384,0.126986 3.047619,0.253968 4.571429,0.380952 2.158773,-0.76192 4.31746,-1.523809 6.47619,-2.285714 2.47624,-1.777814 4.952381,-3.555556 7.428572,-5.333334 0.698427,-1.777813 1.396825,-3.555555 2.095238,-5.333333 1.015893,-1.460347 2.031746,-2.920635 3.047619,-4.380952 0.698427,-0.06349 1.396825,-0.126984 2.095238,-0.190476 0.253973,0.825413 0.507937,1.650793 0.761905,2.47619 0.06349,1.015893 0.126984,2.031746 0.190476,3.047619"
       sodipodi:nodetypes="ccccccccscccccccccccccc"
       transform="matrix(-2.4845525,-2.1000534,2.1000534,-2.4845525,13.889807,550.18983)" />
    <path
       style="fill:none;stroke:#000000;stroke-width:1.51181;stroke-linecap:round;stroke-linejoin:round;stroke-dasharray:none;paint-order:markers fill stroke"
       d="m 66.0452,53.216759 c -2.840463,-1.357967 -5.680927,-2.715935 -8.085306,-3.521905 -2.404378,-0.80597 -4.372592,-1.059934 -6.182133,-0.964691 -1.80954,0.09524 -3.460301,0.539678 -5.523817,1.428581 -2.063517,0.888902 -4.539658,2.222208 -7.841286,4.539702 -3.301629,2.317493 -7.428531,5.619014 -10.920623,8.666661 -3.492092,3.047647 -6.349178,5.841242 -8.888882,8.317454 -2.539705,2.476212 -4.761883,4.634899 -6.349194,6.666664 -1.587311,2.031765 -2.5396732,3.936489 -3.2380904,5.333324 -0.6984173,1.396834 -1.1428527,2.285705 -1.2380883,2.634909 -0.095236,0.349205 0.1587278,0.158732 1.3968452,-0.603186 1.2381175,-0.761918 3.4602955,-2.095225 5.3968195,-3.015865 1.936525,-0.92064 3.587285,-1.428566 5.301589,-2.158734 1.714303,-0.730168 3.492045,-1.68253 4.920628,-2.698414 1.428582,-1.015884 2.507925,-2.095227 3.809527,-2.571416 1.301603,-0.476189 2.825382,-0.349208 4.666674,-0.666676 1.841291,-0.317468 3.999978,-1.079357 6.317463,-2.349216 2.317485,-1.26986 4.793626,-3.047602 6.380935,-4.825397 1.587309,-1.777796 2.285707,-3.555538 3.14286,-5.1746 0.857153,-1.619063 1.873006,-3.079351 2.730156,-3.841256 0.85715,-0.761905 1.555548,-0.825396 2.031741,-0.444436 0.476193,0.380961 0.730157,1.206341 0.888887,2.126986 0.158731,0.920645 0.222222,1.936498 0.285714,2.952371"
       id="path3"
       inkscape:path-effect="#path-effect2-7"
       inkscape:original-d="m 66.0452,53.216759 c -2.840463,-1.357967 -5.680927,-2.715935 -8.52139,-4.073902 -1.968294,-0.253973 -3.936508,-0.507936 -5.904762,-0.761905 -1.650827,0.444454 -3.301588,0.888889 -4.952381,1.333334 -2.47624,1.33336 -4.952381,2.666666 -7.428572,4 -4.127066,3.301653 -8.253968,6.603174 -12.380952,9.904762 -2.8572,2.793706 -5.714286,5.587301 -8.571429,8.380952 -2.222266,2.158773 -4.444444,4.31746 -6.666666,6.47619 -0.9524,1.9048 -1.9047623,3.809524 -2.8571432,5.714286 -0.4444534,0.888907 -0.8888889,1.777778 -1.3333334,2.666667 0.2539734,-0.19048 0.5079365,-0.380953 0.7619048,-0.571429 2.2222668,-1.33336 4.4444448,-2.666666 6.6666668,-4 1.650827,-0.507946 3.301587,-1.015873 4.952381,-1.523809 1.777813,-0.9524 3.555555,-1.904762 5.333333,-2.857143 1.079387,-1.079387 2.15873,-2.15873 3.238095,-3.238095 1.52384,0.126986 3.047619,0.253968 4.571429,0.380952 2.158773,-0.76192 4.31746,-1.523809 6.47619,-2.285714 2.47624,-1.777814 4.952381,-3.555556 7.428572,-5.333334 0.698427,-1.777813 1.396825,-3.555555 2.095238,-5.333333 1.015893,-1.460347 2.031746,-2.920635 3.047619,-4.380952 0.698427,-0.06349 1.396825,-0.126984 2.095238,-0.190476 0.253973,0.825413 0.507937,1.650793 0.761905,2.47619 0.06349,1.015893 0.126984,2.031746 0.190476,3.047619"
       transform="matrix(1.8961576,2.6434469,2.6434469,-1.8961576,-377.02946,137.01312)"
       inkscape:transform-center-x="21.19926"
       inkscape:transform-center-y="-106.72349"
       sodipodi:nodetypes="ccccccccscccccccccccccc" />
    <path
       style="fill:none;stroke:#000000;stroke-width:1.51181;stroke-linecap:round;stroke-linejoin:round;stroke-dasharray:none;paint-order:markers fill stroke"
       d="m 56.190476,131.80952 c -0.126984,2.53969 -0.253968,5.07937 -0.920647,7.77781 -0.666678,2.69844 -1.873005,5.55553 -3.523818,8.53969 -1.650814,2.98415 -3.746011,6.0952 -5.015857,8.38093 -1.269845,2.28573 -1.714281,3.74602 -2.031743,5.26985 -0.317462,1.52382 -0.507935,3.11109 -0.285706,3.87299 0.222229,0.76191 0.857135,0.69841 2.00001,0.19047 1.142874,-0.50795 2.793634,-1.46031 4.507937,-2.69842 1.714304,-1.23811 3.492046,-2.76189 5.079362,-3.52379 1.587316,-0.76191 2.984113,-0.76191 4.063485,-0.8889 1.079373,-0.12698 1.841262,-0.38094 2.158721,-1.68256 0.31746,-1.30161 0.190479,-3.65076 0.19048,-5.55554 10e-7,-1.90478 0.126983,-3.36507 0.349209,-4.44444 0.222226,-1.07937 0.53968,-1.77777 0.857139,-2.47618"
       id="path4"
       inkscape:path-effect="#path-effect4"
       inkscape:original-d="m 56.190476,131.80952 c -0.126984,2.53969 -0.253968,5.07937 -0.380952,7.61905 -1.206374,2.8572 -2.412699,5.71429 -3.619048,8.57143 -2.09528,3.11117 -4.190476,6.22222 -6.285714,9.33333 -0.444453,1.46035 -0.888889,2.92064 -1.333333,4.38096 -0.19048,1.58733 -0.380953,3.1746 -0.571429,4.7619 0.634933,-0.0635 1.269841,-0.12698 1.904762,-0.19048 1.650827,-0.9524 3.301587,-1.90476 4.952381,-2.85714 1.777813,-1.52384 3.555555,-3.04762 5.333333,-4.57143 1.396854,0 2.793651,0 4.190476,0 0.76192,-0.25397 1.52381,-0.50793 2.285715,-0.7619 -0.126987,-2.34926 -0.253969,-4.69841 -0.380953,-7.04762 0.126987,-1.46035 0.253969,-2.92064 0.380953,-4.38095 0.317466,-0.69843 0.63492,-1.39683 0.952381,-2.09524"
       transform="matrix(-2.4845525,-2.1000534,2.1000534,-2.4845525,14.664088,550.37773)" />
    <path
       style="fill:none;stroke:#000000;stroke-width:1.51181;stroke-linecap:round;stroke-linejoin:round;stroke-dasharray:none;paint-order:markers fill stroke"
       d="m 56.519063,131.59046 c -0.236514,2.61271 -0.473026,5.22541 -1.194469,7.96036 -0.721443,2.73495 -1.92777,5.59204 -3.578583,8.5762 -1.650814,2.98415 -3.746011,6.0952 -5.015857,8.38093 -1.269845,2.28573 -1.714281,3.74602 -2.031743,5.26985 -0.317462,1.52382 -0.507935,3.11109 -0.285706,3.87299 0.222229,0.76191 0.857135,0.69841 2.00001,0.19047 1.142874,-0.50795 2.793634,-1.46031 4.507937,-2.69842 1.714304,-1.23811 3.492046,-2.76189 5.079362,-3.52379 1.587316,-0.76191 2.984113,-0.76191 4.063485,-0.8889 1.079373,-0.12698 1.841262,-0.38094 2.158721,-1.68256 0.31746,-1.30161 0.190479,-3.65076 0.19048,-5.55554 10e-7,-1.90478 0.126983,-3.36507 0.513507,-4.6635 0.386524,-1.29844 1.032555,-2.43494 1.678602,-3.57147"
       id="path5"
       inkscape:path-effect="#path-effect4-9"
       inkscape:original-d="m 56.519063,131.59046 c -0.236514,2.61271 -0.473026,5.22541 -0.709539,7.83811 -1.206374,2.8572 -2.412699,5.71429 -3.619048,8.57143 -2.09528,3.11117 -4.190476,6.22222 -6.285714,9.33333 -0.444453,1.46035 -0.888889,2.92064 -1.333333,4.38096 -0.19048,1.58733 -0.380953,3.1746 -0.571429,4.7619 0.634933,-0.0635 1.269841,-0.12698 1.904762,-0.19048 1.650827,-0.9524 3.301587,-1.90476 4.952381,-2.85714 1.777813,-1.52384 3.555555,-3.04762 5.333333,-4.57143 1.396854,0 2.793651,0 4.190476,0 0.76192,-0.25397 1.52381,-0.50793 2.285715,-0.7619 -0.126987,-2.34926 -0.253969,-4.69841 -0.380953,-7.04762 0.126987,-1.46035 0.253969,-2.92064 0.380953,-4.38095 0.646062,-1.13656 1.292097,-2.27306 1.938142,-3.40959"
       transform="matrix(2.4845524,2.1000536,2.1000536,-2.4845524,-364.58379,230.06416)"
       sodipodi:nodetypes="cccccccccccccc" />
    <path
       style="fill:none;stroke:#000000;stroke-width:1.51181;stroke-linecap:round;stroke-linejoin:round;stroke-dasharray:none;paint-order:markers fill stroke"
       d="m 68.733129,51.829001 c 1.112324,-1.212077 2.224646,-2.424153 2.96336,-3.760399 0.738714,-1.336247 1.103803,-2.796605 1.085544,-3.891903 -0.01826,-1.095297 -0.419857,-1.825476 -0.638915,-2.500911 -0.219058,-0.675435 -0.255567,-1.296087 -0.146036,-2.55569 0.109532,-1.259603 0.365094,-3.158068 0.784961,-5.05659 0.419867,-1.898522 1.00401,-3.796987 1.752468,-5.330405 0.748457,-1.533418 1.661181,-2.701705 2.35487,-3.504922 0.693688,-0.803217 1.168304,-1.241324 1.715955,-1.405617 0.547652,-0.164293 1.168304,-0.05477 2.044547,0.675441 0.876244,0.730207 2.008021,2.081038 2.969426,3.535368 0.961404,1.454331 1.752366,3.01204 2.409553,4.655008 0.657187,1.642968 1.180532,3.371033 1.624761,4.691463 0.44423,1.32043 0.809319,2.233153 0.900592,3.018118 0.09127,0.784965 -0.09127,1.442126 -0.03651,2.336624 0.05477,0.894498 0.346839,2.026276 1.077044,3.468425 0.730205,1.44215 1.898491,3.194579 2.760103,4.322719 0.861612,1.128139 1.416503,1.631932 1.971406,2.135736"
       id="path6"
       inkscape:path-effect="#path-effect6"
       inkscape:original-d="m 68.733129,51.829001 c 1.112324,-1.212077 2.224646,-2.424153 3.33697,-3.63623 0.365104,-1.460416 0.730193,-2.920774 1.09529,-4.381161 -0.401615,-0.730208 -0.803213,-1.460387 -1.204819,-2.19058 -0.03651,-0.620677 -0.07302,-1.241329 -0.109529,-1.861994 0.255572,-1.898541 0.511135,-3.797006 0.766703,-5.695509 0.584166,-1.898541 1.168309,-3.797006 1.752464,-5.695509 0.91276,-1.168333 1.825484,-2.33662 2.738226,-3.504929 0.474635,-0.438125 0.949251,-0.876232 1.423877,-1.314349 0.620677,0.109532 1.241329,0.219058 1.861993,0.328587 1.131823,1.350885 2.2636,2.701716 3.3954,4.052574 0.791009,1.557803 1.581971,3.115512 2.37298,4.673314 0.523365,1.728134 1.04671,3.456199 1.570065,5.184299 0.365104,0.91276 0.730194,1.825483 1.09529,2.738225 -0.182552,0.657188 -0.365096,1.314349 -0.547645,1.971523 0.292084,1.131822 0.584155,2.2636 0.876233,3.3954 1.168332,1.752499 2.336619,3.504928 3.504928,5.257393 0.554914,0.503814 1.109805,1.007607 1.664708,1.511411"
       sodipodi:nodetypes="cccccccccccccccccc"
       transform="matrix(-2.4845525,-2.1000534,2.1000534,-2.4845525,13.889807,550.18983)" />
    <path
       style="fill:none;stroke:#000000;stroke-width:1.51181;stroke-linecap:round;stroke-linejoin:round;stroke-dasharray:none;paint-order:markers fill stroke"
       d="m 72.727273,42.606791 c 1.387367,0.766703 2.774735,1.533406 4.655007,1.898502 1.880272,0.365097 4.253353,0.328588 6.166497,-0.187446 1.913144,-0.516033 3.366245,-1.51155 4.819374,-2.507086"
       id="path7"
       inkscape:path-effect="#path-effect7"
       inkscape:original-d="m 72.727273,42.606791 c 1.387367,0.766703 2.774735,1.533406 4.162103,2.300109 2.373176,-0.03651 4.746257,-0.07302 7.119386,-0.109529 1.453159,-0.995557 2.90626,-1.991074 4.359389,-2.98661"
       sodipodi:nodetypes="cccc"
       transform="matrix(-2.4845525,-2.1000534,2.1000534,-2.4845525,13.889807,550.18983)" />
    <path
       style="fill:none;stroke:#000000;stroke-width:1.51181;stroke-linecap:round;stroke-linejoin:round;stroke-dasharray:none;paint-order:markers fill stroke"
       d="m 72.398686,48.3023 c 2.231978,0.610889 4.463911,1.221765 6.745848,1.607531 2.281938,0.385766 4.61365,0.546388 6.381961,0.423489 1.768312,-0.122898 2.973032,-0.52931 3.703191,-0.842051 0.730158,-0.312741 0.985721,-0.531795 1.241289,-0.750853"
       id="path8"
       inkscape:path-effect="#path-effect8"
       inkscape:original-d="m 72.398686,48.3023 c 2.231978,0.610889 4.463911,1.221765 6.695934,1.832666 2.331852,0.160631 4.663564,0.321253 6.995418,0.481884 1.204769,-0.406428 2.409489,-0.81284 3.614234,-1.21926 0.255572,-0.219062 0.511135,-0.438116 0.766703,-0.657174"
       sodipodi:nodetypes="ccccc"
       transform="matrix(-2.4845525,-2.1000534,2.1000534,-2.4845525,13.889807,550.18983)" />
    <path
       style="fill:none;stroke:#000000;stroke-width:1.51181;stroke-linecap:round;stroke-linejoin:round;stroke-dasharray:none;paint-order:markers fill stroke"
       d="m 70.536692,50.711939 c 2.886708,0.827503 5.773359,1.654989 8.493384,2.056603 2.720025,0.401615 5.273207,0.377325 7.480839,7.6e-5 2.207633,-0.377249 4.069589,-1.107428 5.931582,-1.837621"
       id="path9"
       inkscape:path-effect="#path-effect9"
       inkscape:original-d="m 70.536692,50.711939 c 2.886708,0.827503 5.773359,1.654989 8.660125,2.482508 2.553284,-0.02429 5.106466,-0.04858 7.6597,-0.07287 1.862031,-0.730208 3.723987,-1.460387 5.58598,-2.19058"
       sodipodi:nodetypes="cccc"
       transform="matrix(-2.4845525,-2.1000534,2.1000534,-2.4845525,13.889807,550.18983)" />
    <path
       style="fill:none;stroke:#000000;stroke-width:1.51181;stroke-linecap:round;stroke-linejoin:round;stroke-dasharray:none;paint-order:markers fill stroke"
       d="m 72.82947,45.425218 c 1.927756,0.705829 3.855472,1.411644 5.835551,1.793781 1.980079,0.382138 4.01232,0.440566 5.769669,0.110787 1.75735,-0.329778 3.239628,-1.047738 4.721937,-1.765712"
       id="path10"
       inkscape:path-effect="#path-effect10"
       inkscape:original-d="m 72.82947,45.425218 c 1.927756,0.705829 3.855472,1.411644 5.783267,2.117487 2.032363,0.05843 4.064604,0.11686 6.096966,0.175291 1.482337,-0.717988 2.964615,-1.435948 4.446924,-2.153922"
       sodipodi:nodetypes="cccc"
       transform="matrix(-2.4845525,-2.1000534,2.1000534,-2.4845525,13.889807,550.18983)" />
    <path
       style="fill:none;stroke:#000000;stroke-width:1.51181;stroke-linecap:round;stroke-linejoin:round;stroke-dasharray:none;paint-order:markers fill stroke"
       d="m 72.764435,36.688809 c 0.562084,-0.08516 1.12417,-0.170329 1.541478,-0.528025 0.417308,-0.357697 0.689829,-0.9879 0.860158,-1.669222 0.17033,-0.681323 0.23846,-1.413722 -6e-6,-2.035427 -0.238466,-0.621705 -0.783507,-1.132681 -1.328559,-1.643667"
       id="path11"
       inkscape:path-effect="#path-effect11"
       inkscape:original-d="m 72.764435,36.688809 c 0.562085,-0.08516 1.12417,-0.170328 1.686255,-0.255493 0.272531,-0.630229 0.545052,-1.260432 0.817578,-1.890649 0.06813,-0.732428 0.136263,-1.464827 0.204394,-2.19724 -0.545063,-0.510997 -1.090104,-1.021973 -1.635156,-1.532959"
       transform="matrix(-2.4845525,-2.1000534,2.1000534,-2.4845525,13.889807,550.18983)" />
    <path
       style="fill:none;stroke:#000000;stroke-width:1.51181;stroke-linecap:round;stroke-linejoin:round;stroke-dasharray:none;paint-order:markers fill stroke"
       d="m 72.764435,36.688809 c 0.562084,-0.08516 1.12417,-0.170329 1.541478,-0.528025 0.417308,-0.357697 0.689829,-0.9879 0.860158,-1.669222 0.17033,-0.681323 0.23846,-1.413722 -6e-6,-2.035427 -0.238466,-0.621705 -0.783507,-1.132681 -1.328559,-1.643667"
       id="path12"
       inkscape:path-effect="#path-effect11-3"
       inkscape:original-d="m 72.764435,36.688809 c 0.562085,-0.08516 1.12417,-0.170328 1.686255,-0.255493 0.272531,-0.630229 0.545052,-1.260432 0.817578,-1.890649 0.06813,-0.732428 0.136263,-1.464827 0.204394,-2.19724 -0.545063,-0.510997 -1.090104,-1.021973 -1.635156,-1.532959"
       transform="matrix(2.8176126,1.6261256,1.6261256,-2.8176126,-389.39262,262.72096)"
       inkscape:transform-center-x="-6.6943895"
       inkscape:transform-center-y="-9.1385093" />
    <path
       style="fill:none;stroke:#000000;stroke-width:1.51181;stroke-linecap:round;stroke-linejoin:round;stroke-dasharray:none;paint-order:markers fill stroke"
       d="m 84.081042,55.716353 c -0.29691,14.115548 -0.593814,28.230813 -1.486258,43.378245 -0.892445,15.147432 -2.380358,31.325822 -3.348004,41.355632 -0.967646,10.02982 -1.414978,13.91059 -1.862318,17.79143"
       id="path13"
       inkscape:path-effect="#path-effect13"
       inkscape:original-d="m 84.081042,55.716353 c -0.29691,14.115548 -0.593814,28.230813 -0.89073,42.346645 -1.487973,16.179032 -2.975886,32.357422 -4.463829,48.536132 -0.447349,3.88092 -0.894681,7.76169 -1.342021,11.64253"
       sodipodi:nodetypes="cccc"
       transform="matrix(-2.4845525,-2.1000534,2.1000534,-2.4845525,13.889807,550.18983)" />
    <path
       style="fill:none;stroke:#000000;stroke-width:1.51181;stroke-linecap:round;stroke-linejoin:round;stroke-dasharray:none;paint-order:markers fill stroke"
       d="m 98.331742,65.917689 c 0.653509,12.029091 1.307006,24.057947 0.282569,35.720231 -1.024438,11.66228 -3.72673,22.95708 -6.429072,34.25209"
       id="path14"
       inkscape:path-effect="#path-effect14"
       inkscape:original-d="m 98.331742,65.917689 c 0.65351,12.029091 1.307009,24.057947 1.960528,36.087271 -2.702394,11.29524 -5.404688,22.59004 -8.107031,33.88505"
       sodipodi:nodetypes="ccc"
       transform="matrix(-2.4845525,-2.1000534,2.1000534,-2.4845525,-1.311311,552.78632)" />
    <path
       style="fill:none;stroke:#000000;stroke-width:1.51181;stroke-linecap:round;stroke-linejoin:round;stroke-dasharray:none;paint-order:markers fill stroke"
       d="m 57.018813,61.649783 c -1.849018,11.160762 -3.698036,22.321523 -4.083951,33.49078 -0.385914,11.169257 0.691277,22.347017 1.768467,33.524767"
       id="path15"
       inkscape:path-effect="#path-effect15"
       inkscape:original-d="m 57.018813,61.649783 c -1.849018,11.160762 -3.698036,22.321523 -5.547055,33.482287 1.07719,11.17775 2.154381,22.35551 3.231571,33.53326"
       sodipodi:nodetypes="ccc"
       transform="matrix(-2.4845525,-2.1000534,2.1000534,-2.4845525,13.889807,550.18983)" />
    <path
       style="fill:none;stroke:#000000;stroke-width:1.51181;stroke-linecap:round;stroke-linejoin:round;stroke-dasharray:none;paint-order:markers fill stroke"
       d="m 70.945098,53.211692 c -2.085966,10.373004 -4.17189,20.745803 -5.359615,32.227759 -1.187724,11.481957 -1.477149,24.071909 -1.145824,34.882769 0.331325,10.81085 1.28338,19.84153 2.235453,28.87238"
       id="path16"
       inkscape:path-effect="#path-effect12"
       inkscape:original-d="m 70.945098,53.211692 c -2.085966,10.373004 -4.17189,20.745803 -6.257898,31.119016 -0.289442,12.5907 -0.578866,25.180652 -0.868307,37.771342 0.952091,9.03102 1.904147,18.0617 2.856219,27.09255"
       sodipodi:nodetypes="cccc"
       transform="matrix(-2.4845525,-2.1000534,2.1000534,-2.4845525,13.889807,550.18983)" />
    <path
       style="fill:none;stroke:#000000;stroke-width:1.51181;stroke-linecap:round;stroke-linejoin:round;stroke-dasharray:none;paint-order:markers fill stroke"
       d="m 84.081042,55.716353 c -1.365476,14.115548 -2.730925,28.230813 -3.62337,43.378245 -0.892444,15.147432 -1.311812,31.325822 -1.721911,41.532932 -0.410098,10.20712 -0.810901,14.44246 -1.211713,18.67789"
       id="path17"
       inkscape:path-effect="#path-effect13-1"
       inkscape:original-d="m 84.081042,55.716353 c -1.365476,14.115548 -2.730925,28.230813 -4.096429,42.346645 -0.419385,16.179032 -0.838753,32.357422 -1.25813,48.536132 -0.40082,4.23552 -0.801623,8.47086 -1.202435,12.70629"
       transform="matrix(-2.4845525,-2.1000534,2.1000534,-2.4845525,31.320486,565.95043)"
       sodipodi:nodetypes="cccc" />
    <path
       style="fill:none;stroke:#000000;stroke-width:1.51181;stroke-linecap:round;stroke-linejoin:round;stroke-dasharray:none;paint-order:markers fill stroke"
       d="m 70.767004,53.835022 c -2.026601,10.165228 -4.053162,20.330254 -5.211204,31.70832 -1.158041,11.378066 -1.447466,23.968018 -1.158044,34.473818 0.289422,10.50579 1.157674,18.92638 2.025941,27.34711"
       id="path18"
       inkscape:path-effect="#path-effect12-2"
       inkscape:original-d="M 70.767004,53.835022 C 68.740403,64.00025 66.713842,74.165276 64.6872,84.330708 c -0.289442,12.5907 -0.578866,25.180652 -0.868307,37.771342 0.868285,8.4209 1.736536,16.84149 2.604804,25.26222"
       sodipodi:nodetypes="cccc"
       transform="matrix(2.2324004,2.3663503,2.3663503,-2.2324004,-377.84267,177.92947)"
       inkscape:transform-center-x="-107.98654"
       inkscape:transform-center-y="-112.61896" />
  </g>
</svg>
