<?xml version="1.0" encoding="UTF-8" standalone="no"?>
<svg
   width="600pt"
   height="600pt"
   viewBox="0 0 600 600"
   version="1.1"
   id="svg24"
   xmlns="http://www.w3.org/2000/svg"
   xmlns:svg="http://www.w3.org/2000/svg">
  <defs
     id="defs24" />
  <path
     fill-rule="nonzero"
     fill="rgb(19.607544%, 18.823242%, 19.999695%)"
     fill-opacity="1"
     d="M 0 600 L 599.074219 600 L 599.074219 0 L 0 0 Z M 0 600 "
     id="path1" />
  <path
     fill-rule="evenodd"
     fill="rgb(78.039551%, 45.489502%, 29.019165%)"
     fill-opacity="1"
     d="M 472.917969 600.074219 L 313.664062 600.074219 C 326.730469 580.683594 324.210938 557.050781 313.261719 535.007812 L 445.511719 383.546875 C 413.628906 508.84375 442.902344 572.96875 472.917969 600.074219 "
     id="path2" />
  <path
     fill-rule="evenodd"
     fill="rgb(84.706116%, 50.588989%, 32.940674%)"
     fill-opacity="1"
     d="M 472.917969 600.074219 L 313.664062 600.074219 C 317.015625 595.105469 319.339844 589.851562 320.757812 584.421875 C 342.113281 560.808594 369.832031 543.429688 400.132812 537.054688 C 413.15625 534.316406 425.703125 533.824219 437.476562 535.300781 C 445.011719 566.632812 458.882812 587.402344 472.917969 600.074219 "
     id="path3" />
  <path
     fill-rule="evenodd"
     fill="rgb(94.902039%, 61.961365%, 45.097351%)"
     fill-opacity="1"
     d="M 131.855469 88.921875 C 115.175781 135.621094 105.535156 169.878906 123.402344 219.910156 C 110.683594 264.429688 103.191406 296.203125 116.644531 343.292969 C 135.464844 409.167969 170.230469 469.386719 217.867188 518.621094 C 269.257812 571.734375 288.128906 552.667969 342.28125 514.84375 C 426.183594 456.246094 479.761719 363.445312 488.5625 261.484375 L 461.441406 234.277344 C 434.359375 207.105469 414.851562 173.320312 404.863281 136.28125 L 371.859375 133.710938 C 312.464844 129.085938 258.347656 97.839844 224.644531 48.714844 C 199.351562 80.261719 170.019531 90.191406 131.855469 88.921875 "
     id="path4" />
  <path
     fill-rule="evenodd"
     fill="rgb(98.039246%, 69.412231%, 55.2948%)"
     fill-opacity="1"
     d="M 284.445312 256.28125 C 307.390625 162.671875 346 134.386719 416.28125 238.199219 C 372.332031 244.226562 328.390625 250.253906 284.445312 256.28125 "
     id="path5" />
  <path
     fill-rule="evenodd"
     fill="rgb(19.607544%, 18.823242%, 19.999695%)"
     fill-opacity="1"
     d="M 297.558594 248.851562 C 350.359375 202.257812 395.199219 205.601562 427.898438 228.488281 C 381.636719 309.285156 339.3125 313.550781 297.558594 248.851562 "
     id="path6" />
  <path
     fill-rule="evenodd"
     fill="rgb(100%, 100%, 100%)"
     fill-opacity="1"
     d="M 284.445312 256.28125 C 338.550781 224.125 383.578125 215.316406 416.28125 238.199219 C 370.019531 319 326.199219 320.980469 284.445312 256.28125 "
     id="path7" />
  <path
     fill-rule="evenodd"
     fill="rgb(17.64679%, 63.922119%, 79.216003%)"
     fill-opacity="1"
     d="M 320.347656 237.582031 C 339.070312 230.25 356.082031 225.890625 371.1875 224.835938 C 377.101562 232.816406 379.839844 243.898438 377.777344 255.125 C 374.296875 274.09375 358.445312 286.304688 342.371094 282.398438 C 326.296875 278.496094 316.085938 259.957031 319.570312 240.992188 C 319.78125 239.828125 320.042969 238.691406 320.347656 237.582031 "
     id="path8" />
  <path
     fill-rule="evenodd"
     fill="rgb(19.607544%, 18.823242%, 19.999695%)"
     fill-opacity="1"
     d="M 351.289062 233.820312 C 357.953125 235.4375 362.183594 243.125 360.742188 250.988281 C 359.300781 258.851562 352.722656 263.917969 346.058594 262.296875 C 339.394531 260.679688 335.164062 252.992188 336.605469 245.128906 C 338.050781 237.261719 344.621094 232.199219 351.289062 233.820312 "
     id="path9" />
  <path
     fill-rule="evenodd"
     fill="rgb(100%, 100%, 100%)"
     fill-opacity="1"
     d="M 359.324219 231.929688 C 364.320312 233.144531 367.496094 238.910156 366.414062 244.804688 C 365.332031 250.703125 360.402344 254.5 355.402344 253.285156 C 350.40625 252.070312 347.230469 246.308594 348.316406 240.410156 C 349.398438 234.515625 354.328125 230.71875 359.324219 231.929688 "
     id="path10" />
  <path
     fill-rule="evenodd"
     fill="rgb(19.607544%, 18.823242%, 19.999695%)"
     fill-opacity="1"
     d="M 299.871094 180.722656 L 308.691406 170.433594 C 329.175781 146.542969 360.800781 135.199219 395.609375 139.253906 C 418.96875 141.976562 440.199219 134.359375 453.945312 118.324219 L 439.992188 124.925781 C 429.34375 129.960938 416.46875 130.597656 403.5625 126.722656 C 363.585938 114.71875 323.710938 116.6875 290.71875 132.289062 C 273.246094 140.550781 276.703125 169.621094 299.871094 180.722656 "
     id="path11" />
  <path
     fill-rule="evenodd"
     fill="rgb(98.039246%, 69.412231%, 55.2948%)"
     fill-opacity="1"
     d="M 215.875 258.738281 C 198.691406 161.210938 169.78125 126.332031 117.148438 218.148438 C 150.058594 231.675781 182.964844 245.207031 215.875 258.738281 "
     id="path12" />
  <path
     fill-rule="evenodd"
     fill="rgb(19.607544%, 18.823242%, 19.999695%)"
     fill-opacity="1"
     d="M 206.054688 249.070312 C 166.515625 193.460938 132.933594 189.148438 108.445312 206.449219 C 143.089844 295.148438 174.789062 306.640625 206.054688 249.070312 "
     id="path13" />
  <path
     fill-rule="evenodd"
     fill="rgb(100%, 100%, 100%)"
     fill-opacity="1"
     d="M 215.875 258.738281 C 184.949219 227.144531 157.980469 210.050781 136.058594 211.425781 C 130.96875 211.746094 126.734375 214.292969 124.070312 218.640625 C 121.402344 222.984375 121.054688 227.917969 123.078125 232.597656 C 155.542969 307.710938 186.398438 313.011719 215.875 258.738281 "
     id="path14" />
  <path
     fill-rule="evenodd"
     fill="rgb(17.64679%, 63.922119%, 79.216003%)"
     fill-opacity="1"
     d="M 191.398438 236.144531 C 178.417969 225.574219 166.3125 218.195312 155.175781 214.371094 C 149.667969 221.007812 146.105469 231.234375 146.105469 242.496094 C 146.105469 261.511719 156.269531 276.28125 168.808594 275.480469 C 181.347656 274.679688 191.511719 258.609375 191.511719 239.589844 C 191.511719 238.425781 191.472656 237.273438 191.398438 236.144531 "
     id="path15" />
  <path
     fill-rule="evenodd"
     fill="rgb(19.607544%, 18.823242%, 19.999695%)"
     fill-opacity="1"
     d="M 164.046875 225.863281 C 158.847656 226.199219 154.632812 232.859375 154.632812 240.75 C 154.632812 248.632812 158.847656 254.757812 164.046875 254.425781 C 169.246094 254.09375 173.460938 247.429688 173.460938 239.542969 C 173.460938 231.65625 169.246094 225.535156 164.046875 225.863281 "
     id="path16" />
  <path
     fill-rule="evenodd"
     fill="rgb(100%, 100%, 100%)"
     fill-opacity="1"
     d="M 173.289062 231.582031 C 169.386719 231.832031 166.230469 236.828125 166.230469 242.738281 C 166.230469 248.65625 169.386719 253.246094 173.289062 252.996094 C 177.1875 252.746094 180.34375 247.753906 180.34375 241.835938 C 180.34375 235.925781 177.1875 231.335938 173.289062 231.582031 "
     id="path17" />
  <path
     fill-rule="evenodd"
     fill="rgb(19.607544%, 18.823242%, 19.999695%)"
     fill-opacity="1"
     d="M 196.238281 192.128906 L 189.632812 181.4375 C 174.292969 156.628906 150.605469 143.855469 124.542969 146.339844 C 107.046875 148.007812 91.148438 139.433594 80.855469 122.777344 L 91.300781 130.007812 C 99.28125 135.523438 108.917969 136.742188 118.585938 133.449219 C 148.523438 123.25 178.386719 127.015625 203.09375 144.105469 C 216.175781 153.15625 213.589844 182.074219 196.238281 192.128906 "
     id="path18" />
  <path
     fill-rule="evenodd"
     fill="rgb(87.059021%, 49.803162%, 31.37207%)"
     fill-opacity="1"
     d="M 248.964844 394.320312 C 262.398438 397.117188 272.941406 398.789062 284.445312 388.515625 C 281.910156 397.472656 269.660156 409.882812 255.054688 404.035156 L 246.699219 408.246094 C 237.808594 412.71875 227.265625 412.417969 218.644531 407.441406 C 210.027344 402.464844 204.492188 393.484375 203.921875 383.546875 C 211.089844 397.472656 234.609375 410.367188 248.964844 394.320312 "
     id="path19" />
  <path
     fill-rule="evenodd"
     fill="rgb(100%, 100%, 100%)"
     fill-opacity="1"
     d="M 214.3125 475.558594 L 277.90625 475.558594 L 277.90625 458.65625 L 214.3125 458.65625 Z M 214.3125 475.558594 "
     id="path20" />
  <path
     fill-rule="evenodd"
     fill="rgb(76.470947%, 27.842712%, 15.293884%)"
     fill-opacity="1"
     d="M 288.621094 470.21875 C 290.167969 470.933594 291.714844 471.648438 293.265625 472.359375 C 294.625 472.988281 295.648438 474.207031 296.019531 475.648438 C 296.394531 477.089844 296.078125 478.59375 295.164062 479.699219 C 284.746094 492.34375 268.867188 499.214844 252.066406 498.347656 C 235.261719 497.480469 219.382812 488.964844 208.964844 475.246094 C 207.28125 473.023438 207.066406 470.0625 208.425781 467.777344 C 209.785156 465.492188 212.449219 464.339844 215.140625 464.871094 C 237.539062 472.65625 261.992188 474.550781 288.621094 470.21875 "
     id="path21" />
  <path
     fill-rule="evenodd"
     fill="rgb(83.529663%, 33.332825%, 15.293884%)"
     fill-opacity="1"
     d="M 290.605469 451.265625 C 280.925781 450.914062 271.074219 445.898438 264.554688 437 C 260.933594 432.058594 255.1875 429.152344 249.453125 429.371094 C 243.722656 429.59375 238.871094 432.90625 236.71875 438.074219 L 232.515625 433.664062 C 229.367188 430.363281 225.046875 428.535156 220.785156 428.699219 C 216.523438 428.863281 212.78125 431 210.621094 434.507812 C 207.8125 439.054688 203.929688 442.703125 199.320312 445.210938 C 196.984375 446.480469 195.605469 448.664062 195.4375 451.371094 C 195.265625 454.078125 196.347656 456.542969 198.488281 458.328125 C 203.578125 462.5625 209.964844 464.898438 216.347656 464.65625 C 219.039062 464.550781 221.601562 463.992188 223.949219 463.035156 C 233.074219 459.328125 242.917969 460.253906 252.1875 465.6875 C 259.679688 470.085938 268.148438 472.34375 276.546875 472.019531 C 283.160156 471.765625 289.664062 470.117188 295.136719 467.027344 C 298.398438 465.1875 299.863281 461.460938 298.792969 457.726562 C 297.71875 453.992188 294.4375 451.402344 290.605469 451.265625 "
     id="path22" />
  <path
     fill-rule="evenodd"
     fill="rgb(19.607544%, 18.823242%, 19.999695%)"
     fill-opacity="1"
     d="M 422.945312 182.121094 L 427.898438 202.394531 C 447.640625 283.183594 429.695312 371.78125 382.054688 428.6875 L 416.28125 420.742188 C 475.703125 406.949219 522.226562 345.40625 532.660156 266.8125 Z M 422.945312 182.121094 "
     id="path23" />
  <path
     fill-rule="evenodd"
     fill="rgb(19.607544%, 18.823242%, 19.999695%)"
     fill-opacity="1"
     d="M 230.070312 56.238281 L 215.875 72.660156 C 157.933594 139.714844 133.851562 229.59375 150.503906 316.632812 L 135.511719 284.492188 C 102.058594 212.804688 102.058594 129.984375 135.511719 58.292969 L 215.875 22.800781 Z M 230.070312 56.238281 "
     id="path24" />
</svg>
